<?xml version="1.0" encoding="UTF-8"?>
<svg version="1.1" xmlns="http://www.w3.org/2000/svg" width="512" height="512">
<path d="M0 0 C0.55945313 0.49918945 1.11890625 0.99837891 1.6953125 1.51269531 C9.31349853 8.32379773 16.48789184 15.19506924 22.546875 23.4609375 C27.75371725 30.49437361 31.42827741 35.3539465 40 38 C42.76993867 39.03449331 45.51102971 40.13639908 48.25 41.25 C49.35758667 41.6996814 49.35758667 41.6996814 50.48754883 42.15844727 C62.13143799 47.00719603 72.11026006 54.26150258 82 62 C82.60585938 62.46148437 83.21171875 62.92296875 83.8359375 63.3984375 C88.1186924 66.77478925 91.51528644 70.83967871 95 75 C95.71414063 75.82628906 96.42828125 76.65257812 97.1640625 77.50390625 C116.52141742 100.35356747 126.45568138 128.87696793 126.3125 158.75 C126.30758545 159.97428711 126.3026709 161.19857422 126.29760742 162.45996094 C126.17527679 171.95783672 125.34199989 180.8026725 123 190 C122.83902832 190.64227539 122.67805664 191.28455078 122.51220703 191.94628906 C117.00702328 213.2583837 106.34667041 231.78054357 91.1875 247.63671875 C88.98687074 249.793446 88.98687074 249.793446 88 252 C89.19353041 254.79111645 89.19353041 254.79111645 90.98046875 257.984375 C91.3043457 258.58754547 91.62822266 259.19071594 91.96191406 259.81216431 C93.02947609 261.7956705 94.1083584 263.77277347 95.1875 265.75 C95.93010896 267.12415223 96.67204785 268.49866677 97.41333008 269.87353516 C99.26237402 273.2980936 101.12074752 276.71746994 102.98339844 280.13464355 C104.41858276 282.76805514 105.84954772 285.40375661 107.28125 288.0390625 C109.20852309 291.58088855 111.14142019 295.11957333 113.078125 298.65625 C116.21496955 304.38661554 119.32779426 310.12987191 122.4375 315.875 C122.97713379 316.87176758 123.51676758 317.86853516 124.07275391 318.89550781 C126.26409825 322.94377973 128.45478646 326.99240655 130.64550781 331.04101562 C132.28421511 334.06916755 133.92326422 337.09713412 135.5625 340.125 C136.35974487 341.59791504 136.35974487 341.59791504 137.1730957 343.10058594 C139.89954284 348.1344098 142.63331442 353.16408972 145.37890625 358.1875 C145.92409912 359.18507324 146.46929199 360.18264648 147.03100586 361.21044922 C148.06335248 363.09805129 149.09665702 364.98512992 150.13110352 366.87158203 C151.03826079 368.52985358 151.94110954 370.19049305 152.83862305 371.85400391 C153.81147118 373.65163584 154.8073239 375.43679243 155.80859375 377.21875 C158.22928885 382.86968413 157.89943554 389.50973756 156.37890625 395.41015625 C152.59312373 404.14269459 142.8206638 408.44957327 134.875 412.75 C133.57369141 413.47123047 133.57369141 413.47123047 132.24609375 414.20703125 C124.67850663 418.34213593 117.6849159 421.60840082 108.921875 419.5 C99.14705017 416.21685273 95.40633387 409.87404702 90.875 401.0625 C89.7270764 398.88644758 88.57862776 396.71067206 87.4296875 394.53515625 C86.85573242 393.4383252 86.28177734 392.34149414 85.69042969 391.21142578 C83.1811597 386.44439266 80.591762 381.72252673 78 377 C73.26369621 368.3318917 68.55644113 359.64824513 63.85546875 350.9609375 C59.76552112 343.40575977 55.65573015 335.86159947 51.53710938 328.32202148 C47.12289593 320.23684874 42.73769974 312.13606527 38.36328125 304.02929688 C36.16677947 299.96549195 33.96592125 295.91624003 31.625 291.93359375 C30 289 30 289 30 287 C29.34 287 28.68 287 28 287 C27.60941406 287.85078125 27.60941406 287.85078125 27.2109375 288.71875 C18.22476883 305.64753227 -0.3944858 321.2517021 -16 332 C-16.57492187 332.40331543 -17.14984375 332.80663086 -17.7421875 333.22216797 C-63.96530872 365.57091348 -120.56627637 379.44785018 -176.5 370.25 C-198.86625906 366.27114103 -220.10288167 359.62387861 -240.19482422 348.95117188 C-241.87934349 348.06357557 -243.58171115 347.2100848 -245.28515625 346.359375 C-294.15428439 321.41008034 -329.18403802 274.67125701 -346.24682617 223.37841797 C-351.60448892 206.38047345 -355.0965531 188.22634297 -355.203125 170.36328125 C-355.21013931 169.56966187 -355.21715363 168.77604248 -355.22438049 167.95837402 C-355.24178673 165.4096909 -355.24823331 162.86124039 -355.25 160.3125 C-355.25067474 159.44039886 -355.25134949 158.56829773 -355.25204468 157.66976929 C-355.23555169 144.24802275 -354.76856965 131.17881993 -352 118 C-351.73461426 116.7330127 -351.73461426 116.7330127 -351.46386719 115.44042969 C-342.34573841 73.44034429 -321.34414345 38.01006328 -292 7 C-291.04287109 5.9790625 -291.04287109 5.9790625 -290.06640625 4.9375 C-275.61855678 -10.03005628 -257.37072048 -21.51596212 -239 -31 C-238.3203418 -31.35545898 -237.64068359 -31.71091797 -236.94042969 -32.07714844 C-160.66128413 -71.5318789 -63.25471869 -57.09612485 0 0 Z M-268 14 C-269.2065625 15.02287109 -269.2065625 15.02287109 -270.4375 16.06640625 C-287.67937652 31.07015457 -301.46280946 49.02420025 -312.07275391 69.23486328 C-312.91103746 70.83064792 -313.77254433 72.4141802 -314.63671875 73.99609375 C-317.85579229 80.08783134 -320.46210573 86.39037056 -322.9375 92.8125 C-323.2567041 93.61341064 -323.5759082 94.41432129 -323.90478516 95.23950195 C-325.76791791 100.24139304 -326.55850103 103.72286967 -325 109 C-323.21631425 112.70306618 -321.16029237 116.21749698 -319.0625 119.75 C-317.8635639 121.81636309 -316.66697682 123.88409078 -315.47265625 125.953125 C-314.87984863 126.97728516 -314.28704102 128.00144531 -313.67626953 129.05664062 C-311.34448583 133.15101643 -309.16047181 137.3134096 -307 141.5 C-301.29693037 152.49572701 -295.20186868 163.2785732 -289 174 C-288.57630127 174.85021729 -288.15260254 175.70043457 -287.71606445 176.57641602 C-285.48068527 179.733424 -283.19109675 180.86950168 -279.7578125 182.62890625 C-278.84973343 183.10347511 -278.84973343 183.10347511 -277.92330933 183.58763123 C-275.99686071 184.59206548 -274.0617941 185.5781841 -272.125 186.5625 C-270.19693166 187.55309158 -268.2710502 188.54756184 -266.34811401 189.54808044 C-264.59967444 190.45619449 -262.84515593 191.35257614 -261.09033203 192.24829102 C-253.47913893 196.5625832 -253.47913893 196.5625832 -252 201 C-251.74930485 205.32817796 -251.90679781 209.66745552 -252 214 C-252.02682861 215.41635742 -252.02682861 215.41635742 -252.05419922 216.86132812 C-252.12258741 220.0541083 -252.21481733 223.24549007 -252.3125 226.4375 C-252.33489746 227.47994873 -252.35729492 228.52239746 -252.38037109 229.59643555 C-252.6930983 238.36199515 -254.79289228 243.06664594 -260.875 249.5 C-262.59097879 251.32617926 -264.29922747 253.15965039 -266 255 C-266.89211182 255.83587646 -267.78422363 256.67175293 -268.70336914 257.53295898 C-270.99551928 260.32079992 -271.29717171 262.15294231 -271.08032227 265.73266602 C-270.85593427 267.57701208 -270.59938781 269.41763726 -270.31640625 271.25390625 C-270.18564194 272.23238022 -270.05487762 273.21085419 -269.92015076 274.21897888 C-269.63815745 276.28257067 -269.34227254 278.3443056 -269.03344727 280.40405273 C-268.56415524 283.55139897 -268.14302927 286.70244413 -267.72851562 289.85742188 C-267.44814132 291.86498044 -267.16502918 293.87215893 -266.87890625 295.87890625 C-266.75262344 296.81859756 -266.62634064 297.75828888 -266.49623108 298.72645569 C-265.5552529 304.82512763 -264.10902437 308.34844763 -259.29931641 312.45043945 C-258.45892822 313.02604614 -258.45892822 313.02604614 -257.6015625 313.61328125 C-256.96500732 314.05236816 -256.32845215 314.49145508 -255.67260742 314.94384766 C-254.99689697 315.39550293 -254.32118652 315.8471582 -253.625 316.3125 C-252.91384033 316.79251465 -252.20268066 317.2725293 -251.4699707 317.76708984 C-244.83392089 322.19604905 -238.07455399 326.30165137 -231 330 C-229.95900146 330.54503174 -229.95900146 330.54503174 -228.89697266 331.10107422 C-183.56267804 354.47080842 -131.57548096 357.50623009 -83.08813477 342.70947266 C-50.29061496 332.13481718 -22.38963138 313.06031934 1 288 C1 287.67 1 287.34 1 287 C0.44352783 286.96559814 -0.11294434 286.93119629 -0.6862793 286.89575195 C-19.93678877 285.62629294 -37.74017169 282.41477227 -55.43359375 274.55078125 C-56.61050781 274.03902344 -57.78742188 273.52726562 -59 273 C-60.03640625 272.51789063 -61.0728125 272.03578125 -62.140625 271.5390625 C-65.07824846 270.66078014 -65.07824846 270.66078014 -67.61328125 272.53515625 C-68.50402344 273.36917969 -69.39476562 274.20320313 -70.3125 275.0625 C-71.35333644 276.0012179 -72.39782629 276.93589569 -73.4453125 277.8671875 C-74.00895508 278.3734668 -74.57259766 278.87974609 -75.15332031 279.40136719 C-78.53510006 282.32890471 -82.11852555 284.99416292 -85.6875 287.6875 C-87.1408282 288.7900968 -88.59395901 289.89295383 -90.046875 290.99609375 C-90.72685547 291.51155762 -91.40683594 292.02702148 -92.10742188 292.55810547 C-95.24310258 294.94707996 -98.34132653 297.38335796 -101.43359375 299.828125 C-104.71018583 302.27944077 -107.11527499 302.12460662 -111.13818359 301.61962891 C-116.60736369 300.43546417 -121.71355587 298.19426736 -126.84936523 296.01733398 C-128.81957973 295.18450734 -130.7984166 294.37543904 -132.77929688 293.56835938 C-134.04745119 293.0404445 -135.31505048 292.51119392 -136.58203125 291.98046875 C-137.71874268 291.50504639 -138.8554541 291.02962402 -140.02661133 290.53979492 C-144.17029464 288.39395285 -146.37558476 286.58865114 -148.09863281 282.20483398 C-148.38061523 281.08407471 -148.66259766 279.96331543 -148.953125 278.80859375 C-149.11596985 278.16820663 -149.2788147 277.52781952 -149.44659424 276.86802673 C-150.70647844 271.71741785 -151.66115669 266.52094161 -152.60133362 261.30406189 C-156.28870416 233.00437566 -156.28870416 233.00437566 -172.17480469 211.03881836 C-176.152743 208.78165686 -180.11488155 206.79667209 -184.41967773 205.24291992 C-190.66839253 202.23296562 -193.18680561 197.22652237 -195.77734375 191.1640625 C-196.11117569 190.40765472 -196.44500763 189.65124695 -196.78895569 188.87191772 C-197.84945586 186.46092005 -198.89338411 184.04313079 -199.9375 181.625 C-200.63374952 180.03991787 -201.33100721 178.45527818 -202.02929688 176.87109375 C-203.72935962 173.00126744 -205.39669486 169.11850345 -207.04803467 165.22766113 C-207.97549868 163.05733469 -208.92443196 160.89737352 -209.87548828 158.73730469 C-210.4402382 157.41648994 -211.00393625 156.09522477 -211.56640625 154.7734375 C-212.3099939 153.05906494 -212.3099939 153.05906494 -213.06860352 151.31005859 C-214.37783892 146.65721099 -213.90504716 143.05425253 -211.96289062 138.64599609 C-211.53169922 137.94555176 -211.10050781 137.24510742 -210.65625 136.5234375 C-210.16060547 135.70294922 -209.66496094 134.88246094 -209.15429688 134.03710938 C-208.60837891 133.15861328 -208.06246094 132.28011719 -207.5 131.375 C-206.3114807 129.41468012 -205.12403641 127.4537082 -203.9375 125.4921875 C-203.30070312 124.44643555 -202.66390625 123.40068359 -202.0078125 122.32324219 C-198.81164112 117.0330811 -195.69974975 111.69420195 -192.58410645 106.35635376 C-190.78358003 103.27324879 -188.97769565 100.19328735 -187.171875 97.11328125 C-186.82010193 96.51317734 -186.46832886 95.91307343 -186.105896 95.29478455 C-182.66199126 89.42093607 -179.20987026 83.55195995 -175.75 77.6875 C-175.23759766 76.81738281 -174.72519531 75.94726562 -174.19726562 75.05078125 C-173.71451172 74.23351562 -173.23175781 73.41625 -172.734375 72.57421875 C-172.32413086 71.87901123 -171.91388672 71.18380371 -171.49121094 70.4675293 C-170 68 -170 68 -168.73806763 66.24725342 C-165.16863582 61.09895351 -164.29106468 57.32187812 -164.3984375 51.1171875 C-164.39043121 50.29928741 -164.38242493 49.48138733 -164.37417603 48.63870239 C-164.3512817 46.0502846 -164.36050425 43.4634571 -164.375 40.875 C-164.3788599 38.27970198 -164.37532709 35.68509533 -164.35440063 33.08987427 C-164.34240027 31.48271773 -164.34483331 29.87536582 -164.36410522 28.26828003 C-164.34011992 23.44908424 -163.67497906 20.16799062 -161 16 C-159.38452148 14.42358398 -159.38452148 14.42358398 -157.62109375 13.24609375 C-156.95682373 12.79121582 -156.29255371 12.33633789 -155.6081543 11.86767578 C-154.53368042 11.15973877 -154.53368042 11.15973877 -153.4375 10.4375 C-151.88979103 9.38273311 -150.34294307 8.3267019 -148.796875 7.26953125 C-148.00087891 6.73021973 -147.20488281 6.1909082 -146.38476562 5.63525391 C-142.59853253 3.03900193 -138.896318 0.33011012 -135.1875 -2.375 C-128.58385112 -7.16495529 -121.93342861 -11.88452915 -115.25 -16.5625 C-114.41621826 -17.14628418 -113.58243652 -17.73006836 -112.72338867 -18.33154297 C-108.51373322 -21.27070716 -104.28570451 -24.17281751 -100 -27 C-102.85305431 -29.85305431 -106.09802492 -29.93422226 -109.9375 -30.5625 C-110.64712891 -30.68818359 -111.35675781 -30.81386719 -112.08789062 -30.94335938 C-167.88140811 -40.44965896 -225.51453622 -22.71009605 -268 14 Z M-78.37890625 -17.83203125 C-79.04341797 -17.35765625 -79.70792969 -16.88328125 -80.39257812 -16.39453125 C-81.10865234 -15.87246094 -81.82472656 -15.35039063 -82.5625 -14.8125 C-83.31337891 -14.27367187 -84.06425781 -13.73484375 -84.83789062 -13.1796875 C-87.23046286 -11.46021235 -89.61564851 -9.73085177 -92 -8 C-93.50881661 -6.90974376 -95.01792561 -5.81989203 -96.52734375 -4.73046875 C-98.7736848 -3.1084928 -101.01953024 -1.48585785 -103.26367188 0.13916016 C-107.64074858 3.30678145 -112.02755561 6.45902316 -116.44921875 9.56420898 C-117.85742453 10.56260996 -119.25473815 11.57655514 -120.640625 12.60571289 C-124.2557081 15.25725426 -127.6704067 17.37277994 -131.80859375 19.1171875 C-136.98521132 21.52815659 -141.27318369 23.7956763 -144 29 C-144.99831931 35.62265345 -144.64540411 42.2268307 -144.41491699 48.90136719 C-143.89375327 66.7990643 -149.68473332 77.51528092 -159.80664062 91.83544922 C-162.97472088 96.40631479 -165.73248676 101.18023362 -168.5 106 C-169.52063822 107.73992633 -170.54414254 109.47817417 -171.5703125 111.21484375 C-172.37130371 112.57198486 -172.37130371 112.57198486 -173.18847656 113.95654297 C-174.91558954 116.85818588 -176.66052672 119.74819896 -178.41119385 122.63565063 C-180.01395698 125.28468333 -181.60478259 127.94077917 -183.1940918 130.59790039 C-183.97575021 131.89829429 -184.76263374 133.19556293 -185.55493164 134.48950195 C-186.66217155 136.29902012 -187.75071584 138.118623 -188.8359375 139.94140625 C-189.78799072 141.51450562 -189.78799072 141.51450562 -190.75927734 143.11938477 C-192.74093628 147.72024934 -191.31850556 150.13035577 -189.63989258 154.71362305 C-188.09919422 158.56772398 -186.48734105 162.39152093 -184.85766602 166.20874023 C-184.16757145 167.84539758 -183.49367519 169.48899125 -182.8371582 171.1394043 C-177.86595402 183.61317741 -172.62089702 190.28366397 -161 197 C-158.77681134 198.41559295 -156.57804845 199.86552527 -154.375 201.3125 C-153.43398437 201.90675781 -152.49296875 202.50101563 -151.5234375 203.11328125 C-145.82962456 207.37042003 -144.14663104 211.84765643 -142.59765625 218.5 C-142.29344002 219.73746979 -142.29344002 219.73746979 -141.983078 220.99993896 C-141.55296278 222.75760837 -141.12886541 224.51675965 -140.71032715 226.27722168 C-140.05979052 229.01138779 -139.39188329 231.74080189 -138.71972656 234.46972656 C-136.86919699 242.01757182 -135.06215721 249.56914624 -133.44921875 257.171875 C-133.23837646 258.14382813 -133.02753418 259.11578125 -132.81030273 260.1171875 C-132.44995123 261.81044705 -132.11044282 263.50834847 -131.79711914 265.2109375 C-130.98635765 269.0330385 -130.25942672 270.7798915 -127.2421875 273.33984375 C-124.14474815 274.92588197 -121.07994603 276.45593077 -117.875 277.8125 C-116.86179687 278.25207031 -115.84859375 278.69164062 -114.8046875 279.14453125 C-111.75288295 280.07537414 -110.84899325 280.32625548 -108 279 C-105.76098141 277.38421339 -103.631815 275.74626153 -101.5 274 C-100.25873908 273.00275185 -99.01653313 272.00667895 -97.7734375 271.01171875 C-96.83516113 270.25834229 -96.83516113 270.25834229 -95.87792969 269.48974609 C-93.0018219 267.20815356 -90.06904874 265.00533339 -87.125 262.8125 C-86.13757813 262.07644531 -85.15015625 261.34039062 -84.1328125 260.58203125 C-83.42898438 260.05996094 -82.72515625 259.53789062 -82 259 C-84.40005265 256.58298585 -86.80527899 254.18275863 -89.2890625 251.8515625 C-107.76277936 234.24283572 -120.46225812 210.86482779 -126 186 C-126.20496094 185.12601563 -126.40992188 184.25203125 -126.62109375 183.3515625 C-133.08615636 150.08993002 -124.8458489 115.38790318 -106.81298828 87.140625 C-98.19445782 74.40812426 -86.23266802 61.89562518 -73 54 C-71.89914062 53.33613281 -70.79828125 52.67226562 -69.6640625 51.98828125 C-47.20088696 38.68634054 -24.86643141 32.93883168 1 32 C-15.24259888 7.86813881 -45.41967548 -9.48399782 -72 -20 C-75.28475637 -20 -75.83004015 -19.67160469 -78.37890625 -17.83203125 Z M-32 57 C-32.96035156 57.28875 -33.92070312 57.5775 -34.91015625 57.875 C-62.39799387 66.94315262 -84.0170933 86.14910288 -97.25 111.75 C-109.99661184 137.45182724 -111.33978145 166.33508186 -102.90234375 193.5390625 C-98.35041143 206.22275189 -91.92046548 217.89465296 -83 228 C-82.28972656 228.84175781 -81.57945312 229.68351563 -80.84765625 230.55078125 C-63.59101246 250.53694691 -38.20203881 263.16211063 -12 266 C15.37260062 267.98971265 43.15258155 260.89787612 64.875 243.625 C66.60611685 242.1089613 68.3144933 240.56659058 70 239 C70.92296875 238.15695312 71.8459375 237.31390625 72.796875 236.4453125 C91.62822732 218.49830545 104.47381455 192.21736205 105.30078125 165.984375 C105.32006203 163.90633577 105.32359306 161.82809906 105.3125 159.75 C105.30758545 158.65316895 105.3026709 157.55633789 105.29760742 156.42626953 C105.17536851 147.92972479 104.33868311 140.20425124 102 132 C101.6596875 130.77539062 101.319375 129.55078125 100.96875 128.2890625 C93.04002946 102.30643099 74.84288063 79.05017813 50.93066406 65.85839844 C34.3666289 57.22515986 17.59831829 52.59826768 -1.125 52.625 C-2.30771484 52.62661133 -3.49042969 52.62822266 -4.70898438 52.62988281 C-14.32114033 52.76360348 -22.87278626 54.06952335 -32 57 Z M-333 138 C-334.20217193 141.60651579 -334.18051792 144.92737433 -334.203125 148.68359375 C-334.21013931 149.44673386 -334.21715363 150.20987396 -334.22438049 150.99613953 C-334.24196454 153.47665231 -334.24824208 155.956927 -334.25 158.4375 C-334.25067474 159.2801239 -334.25134949 160.1227478 -334.25204468 160.99090576 C-334.23600134 173.55598482 -333.82604485 185.70643159 -331 198 C-330.82307617 198.78922852 -330.64615234 199.57845703 -330.46386719 200.39160156 C-327.8899811 211.58956194 -324.49262303 222.42505656 -320 233 C-319.49605713 234.18650146 -319.49605713 234.18650146 -318.98193359 235.39697266 C-311.65550261 252.31341762 -302.28353769 268.1903258 -290 282 C-288.78241678 278.34725033 -289.29724256 276.28295901 -289.9375 272.5 C-292.29125438 256.40496128 -292.29125438 256.40496128 -289.75 251.671875 C-287.95726786 249.29816485 -286.04492396 247.16018332 -284 245 C-282.3948381 243.20922491 -280.79067861 241.41755084 -279.1875 239.625 C-278.43855469 238.81289063 -277.68960938 238.00078125 -276.91796875 237.1640625 C-273.78917102 233.63381007 -272.74709836 231.54133597 -272.5859375 226.89453125 C-272.54726563 225.91162109 -272.50859375 224.92871094 -272.46875 223.91601562 C-272.4378125 222.89185547 -272.406875 221.86769531 -272.375 220.8125 C-272.33632813 219.77673828 -272.29765625 218.74097656 -272.2578125 217.67382812 C-272.16351704 215.11606378 -272.07791798 212.55830713 -272 210 C-272.62455078 209.66266846 -273.24910156 209.32533691 -273.89257812 208.9777832 C-276.76317115 207.42535757 -279.63159163 205.86895823 -282.5 204.3125 C-283.48226562 203.78205078 -284.46453125 203.25160156 -285.4765625 202.70507812 C-287.42454974 201.64667173 -289.3663028 200.57670734 -291.30151367 199.49511719 C-292.94389536 198.58514293 -294.60250821 197.7027669 -296.28637695 196.87207031 C-302.64832842 193.49178532 -305.06255695 188.42804674 -308.1875 182.125 C-309.30240292 179.9701706 -310.4196567 177.81655616 -311.5390625 175.6640625 C-312.1052832 174.56352539 -312.67150391 173.46298828 -313.25488281 172.32910156 C-316.05980936 166.97823721 -319.0596585 161.74158811 -322.0625 156.5 C-325.55155092 150.40740679 -328.92461904 144.31301223 -332 138 C-332.33 138 -332.66 138 -333 138 Z M62.3125 269.3125 C60.8927311 270.12250464 59.47216955 270.93112169 58.05078125 271.73828125 C57.10199097 272.28029175 57.10199097 272.28029175 56.1340332 272.83325195 C53.45839382 274.2961144 50.73309985 275.64814677 48 277 C48.48178711 277.90226318 48.96357422 278.80452637 49.45996094 279.73413086 C53.00829106 286.38183361 56.55078878 293.03253734 60.078125 299.69140625 C67.80905022 314.28200101 75.59643404 328.83642974 83.53320312 343.31640625 C86.20395963 348.20271709 88.85065349 353.10205835 91.5 358 C95.84421621 366.02626401 100.19603825 374.0483134 104.5625 382.0625 C105.05105469 382.96033203 105.53960937 383.85816406 106.04296875 384.78320312 C108.64402377 389.55301491 111.28595288 394.293523 114 399 C115.08539063 398.45730469 116.17078125 397.91460937 117.2890625 397.35546875 C123.52604167 394.23697917 129.76302083 391.11848958 136 388 C135.39935943 384.05057644 134.17447558 381.09445775 132.26171875 377.59765625 C131.69509521 376.55399902 131.12847168 375.5103418 130.54467773 374.43505859 C129.93180908 373.32211426 129.31894043 372.20916992 128.6875 371.0625 C128.04896056 369.89176585 127.41102894 368.72069999 126.77368164 367.54931641 C125.47587791 365.16673275 124.17432616 362.78626269 122.86914062 360.40771484 C121.19414961 357.35396295 119.52501158 354.29714224 117.859375 351.23828125 C115.90768849 347.65474551 113.95304068 344.07285309 111.99609375 340.4921875 C108.81624816 334.66928529 105.65724926 328.83517707 102.5 323 C97.86595872 314.43627521 93.21293314 305.88318483 88.54589844 297.33740234 C82.67013471 286.57298756 76.8350161 275.78654144 71 265 C68.23814963 265 64.75689753 267.91601071 62.3125 269.3125 Z " fill="#000000" transform="translate(355,73)"/>
<path d="M0 0 C20.05859232 15.17161142 33.72453012 37.56463334 38.20800781 62.33349609 C41.46536221 91.21729347 35.41472889 118.00541875 17.30175781 140.95507812 C1.58320054 160.03955209 -21.26106252 172.65891725 -45.78808594 175.93115234 C-72.85207586 178.33486198 -99.05574043 172.46576014 -120.34667969 154.93896484 C-121.00796875 154.38080078 -121.66925781 153.82263672 -122.35058594 153.24755859 C-123.0015625 152.74095703 -123.65253906 152.23435547 -124.32324219 151.71240234 C-141.60682017 137.7274794 -153.16395075 114.47566655 -156.10449219 92.61865234 C-158.17067955 64.31516511 -152.53607663 37.57296813 -133.97558594 15.43505859 C-99.79788477 -23.86841703 -42.06572285 -30.2524091 0 0 Z M-116.60058594 27.62255859 C-131.03416601 44.73666069 -136.96076476 65.03534816 -135.35058594 87.24755859 C-132.64916604 107.6770466 -122.39861931 126.4687007 -106.17089844 139.18115234 C-88.87797369 151.85145317 -68.61206358 157.78266951 -47.24707031 154.97070312 C-33.48962834 152.64591967 -19.93523365 146.34073322 -9.35058594 137.24755859 C-8.70089844 136.73966797 -8.05121094 136.23177734 -7.38183594 135.70849609 C6.38603319 124.53534076 15.35727736 106.73780368 17.64941406 89.24755859 C19.58173056 67.60307682 14.84910843 47.56073215 1.27441406 30.31005859 C-11.69985883 15.54546866 -29.49147709 3.60236177 -49.68383789 2.07055664 C-76.25113776 1.39363123 -97.98044087 7.68763229 -116.60058594 27.62255859 Z " fill="#000000" transform="translate(412.3505859375,153.75244140625)"/>
<path d="M0 0 C2.57523785 1.93142838 4.04585233 3.53997521 4.62109375 6.7734375 C4.64300781 7.52882813 4.66492188 8.28421875 4.6875 9.0625 C4.74744141 10.18785156 4.74744141 10.18785156 4.80859375 11.3359375 C3.97370753 14.85063336 2.09396839 16.64715193 -0.75 18.6875 C-4.35073768 20.65470339 -8.06973568 22.32268378 -11.8125 24 C-20.36699585 27.96499383 -28.20503503 31.98979195 -35.75 37.6875 C-36.50925781 38.22761719 -37.26851562 38.76773438 -38.05078125 39.32421875 C-42.46620683 42.62651183 -46.31479925 46.21947502 -50.1640625 50.16015625 C-50.9586084 50.97242676 -51.7531543 51.78469727 -52.57177734 52.62158203 C-54.1709569 54.27028374 -55.75764048 55.93121328 -57.33056641 57.60498047 C-58.07226074 58.37342285 -58.81395508 59.14186523 -59.578125 59.93359375 C-60.2371582 60.63154053 -60.89619141 61.3294873 -61.57519531 62.04858398 C-64.32558491 64.12125634 -66.33788792 64.45888512 -69.75 64.6875 C-74.00020788 63.46286383 -76.13162201 62.53776974 -78.75 58.9375 C-79.9637196 54.99291131 -79.63396532 52.70434243 -78.75 48.6875 C-68.3283308 31.41080081 -21.56278371 -10.29132859 0 0 Z " fill="#000000" transform="translate(156.75,66.3125)"/>
<path d="M0 0 C9.54591893 5.72755136 14.63782513 18.7147748 17.57299805 29.00976562 C19.01233319 34.82096105 19.35012525 40.40294577 19.3125 46.375 C19.30512817 47.75655273 19.30512817 47.75655273 19.29760742 49.16601562 C19.157866 57.2781845 18.60100893 64.38748759 13.75 71.125 C10.33713904 73.45195066 8.12489133 74 4 74 C0.35267837 72.42502021 -2.17551854 70.55293758 -4 67 C-4.23326834 63.32602372 -4.27167562 60.26853262 -3.50390625 56.68359375 C-0.76599885 42.10264504 -4.34542713 29.52217893 -12.50390625 17.43359375 C-14.48545883 14.21033721 -15.14829473 11.78151565 -15 8 C-13.86138489 4.82386312 -12.94016354 2.76605918 -10.3125 0.625 C-6.7963688 -0.32530573 -3.5722317 -0.64383246 0 0 Z " fill="#000000" transform="translate(402,186)"/>
<path d="M0 0 C3.48751265 3.10843518 5.29927524 5.28603896 5.625 10 C5.34029347 14.63537819 3.25278384 16.82466339 0 20 C-3.14911479 21.57455739 -5.52008816 21.34799118 -9 21 C-11.97672584 19.22719439 -14.42804007 17.14391985 -16 14 C-16.13260421 9.17888993 -15.66641639 5.86454018 -12.6875 2 C-8.30279361 -1.26303731 -5.29631422 -1.62132068 0 0 Z " fill="#000000" transform="translate(75,137)"/>
<path d="M0 0 C2.86624771 2.44825325 4.61349969 4.24877735 5.44140625 8 C5.65821147 11.69268247 5.10798801 13.83081878 3.125 16.9375 C-0.36158203 20.3215355 -3.03592714 20.38966392 -7.73828125 20.359375 C-11.32520929 19.78943134 -12.86838894 17.79773951 -15 15 C-16.57455739 11.85088521 -16.34799118 9.47991184 -16 6 C-12.24071004 -0.53158487 -7.14966825 -2.22557766 0 0 Z " fill="#000000" transform="translate(379,169)"/>
</svg>
