<svg width="97" height="97" viewBox="0 0 97 97" fill="none" xmlns="http://www.w3.org/2000/svg">
<path d="M72.7095 48.5L72.7101 78.9993C72.7502 82.6301 70.335 85.8306 66.8325 86.7881C54.7442 89.6487 42.1551 89.6487 30.0667 86.7881C26.5641 85.8307 24.1489 82.6301 24.189 78.9993L24.1893 48.5" stroke="#FE5402" stroke-width="4" stroke-linecap="round" stroke-linejoin="round"/>
<path d="M68.7167 20.5335L76.7174 22.9779C79.2986 23.7665 81.3162 25.7909 82.0962 28.3747L88.2434 48.7382C88.998 51.2378 89.1362 53.8829 88.6462 56.4474L85.3845 73.5189C85.0204 75.425 83.3534 76.8035 81.4129 76.8035H72.7613" stroke="#FE5402" stroke-width="4" stroke-linecap="round" stroke-linejoin="round"/>
<path d="M40.4133 24.5768V40.4133" stroke="#FE5402" stroke-width="4" stroke-linecap="round" stroke-linejoin="round"/>
<path d="M56.5867 24.5768V40.4133" stroke="#FE5402" stroke-width="4" stroke-linecap="round" stroke-linejoin="round"/>
<path fill-rule="evenodd" clip-rule="evenodd" d="M34.4087 9.8011V9.8011C30.8087 10.7011 28.2833 13.9357 28.2833 17.6465V20.5334L43.3855 25.5674C46.7054 26.674 50.2946 26.674 53.6145 25.5674L68.7168 20.5335V17.6465C68.7168 13.9357 66.1914 10.7011 62.5914 9.8011V9.8011C53.3395 7.48813 43.6605 7.48813 34.4087 9.8011V9.8011Z" stroke="#FE5402" stroke-width="4" stroke-linecap="round" stroke-linejoin="round"/>
<path d="M28.2832 20.5335L20.2826 22.9779C17.7014 23.7665 15.6838 25.7909 14.9038 28.3747L8.75659 48.7382C8.00202 51.2378 7.86383 53.8829 8.35383 56.4474L11.6155 73.5189C11.9796 75.4249 13.6466 76.8035 15.5871 76.8035H24.2387" stroke="#FE5402" stroke-width="4" stroke-linecap="round" stroke-linejoin="round"/>
</svg>
