<svg width="98" height="98" viewBox="0 0 98 98" fill="none" xmlns="http://www.w3.org/2000/svg">
<path fill-rule="evenodd" clip-rule="evenodd" d="M78.6378 16.3197C79.19 16.3197 79.6378 16.7674 79.6378 17.3197V27.5748C79.6378 28.1271 79.19 28.5748 78.6378 28.5748H66.3401C65.7879 28.5748 65.3401 28.1271 65.3401 27.5748V17.3197C65.3401 16.7674 65.7879 16.3197 66.3401 16.3197H78.6378Z" stroke="#FE5402" stroke-width="4" stroke-linecap="round" stroke-linejoin="round"/>
<path d="M59.2126 44.915V42.9574C59.2126 40.0848 60.1443 37.2897 61.8679 34.9916L67.1833 27.9045" stroke="#FE5402" stroke-width="4" stroke-linecap="round" stroke-linejoin="round"/>
<path d="M77.7946 27.9045L83.11 34.9917C84.8336 37.2898 85.7653 40.0849 85.7653 42.9575V44.915" stroke="#FE5402" stroke-width="4" stroke-linecap="round" stroke-linejoin="round"/>
<path d="M42.8724 44.915H6.10714" stroke="#FE5402" stroke-width="4" stroke-linecap="round" stroke-linejoin="round"/>
<rect x="42.8725" y="12.2347" width="12.2551" height="49.0204" rx="1.5" stroke="#FE5402" stroke-width="4" stroke-linecap="round" stroke-linejoin="round"/>
<path d="M12.2347 44.915L17.7776 72.6296C19.3051 80.2675 26.0114 85.7653 33.8005 85.7653H64.1996C71.9886 85.7653 78.6948 80.2675 80.2224 72.6298L85.7653 44.915" stroke="#FE5402" stroke-width="4" stroke-linecap="round" stroke-linejoin="round"/>
<path d="M12.2347 44.915V40.8299C12.2347 35.1897 16.807 30.6173 22.4473 30.6173C22.4473 24.9771 27.0196 20.4048 32.6599 20.4048C38.3001 20.4048 42.8724 24.9771 42.8724 30.6173" stroke="#FE5402" stroke-width="4" stroke-linecap="round" stroke-linejoin="round"/>
<path d="M91.8929 44.915H55.1275" stroke="#FE5402" stroke-width="4" stroke-linecap="round" stroke-linejoin="round"/>
</svg>
