<svg width="242" height="275" viewBox="0 0 242 275" fill="none" xmlns="http://www.w3.org/2000/svg">
<g clip-path="url(#clip0_129_2302)">
<path d="M94.683 44.2193V86.9432H75.9797C75.1837 86.9415 74.4209 86.623 73.8586 86.0574C73.2964 85.4919 72.9807 84.7256 72.9807 83.9267V47.2553C72.9781 46.8564 73.0544 46.461 73.2051 46.0919C73.3558 45.7228 73.5779 45.3874 73.8586 45.105C74.1393 44.8227 74.473 44.599 74.8404 44.447C75.2078 44.2949 75.6016 44.2175 75.999 44.2193H94.683Z" fill="#1D253D"/>
<path d="M167.413 64.4485C165.479 82.5738 155.224 86.9239 155.224 86.9239H94.683V44.2193C111.671 40.9438 119.765 19.9443 118.011 9.4122C118.318 7.27843 118.318 5.11149 118.011 2.97771C118.307 1.9945 118.955 1.15607 119.83 0.624132C120.705 0.0921962 121.746 -0.0955581 122.751 0.0970823C134.431 1.92903 135.102 26.2558 135.005 34.1856C135.003 34.8431 135.251 35.4766 135.698 35.9574C136.145 36.4383 136.757 36.7306 137.411 36.775C141.874 37.0792 151.599 37.9661 160.138 40.2058C165.737 41.6753 168.058 43.1447 168.748 46.362C169.49 49.8058 168.4 55.1398 167.413 64.4485Z" fill="#FEA30A"/>
<path d="M94.683 44.2193V80.4052H75.9797C75.1843 80.4052 74.4215 80.088 73.859 79.5235C73.2966 78.959 72.9807 78.1934 72.9807 77.3951V47.2553C72.9781 46.8564 73.0544 46.461 73.2051 46.0919C73.3558 45.7228 73.5779 45.3874 73.8586 45.105C74.1393 44.8227 74.473 44.599 74.8404 44.447C75.2078 44.2949 75.6016 44.2175 75.999 44.2193H94.683Z" fill="#465A94"/>
<path d="M168.761 46.4137C168.465 49.385 167.923 53.1331 167.413 57.9492C165.479 76.0745 155.224 80.4246 155.224 80.4246H94.683V44.2193C103.151 42.588 109.743 36.3024 113.741 28.8775C116.618 23.5176 117.521 17.478 117.901 11.4772C118.127 7.96864 116.766 -1.13286 122.764 0.0970713C134.444 1.92902 135.115 26.2558 135.018 34.1856C135.016 34.8431 135.264 35.4766 135.711 35.9574C136.158 36.4383 136.77 36.7306 137.424 36.775C141.887 37.0792 151.612 37.9661 160.151 40.2058C165.749 41.7271 168.071 43.1965 168.761 46.4137Z" fill="#FEB12F"/>
<path d="M144.563 86.9432H153.683L149.278 91.7723V97.0028H142.828V92.4715C142.831 91.4359 143.051 90.4126 143.473 89.4678L144.563 86.9432Z" fill="#BF6D3E"/>
<path d="M144.305 91.1056C144.806 90.8605 145.225 90.4751 145.512 89.9959C145.799 89.5168 145.942 88.9644 145.922 88.4057C145.903 87.8469 145.723 87.3057 145.404 86.8474C145.085 86.3891 144.641 86.0334 144.124 85.8234C143.944 84.0367 142.332 82.632 140.571 82.3213C141.832 85.2525 142.645 88.358 142.983 91.5328L144.305 91.1056Z" fill="#BF6D3E"/>
<path d="M142.88 83.1887C143.163 83.3444 143.403 83.5688 143.577 83.8412C143.752 84.1137 143.856 84.4257 143.879 84.7488C143.931 85.1143 144.063 85.4636 144.266 85.7716C144.544 86.0299 144.857 86.2478 145.195 86.4189C145.504 86.6195 145.764 86.8859 145.958 87.1993C146.152 87.5126 146.275 87.8651 146.317 88.2315C146.342 89.0635 146.174 89.89 145.827 90.646C145.73 90.892 145.363 90.6978 145.46 90.4518C145.792 89.7385 145.943 88.9532 145.898 88.1667C145.824 87.813 145.669 87.4815 145.445 87.1984C145.221 86.9153 144.934 86.6883 144.608 86.5354C144.324 86.3964 144.077 86.1924 143.886 85.9399C143.726 85.6833 143.613 85.4007 143.55 85.1048C143.409 84.5352 143.318 83.8102 142.699 83.5577C142.435 83.4606 142.628 83.0916 142.88 83.1887Z" fill="#80410E"/>
<path d="M85.5248 86.9432H76.4117L80.8167 91.7723V97.0028H87.2662V92.4715C87.2633 91.4359 87.0436 90.4126 86.6212 89.4678L85.5248 86.9432Z" fill="#BF6D3E"/>
<path d="M124.28 134.425C129.721 130.869 134.661 126.592 138.965 121.712C140.415 112.934 141.425 104.089 141.99 95.2098C144.744 94.9005 147.52 94.8463 150.284 95.048C152.34 106.683 153.005 118.522 152.264 130.315C144.95 137.584 137.14 145.682 129.82 152.971L124.28 134.425Z" fill="#465A94"/>
<path d="M151.464 124.993C151.887 124.398 152.252 123.762 152.554 123.097C152.522 125.505 152.431 127.906 152.264 130.321C144.95 137.584 137.14 145.682 129.82 152.971L128.53 148.666C136.637 141.319 144.653 133.843 151.464 124.993Z" fill="#1D253D"/>
<path d="M142.654 99.3397L148.188 99.4691C148.452 99.4691 148.478 99.8899 148.188 99.8834L142.654 99.754C142.409 99.7475 142.39 99.3332 142.654 99.3397Z" fill="#1D253D"/>
<path d="M105.731 134.425C100.289 130.869 95.3496 126.592 91.0455 121.712C89.5953 112.934 88.5858 104.089 88.0207 95.2098C85.2669 94.9005 82.4905 94.8463 79.7268 95.048C77.6705 106.683 77.0058 118.522 77.7468 130.315C85.0604 137.578 92.8707 145.676 100.184 152.939L105.731 134.425Z" fill="#465A94"/>
<path d="M100.533 146.601C100.655 147.993 100.752 149.385 100.836 150.777L100.191 152.945C92.8772 145.682 85.0669 137.584 77.7532 130.321C77.5404 127.181 77.4437 124.048 77.4437 120.922C81.4488 131.687 90.5489 139.921 100.533 146.601Z" fill="#1D253D"/>
<path d="M80.1589 99.6505L87.4854 99.2815C87.5402 99.2815 87.5927 99.3033 87.6314 99.3422C87.6701 99.381 87.6918 99.4337 87.6918 99.4886C87.6918 99.5436 87.6701 99.5963 87.6314 99.6351C87.5927 99.674 87.5402 99.6958 87.4854 99.6958L80.1524 100.071C80.1032 100.062 80.059 100.035 80.0273 99.9963C79.9957 99.9573 79.9788 99.9084 79.9796 99.8581C79.9804 99.8079 79.9988 99.7595 80.0316 99.7215C80.0643 99.6836 80.1094 99.6584 80.1589 99.6505Z" fill="#1D253D"/>
<path d="M96.9984 263.892C96.9984 264.908 96.9984 265.898 96.9984 266.85H102.88L103.203 263.892H96.9984Z" fill="#001E4A"/>
<path d="M126.098 263.892C126.098 264.908 126.098 265.898 126.098 266.85H131.98L132.309 263.892H126.098Z" fill="#001E4A"/>
<path d="M132.528 183.474C116.959 185.196 114.702 194.135 114.702 194.135L120.99 231.415L124.292 265.555H134.773C137.933 222.883 132.528 183.474 132.528 183.474Z" fill="#1D253D"/>
<path d="M118.888 193.624C118.888 193.624 125.814 189.17 126.627 185.273L98.5527 186.199C98.5527 186.199 94.6443 236.542 94.754 263.879H105.467L118.888 193.624Z" fill="#465A94"/>
<path d="M118.101 197.754L105.467 265.555H94.754C94.6701 245.203 96.8178 210.461 97.9206 194.867C104.425 197.016 111.257 197.994 118.101 197.754Z" fill="#465A94"/>
<path d="M97.9207 194.867C98.2947 189.5 98.5656 186.199 98.5656 186.199L126.64 185.273C125.827 189.157 118.901 193.624 118.901 193.624L118.114 197.754C111.266 197.995 104.429 197.018 97.9207 194.867Z" fill="#1D253D"/>
<path d="M124.247 189.222C125.621 187.837 126.827 186.257 127.137 184.755L100.855 183.506C100.855 183.506 100.642 186.341 100.546 187.519C108.298 189.398 116.307 189.973 124.247 189.222Z" fill="#1D253D"/>
<path d="M103.229 266.403L96.347 266.216C94.4308 268.236 93.0745 270.724 92.4128 273.433H104.834C104.588 271.033 104.049 268.672 103.229 266.403Z" fill="#001E4A"/>
<path d="M92.4128 273.433C92.3483 273.686 92.2774 273.945 92.2323 274.204C92.2095 274.3 92.2091 274.401 92.2312 274.497C92.2532 274.594 92.2971 274.684 92.3594 274.761C92.4218 274.838 92.5008 274.9 92.5906 274.941C92.6804 274.983 92.7784 275.003 92.8772 275H104.267C104.357 275 104.446 274.982 104.528 274.946C104.61 274.91 104.684 274.857 104.745 274.79C104.805 274.724 104.852 274.645 104.88 274.56C104.909 274.475 104.92 274.384 104.912 274.294C104.912 274.01 104.86 273.718 104.834 273.433H92.4128Z" fill="#A86114"/>
<path d="M125.731 266.403L132.606 266.216C134.541 268.216 146.066 270.747 146.737 273.433H124.163C124.394 271.034 124.92 268.673 125.731 266.403Z" fill="#001E4A"/>
<path d="M146.737 273.433C146.801 273.686 146.866 273.945 146.917 274.204C146.94 274.3 146.94 274.401 146.918 274.497C146.896 274.594 146.852 274.684 146.79 274.761C146.728 274.838 146.649 274.9 146.559 274.941C146.469 274.983 146.371 275.003 146.272 275H124.712C124.622 275 124.533 274.982 124.451 274.946C124.368 274.91 124.295 274.857 124.234 274.79C124.173 274.724 124.127 274.645 124.098 274.56C124.069 274.475 124.059 274.384 124.067 274.294C124.067 274.01 124.112 273.718 124.144 273.433H146.737Z" fill="#A86114"/>
<path d="M102.448 234.147C101.597 232.671 100.7 231.24 99.9974 229.687C99.3177 228.113 98.7362 226.498 98.256 224.851C98.2417 224.814 98.214 224.783 98.1785 224.765C98.1429 224.747 98.102 224.743 98.0635 224.753C98.025 224.764 97.9918 224.788 97.9701 224.822C97.9485 224.855 97.9401 224.896 97.9465 224.935C98.2914 226.64 98.8348 228.297 99.5653 229.874C100.228 231.49 101.095 233.013 102.145 234.406C102.287 234.535 102.558 234.328 102.448 234.147Z" fill="#1D253D"/>
<path d="M96.4631 262.888H103.293C103.557 262.888 103.577 263.303 103.293 263.303H96.4824C96.218 263.303 96.1987 262.888 96.4631 262.888Z" fill="#1D253D"/>
<path d="M129.749 139.455C129.676 138.527 129.331 137.642 128.757 136.911C128.183 136.181 127.406 135.638 126.524 135.351C122.393 133.934 118.016 133.383 113.664 133.733C109.663 134.052 105.71 134.812 101.874 135.998C99.3653 136.736 97.7981 138.982 98.1851 141.3C100.498 155.143 101.231 169.205 100.371 183.215C110.691 186.212 120.926 187.099 130.684 183.674C130.974 169.407 130.419 153.748 129.749 139.455Z" fill="#A6F3FF"/>
<path d="M115.25 137.707C114.122 138.279 113.066 138.983 112.103 139.804C111.69 139.028 111.303 138.231 110.903 137.448L110.258 136.154C110.068 135.71 109.832 135.287 109.555 134.891C109.433 134.742 109.201 134.891 109.246 135.072C109.397 135.522 109.591 135.956 109.826 136.367C110.052 136.814 110.278 137.26 110.471 137.707C110.916 138.587 111.381 139.455 111.793 140.348C111.814 140.382 111.842 140.41 111.875 140.431C111.908 140.452 111.945 140.466 111.984 140.471C112.023 140.476 112.063 140.472 112.1 140.46C112.137 140.448 112.171 140.427 112.2 140.4C113.215 139.532 114.317 138.773 115.489 138.134C115.766 137.973 115.528 137.565 115.25 137.707Z" fill="#47BED1"/>
<path d="M119.313 137.714C119.313 137.332 119.313 136.956 119.313 136.581C119.364 136.216 119.335 135.845 119.23 135.493C119.213 135.469 119.191 135.45 119.165 135.436C119.139 135.422 119.11 135.415 119.081 135.415C119.052 135.415 119.023 135.422 118.998 135.436C118.972 135.45 118.95 135.469 118.933 135.493C118.823 135.829 118.797 136.187 118.856 136.535C118.856 136.93 118.856 137.319 118.856 137.714C118.856 138.361 118.926 138.963 118.978 139.584L117.43 138.73L116.476 138.199C116.175 137.996 115.844 137.843 115.495 137.746C115.469 137.74 115.441 137.743 115.416 137.754C115.391 137.765 115.37 137.784 115.357 137.808C115.343 137.832 115.337 137.859 115.34 137.886C115.343 137.914 115.354 137.939 115.373 137.96C115.633 138.211 115.931 138.418 116.256 138.575L117.198 139.131L119.133 140.238C119.169 140.265 119.213 140.28 119.257 140.283C119.302 140.285 119.347 140.274 119.386 140.252C119.425 140.229 119.457 140.195 119.477 140.155C119.497 140.115 119.505 140.07 119.5 140.025C119.397 139.241 119.346 138.477 119.313 137.714Z" fill="#47BED1"/>
<path d="M115.373 137.927L113.909 139.086L114.638 140.238L114.502 179.292L117.404 180.813L119.875 179.292L116.469 140.458L116.888 138.924L115.373 137.927Z" fill="#DD4F05"/>
<path d="M97.2886 144.07C96.792 140.73 98.1528 137.118 100.836 136.141C103.015 135.318 105.291 134.785 107.608 134.555C109.42 142.148 116.888 157.664 116.888 157.664C116.888 157.664 122.693 139.908 119.281 133.791C121.468 133.674 125.621 134.296 127.814 135.416C129.871 136.464 131.161 139.863 131.316 142.497C132.27 158.791 135.302 175.725 136.579 192.245C134.992 192.989 132.922 193.009 131.213 193.158C128.433 193.41 125.647 193.54 122.828 193.643C113.799 193.98 104.847 193.688 96.3018 190.407C97.5724 174.916 99.5653 159.483 97.2886 144.07Z" fill="#465A94"/>
<path d="M100.533 146.601C101.823 161.315 100.578 176.288 97.7594 190.911C97.2821 190.743 96.8049 190.575 96.3276 190.387C97.5595 175.019 99.5524 159.684 97.3273 144.375C98.385 145.138 99.4535 145.881 100.533 146.601Z" fill="#1D253D"/>
<path d="M122.158 147.508L125.228 146.453L125.995 146.187C126.228 146.122 126.454 146.038 126.672 145.935C127.111 145.695 126.943 145.171 126.814 144.782C126.169 142.698 125.447 140.62 124.77 138.536C124.753 138.483 124.757 138.426 124.782 138.377C124.806 138.328 124.85 138.291 124.902 138.274C124.954 138.256 125.011 138.261 125.06 138.286C125.109 138.31 125.146 138.354 125.163 138.406L126.904 143.721C127.04 144.129 127.195 144.543 127.304 144.964C127.404 145.271 127.392 145.603 127.272 145.902C127.191 146.036 127.085 146.153 126.958 146.245C126.832 146.338 126.689 146.404 126.537 146.44L125.247 146.88L122.274 147.903C122.224 147.911 122.172 147.902 122.129 147.875C122.086 147.848 122.054 147.806 122.04 147.757C122.025 147.708 122.03 147.656 122.051 147.61C122.073 147.564 122.111 147.528 122.158 147.508Z" fill="#1D253D"/>
<path d="M122.422 147.611L125.885 151.217C126.066 151.405 125.789 151.715 125.602 151.521L122.145 147.916C121.958 147.728 122.235 147.417 122.422 147.611Z" fill="#1D253D"/>
<path d="M117.74 161.102L125.589 151.217C125.756 151.003 126.06 151.288 125.898 151.495L118.049 161.387C117.882 161.587 117.566 161.309 117.74 161.102Z" fill="#1D253D"/>
<path d="M109.53 148.233L106.344 147.585L105.55 147.43C105.31 147.4 105.073 147.35 104.841 147.281C104.37 147.1 104.467 146.556 104.538 146.155C104.925 143.999 105.318 141.837 105.705 139.681C105.715 139.627 105.702 139.57 105.67 139.525C105.638 139.479 105.589 139.448 105.534 139.439C105.48 139.429 105.423 139.442 105.378 139.474C105.333 139.506 105.302 139.555 105.292 139.61L104.306 145.113C104.228 145.54 104.131 145.974 104.086 146.407C104.021 146.724 104.076 147.055 104.241 147.333C104.444 147.573 104.73 147.726 105.041 147.76L106.369 148.013L109.459 148.608C109.499 148.6 109.535 148.58 109.563 148.55C109.592 148.521 109.611 148.484 109.619 148.444C109.626 148.404 109.622 148.363 109.606 148.325C109.59 148.287 109.564 148.255 109.53 148.233Z" fill="#1D253D"/>
<path d="M109.285 148.375L106.357 152.428C106.195 152.641 106.518 152.907 106.673 152.693L109.601 148.641C109.755 148.44 109.439 148.162 109.285 148.375Z" fill="#1D253D"/>
<path d="M115.786 161.076L106.647 152.389C106.453 152.201 106.189 152.525 106.382 152.706L115.528 161.387C115.721 161.581 115.979 161.264 115.786 161.076Z" fill="#1D253D"/>
<path d="M117.088 158.351C117.385 163.007 117.615 167.661 117.778 172.314C117.942 176.966 118.043 181.624 118.082 186.289C118.082 188.909 118.082 191.533 118.082 194.161C118.082 194.426 117.669 194.446 117.669 194.161C117.708 189.5 117.682 184.839 117.591 180.179C117.501 175.518 117.344 170.861 117.121 166.209C116.992 163.585 116.845 160.966 116.682 158.351C116.691 158.303 116.716 158.259 116.753 158.228C116.79 158.197 116.837 158.18 116.885 158.18C116.934 158.18 116.981 158.197 117.018 158.228C117.055 158.259 117.08 158.303 117.088 158.351Z" fill="#1D253D"/>
<path d="M124.273 179.512C126.713 180.196 129.307 180.09 131.684 179.208C131.935 179.117 132.064 179.512 131.812 179.603C129.363 180.509 126.691 180.618 124.176 179.913C123.925 179.829 124.015 179.428 124.273 179.512Z" fill="#1D253D"/>
<path d="M102.01 180.043C104.452 180.729 107.047 180.625 109.426 179.745C109.678 179.648 109.807 180.043 109.555 180.14C107.105 181.04 104.435 181.149 101.919 180.451C101.668 180.379 101.758 179.972 102.01 180.043Z" fill="#1D253D"/>
<path d="M122.725 120.702C123.453 118.151 123.275 115.426 122.222 112.992C122.352 112.379 122.256 111.74 121.951 111.192C121.639 110.671 121.194 110.242 120.661 109.95C120.313 109.74 119.927 109.602 119.525 109.544C119.123 109.485 118.714 109.506 118.32 109.606C117.928 109.715 117.577 109.941 117.316 110.254C117.054 110.568 116.894 110.954 116.856 111.361C116.303 110.981 115.71 110.662 115.089 110.409C114.429 110.154 113.706 110.109 113.019 110.28C112.679 110.369 112.366 110.542 112.11 110.782C111.853 111.023 111.66 111.324 111.548 111.658C111.451 111.997 111.473 112.359 111.611 112.683C111.748 113.007 111.993 113.274 112.303 113.439C111.978 113.139 111.574 112.94 111.14 112.864C110.706 112.789 110.259 112.84 109.852 113.011C109.115 113.379 108.543 114.012 108.253 114.785C107.981 115.38 107.887 116.041 107.982 116.688C108.033 117.009 108.159 117.314 108.35 117.577C108.54 117.84 108.79 118.055 109.078 118.203C107.969 118.76 107.608 120.145 107.84 121.336C108.145 122.557 108.768 123.674 109.646 124.573C110.515 125.464 111.271 126.46 111.897 127.538L122.725 120.702Z" fill="#7A2923"/>
<path d="M122.39 120.954C123.039 118.498 122.883 115.896 121.945 113.536C122.06 112.948 121.973 112.339 121.7 111.807C121.433 111.311 121.036 110.897 120.552 110.61C120.247 110.411 119.904 110.278 119.545 110.221C119.186 110.164 118.819 110.184 118.469 110.28C118.113 110.405 117.802 110.631 117.572 110.931C117.343 111.231 117.206 111.592 117.179 111.969C116.691 111.603 116.163 111.294 115.605 111.05C115.023 110.807 114.376 110.764 113.767 110.927C113.462 111.02 113.185 111.186 112.96 111.412C112.735 111.638 112.569 111.916 112.477 112.222C112.384 112.539 112.397 112.878 112.513 113.188C112.629 113.497 112.843 113.76 113.122 113.937C112.845 113.652 112.487 113.459 112.097 113.385C111.707 113.311 111.304 113.359 110.942 113.523C110.272 113.894 109.763 114.504 109.517 115.232C109.275 115.807 109.192 116.438 109.278 117.057C109.319 117.359 109.427 117.648 109.596 117.902C109.765 118.155 109.989 118.367 110.252 118.52C109.265 119.057 108.962 120.359 109.149 121.537C109.422 122.687 109.973 123.753 110.755 124.637C111.536 125.502 112.209 126.458 112.761 127.486L122.39 120.954Z" fill="#3B1411"/>
<path d="M110.936 124.158C111.194 127.522 111.116 130.903 110.703 134.25C110.66 134.582 110.708 134.919 110.842 135.225C110.976 135.531 111.192 135.794 111.464 135.985C113.015 137.08 114.921 137.543 116.798 137.28C117.248 137.208 117.655 136.968 117.936 136.608C118.217 136.247 118.352 135.794 118.314 135.338C118.137 133.185 118.077 131.024 118.133 128.865C116.264 126.601 113.754 124.96 110.936 124.158Z" fill="#BF6D3E"/>
<path d="M118.133 128.826C116.258 126.577 113.749 124.95 110.936 124.158C111 125.039 111.045 125.926 111.071 126.813C111.573 128.488 112.492 130.008 113.741 131.229C114.99 132.449 116.528 133.331 118.211 133.791C118.12 132.153 118.088 130.541 118.133 128.826Z" fill="#80410E"/>
<path d="M122.783 118.663C123.428 123.349 122.429 131.389 118.914 131.752C114.76 132.179 112.219 128.476 111.29 125.065C111.29 125.123 110.91 125.343 110.504 125.317C110.034 125.196 109.626 124.903 109.362 124.495C108.936 123.848 108.504 122.87 108.962 122.145C109.51 121.271 110.716 121.09 111.226 122.145C111.279 120.462 111.656 118.805 112.335 117.264C112.428 117.005 112.576 116.77 112.77 116.575C112.964 116.38 113.199 116.231 113.457 116.138C115.975 115.302 118.685 115.246 121.235 115.976C121.534 116.07 121.805 116.238 122.022 116.464C122.24 116.69 122.397 116.968 122.48 117.271C122.612 117.728 122.713 118.193 122.783 118.663Z" fill="#BF6D3E"/>
<path d="M117.778 118.973C117.03 118.015 114.96 118.676 114.193 119.29C114.057 119.401 113.889 119.549 113.902 119.744C113.906 119.794 113.924 119.843 113.955 119.883C113.986 119.924 114.029 119.954 114.077 119.97C114.309 120.035 114.528 119.841 114.721 119.737C114.977 119.6 115.251 119.5 115.534 119.439C115.885 119.356 116.247 119.335 116.605 119.375C116.939 119.469 117.283 119.519 117.63 119.524C117.907 119.478 117.914 119.142 117.778 118.973Z" fill="#3B1411"/>
<path d="M116.682 120.65C116.661 120.594 116.628 120.543 116.585 120.501C116.542 120.461 116.492 120.43 116.437 120.41C116.382 120.378 116.319 120.365 116.256 120.372H116.134C116.06 120.396 115.992 120.436 115.934 120.488L115.863 120.585C115.819 120.655 115.797 120.736 115.799 120.818V120.863C115.798 120.926 115.811 120.988 115.837 121.045C115.859 121.101 115.892 121.151 115.934 121.193C115.976 121.236 116.027 121.269 116.082 121.291C116.137 121.316 116.196 121.33 116.256 121.33H116.379C116.457 121.31 116.529 121.27 116.585 121.213L116.656 121.116C116.697 121.045 116.719 120.965 116.721 120.883V120.838C116.722 120.773 116.709 120.709 116.682 120.65Z" fill="#3B1411"/>
<path d="M121.706 120.941C121.685 120.885 121.652 120.835 121.609 120.792C121.567 120.75 121.517 120.717 121.461 120.695C121.409 120.663 121.348 120.649 121.287 120.656H121.164C121.089 120.681 121.02 120.723 120.965 120.779L120.894 120.87C120.85 120.94 120.827 121.021 120.829 121.103V121.155C120.822 121.216 120.836 121.277 120.868 121.33C120.89 121.385 120.923 121.436 120.965 121.478C121.007 121.521 121.057 121.554 121.113 121.576C121.167 121.602 121.227 121.615 121.287 121.614H121.41C121.486 121.595 121.555 121.555 121.609 121.498L121.687 121.407C121.724 121.335 121.744 121.255 121.745 121.174V121.122C121.754 121.059 121.74 120.995 121.706 120.941Z" fill="#3B1411"/>
<path d="M122.616 119.64C122.515 119.472 122.38 119.328 122.22 119.217C122.06 119.105 121.878 119.029 121.687 118.993C121.33 118.899 120.954 118.899 120.597 118.993C120.517 119.017 120.449 119.068 120.404 119.138C120.359 119.208 120.341 119.292 120.352 119.375C120.391 119.653 120.629 119.659 120.848 119.666C121.143 119.658 121.435 119.713 121.706 119.828C121.893 119.905 122.867 120.391 122.674 119.776C122.662 119.728 122.643 119.682 122.616 119.64Z" fill="#3B1411"/>
<path d="M118.327 128.826C118.179 128.803 118.029 128.803 117.882 128.826C117.751 128.833 117.619 128.833 117.488 128.826C117.352 128.805 117.216 128.777 117.082 128.742C116.942 128.686 116.794 128.655 116.643 128.651C116.61 128.654 116.578 128.666 116.55 128.686C116.523 128.706 116.502 128.733 116.488 128.764C116.475 128.796 116.471 128.83 116.475 128.863C116.48 128.897 116.493 128.929 116.514 128.955C116.629 129.075 116.778 129.156 116.94 129.188C117.084 129.24 117.233 129.277 117.385 129.298C117.545 129.326 117.707 129.341 117.869 129.344C118.043 129.365 118.221 129.342 118.385 129.279C118.431 129.258 118.469 129.222 118.493 129.177C118.518 129.133 118.528 129.082 118.521 129.031C118.515 128.98 118.492 128.933 118.457 128.896C118.422 128.86 118.377 128.835 118.327 128.826Z" fill="#804E26"/>
<path d="M110.839 123.9C110.801 123.913 110.761 123.918 110.722 123.915C110.682 123.912 110.643 123.902 110.608 123.883C110.572 123.865 110.541 123.84 110.515 123.81C110.489 123.779 110.47 123.744 110.458 123.705C110.454 123.664 110.458 123.622 110.472 123.583C110.485 123.544 110.507 123.508 110.536 123.479C110.561 123.448 110.593 123.423 110.628 123.405C110.664 123.388 110.703 123.377 110.742 123.375C110.77 123.374 110.797 123.367 110.822 123.354C110.846 123.341 110.868 123.323 110.884 123.3C110.901 123.278 110.913 123.252 110.918 123.225C110.924 123.197 110.923 123.169 110.916 123.142C110.872 122.881 110.738 122.644 110.538 122.473C110.338 122.301 110.083 122.206 109.82 122.203C109.696 122.213 109.576 122.256 109.473 122.326C109.37 122.396 109.288 122.492 109.233 122.605C109.187 122.715 109.176 122.837 109.201 122.954C109.201 123.019 109.304 123.194 109.401 123.103C109.497 123.013 109.439 122.98 109.459 122.916C109.475 122.843 109.506 122.775 109.549 122.715C109.589 122.657 109.645 122.611 109.71 122.584C109.776 122.556 109.847 122.548 109.917 122.56C110.051 122.581 110.176 122.64 110.278 122.729C110.381 122.818 110.457 122.934 110.497 123.064C110.365 123.122 110.259 123.224 110.196 123.354C110.133 123.483 110.119 123.631 110.155 123.77C110.205 123.927 110.311 124.058 110.454 124.139C110.596 124.219 110.764 124.243 110.923 124.204C111.116 124.145 111.032 123.841 110.839 123.9Z" fill="#804E26"/>
<path d="M120.552 123.311C120.325 123.128 120.086 122.961 119.836 122.812C119.715 122.739 119.619 122.632 119.559 122.504C119.5 122.376 119.479 122.233 119.501 122.094C119.501 121.88 119.23 121.854 119.126 121.996C118.817 122.43 119.243 122.98 119.591 123.233C119.817 123.365 120.033 123.514 120.236 123.679C120.481 123.93 120.629 124.26 120.652 124.61C120.676 124.961 120.574 125.308 120.365 125.589C120.048 125.94 119.619 126.168 119.152 126.236C119.119 126.244 119.089 126.262 119.068 126.288C119.046 126.315 119.035 126.348 119.035 126.382C119.035 126.416 119.046 126.449 119.068 126.476C119.089 126.502 119.119 126.521 119.152 126.528C119.403 126.574 119.661 126.559 119.905 126.483C120.149 126.408 120.371 126.274 120.552 126.094C120.746 125.92 120.9 125.706 121.005 125.467C121.109 125.228 121.162 124.97 121.158 124.709C121.156 124.447 121.102 124.188 120.997 123.947C120.893 123.707 120.742 123.49 120.552 123.311Z" fill="#80410E"/>
<path d="M118.978 127.874C118.253 128.089 117.478 128.065 116.768 127.805C116.057 127.545 115.449 127.063 115.031 126.431C114.883 126.21 115.231 125.984 115.379 126.204C115.742 126.765 116.276 127.195 116.901 127.428C117.526 127.661 118.209 127.686 118.849 127.499C118.894 127.497 118.937 127.509 118.974 127.534C119.011 127.559 119.039 127.596 119.053 127.638C119.068 127.68 119.068 127.726 119.055 127.769C119.041 127.811 119.014 127.848 118.978 127.874Z" fill="#3B1411"/>
<path d="M131.393 141.967C131.716 148.181 132.277 154.374 133.077 160.545C133.3 162.271 133.545 163.997 133.812 165.724C133.851 165.989 133.438 166.002 133.399 165.724C132.457 159.574 131.759 153.394 131.303 147.184C131.178 145.458 131.071 143.719 130.98 141.967C130.98 141.912 131.002 141.859 131.041 141.82C131.08 141.781 131.132 141.759 131.187 141.759C131.242 141.759 131.294 141.781 131.333 141.82C131.372 141.859 131.393 141.912 131.393 141.967Z" fill="#1D253D"/>
<path d="M85.7828 91.1056C85.2822 90.8605 84.863 90.4751 84.576 89.9959C84.2889 89.5168 84.1464 88.9644 84.1655 88.4057C84.1846 87.8469 84.3645 87.3057 84.6836 86.8474C85.0027 86.3891 85.4472 86.0334 85.9634 85.8234C86.144 84.0367 87.7563 82.632 89.517 82.3213C88.2524 85.2513 87.4391 88.3573 87.105 91.5328L85.7828 91.1056Z" fill="#BF6D3E"/>
<path d="M87.2081 83.1887C86.5632 83.4283 86.3504 84.1338 86.2085 84.7488C86.1566 85.1143 86.0244 85.4636 85.8215 85.7716C85.5436 86.0299 85.231 86.2478 84.8928 86.4189C84.5843 86.6201 84.3235 86.8866 84.1285 87.1998C83.9335 87.5129 83.8092 87.865 83.7641 88.2315C83.7449 89.0637 83.9147 89.8894 84.2607 90.646C84.3575 90.892 84.7186 90.6978 84.6284 90.4518C84.2955 89.7385 84.1447 88.9532 84.1898 88.1667C84.264 87.813 84.4192 87.4815 84.6431 87.1984C84.867 86.9153 85.1534 86.6883 85.4797 86.5354C85.7624 86.3946 86.0095 86.1909 86.202 85.9399C86.3586 85.6819 86.4719 85.3998 86.5374 85.1048C86.6728 84.5352 86.7631 83.8102 87.3887 83.5577C87.6532 83.4606 87.4597 83.0916 87.2081 83.1887Z" fill="#80410E"/>
</g>
<g clip-path="url(#clip1_129_2302)">
<path d="M191.1 123.891C192.517 124.318 193.787 125.132 194.768 126.241C195.749 127.351 196.402 128.711 196.655 130.171C196.687 130.855 196.866 131.523 197.179 132.131C197.587 132.749 198.358 133.095 198.519 133.8C198.679 134.504 198.068 135.382 198.426 136.068C198.784 136.754 199.913 136.761 200.278 137.465C200.642 138.17 199.79 139.208 200.142 140.006C200.494 140.803 201.481 140.71 202.16 141.118C202.46 141.323 202.703 141.6 202.868 141.925C203.032 142.249 203.111 142.609 203.098 142.973C203.057 143.706 202.846 144.419 202.481 145.056C200.531 148.919 196.562 151.552 192.322 152.418C188.082 153.283 183.632 152.523 179.645 150.848C178.666 150.513 177.789 149.934 177.096 149.166C176.762 148.773 176.559 148.285 176.516 147.771C176.473 147.257 176.591 146.742 176.855 146.298C177.125 146.024 177.367 145.724 177.577 145.402C178.157 144.166 176.343 142.929 176.596 141.576C176.738 140.853 177.448 140.408 178.046 139.987C178.645 139.567 179.281 138.918 179.114 138.195C179.04 137.842 178.781 137.577 178.694 137.193C178.478 136.272 179.435 135.568 180.04 134.844C181.12 133.559 181.182 131.754 181.392 130.073C181.547 128.989 181.935 127.953 182.528 127.034C183.121 126.114 183.905 125.335 184.827 124.747C185.749 124.16 186.787 123.78 187.87 123.632C188.953 123.484 190.055 123.573 191.1 123.891Z" fill="#96432A"/>
<path d="M191.026 125.529C192.365 125.931 193.565 126.699 194.493 127.746C195.421 128.793 196.039 130.078 196.278 131.457C196.302 132.104 196.471 132.738 196.772 133.311C197.155 133.88 197.883 134.22 198.037 134.888C198.191 135.555 197.611 136.384 197.951 137.026C198.29 137.669 199.352 137.682 199.679 138.343C200.006 139.004 199.216 139.993 199.549 140.741C199.883 141.489 200.814 141.409 201.456 141.792C201.74 141.988 201.97 142.253 202.124 142.563C202.278 142.872 202.352 143.215 202.339 143.56C202.299 144.25 202.102 144.922 201.765 145.525C199.913 149.172 196.21 151.651 192.186 152.473C188.162 153.295 183.984 152.566 180.225 150.99C179.304 150.67 178.479 150.124 177.824 149.401C177.504 149.034 177.308 148.574 177.267 148.088C177.226 147.602 177.341 147.116 177.596 146.7C177.849 146.439 178.077 146.153 178.275 145.847C178.824 144.685 177.09 143.498 177.349 142.237C177.485 141.557 178.151 141.143 178.719 140.741C179.287 140.339 179.873 139.734 179.725 139.054C179.651 138.714 179.41 138.436 179.33 138.108C179.126 137.243 180.028 136.575 180.602 135.895C181.62 134.659 181.675 132.959 181.873 131.389C182.016 130.365 182.378 129.384 182.936 128.514C183.493 127.644 184.232 126.905 185.102 126.348C185.972 125.791 186.952 125.43 187.974 125.288C188.997 125.147 190.038 125.229 191.026 125.529Z" fill="#6C301E"/>
<path d="M217.577 135.246C217.567 134.994 217.493 134.748 217.362 134.532C217.232 134.316 217.049 134.137 216.831 134.01C216.391 133.758 215.907 133.592 215.405 133.522C213.947 133.249 212.469 133.102 210.986 133.083C210.614 133.082 210.254 133.21 209.967 133.446C209.68 133.681 209.484 134.01 209.412 134.375C209.326 134.749 209.268 135.129 209.239 135.512C208.233 136.204 208.276 137.768 208.443 138.973C206.104 141.044 202.271 143.986 199.241 144.753C196.21 145.519 192.976 146.786 191.52 149.556C190.507 151.472 190.557 153.759 190.649 155.928C190.717 157.505 190.878 159.291 192.951 159.81C193.608 159.953 194.288 159.953 194.945 159.81C199.185 158.988 201.895 155.31 205.579 153.091C209.103 150.971 212.695 148.703 215.059 145.334C217.423 141.965 219.824 138.689 217.577 135.246Z" fill="#FF941E"/>
<path d="M217.948 140.568C218.351 139.725 218.529 138.791 218.464 137.858C218.399 136.925 218.094 136.025 217.577 135.246C217.567 134.994 217.493 134.748 217.362 134.532C217.232 134.316 217.049 134.137 216.831 134.01C216.391 133.758 215.907 133.592 215.405 133.522C213.947 133.249 212.469 133.102 210.986 133.083C210.614 133.082 210.254 133.21 209.967 133.446C209.68 133.681 209.484 134.01 209.412 134.375C209.326 134.749 209.268 135.129 209.239 135.512C208.233 136.204 208.276 137.768 208.443 138.973C206.104 141.044 202.271 143.986 199.241 144.753C196.21 145.519 192.976 146.786 191.52 149.556C190.507 151.472 190.557 153.759 190.649 155.928C190.649 156.281 190.686 156.645 190.73 156.998C200.691 153.691 210.856 148.511 217.948 140.568Z" fill="#FF941E"/>
<path d="M190.748 156.985C190.902 158.222 191.365 159.396 192.97 159.798C193.627 159.94 194.307 159.94 194.964 159.798C199.204 158.976 201.913 155.298 205.598 153.079C209.122 150.959 212.714 148.69 215.078 145.322C216.213 143.845 217.182 142.246 217.966 140.556C210.856 148.511 200.691 153.691 190.748 156.985Z" fill="#A86114"/>
<path d="M210.19 120.108L209.825 133.991C209.811 134.486 209.986 134.967 210.314 135.337C210.642 135.707 211.098 135.938 211.591 135.982C212.612 136.057 213.636 135.863 214.559 135.419C214.929 135.237 215.23 134.942 215.42 134.576C215.61 134.21 215.678 133.793 215.615 133.386L213.584 119.855C212.446 119.779 211.304 119.865 210.19 120.108Z" fill="#FFC9B9"/>
<path d="M213.078 141.94C212.285 141.815 211.526 141.531 210.844 141.106C210.162 140.682 209.573 140.125 209.109 139.468C208.961 139.258 208.671 139.53 208.819 139.734C209.319 140.427 209.952 141.012 210.681 141.456C211.411 141.9 212.221 142.193 213.066 142.317C213.313 142.373 213.331 141.977 213.078 141.94Z" fill="#A86114"/>
<path d="M214.109 137.076C212.903 137.082 211.719 136.76 210.683 136.142C210.461 136.013 210.251 136.346 210.467 136.476C211.565 137.131 212.819 137.477 214.096 137.478C214.349 137.471 214.368 137.076 214.109 137.076Z" fill="#A86114"/>
<path d="M189.582 143.436C186.914 142.728 184.091 142.889 181.521 143.894C180.33 144.364 179.052 145.278 179.096 146.558C179.139 147.67 180.169 148.468 181.145 148.993C184.804 150.953 189.046 151.526 193.093 150.606C195.044 150.155 196.982 148.542 195.235 146.644C193.676 145.081 191.722 143.972 189.582 143.436Z" fill="#FF941E"/>
<path d="M181.077 148.27C178.25 148.721 175.96 151.027 174.288 153.561C172.615 156.095 171.393 158.945 169.572 161.343C168.073 163.309 166.202 164.934 164.863 167.03C163.524 169.125 162.789 171.975 163.876 174.237C164.913 176.394 167.32 177.39 169.554 177.42C171.183 177.42 172.924 176.963 173.979 175.622C174.747 174.545 175.118 173.234 175.028 171.913C175.028 171.647 174.997 171.381 174.96 171.116C174.876 170.374 174.959 169.623 175.204 168.918C175.448 168.213 175.848 167.572 176.374 167.042C176.692 166.712 176.985 166.359 177.25 165.985C179.102 163.426 180.78 160.694 181.657 157.604C182.533 154.513 182.595 151.058 181.077 148.27Z" fill="#FF941E"/>
<path d="M181.416 158.42C181.503 158.148 181.595 157.888 181.669 157.616C182.552 154.525 182.595 151.058 181.052 148.27C178.225 148.721 175.936 151.027 174.263 153.561C172.59 156.095 171.368 158.945 169.548 161.343C168.048 163.309 166.178 164.934 164.839 167.03C163.499 169.125 162.765 171.975 163.851 174.237C164.888 176.394 167.295 177.39 169.529 177.42C171.159 177.42 172.899 176.963 173.954 175.622C174.723 174.545 175.094 173.234 175.004 171.913C175.004 171.647 174.973 171.381 174.936 171.116C174.936 171.06 174.936 170.998 174.936 170.936C174.394 169.767 173.732 168.656 172.961 167.623C176.247 165.022 179.101 161.916 181.416 158.42Z" fill="#FF941E"/>
<path d="M172.985 167.636C173.757 168.668 174.418 169.779 174.96 170.949C174.905 170.235 175.004 169.518 175.25 168.846C175.496 168.174 175.883 167.563 176.386 167.055C176.704 166.725 176.997 166.371 177.263 165.998C179.013 163.691 180.413 161.137 181.416 158.419C179.11 161.918 176.264 165.029 172.985 167.636Z" fill="#A86114"/>
<path d="M193.291 192.756C194.815 190.902 196.087 189.004 196.315 187.607L175.948 183.836C175.331 185.499 174.356 187.187 173.868 188.893C179.984 191.198 186.847 192.836 193.291 192.756Z" fill="#1D253D"/>
<path d="M190.347 267.74L194.575 267.622C195.754 268.859 202.857 270.398 203.265 272.048H189.366C189.513 270.577 189.842 269.13 190.347 267.74Z" fill="white"/>
<path d="M203.265 272.067C203.308 272.227 203.345 272.382 203.376 272.543C203.389 272.601 203.388 272.662 203.375 272.72C203.361 272.778 203.335 272.833 203.298 272.88C203.26 272.926 203.213 272.964 203.159 272.991C203.106 273.017 203.047 273.03 202.987 273.031H189.717C189.662 273.031 189.607 273.02 189.556 272.998C189.506 272.976 189.46 272.943 189.422 272.903C189.385 272.862 189.356 272.814 189.337 272.761C189.319 272.709 189.312 272.654 189.316 272.598C189.316 272.419 189.347 272.246 189.366 272.067H203.265Z" fill="#465A94"/>
<path d="M200.703 186.284C194.562 188.584 191.717 187.687 185.274 187.607C184.712 191.248 186.959 199.017 186.959 199.017L187.224 204.704H202.956C202.901 198.257 202.283 191.785 200.703 186.284Z" fill="#1D253D"/>
<path d="M187.23 204.692L187.409 207.399L202.796 207.572C202.935 206.619 202.991 205.655 202.962 204.692H187.23Z" fill="#006CB0"/>
<path d="M183.718 267.74L179.491 267.622C178.312 268.859 176.361 270.398 175.948 272.048H184.7C184.553 270.577 184.223 269.13 183.718 267.74Z" fill="white"/>
<path d="M175.936 272.067C175.899 272.227 175.855 272.382 175.824 272.543C175.813 272.601 175.814 272.662 175.828 272.72C175.843 272.779 175.87 272.833 175.907 272.88C175.945 272.926 175.993 272.964 176.047 272.99C176.101 273.016 176.16 273.03 176.219 273.031H184.336C184.391 273.031 184.446 273.02 184.497 272.998C184.547 272.976 184.593 272.943 184.631 272.903C184.668 272.862 184.697 272.814 184.715 272.761C184.734 272.709 184.741 272.654 184.737 272.598C184.737 272.419 184.737 272.246 184.687 272.067H175.936Z" fill="#465A94"/>
<path d="M187.236 199.017C189.387 197.063 191.409 194.971 193.291 192.756C186.847 192.836 179.984 191.198 173.843 188.893C172.412 194.044 171.6 199.348 171.424 204.692H186.977L187.236 199.017Z" fill="#465A94"/>
<path d="M171.424 204.692C171.319 205.649 171.319 206.615 171.424 207.572H186.965V204.692H171.424Z" fill="#0081C9"/>
<path d="M199.043 172.352C199.074 164.798 199.864 158.66 200.166 151.107C200.203 150.273 199.944 149.327 199.222 148.962C188.434 143.442 180.466 147.918 178.713 149.191C178.272 149.517 177.944 149.973 177.775 150.495C177.606 151.017 177.603 151.579 177.769 152.102C179.725 158.37 179.565 164.174 178.522 170.646C177.701 175.714 172.257 181.667 173.627 188.207C182.311 192.101 192.717 191.717 202.24 189.9C204.764 185.369 199.031 176.481 199.043 172.352Z" fill="#FF941E"/>
<path d="M186.273 136.872C186.671 140.014 186.851 143.18 186.81 146.348C186.799 146.641 186.848 146.935 186.955 147.209C187.061 147.483 187.222 147.733 187.428 147.942C187.882 148.388 188.443 148.709 189.057 148.875C189.671 149.041 190.317 149.045 190.933 148.888C191.55 148.715 191.884 147.874 191.766 146.99C191.507 144.957 191.328 143.022 191.211 140.914C190.06 139.054 188.323 137.632 186.273 136.872Z" fill="#FFC9B9"/>
<path d="M191.199 140.914C190.048 139.054 188.31 137.632 186.261 136.872C186.366 137.694 186.452 138.522 186.527 139.344C187.798 141.879 189.612 144.401 191.575 145.525C191.421 144.036 191.291 142.528 191.199 140.914Z" fill="#FFAB90"/>
<path d="M198.815 188.819C191.35 190.973 183.39 190.663 176.115 187.935C175.88 187.842 175.757 188.225 175.997 188.312C178.83 189.374 181.785 190.076 184.792 190.401C187.816 190.735 190.87 190.691 193.883 190.271C195.579 190.035 197.256 189.678 198.901 189.202C199.142 189.134 199.056 188.744 198.815 188.819Z" fill="#A86114"/>
<path d="M194.686 131.006C195.784 135.883 194.519 141.563 193.235 141.761C188.977 142.423 186.138 138.436 186.113 138.386C185.824 138.616 185.486 138.777 185.126 138.856C184.666 138.848 184.226 138.67 183.891 138.355C183.367 137.873 182.749 137.063 183.009 136.297C183.092 136.068 183.231 135.863 183.414 135.701C183.597 135.54 183.817 135.427 184.055 135.373C184.292 135.318 184.54 135.325 184.774 135.391C185.009 135.458 185.223 135.582 185.397 135.753C186.693 133.231 185.57 131.921 185.521 130.091C187.689 128.452 190.387 127.676 193.093 127.915C193.55 127.952 194.581 130.555 194.686 131.006Z" fill="#FFC9B9"/>
<path d="M189.754 133.194C189.724 133.146 189.682 133.108 189.631 133.083C189.586 133.05 189.532 133.031 189.477 133.027C189.42 133.015 189.361 133.015 189.304 133.027L189.199 133.071C189.132 133.105 189.076 133.159 189.039 133.225L188.989 133.324C188.974 133.399 188.974 133.477 188.989 133.553V133.596C189 133.653 189.025 133.706 189.063 133.75C189.095 133.798 189.137 133.839 189.187 133.868C189.232 133.899 189.286 133.916 189.341 133.917C189.397 133.936 189.458 133.936 189.514 133.917L189.625 133.874C189.689 133.837 189.742 133.784 189.779 133.72L189.829 133.621C189.847 133.546 189.847 133.467 189.829 133.392V133.349C189.818 133.291 189.792 133.238 189.754 133.194Z" fill="#3B1411"/>
<path d="M193.914 132.459C193.885 132.411 193.845 132.37 193.797 132.341C193.749 132.31 193.694 132.293 193.637 132.292C193.583 132.273 193.524 132.273 193.47 132.292L193.359 132.335C193.293 132.371 193.237 132.425 193.198 132.489L193.155 132.588C193.134 132.663 193.134 132.742 193.155 132.817V132.86C193.166 132.917 193.191 132.971 193.229 133.015C193.259 133.063 193.299 133.103 193.346 133.132C193.448 133.181 193.562 133.198 193.674 133.182L193.785 133.138C193.851 133.102 193.906 133.049 193.945 132.984L193.988 132.885C194.01 132.81 194.01 132.731 193.988 132.656V132.613C193.978 132.556 193.952 132.503 193.914 132.459Z" fill="#3B1411"/>
<path d="M185.119 137.465C185.088 137.485 185.053 137.499 185.016 137.505C184.979 137.512 184.942 137.51 184.905 137.502C184.869 137.493 184.835 137.477 184.805 137.455C184.775 137.433 184.749 137.405 184.73 137.373C184.713 137.338 184.703 137.3 184.703 137.261C184.703 137.223 184.713 137.184 184.73 137.15C184.744 137.116 184.766 137.085 184.794 137.06C184.822 137.035 184.855 137.018 184.891 137.008C184.917 137.002 184.941 136.99 184.962 136.972C184.983 136.955 184.999 136.934 185.01 136.909C185.021 136.884 185.025 136.858 185.024 136.831C185.023 136.804 185.015 136.778 185.002 136.754C184.904 136.521 184.725 136.33 184.499 136.217C184.273 136.104 184.013 136.075 183.768 136.136C183.656 136.173 183.556 136.239 183.478 136.327C183.4 136.415 183.347 136.522 183.323 136.637C183.302 136.747 183.32 136.86 183.373 136.958C183.404 137.014 183.521 137.156 183.589 137.051C183.657 136.946 183.589 136.928 183.589 136.866C183.589 136.796 183.602 136.727 183.626 136.662C183.652 136.6 183.695 136.547 183.749 136.508C183.804 136.469 183.868 136.445 183.934 136.439C184.058 136.433 184.181 136.461 184.289 136.52C184.398 136.579 184.489 136.666 184.552 136.773C184.444 136.854 184.369 136.971 184.34 137.102C184.311 137.233 184.329 137.371 184.391 137.49C184.472 137.622 184.599 137.718 184.748 137.761C184.896 137.803 185.055 137.788 185.193 137.719C185.434 137.626 185.286 137.36 185.119 137.465Z" fill="#FFAB90"/>
<path d="M190.365 130.629C189.47 130.714 188.616 131.046 187.897 131.587C187.693 131.741 187.958 132.038 188.162 131.884C188.826 131.389 189.615 131.09 190.44 131.018C190.465 131.013 190.489 131.003 190.511 130.988C190.532 130.973 190.551 130.955 190.565 130.933C190.58 130.911 190.589 130.887 190.594 130.861C190.599 130.835 190.599 130.809 190.594 130.783C190.589 130.758 190.578 130.734 190.564 130.712C190.549 130.69 190.53 130.672 190.509 130.657C190.487 130.643 190.462 130.633 190.437 130.628C190.411 130.623 190.385 130.624 190.359 130.629H190.365Z" fill="#6C301E"/>
<path d="M194.383 130.728C194.169 130.526 193.911 130.378 193.628 130.297C193.346 130.215 193.049 130.202 192.76 130.258C192.709 130.268 192.663 130.298 192.634 130.341C192.604 130.385 192.593 130.438 192.603 130.49C192.613 130.541 192.642 130.587 192.686 130.617C192.729 130.646 192.783 130.657 192.834 130.647H193.019H193.161H193.346H193.451H193.501L193.667 130.709H193.748H193.791L193.939 130.808L194.013 130.864V130.895C194.052 130.93 194.102 130.95 194.155 130.95C194.208 130.95 194.258 130.93 194.297 130.895C194.324 130.876 194.345 130.851 194.361 130.822C194.376 130.793 194.383 130.76 194.383 130.728Z" fill="#6C301E"/>
<path d="M192.951 139.289L191.655 139.474C191.605 139.486 191.56 139.517 191.531 139.561C191.503 139.604 191.492 139.658 191.501 139.709C191.506 139.735 191.516 139.759 191.531 139.781C191.546 139.802 191.564 139.821 191.586 139.835C191.608 139.85 191.632 139.86 191.658 139.864C191.684 139.869 191.71 139.869 191.736 139.864L193.032 139.678C193.083 139.666 193.127 139.635 193.156 139.592C193.184 139.548 193.195 139.495 193.186 139.443C193.174 139.392 193.143 139.348 193.1 139.319C193.056 139.29 193.003 139.279 192.951 139.289Z" fill="#FFAB90"/>
<path d="M193.507 135.5C193.346 135.288 193.134 135.122 192.89 135.017C192.687 134.943 192.521 134.792 192.427 134.597C192.402 134.552 192.361 134.519 192.312 134.504C192.263 134.489 192.21 134.494 192.165 134.517C192.119 134.54 192.085 134.58 192.068 134.629C192.051 134.677 192.054 134.73 192.075 134.776C192.236 135.221 192.692 135.296 193.038 135.574C193.109 135.619 193.161 135.689 193.183 135.77C193.204 135.852 193.195 135.938 193.155 136.013C193.009 136.191 192.841 136.351 192.655 136.489C192.62 136.526 192.601 136.576 192.601 136.628C192.601 136.679 192.62 136.729 192.655 136.767C192.673 136.786 192.695 136.801 192.719 136.811C192.742 136.821 192.768 136.827 192.794 136.827C192.82 136.827 192.846 136.821 192.87 136.811C192.894 136.801 192.915 136.786 192.933 136.767C193.141 136.604 193.332 136.42 193.501 136.217C193.569 136.11 193.606 135.986 193.607 135.859C193.608 135.732 193.573 135.608 193.507 135.5Z" fill="#FFAB90"/>
<path d="M192.902 138.176C192.878 138.129 192.837 138.094 192.788 138.077C192.739 138.059 192.684 138.062 192.637 138.083C192.062 138.301 191.433 138.329 190.841 138.164C190.792 138.148 190.738 138.152 190.692 138.175C190.646 138.198 190.611 138.239 190.594 138.287C190.578 138.337 190.581 138.39 190.602 138.437C190.624 138.484 190.663 138.521 190.711 138.541C191.405 138.731 192.142 138.697 192.816 138.442C192.861 138.417 192.895 138.376 192.911 138.326C192.928 138.277 192.924 138.223 192.902 138.176Z" fill="#3B1411"/>
<path d="M184.089 177.6C183.895 178.79 183.468 179.929 182.833 180.953C182.197 181.977 181.365 182.864 180.386 183.565C180.182 183.713 180.447 184.003 180.657 183.855C181.675 183.12 182.537 182.19 183.195 181.12C183.853 180.049 184.293 178.859 184.49 177.618C184.527 177.365 184.132 177.352 184.089 177.6Z" fill="#A86114"/>
<path d="M196.42 177.043L184.255 177.396C184.002 177.396 183.984 177.804 184.255 177.791L196.414 177.439C196.655 177.433 196.673 177.037 196.42 177.043Z" fill="#A86114"/>
<path d="M198.877 182.062C198.104 181.531 197.484 180.806 197.078 179.96C196.672 179.115 196.494 178.177 196.562 177.241C196.562 176.988 196.186 176.969 196.161 177.241C196.092 178.247 196.286 179.253 196.725 180.16C197.163 181.068 197.83 181.845 198.66 182.415C198.87 182.538 199.086 182.205 198.877 182.062Z" fill="#A86114"/>
<path d="M183.632 179.349L171.35 170.034C170.434 170.591 169.689 171.391 169.197 172.346C168.706 173.3 168.488 174.372 168.566 175.442L181.854 182.273C182.582 181.387 183.181 180.403 183.632 179.349Z" fill="#FFC9B9"/>
<path d="M171.455 169.873C170.319 170.424 169.382 171.315 168.774 172.422C168.166 173.529 167.916 174.799 168.06 176.054C168.091 176.308 168.48 176.215 168.449 175.968C168.323 174.799 168.562 173.619 169.133 172.591C169.705 171.564 170.581 170.739 171.64 170.232C171.868 170.114 171.683 169.768 171.455 169.873Z" fill="#A86114"/>
<path d="M173.467 169.824C172.948 169.217 172.254 168.786 171.48 168.59C170.706 168.394 169.891 168.443 169.146 168.73C168.912 168.822 169.097 169.175 169.332 169.082C170.002 168.829 170.733 168.789 171.426 168.97C172.119 169.15 172.74 169.541 173.201 170.089C173.356 170.287 173.652 170.021 173.467 169.824Z" fill="#A86114"/>
<path d="M179.262 157.443C179.262 157.189 178.849 157.171 178.867 157.443C179.133 161.235 179.034 165.043 178.571 168.816C178.571 169.07 178.935 169.088 178.966 168.816C179.429 165.043 179.528 161.235 179.262 157.443Z" fill="#A86114"/>
<path d="M192.847 146.589C192.766 146.348 192.377 146.434 192.458 146.681C192.772 147.615 192.291 148.536 191.742 149.24C191.498 149.599 191.212 149.927 190.89 150.217C190.73 150.354 190.527 150.43 190.316 150.43C190.106 150.43 189.902 150.354 189.742 150.217C189.39 149.976 189.082 149.679 188.742 149.426C188.384 149.162 188.014 148.917 187.631 148.69C186.87 148.251 186.066 147.893 185.23 147.621C184.373 147.343 183.237 147.003 183.095 145.952C183.058 145.699 182.675 145.785 182.706 146.039C182.836 146.99 183.712 147.516 184.558 147.806C185.539 148.119 186.489 148.52 187.397 149.006C187.824 149.26 188.236 149.538 188.631 149.84C188.99 150.162 189.376 150.452 189.785 150.705C190.705 151.163 191.359 150.378 191.884 149.723C192.6 148.802 193.217 147.707 192.847 146.589Z" fill="#A86114"/>
<path d="M186.428 151.453C186.341 151.218 185.953 151.299 186.039 151.54C186.899 154 187.135 156.636 186.724 159.211C186.687 159.458 187.082 159.476 187.125 159.211C187.536 156.607 187.296 153.942 186.428 151.453Z" fill="white"/>
<path d="M193.377 150.915C193.303 150.674 192.914 150.761 192.989 151.002C193.887 153.847 194.04 156.876 193.433 159.798C193.377 160.045 193.754 160.169 193.809 159.915C194.436 156.928 194.287 153.829 193.377 150.915Z" fill="white"/>
<path d="M179.491 267.61L177.065 254.407C176.244 249.926 175.88 240.617 175.985 236.061L176.096 231.252L172.165 207.585H186.187L182.404 231.969L182.904 234.405C184.015 239.764 184.459 250 184.231 255.47L183.718 267.74L179.491 267.61Z" fill="#FFC9B9"/>
<path d="M202.796 207.585L194.575 267.61H190.347L189.631 251.384C189.421 246.724 190.106 237.298 191.643 232.897L188.008 207.418L202.796 207.585Z" fill="#FFC9B9"/>
<path d="M186.187 207.585H172.171L172.381 208.858H185.99L186.187 207.585Z" fill="#FFAB90"/>
<path d="M182.404 231.969L185.99 208.858H172.381L176.084 231.252L175.973 236.061C175.868 240.617 176.232 249.926 177.053 254.407L179.478 267.61L183.706 267.727L184.218 255.47C184.447 250 184.002 239.764 182.891 234.405L182.404 231.969Z" fill="#FFC9B9"/>
<path d="M202.802 207.585L188.014 207.411L188.218 208.858H202.623L202.802 207.585Z" fill="#FFAB90"/>
<path d="M188.218 208.858L191.643 232.897C190.106 237.298 189.421 246.724 189.631 251.384L190.347 267.61H194.575L202.598 208.858H188.218Z" fill="#FFC9B9"/>
<path d="M213.646 120.659V120.628L216.059 116.109L213.473 114.144L210.912 115.126L210.455 118.897C210.3 119.404 210.216 119.931 210.208 120.461L213.646 120.659Z" fill="#FFC9B9"/>
<path d="M213.183 69.2003L222.089 87.2679L242 90.1669L227.594 104.229L230.995 124.089L213.183 114.712L195.377 124.089L198.778 104.229L184.373 90.1669L204.283 87.2679L213.183 69.2003Z" fill="#FEB12F"/>
<path d="M192.328 89.011L184.373 90.1669L198.772 104.229L195.377 124.089L213.183 114.712L230.989 124.089L228.107 107.239C214.251 106.646 200.487 100.162 192.328 89.011Z" fill="#FEA30A"/>
<path d="M210.93 120.133C211.226 119.886 211.46 119.572 211.613 119.218C211.767 118.864 211.835 118.479 211.813 118.093C211.821 117.712 211.736 117.335 211.565 116.994C211.394 116.654 211.142 116.361 210.831 116.14C210.815 115.553 210.62 114.985 210.273 114.513C209.925 114.04 209.442 113.685 208.887 113.495C209.588 115.757 210.031 118.092 210.208 120.455L210.93 120.133Z" fill="#FFC9B9"/>
<path d="M210.146 114.15C210.498 114.335 210.622 114.867 210.696 115.33C210.694 115.582 210.76 115.83 210.887 116.048C211.014 116.265 211.198 116.445 211.418 116.567C211.785 116.932 212.005 117.421 212.035 117.939C212.046 118.556 211.954 119.17 211.763 119.756C211.708 119.948 211.51 119.799 211.56 119.614C211.746 119.057 211.827 118.47 211.8 117.883C211.775 117.639 211.699 117.402 211.577 117.189C211.455 116.976 211.289 116.792 211.091 116.647C210.925 116.528 210.79 116.371 210.696 116.19C210.605 115.993 210.543 115.785 210.511 115.571C210.436 115.145 210.387 114.582 210.041 114.403C209.881 114.36 210.011 114.082 210.146 114.15Z" fill="#FFAB90"/>
<path d="M191.186 128.231C190.762 128.673 190.273 129.048 189.736 129.343C189.212 129.625 188.783 130.055 188.502 130.579C188.273 131.16 188.502 131.785 188.458 132.391C188.427 132.812 188.3 133.221 188.086 133.585C187.872 133.95 187.577 134.26 187.224 134.492C186.401 135.037 185.417 135.285 184.434 135.197C184.329 133.293 184.249 131.284 185.379 129.634C186.229 128.473 187.437 127.623 188.816 127.217C190.001 126.809 192.6 126.481 191.186 128.231Z" fill="#6C301E"/>
<path d="M51.6649 133.608C51.0477 134.393 50.4305 135.141 49.9244 135.796C46.4003 136.544 45.3017 137.651 43.8266 140.939L46.4003 153.505C51.5168 151.725 55.4174 146.669 58.8243 142.453L59.6822 141.384C59.4111 141.366 59.1412 141.333 58.8737 141.285C57.0268 140.91 55.3417 139.969 54.0506 138.594C52.7595 137.22 51.926 135.477 51.6649 133.608Z" fill="#465A94"/>
<path d="M63.2743 129.504C62.7311 127.81 61.4968 126.012 59.7254 126.055C58.7568 126.166 57.8541 126.601 57.1641 127.291C55.4792 128.7 53.4609 131.315 51.6649 133.614C51.926 135.484 52.7595 137.226 54.0506 138.601C55.3417 139.976 57.0268 140.916 58.8737 141.291C59.1412 141.339 59.4111 141.372 59.6822 141.39C62.6632 137.601 64.7864 134.226 63.2743 129.504Z" fill="#FFAB91"/>
<path d="M28.5388 141.866C28.528 141.355 28.4129 140.851 28.2007 140.385C27.9884 139.919 27.6834 139.502 27.3045 139.159C26.5557 138.468 25.6613 137.955 24.6876 137.657C22.5822 136.991 20.3325 136.931 18.1947 137.484C14.4305 134.92 10.8065 132.155 7.33838 129.201C5.19674 130.783 2.96251 134.146 1.28375 136.223C7.85682 144.289 16.4419 149.624 26.1997 153.215L28.5388 141.866Z" fill="#FFAB91"/>
<path d="M28.5388 141.866C28.528 141.355 28.4129 140.851 28.2006 140.385C27.9884 139.919 27.6834 139.502 27.3044 139.159C26.5556 138.468 25.6613 137.955 24.6875 137.657C22.5822 136.991 20.3325 136.931 18.1947 137.484C17.0838 136.699 15.9605 135.901 14.8495 135.092C12.5413 138.046 11.4797 141.6 11.0538 145.334C15.735 148.637 20.8427 151.289 26.2367 153.215L28.5388 141.866Z" fill="#465A94"/>
<path d="M24.3666 152.504C20.0463 149.111 15.8556 145.47 11.6464 141.934C11.3677 143.053 11.1616 144.189 11.0292 145.334C15.1677 148.258 19.6465 150.665 24.3666 152.504Z" fill="#1D253D"/>
<path d="M23.7988 186.705C37.3153 188.324 37.1178 196.755 37.1178 196.755L31.6556 231.889L27.7612 262.517H21.3115C18.5527 222.271 23.7988 186.705 23.7988 186.705Z" fill="#A86114"/>
<path d="M33.4825 196.273C33.4825 196.273 27.4711 192.07 26.7675 188.398L49.3319 189.27C49.3319 189.27 53.1091 236.735 53.035 262.529H46.6163L33.4825 196.273Z" fill="#FF941E"/>
<path d="M52.4981 262.529C52.4981 263.487 52.4981 264.42 52.4981 265.311H47.4001L47.1162 262.529H52.4981Z" fill="#FFAB91"/>
<path d="M27.2242 262.529C27.2242 263.487 27.2242 264.42 27.2242 265.311H22.1262L21.8423 262.529H27.2242Z" fill="#FFAB91"/>
<path d="M28.8351 192.088C27.6439 190.784 26.5947 189.295 26.3293 187.879L49.1283 186.705C49.1283 186.705 49.3134 189.375 49.3998 190.487C42.6969 192.256 35.7303 192.798 28.8351 192.088Z" fill="#A86114"/>
<path d="M47.073 264.897L53.0413 264.717C54.731 266.663 55.9103 269 56.4728 271.517H45.709C45.9139 269.266 46.3715 267.045 47.073 264.897Z" fill="#465A94"/>
<path d="M56.4728 271.523C56.5284 271.764 56.5839 272.005 56.6271 272.252C56.6459 272.338 56.646 272.428 56.6274 272.514C56.6088 272.6 56.5719 272.682 56.5193 272.753C56.4667 272.823 56.3995 272.882 56.3222 272.925C56.245 272.968 56.1596 272.993 56.0716 273H46.1966C46.0339 272.987 45.8828 272.911 45.7763 272.787C45.6699 272.663 45.6169 272.502 45.6288 272.339C45.6288 272.067 45.672 271.795 45.6967 271.523H56.4728Z" fill="#A86114"/>
<path d="M27.5513 264.897L21.5769 264.717C19.9167 266.603 9.89968 268.982 9.31952 271.517H28.9276C28.7218 269.265 28.26 267.044 27.5513 264.897Z" fill="#465A94"/>
<path d="M9.29487 271.523C9.23932 271.764 9.1776 272.005 9.1344 272.252C9.11562 272.338 9.11552 272.428 9.13412 272.514C9.15271 272.6 9.18957 272.682 9.24221 272.753C9.29485 272.823 9.36204 272.882 9.43926 272.925C9.51648 272.968 9.60194 272.993 9.68987 273H28.4277C28.5905 272.987 28.7416 272.911 28.848 272.787C28.9544 272.663 29.0075 272.502 28.9956 272.339C28.9956 272.067 28.9524 271.795 28.9277 271.523H9.29487Z" fill="#A86114"/>
<path d="M47.7519 234.479C48.4925 233.094 49.264 231.741 49.875 230.276C50.4696 228.785 50.9746 227.259 51.3872 225.708C51.4427 225.516 51.6896 225.597 51.6587 225.788C51.36 227.388 50.8881 228.951 50.2515 230.449C49.6787 231.95 48.9264 233.376 48.0111 234.695C47.8939 234.862 47.6593 234.652 47.7519 234.479Z" fill="#A86114"/>
<path d="M24.3543 143.498C24.4065 142.592 24.7128 141.72 25.2379 140.981C25.7631 140.242 26.4858 139.666 27.323 139.32C31.0155 137.849 34.9947 137.242 38.957 137.546C42.577 137.827 46.1486 138.553 49.5912 139.709C50.6876 140.065 51.6204 140.802 52.2205 141.788C52.8206 142.773 53.0483 143.941 52.8623 145.08C50.7121 158.599 49.8852 172.296 50.3935 185.975C50.4306 186.859 50.5108 188.132 49.6652 188.398C41.9072 190.821 30.841 191.223 23.4594 189.251C21.6078 188.763 23.0705 187.069 23.0644 185.172C23.0273 171.585 23.6569 156.942 24.3543 143.498Z" fill="#465A94"/>
<path d="M41.3887 128.917C41.1531 131.945 41.2234 134.989 41.5985 138.003C41.6369 138.301 41.5934 138.605 41.4727 138.88C41.352 139.156 41.1587 139.393 40.9135 139.567C39.5112 140.545 37.7921 140.958 36.0994 140.723C35.6915 140.656 35.3239 140.437 35.0699 140.111C34.8159 139.784 34.6942 139.374 34.7292 138.961C34.8875 137.018 34.9432 135.069 34.8959 133.12C36.5888 131.097 38.8516 129.632 41.3887 128.917Z" fill="#FFAB91"/>
<path d="M34.9206 133.12C36.6135 131.097 38.8763 129.632 41.4134 128.917C41.3146 130.211 41.2714 131.505 41.2838 132.799C40.1296 135.951 38.0497 138.98 35.2415 140.272C35.0687 140.103 34.9354 139.898 34.8511 139.671C34.7668 139.445 34.7336 139.202 34.7539 138.961C34.9122 137.018 34.9679 135.069 34.9206 133.12Z" fill="#FF8A65"/>
<path d="M42.0059 128.169C42.3577 126.852 42.7095 125.542 43.0551 124.225C43.2895 123.551 43.3676 122.832 43.2835 122.124C43.2331 121.771 43.0679 121.444 42.8135 121.195C42.559 120.946 42.2296 120.788 41.8763 120.745C40.9274 119.376 39.6276 118.288 38.1135 117.596C36.5995 116.905 34.9272 116.634 33.2727 116.814C32.1134 116.897 31.0206 117.388 30.1867 118.199C29.2918 119.181 29.0696 120.603 29.0758 121.907C29.0758 123.496 29.7979 123.669 30.8842 124.819C31.9704 125.968 33.0752 127.909 34.5873 128.132C37.0413 128.552 39.5478 128.565 42.0059 128.169Z" fill="#3E2410"/>
<path d="M41.6356 128.193L42.5799 124.596C42.7919 123.983 42.8636 123.33 42.7898 122.686C42.7398 122.369 42.5881 122.077 42.3576 121.854C42.1271 121.631 41.8303 121.489 41.5122 121.45C40.6602 120.202 39.4853 119.209 38.1132 118.579C36.7411 117.948 35.2236 117.704 33.7232 117.871C32.6739 117.936 31.6822 118.374 30.9274 119.107C30.1852 120.082 29.8271 121.297 29.9214 122.519C29.9214 123.959 30.5756 124.12 31.5569 125.171C32.5382 126.222 33.5443 127.959 34.8897 128.187C37.1223 128.566 39.4024 128.568 41.6356 128.193Z" fill="#170D05"/>
<path d="M30.7175 123.984C30.1559 128.212 31.8902 135.691 34.2232 135.778C39.2039 135.957 40.2716 132.823 41.1048 129.751C41.1995 129.837 41.3111 129.901 41.4323 129.941C41.5535 129.98 41.6817 129.993 41.8084 129.98C42.2355 129.873 42.6062 129.608 42.8453 129.238C43.228 128.663 43.6168 127.773 43.2094 127.124C42.7157 126.333 41.6233 126.172 41.1604 127.124C41.1123 125.6 40.7707 124.099 40.1544 122.705C40.0728 122.478 39.942 122.272 39.7712 122.102C39.6004 121.932 39.3939 121.802 39.1668 121.722C36.8386 120.943 34.3265 120.906 31.9766 121.617C31.7604 121.686 31.5641 121.807 31.4041 121.968C31.2441 122.13 31.1251 122.327 31.057 122.544C30.9091 123.015 30.7956 123.496 30.7175 123.984Z" fill="#FFAB91"/>
<g style="mix-blend-mode:multiply" opacity="0.37">
<path d="M38.9199 130.919C36.4228 130.24 33.762 130.525 31.4643 131.717C32.1185 133.985 33.0998 135.735 34.217 135.778C38.9631 135.945 40.1543 133.108 41.006 130.178L41.327 126.939C40.5123 128.268 39.7223 129.597 38.9199 130.919Z" fill="#170D05"/>
</g>
<path d="M43.2403 127.124C43.1622 126.969 43.0506 126.833 42.9136 126.726C42.7766 126.619 42.6176 126.544 42.4482 126.506C42.2787 126.468 42.1029 126.469 41.9336 126.507C41.7642 126.546 41.6055 126.621 41.4689 126.729L41.3393 126.939L41.0184 130.178C41.0554 130.036 41.0986 129.893 41.1356 129.751C41.2303 129.837 41.3419 129.901 41.4631 129.941C41.5843 129.98 41.7125 129.993 41.8392 129.98C42.2663 129.873 42.637 129.608 42.8761 129.238C43.2403 128.663 43.6167 127.773 43.2403 127.124Z" fill="#FFAB91"/>
<path d="M41.1604 127.099C41.1123 125.575 40.7707 124.074 40.1543 122.68C40.0728 122.453 39.9419 122.247 39.7711 122.077C39.6003 121.907 39.3939 121.777 39.1668 121.697C36.8386 120.918 34.3265 120.881 31.9766 121.592C31.7604 121.662 31.5641 121.782 31.4041 121.943C31.2441 122.105 31.125 122.302 31.057 122.519C30.9079 122.998 30.7944 123.488 30.7175 123.984C30.4803 126.586 30.7358 129.21 31.4705 131.717C33.7664 130.526 36.4247 130.242 38.92 130.919C39.7161 129.597 40.5061 128.268 41.3023 126.939V126.858C41.2435 126.931 41.1957 127.013 41.1604 127.099Z" fill="#FFAB91"/>
<path d="M41.3208 126.858V126.939L41.4504 126.729C41.4039 126.768 41.3606 126.812 41.3208 126.858Z" fill="#FFAB91"/>
<path d="M35.2168 124.25C35.8957 123.385 37.7658 123.978 38.4509 124.534C38.5743 124.633 38.7286 124.763 38.7163 124.942C38.713 124.987 38.6967 125.031 38.6693 125.067C38.6419 125.103 38.6046 125.131 38.562 125.146C38.3521 125.202 38.1485 125.029 37.9756 124.936C37.7424 124.812 37.4932 124.72 37.235 124.664C36.9188 124.596 36.5941 124.577 36.2722 124.608C35.9706 124.693 35.6595 124.738 35.3464 124.744C35.1181 124.707 35.1181 124.398 35.2168 124.25Z" fill="#170D05"/>
<path d="M36.229 125.758C36.277 125.67 36.3564 125.604 36.4512 125.573C36.5011 125.548 36.556 125.535 36.6117 125.536H36.7228C36.7934 125.552 36.8578 125.588 36.9079 125.641L36.9696 125.721C37.006 125.785 37.0251 125.857 37.0252 125.931V125.981C37.0405 126.031 37.0405 126.085 37.0252 126.135C37.0077 126.187 36.9781 126.233 36.9388 126.271C36.9028 126.312 36.8557 126.343 36.803 126.358C36.7534 126.383 36.6983 126.396 36.6425 126.395H36.5314C36.4637 126.376 36.4021 126.34 36.3525 126.29L36.2846 126.203C36.2476 126.142 36.2284 126.071 36.229 125.999V125.95C36.2117 125.887 36.2117 125.821 36.229 125.758Z" fill="#3B1411"/>
<path d="M31.6926 126.018C31.7071 125.965 31.7372 125.917 31.779 125.882C31.8141 125.844 31.8589 125.816 31.9087 125.801C31.9563 125.771 32.013 125.758 32.0691 125.764H32.1802C32.2492 125.784 32.3126 125.82 32.3654 125.869L32.4271 125.956C32.464 126.02 32.4831 126.092 32.4826 126.166V126.209C32.489 126.266 32.476 126.322 32.4456 126.37C32.4311 126.422 32.4034 126.468 32.3654 126.506C32.3256 126.543 32.2796 126.572 32.2296 126.593C32.1802 126.618 32.1245 126.629 32.0691 126.623H31.958C31.8903 126.604 31.8287 126.568 31.779 126.518L31.7112 126.432C31.6743 126.368 31.6551 126.295 31.6556 126.222V126.191C31.6462 126.13 31.6594 126.069 31.6926 126.018Z" fill="#3B1411"/>
<path d="M30.8965 124.843C30.9895 124.697 31.1123 124.571 31.257 124.476C31.4016 124.38 31.5648 124.315 31.7359 124.287C32.0572 124.2 32.3958 124.2 32.7172 124.287C32.789 124.307 32.8511 124.353 32.8919 124.415C32.9327 124.478 32.9496 124.553 32.9394 124.627C32.9023 124.88 32.6863 124.887 32.4888 124.887C32.2226 124.886 31.9586 124.937 31.7112 125.035C31.5445 125.103 30.6681 125.548 30.8409 124.992C30.8546 124.941 30.8732 124.891 30.8965 124.843Z" fill="#170D05"/>
<path d="M41.4998 128.663C41.5338 128.676 41.5699 128.681 41.6061 128.679C41.6422 128.677 41.6776 128.668 41.7099 128.651C41.7423 128.635 41.771 128.613 41.7943 128.585C41.8176 128.557 41.835 128.525 41.8454 128.49C41.8489 128.454 41.844 128.417 41.8312 128.383C41.8183 128.348 41.7979 128.318 41.7714 128.292C41.75 128.263 41.7221 128.24 41.6899 128.224C41.6577 128.208 41.6222 128.199 41.5862 128.2C41.5612 128.199 41.5368 128.192 41.5147 128.18C41.4926 128.169 41.4734 128.152 41.4586 128.132C41.4437 128.112 41.4336 128.088 41.429 128.064C41.4244 128.039 41.4254 128.014 41.4319 127.99C41.4699 127.754 41.5899 127.54 41.7707 127.385C41.9515 127.23 42.1814 127.144 42.4194 127.143C42.5322 127.148 42.6413 127.184 42.7348 127.248C42.8284 127.311 42.9029 127.399 42.9502 127.501C42.987 127.603 42.987 127.715 42.9502 127.816C42.9502 127.872 42.8576 128.033 42.7712 127.952C42.6848 127.872 42.7404 127.835 42.7218 127.779C42.7048 127.716 42.6777 127.655 42.6416 127.6C42.6046 127.548 42.5539 127.507 42.495 127.482C42.4362 127.457 42.3716 127.448 42.3083 127.458C42.1868 127.477 42.0731 127.53 41.9803 127.611C41.8875 127.692 41.8194 127.797 41.7837 127.915C41.8995 127.966 41.9938 128.055 42.0503 128.168C42.1067 128.281 42.1216 128.411 42.0923 128.533C42.0505 128.676 41.9552 128.797 41.8263 128.871C41.6974 128.945 41.545 128.965 41.401 128.929C41.2468 128.904 41.327 128.626 41.4998 128.663Z" fill="#FF8A65"/>
<path d="M29.0881 186.717C32.3139 187.012 35.561 186.465 38.5126 185.128C41.23 183.883 43.6045 181.995 45.4313 179.627C46.4428 178.326 47.2733 176.893 47.9 175.368C47.9926 175.152 48.3259 175.325 48.2333 175.548C47.0693 178.323 45.2677 180.784 42.9749 182.73C40.5348 184.788 37.6125 186.192 34.4823 186.81C32.6758 187.163 30.828 187.254 28.9955 187.082C28.7672 187.063 28.8536 186.698 29.0881 186.717Z" fill="#1D253D"/>
<path d="M35.044 141.427C36.3221 141.783 37.6697 141.806 38.9593 141.495C40.2488 141.183 41.4377 140.547 42.4133 139.647C42.5861 139.486 42.8638 139.734 42.6848 139.901C41.6656 140.851 40.4202 141.524 39.0674 141.855C37.7146 142.186 36.2996 142.164 34.9576 141.792C34.7293 141.73 34.8095 141.366 35.044 141.427Z" fill="#1D253D"/>
<path d="M32.6987 127.829C33.03 127.517 33.2727 127.122 33.4022 126.685C33.4393 126.444 33.8034 126.531 33.7664 126.766C33.6244 127.569 32.8406 128.002 32.5752 128.725C32.4994 128.929 32.4832 129.15 32.5285 129.363C32.5739 129.576 32.6788 129.771 32.8311 129.926C32.9833 130.081 33.1766 130.189 33.3881 130.238C33.5997 130.287 33.8209 130.275 34.0256 130.202C34.0701 130.196 34.1153 130.206 34.1534 130.23C34.1915 130.253 34.2201 130.29 34.2341 130.332C34.2481 130.375 34.2466 130.422 34.2299 130.463C34.2132 130.505 34.1824 130.54 34.1429 130.561C33.9086 130.637 33.6594 130.656 33.4163 130.616C33.1732 130.576 32.9434 130.478 32.7461 130.33C32.5489 130.182 32.39 129.989 32.2829 129.766C32.1758 129.544 32.1237 129.299 32.1308 129.053C32.1837 128.594 32.3828 128.165 32.6987 127.829Z" fill="#FF8A65"/>
<path d="M36.8338 131.667C36.4787 132.13 36.0018 132.484 35.4567 132.691C34.9116 132.897 34.3198 132.947 33.7479 132.836C33.501 132.786 33.3776 133.163 33.6244 133.213C34.2768 133.343 34.9526 133.286 35.5746 133.05C36.1966 132.814 36.7399 132.408 37.1424 131.877C37.3214 131.674 36.9881 131.463 36.8338 131.667Z" fill="#3B1411"/>
<path d="M31.3902 58L40.2963 76.0676L60.2068 78.9666L45.7954 93.0288L49.2023 112.889L31.3902 103.512L13.5843 112.889L16.985 93.0288L2.57983 78.9666L22.4904 76.0676L31.3902 58Z" fill="#FEB12F"/>
<path d="M10.5293 77.8107L2.5675 78.9666L16.9789 93.0349L13.6152 112.889L31.4211 103.518L49.227 112.889L46.3262 96.039C32.458 95.4456 18.6947 88.9615 10.5293 77.8107Z" fill="#FEA30A"/>
<path d="M18.9107 105.033C19.1451 104.987 19.3861 104.987 19.6205 105.033C19.7361 105.061 19.8419 105.12 19.9266 105.204C20.0114 105.288 20.0719 105.393 20.1019 105.508C20.112 105.652 20.0778 105.796 20.0038 105.92C19.9299 106.044 19.8197 106.142 19.6883 106.201C19.4227 106.31 19.1415 106.377 18.8551 106.399C17.8779 106.542 16.9536 106.933 16.1704 107.536C15.7856 107.879 15.3727 108.189 14.936 108.463C13.4115 109.322 12.2204 107.672 13.8065 106.695C15.3672 105.776 17.1089 105.209 18.9107 105.033Z" fill="#FFAB91"/>
<path d="M19.8179 106.51C20.0519 106.46 20.2937 106.46 20.5277 106.51C20.6432 106.541 20.7486 106.602 20.8331 106.686C20.9176 106.771 20.9783 106.876 21.0091 106.992C21.0183 107.136 20.9837 107.279 20.9099 107.403C20.836 107.526 20.7264 107.625 20.5956 107.684C20.3296 107.792 20.0484 107.856 19.7624 107.876C18.7847 108.022 17.8605 108.415 17.0776 109.019C16.6897 109.359 16.2771 109.669 15.8432 109.947C14.3188 110.8 13.1276 109.155 14.7138 108.179C16.2739 107.258 18.0157 106.688 19.8179 106.51Z" fill="#FFAB91"/>
<path d="M19.5526 108.173C19.7869 108.127 20.028 108.127 20.2623 108.173C20.379 108.198 20.486 108.256 20.5703 108.34C20.6547 108.425 20.7128 108.532 20.7376 108.649C20.7505 108.793 20.7174 108.938 20.6431 109.062C20.5689 109.186 20.4572 109.284 20.3241 109.341C20.0586 109.451 19.7773 109.518 19.4908 109.539C18.5089 109.698 17.5856 110.111 16.8123 110.738C16.4234 111.074 16.0109 111.382 15.5779 111.659C14.0472 112.518 12.8561 110.868 14.4484 109.891C16.0041 108.952 17.7463 108.365 19.5526 108.173Z" fill="#FFAB91"/>
<path d="M18.7564 109.872C18.948 109.835 19.1449 109.835 19.3365 109.872C19.4312 109.897 19.5174 109.946 19.5859 110.016C19.6544 110.086 19.7026 110.173 19.7254 110.268C19.7348 110.386 19.7071 110.503 19.6462 110.604C19.5853 110.705 19.4942 110.784 19.3859 110.831C19.169 110.918 18.9401 110.972 18.707 110.991C17.904 111.123 17.149 111.462 16.516 111.974C16.2081 112.25 15.8801 112.502 15.5347 112.728C14.3003 113.427 13.319 112.11 14.615 111.282C15.8769 110.516 17.2901 110.036 18.7564 109.872Z" fill="#FFAB91"/>
<path d="M13.6522 106.85C12.9251 107.445 12.2997 108.155 11.8006 108.952C11.1615 109.846 10.8978 110.955 11.0662 112.042C11.1691 112.583 11.4421 113.077 11.8451 113.452C12.2481 113.826 12.7602 114.062 13.3066 114.125C13.964 114.132 14.6041 113.914 15.1211 113.507C15.6648 113.099 16.1075 112.571 16.415 111.964C16.7224 111.357 16.8864 110.687 16.8941 110.007C16.9019 109.326 16.7532 108.653 16.4597 108.039C16.1662 107.425 15.7356 106.887 15.2013 106.467L13.6522 106.85Z" fill="#FFAB91"/>
<path d="M12.1278 109.854C9.65901 112.833 0.0555492 127.891 2.18535e-06 131.704C-0.0457317 132.722 0.124847 133.737 0.500442 134.683C0.876037 135.63 1.44808 136.485 2.17868 137.193C3.88829 138.695 5.88182 138.318 7.02362 136.353C9.06034 132.805 13.0844 117.111 14.0472 112.295L12.1278 109.854Z" fill="#FFAB91"/>
<path d="M44.0982 103.561C43.8642 103.512 43.6224 103.512 43.3884 103.561C43.2728 103.59 43.167 103.649 43.0822 103.733C42.9975 103.817 42.9369 103.922 42.907 104.037C42.8965 104.182 42.9312 104.327 43.0064 104.451C43.0816 104.575 43.1936 104.672 43.3267 104.73C43.5915 104.841 43.8733 104.905 44.1599 104.921C45.1346 105.071 46.0558 105.464 46.8385 106.065C47.2158 106.404 47.6181 106.714 48.042 106.992C49.5665 107.845 50.7638 106.201 49.1715 105.224C47.6205 104.309 45.8895 103.741 44.0982 103.561Z" fill="#FFAB91"/>
<path d="M43.1909 105.039C42.9569 104.989 42.7151 104.989 42.4811 105.039C42.365 105.068 42.259 105.129 42.1743 105.214C42.0896 105.298 42.0293 105.405 41.9997 105.521C41.9896 105.665 42.0245 105.808 42.0998 105.931C42.175 106.054 42.2868 106.151 42.4194 106.207C42.6796 106.321 42.9571 106.39 43.2402 106.411C44.2157 106.558 45.1376 106.951 45.9188 107.554C46.2978 107.89 46.7 108.197 47.1224 108.475C48.6468 109.335 49.8442 107.69 48.2518 106.708C46.7051 105.792 44.9785 105.222 43.1909 105.039Z" fill="#FFAB91"/>
<path d="M43.4625 106.701C43.2281 106.656 42.9871 106.656 42.7527 106.701C42.6371 106.73 42.5313 106.789 42.4465 106.873C42.3618 106.957 42.3012 107.062 42.2713 107.177C42.2611 107.321 42.2954 107.465 42.3693 107.589C42.4433 107.713 42.5534 107.811 42.6848 107.87C42.952 107.98 43.2357 108.045 43.5242 108.061C44.4988 108.211 45.4201 108.604 46.2028 109.205C46.5789 109.545 46.9813 109.855 47.4063 110.132C48.9308 110.985 50.1219 109.341 48.5358 108.364C46.9848 107.449 45.2538 106.881 43.4625 106.701Z" fill="#FFAB91"/>
<path d="M44.2586 108.401C44.067 108.364 43.8701 108.364 43.6785 108.401C43.5836 108.426 43.4971 108.476 43.4277 108.546C43.3583 108.615 43.3086 108.702 43.2835 108.797C43.2768 108.914 43.3056 109.03 43.3662 109.131C43.4268 109.231 43.5163 109.311 43.6229 109.359C43.8412 109.449 44.0727 109.501 44.308 109.514C45.1033 109.635 45.8549 109.956 46.4929 110.447C46.8004 110.723 47.1284 110.975 47.4742 111.201C48.7086 111.906 49.6961 110.583 48.4 109.761C47.1332 109.015 45.7207 108.551 44.2586 108.401Z" fill="#FFAB91"/>
<path d="M49.3628 105.379C50.088 105.976 50.7131 106.685 51.2143 107.48C51.8615 108.383 52.1255 109.505 51.9488 110.602C51.8446 111.143 51.5704 111.637 51.1664 112.012C50.7623 112.387 50.2493 112.622 49.7022 112.685C49.0468 112.691 48.4089 112.473 47.8938 112.067C47.3501 111.658 46.9074 111.13 46.6 110.524C46.2925 109.917 46.1286 109.247 46.1208 108.566C46.1131 107.886 46.2617 107.213 46.5552 106.599C46.8488 105.985 47.2793 105.447 47.8136 105.026L49.3628 105.379Z" fill="#FFAB91"/>
<path d="M50.8872 108.383C53.356 111.362 62.9595 126.419 63.015 130.233C63.0587 131.25 62.8865 132.264 62.5099 133.209C62.1333 134.154 61.5608 135.009 60.8302 135.716C59.1267 137.224 57.127 136.847 55.9852 134.882C53.9547 131.334 49.9244 115.64 48.9678 110.824L50.8872 108.383Z" fill="#FFAB91"/>
<path d="M59.1576 141.582C56.7341 144.442 54.3127 147.306 51.8933 150.174C51.202 150.998 50.5087 151.822 49.8133 152.646C49.6529 152.844 49.9183 153.135 50.0849 152.943L57.3431 144.345L59.423 141.872C59.5835 141.681 59.3181 141.384 59.1576 141.582Z" fill="#1D253D"/>
<path d="M23.8729 143.133C23.6548 146.492 23.4779 149.846 23.3421 153.196C23.2063 156.547 23.1096 159.919 23.052 163.315C23.0211 165.206 23.0026 167.104 22.9965 168.996C22.9965 169.249 23.3915 169.267 23.3915 168.996C23.3915 165.633 23.4429 162.275 23.5458 158.92C23.6486 155.566 23.7803 152.193 23.9408 148.802C24.0395 146.914 24.1506 145.025 24.274 143.133C24.2657 143.086 24.2411 143.043 24.2044 143.013C24.1677 142.982 24.1213 142.965 24.0735 142.965C24.0256 142.965 23.9792 142.982 23.9425 143.013C23.9058 143.043 23.8812 143.086 23.8729 143.133Z" fill="#1D253D"/>
<path d="M31.3532 128.527C30.9687 128.527 30.5928 128.413 30.2731 128.199C29.9534 127.985 29.7042 127.681 29.557 127.325C29.4099 126.97 29.3714 126.578 29.4464 126.2C29.5214 125.823 29.7066 125.476 29.9785 125.203C30.2504 124.931 30.5968 124.746 30.9739 124.671C31.351 124.595 31.7419 124.634 32.0972 124.781C32.4524 124.929 32.7561 125.178 32.9697 125.499C33.1833 125.819 33.2974 126.195 33.2974 126.58C33.2957 127.096 33.0904 127.59 32.7261 127.955C32.3619 128.32 31.8683 128.526 31.3532 128.527ZM31.3532 124.819C31.0077 124.819 30.6701 124.921 30.3828 125.113C30.0956 125.306 29.8717 125.579 29.7395 125.898C29.6073 126.218 29.5727 126.57 29.6401 126.909C29.7075 127.248 29.8739 127.56 30.1181 127.805C30.3624 128.049 30.6736 128.216 31.0125 128.284C31.3513 128.351 31.7025 128.316 32.0216 128.184C32.3408 128.052 32.6136 127.827 32.8055 127.54C32.9974 127.252 33.0999 126.914 33.0999 126.568C33.0966 126.106 32.9111 125.664 32.5839 125.339C32.2567 125.014 31.8143 124.831 31.3532 124.831V124.819Z" fill="#170D05"/>
<path d="M36.1117 128.527C35.7272 128.527 35.3514 128.413 35.0316 128.199C34.7119 127.985 34.4627 127.681 34.3156 127.325C34.1684 126.97 34.1299 126.578 34.205 126.2C34.28 125.823 34.4651 125.476 34.737 125.203C35.0089 124.931 35.3553 124.746 35.7325 124.671C36.1096 124.595 36.5005 124.634 36.8557 124.781C37.211 124.929 37.5146 125.178 37.7282 125.499C37.9419 125.819 38.0559 126.195 38.0559 126.58C38.0559 127.097 37.8511 127.592 37.4865 127.957C37.1219 128.322 36.6274 128.527 36.1117 128.527ZM36.1117 124.819C35.7663 124.819 35.4286 124.921 35.1414 125.113C34.8541 125.306 34.6303 125.579 34.4981 125.898C34.3659 126.218 34.3313 126.57 34.3987 126.909C34.4661 127.248 34.6324 127.56 34.8767 127.805C35.121 128.049 35.4322 128.216 35.771 128.284C36.1098 128.351 36.461 128.316 36.7802 128.184C37.0993 128.052 37.3721 127.827 37.564 127.54C37.756 127.252 37.8584 126.914 37.8584 126.568C37.8551 126.106 37.6697 125.664 37.3425 125.339C37.0153 125.014 36.5729 124.831 36.1117 124.831V124.819Z" fill="#170D05"/>
<path d="M33.2233 125.974L33.0875 125.832C33.2617 125.67 33.4878 125.576 33.7253 125.565C33.9629 125.555 34.1963 125.63 34.3836 125.777L34.2602 125.931C34.1088 125.818 33.923 125.76 33.734 125.768C33.5451 125.776 33.3647 125.849 33.2233 125.974Z" fill="#170D05"/>
<path d="M41.7343 126.58C40.518 126.123 39.2061 125.98 37.9201 126.166V125.974C39.2389 125.778 40.5858 125.923 41.8331 126.395L41.7343 126.58Z" fill="#170D05"/>
</g>
<defs>
<clipPath id="clip0_129_2302">
<rect width="96" height="275" fill="white" transform="translate(73)"/>
</clipPath>
<clipPath id="clip1_129_2302">
<rect width="242" height="215" fill="white" transform="translate(0 58)"/>
</clipPath>
</defs>
</svg>
