<svg width="97" height="97" viewBox="0 0 97 97" fill="none" xmlns="http://www.w3.org/2000/svg">
<path d="M65.749 11.0428C69.6949 14.9887 69.6949 21.3863 65.749 25.3322C61.8031 29.2781 55.4055 29.2781 51.4596 25.3322C47.5136 21.3863 47.5136 14.9887 51.4596 11.0428C55.4055 7.09683 61.8031 7.09683 65.749 11.0428" stroke="#FE5402" stroke-width="4" stroke-linecap="round" stroke-linejoin="round"/>
<path d="M35.6815 28.9851C41.995 35.2986 41.995 45.5347 35.6815 51.8482C29.368 58.1617 19.1319 58.1617 12.8184 51.8482C6.50494 45.5347 6.50494 35.2985 12.8184 28.9851C19.1319 22.6716 29.3681 22.6716 35.6815 28.9851" stroke="#FE5402" stroke-width="4" stroke-linecap="round" stroke-linejoin="round"/>
<path d="M40.4166 40.4166H8.08331" stroke="#FE5402" stroke-width="4" stroke-linecap="round" stroke-linejoin="round"/>
<path fill-rule="evenodd" clip-rule="evenodd" d="M85.3398 61.2514L65.2931 81.2981C60.524 86.0673 52.7963 86.0673 48.0271 81.2981V81.2981C43.258 76.5289 43.258 68.8013 48.0271 64.0321L68.0738 43.9854C72.843 39.2163 80.5706 39.2163 85.3398 43.9854V43.9854C90.109 48.7546 90.109 56.4863 85.3398 61.2514Z" stroke="#FE5402" stroke-width="4" stroke-linecap="round" stroke-linejoin="round"/>
<path d="M58.1191 54.0775L75.2558 71.2141" stroke="#FE5402" stroke-width="4" stroke-linecap="round" stroke-linejoin="round"/>
</svg>
