<svg width="220" height="161" viewBox="0 0 220 161" fill="none" xmlns="http://www.w3.org/2000/svg">
<path d="M6.02075 161.006L0.180786 151.045L11.7275 150.968L6.02075 161.006ZM219.514 2.00584C218.55 1.99915 217.573 1.99818 216.584 2.00309L216.574 0.00311035C217.571 -0.00183856 218.556 -0.000859618 219.528 0.00588858L219.514 2.00584ZM210.614 2.10137C208.661 2.1554 206.667 2.23149 204.635 2.3307L204.538 0.333085C206.583 0.233188 208.591 0.156563 210.559 0.102138L210.614 2.10137ZM198.691 2.6811C196.743 2.81532 194.766 2.97035 192.763 3.14707L192.587 1.15481C194.603 0.976968 196.592 0.82093 198.553 0.685833L198.691 2.6811ZM186.825 3.72753C184.863 3.93778 182.881 4.16862 180.88 4.4208L180.63 2.43649C182.643 2.18275 184.638 1.95048 186.611 1.73892L186.825 3.72753ZM174.983 5.21887C173.035 5.50077 171.071 5.80289 169.095 6.1259L168.772 4.15209C170.761 3.82709 172.736 3.52311 174.697 3.23948L174.983 5.21887ZM163.205 7.14443C161.264 7.49879 159.312 7.87346 157.352 8.26903L156.956 6.30856C158.928 5.9105 160.892 5.53349 162.846 5.17692L163.205 7.14443ZM151.524 9.50275C149.59 9.93146 147.649 10.3808 145.705 10.8514L145.235 8.90751C147.192 8.43386 149.144 7.9816 151.091 7.55013L151.524 9.50275ZM139.928 12.3101C138.014 12.8138 136.097 13.3385 134.181 13.8846L133.633 11.9612C135.563 11.4112 137.492 10.883 139.42 10.3759L139.928 12.3101ZM128.458 15.5802C126.565 16.1628 124.673 16.7668 122.785 17.3929L122.156 15.4946C124.058 14.8639 125.963 14.2554 127.869 13.6687L128.458 15.5802ZM117.149 19.3318C115.279 19.9986 113.415 20.6876 111.557 21.3994L110.841 19.5318C112.714 18.8143 114.593 18.1199 116.477 17.448L117.149 19.3318ZM106.022 23.5963C104.186 24.351 102.358 25.1288 100.54 25.9301L99.7333 24.1C101.567 23.2918 103.41 22.5074 105.262 21.7465L106.022 23.5963ZM95.1223 28.4029C93.3272 29.2511 91.5436 30.1233 89.7732 31.0199L88.8695 29.2357C90.6567 28.3306 92.4566 27.4504 94.2678 26.5946L95.1223 28.4029ZM84.5016 33.7846C82.7569 34.7319 81.027 35.7043 79.3136 36.7022L78.307 34.974C80.0381 33.9658 81.7854 32.9836 83.5472 32.027L84.5016 33.7846ZM74.2185 39.7767C72.5363 40.8283 70.8724 41.9061 69.2283 43.0104L68.1131 41.3502C69.7757 40.2334 71.458 39.1438 73.1583 38.0808L74.2185 39.7767ZM64.3468 46.4112C62.7394 47.5728 61.1536 48.7617 59.5911 49.9783L58.3624 48.4003C59.9441 47.1687 61.549 45.9655 63.1754 44.7902L64.3468 46.4112ZM54.9705 53.716C53.4535 54.991 51.9616 56.2944 50.4964 57.6267L49.1509 56.1469C50.6357 54.7969 52.1472 53.4764 53.6836 52.185L54.9705 53.716ZM46.183 61.7102C44.7737 63.0999 43.3928 64.5189 42.0418 65.9677L40.5791 64.6038C41.9494 63.1342 43.3499 61.6951 44.7787 60.2861L46.183 61.7102ZM38.0891 70.3944C36.8047 71.8975 35.5517 73.4306 34.3317 74.9944L32.7548 73.7642C33.9934 72.1767 35.2652 70.6204 36.5687 69.0951L38.0891 70.3944ZM30.7909 79.7523C29.6506 81.3603 28.5441 82.9987 27.4732 84.6681L25.7898 83.5882C26.8777 81.8924 28.0015 80.2283 29.1596 78.5954L30.7909 79.7523ZM24.3821 89.7462C23.4012 91.447 22.4561 93.1781 21.5483 94.9402L19.7704 94.0241C20.6928 92.2338 21.6531 90.4749 22.6496 88.747L24.3821 89.7462ZM18.9548 100.282C18.1391 102.07 17.3606 103.887 16.6207 105.736L14.764 104.992C15.5156 103.115 16.3066 101.268 17.1354 99.4521L18.9548 100.282ZM14.5494 111.283C13.903 113.146 13.2947 115.038 12.7259 116.961L10.8081 116.393C11.3857 114.441 12.0034 112.519 12.66 110.628L14.5494 111.283ZM11.1797 122.654C10.7063 124.564 10.2708 126.503 9.87442 128.471L7.91382 128.076C8.31601 126.08 8.75795 124.112 9.23842 122.173L11.1797 122.654ZM8.83057 134.29C8.52477 136.228 8.25587 138.193 8.02495 140.185L6.03825 139.955C6.27229 137.936 6.54489 135.944 6.85501 133.978L8.83057 134.29ZM7.45885 146.09C7.31006 148.042 7.19684 150.02 7.12009 152.023L5.12155 151.946C5.19925 149.918 5.31392 147.916 5.46463 145.938L7.45885 146.09Z" fill="#696969"/>
</svg>
