<?xml version="1.0" encoding="UTF-8"?>
<svg version="1.1" xmlns="http://www.w3.org/2000/svg" width="512" height="512">
<path d="M0 0 C8.3851064 6.40361151 13.94535512 14.49344458 15.43798828 25.11743164 C15.57252976 28.34516031 15.56422894 31.53607748 15.48828125 34.765625 C15.48120651 35.92503601 15.47413177 37.08444702 15.46684265 38.2789917 C15.43913378 41.93668606 15.37643744 45.59277817 15.3125 49.25 C15.28738687 51.74867562 15.26457903 54.24737552 15.24414062 56.74609375 C15.1893845 62.83126427 15.10599725 68.91551763 15 75 C16.08877441 74.67620361 17.17754883 74.35240723 18.29931641 74.01879883 C28.84250906 71.11625608 38.76345243 72.88918627 48.125 78.1875 C53.52088607 81.73799303 57.44670895 86.67006343 61 92 C61.79921875 91.67773438 62.5984375 91.35546875 63.421875 91.0234375 C72.58553049 88.40239194 85.23424743 88.33250658 93.86328125 92.609375 C102.46254298 98.20596947 107.53154958 104.94287179 112 114 C112.99 113.67 113.98 113.34 115 113 C118.05796942 112.74831527 121.12023211 112.76871712 124.1875 112.75 C125.01314453 112.729375 125.83878906 112.70875 126.68945312 112.6875 C136.73378352 112.62417877 144.24567955 116.40353874 151.625 123.1875 C157.15743385 128.86681262 160.10181688 136.4298051 160.14717102 144.3326416 C160.15790398 145.62276405 160.15790398 145.62276405 160.16885376 146.93894958 C160.17154266 147.87497513 160.17423157 148.81100067 160.17700195 149.77539062 C160.18357315 150.76797379 160.19014435 151.76055695 160.19691467 152.78321838 C160.21664688 156.07422976 160.22831808 159.36519521 160.23828125 162.65625 C160.24235678 163.78603775 160.2464323 164.9158255 160.25063133 166.07984924 C160.27150445 172.07455258 160.28579363 178.06923302 160.29516602 184.06396484 C160.30615603 190.20738329 160.34046584 196.35043204 160.38033772 202.49372101 C160.4067188 207.2555195 160.41487736 212.0172334 160.41844749 216.77909851 C160.42326827 219.04012004 160.43475036 221.30113897 160.45348549 223.56208801 C160.63609988 247.08654772 158.04184972 275.85820512 141.65869141 294.52856445 C136.74912203 300.18113283 137.3283381 306.23990267 137.375 313.4375 C137.375 331.8131524 137.375 331.8131524 130.4375 339.75 C129.83808594 340.46671875 129.23867188 341.1834375 128.62109375 341.921875 C121.00006564 347.96418045 112.68287523 348.58410399 103.2734375 348.51757812 C101.42265594 348.52809204 101.42265594 348.52809204 99.53448486 348.53881836 C96.17878883 348.55331921 92.82409071 348.55004525 89.46845245 348.53730202 C85.93907944 348.52709886 82.40974597 348.53658782 78.88037109 348.54284668 C72.95597781 348.55010199 67.03178469 348.54059137 61.10742188 348.52148438 C54.28057754 348.49971951 47.45421123 348.5067724 40.62737846 348.52879 C34.74167763 348.54700475 28.8561198 348.54947283 22.97039986 348.53903532 C19.46576236 348.53283356 15.96134875 348.53187226 12.45672607 348.54518127 C8.54648594 348.55899629 4.63677131 348.53979123 0.7265625 348.51757812 C-0.41866882 348.52567505 -1.56390015 348.53377197 -2.74383545 348.54211426 C-10.94882763 348.45612897 -17.99643022 347.06681798 -24.62109375 341.9921875 C-25.22050781 341.29351562 -25.81992188 340.59484375 -26.4375 339.875 C-27.05496094 339.19179688 -27.67242187 338.50859375 -28.30859375 337.8046875 C-32.60301004 330.68369237 -33.22798635 323.76291842 -33.05737305 315.58764648 C-32.88150732 305.35675133 -33.02652499 297.55451893 -40.15429688 289.85253906 C-41.19757617 288.78881625 -42.2538643 287.73772019 -43.32177734 286.69873047 C-46.46543064 283.51666186 -49.19169035 279.97629441 -52 276.5 C-53.19543004 275.0524064 -54.39203205 273.60577977 -55.58984375 272.16015625 C-59.0902733 267.9094253 -62.5031299 263.59527045 -65.87573242 259.24267578 C-68.31241411 256.10819873 -70.79837812 253.03019193 -73.359375 249.99609375 C-85.4001991 235.68434543 -92.84077904 221.88795034 -92.34765625 202.61328125 C-90.90369439 187.60581245 -84.7938591 172.81985968 -73 163 C-71.62834134 162.19396201 -70.238157 161.41892735 -68.83453369 160.66993713 C-62.92542744 157.33340901 -57.28793875 153.8456649 -55.04316711 147.1429863 C-53.67840222 139.22979616 -53.97158099 131.22532181 -54.23903179 123.23013377 C-54.33687727 119.7154194 -54.33249365 116.20080938 -54.33843994 112.68495178 C-54.36395699 106.03246981 -54.47141801 99.38420922 -54.61300302 92.73328263 C-54.86322008 80.83575307 -54.9644468 68.93627738 -55.04807973 57.03656584 C-55.08048623 52.87159878 -55.14579905 48.70887673 -55.24038553 44.54487026 C-55.30856777 41.33219979 -55.34567764 38.11908543 -55.38964844 34.90600586 C-55.42498184 33.77267822 -55.46031525 32.63935059 -55.49671936 31.47167969 C-55.57610255 22.27852076 -53.25759206 14.49161706 -47.82421875 7 C-35.48769609 -4.54716563 -15.34340445 -9.40087955 0 0 Z M-29.8125 21.4375 C-33.34648608 25.57731227 -33.12773104 28.84089584 -33.13803101 34.12265015 C-33.14226293 35.21763712 -33.14226293 35.21763712 -33.14658034 36.33474505 C-33.15493139 38.78746441 -33.15626501 41.24013867 -33.15771484 43.69287109 C-33.16238265 45.44872668 -33.16752616 47.20458105 -33.17311096 48.96043396 C-33.18439565 52.7450995 -33.192828 56.52975715 -33.19923019 60.31443405 C-33.20990232 66.29775687 -33.23014459 72.28102299 -33.25234985 78.26431274 C-33.31430215 95.27969774 -33.36830699 112.29507941 -33.40136719 129.31054688 C-33.419701 138.70530934 -33.44862023 148.09997686 -33.4893719 157.49466956 C-33.51046058 162.46746236 -33.52590182 167.44013543 -33.52817917 172.41297531 C-33.53032354 177.08991976 -33.54617128 181.76661482 -33.57256889 186.44348335 C-33.57977107 188.1603578 -33.58185842 189.87726243 -33.57846642 191.59414864 C-33.57457607 193.93752265 -33.58901133 196.28009845 -33.60800171 198.62338257 C-33.61131186 199.9348847 -33.614622 201.24638683 -33.61803246 202.59763145 C-34.02807705 206.25009581 -34.7761147 208.10619263 -37 211 C-41.0016041 213.66773607 -44.29431148 213.71478813 -49 213 C-51.50160818 211.12379387 -52.61945652 209.76108697 -54 207 C-54.15441209 204.89625004 -54.24992639 202.78804881 -54.31640625 200.6796875 C-54.35830078 199.42285156 -54.40019531 198.16601562 -54.44335938 196.87109375 C-54.48267578 195.55238281 -54.52199219 194.23367188 -54.5625 192.875 C-54.60569512 191.53514249 -54.64930973 190.19529844 -54.69335938 188.85546875 C-54.79970981 185.57042185 -54.90173808 182.28529719 -55 179 C-63.06147602 182.89691399 -66.1667835 189.55342117 -69.0859375 197.79296875 C-71.49814641 206.25631712 -69.96850065 214.29961831 -65.921875 222.0703125 C-61.2476855 229.4758055 -55.30692753 236.13153584 -49.74658203 242.87841797 C-46.94330528 246.28357242 -44.15774571 249.70305923 -41.375 253.125 C-40.83560791 253.78814209 -40.29621582 254.45128418 -39.74047852 255.13452148 C-34.88793246 261.11348597 -30.12544471 267.16017089 -25.38671875 273.22949219 C-23.89899695 275.12895672 -22.4034335 277.02204819 -20.90625 278.9140625 C-20.39916504 279.55585449 -19.89208008 280.19764648 -19.36962891 280.85888672 C-18.39402046 282.09329754 -17.4171871 283.32674152 -16.43896484 284.55908203 C-12.59994993 289.42485971 -11.86702554 291.65890082 -11.71875 297.87109375 C-11.69113586 298.88829247 -11.69113586 298.88829247 -11.66296387 299.92604065 C-11.60417924 302.09643844 -11.551389 304.26691525 -11.5 306.4375 C-11.43228921 309.29052902 -11.35858606 312.14331128 -11.28125 314.99609375 C-11.25095703 316.26638428 -11.22066406 317.5366748 -11.18945312 318.84545898 C-11.13496245 322.02642291 -11.13496245 322.02642291 -10 325 C-7.55199855 326.22400072 -5.96147227 326.13117985 -3.22401428 326.14044189 C-2.21590195 326.14615204 -1.20778961 326.15186218 -0.16912842 326.15774536 C0.94105652 326.15886322 2.05124146 326.15998108 3.19506836 326.16113281 C4.36097 326.16609772 5.52687164 326.17106262 6.72810364 326.17617798 C10.59868959 326.19082617 14.46923459 326.19760546 18.33984375 326.203125 C20.34326943 326.20742168 22.34669511 326.21171886 24.3501206 326.2160995 C29.93233132 326.22791452 35.51453207 326.23544943 41.09675401 326.2388947 C48.32160098 326.24337806 55.54625899 326.26093867 62.77104849 326.2898953 C68.35240981 326.31149057 73.93371789 326.32159779 79.51512057 326.32293582 C82.85030798 326.32398525 86.1852769 326.33135947 89.52042961 326.34775543 C93.23894611 326.36473339 96.95699802 326.36295587 100.67553711 326.35644531 C101.78369781 326.3656601 102.89185852 326.37487488 104.03359985 326.3843689 C105.04453201 326.37879974 106.05546417 326.37323059 107.09703064 326.36749268 C107.97658889 326.36895924 108.85614714 326.3704258 109.76235867 326.3719368 C112.49071854 325.91843363 113.38470877 325.21701711 115 323 C115.32828774 319.96322945 115.32828774 319.96322945 115.125 316.48828125 C115.10332764 315.18036621 115.08165527 313.87245117 115.05932617 312.52490234 C115.04759369 311.83628113 115.03586121 311.14765991 115.02377319 310.43817139 C114.87192886 296.861066 116.46082422 288.02355501 125.66992188 277.625 C135.21005649 265.96950514 138.13299571 247.95928416 138.17700195 233.34204102 C138.18685875 231.90918762 138.18685875 231.90918762 138.19691467 230.4473877 C138.21655869 227.29955965 138.22828763 224.15177901 138.23828125 221.00390625 C138.24439454 219.38692998 138.24439454 219.38692998 138.25063133 217.73728752 C138.27144961 212.03636748 138.28577218 206.33547125 138.29516602 200.63452148 C138.30624864 194.75219046 138.34068229 188.87023579 138.38033772 182.98803806 C138.40648635 178.45752767 138.41485609 173.92710747 138.41844749 169.39652824 C138.42331441 167.22803124 138.43493132 165.05953828 138.45348549 162.89111519 C138.47784918 159.85622338 138.47691726 156.8223133 138.4699707 153.78735352 C138.48278076 152.8962236 138.49559082 152.00509369 138.50878906 151.08695984 C138.46002665 145.2305909 137.43066691 141.79007792 134 137 C130.45594712 134.63729808 128.22830914 134.28666503 124 134 C118.93780071 135.01243986 116.36949479 137.14914882 113 141 C111.54041247 143.91917506 111.83459128 146.5438028 111.7890625 149.80078125 C111.7609856 151.18425645 111.73232108 152.56771984 111.703125 153.95117188 C111.66193408 156.13012252 111.62504418 158.30885441 111.59863281 160.48803711 C111.57091724 162.59274835 111.52504146 164.69645923 111.4765625 166.80078125 C111.45674316 168.06059814 111.43692383 169.32041504 111.41650391 170.6184082 C110.84638098 175.24723159 109.32717362 177.86242261 105.8125 180.875 C102.09031387 182.36387445 98.74989287 182.55065152 95 181 C92.36747997 178.75747155 91.13172292 176.90808711 90.63191223 173.46243286 C90.48953857 170.19986853 90.47302718 166.95702255 90.49609375 163.69140625 C90.4819619 161.89218971 90.4819619 161.89218971 90.46754456 160.05662537 C90.43887199 156.22507648 90.43581724 152.39414757 90.4375 148.5625 C90.43389255 144.73451345 90.42435464 140.90697856 90.39674377 137.0790863 C90.37995776 134.69849859 90.37707758 132.31776218 90.38975525 129.93714905 C90.35520787 122.04646399 90.35520787 122.04646399 87 115 C83.52131871 112.27346602 80.39820173 111.2638921 76 111 C71.73039602 111.674148 68.99216021 112.6065687 66.125 115.8125 C63.13978936 120.29031596 62.87820462 124.07728989 62.8581543 129.36938477 C62.85111984 130.4171962 62.84408539 131.46500763 62.83683777 132.54457092 C62.83059135 134.22600441 62.83059135 134.22600441 62.82421875 135.94140625 C62.80103388 138.3222746 62.7769171 140.70313402 62.75195312 143.08398438 C62.71675154 146.83233746 62.68743633 150.58035861 62.67407227 154.32885742 C62.65864045 157.95011195 62.61847727 161.57040458 62.57421875 165.19140625 C62.57612717 166.31438614 62.57803558 167.43736603 62.58000183 168.59437561 C62.56351089 169.63903488 62.54701996 170.68369415 62.5300293 171.76000977 C62.52416306 172.6775856 62.51829681 173.59516144 62.51225281 174.5405426 C61.83722501 177.78152455 60.56686365 178.96790484 58 181 C53.34408106 182.185143 50.23653834 182.35363241 46 180 C44.38342285 178.83010864 44.38342285 178.83010864 43 177 C42.62145996 174.08029175 42.62145996 174.08029175 42.61523438 170.46826172 C42.6098616 169.80928391 42.60448883 169.15030609 42.59895325 168.47135925 C42.58917398 167.04072882 42.58623157 165.61003906 42.58930969 164.17937851 C42.59379271 161.90804658 42.5797713 159.63749194 42.56091309 157.36624146 C42.52411273 152.53584049 42.5104362 147.70552044 42.5 142.875 C42.48788833 137.29569749 42.4660937 131.71677214 42.41999817 126.13763809 C42.40652473 123.91255731 42.41058287 121.687965 42.41540527 119.46286011 C42.49366406 108.85591723 42.49366406 108.85591723 39 99 C35.68650541 96.00799283 32.85723256 95.10527417 28.4375 94.5625 C23.71572975 95.16345258 20.41598018 96.43753911 17.1875 100 C14.83918035 103.95506468 14.87081486 107.26845989 14.8581543 111.77880859 C14.85294266 112.80617378 14.85294266 112.80617378 14.84762573 113.85429382 C14.84027868 115.34061244 14.8349277 116.82694195 14.83133507 118.31327438 C14.82416119 120.66732399 14.80848817 123.02116618 14.78999329 125.37515259 C14.73756473 132.06778127 14.68954515 138.76029532 14.67407227 145.453125 C14.66398465 149.54816251 14.63464274 153.64267635 14.59275246 157.73750687 C14.5804502 159.2963426 14.5753198 160.8552523 14.57755089 162.41413498 C14.57990694 164.59745833 14.55771851 166.77928191 14.5300293 168.96240234 C14.52122993 170.82413589 14.52122993 170.82413589 14.51225281 172.72348022 C13.90838333 176.58600716 12.72394393 178.24834901 10 181 C6.25010713 182.55065152 2.90968613 182.36387445 -0.8125 180.875 C-4.10661666 178.05147143 -5.81559166 175.43634481 -6.37358761 171.09014988 C-6.3730013 170.01114886 -6.37241499 168.93214785 -6.37181091 167.82044983 C-6.37856842 166.57695267 -6.38532593 165.33345551 -6.39228821 164.05227661 C-6.3847356 162.6820665 -6.37692989 161.31185777 -6.36889648 159.94165039 C-6.37136555 158.49253556 -6.37520504 157.04342252 -6.38031006 155.59431458 C-6.38863884 152.47806405 -6.38784839 149.36199632 -6.38012505 146.24574471 C-6.36853088 141.31628609 -6.38071388 136.38706208 -6.39674377 131.45762634 C-6.43291847 119.21433927 -6.43916802 106.97105783 -6.43664551 94.72772217 C-6.43493401 85.21108514 -6.44206208 75.69463998 -6.47662407 66.17805666 C-6.49340993 61.27974864 -6.4916307 56.38190874 -6.47580135 51.48360264 C-6.46999962 48.43384564 -6.48075288 45.38431006 -6.49604797 42.33459282 C-6.49977046 40.92289714 -6.49667684 39.5111641 -6.48617744 38.09950256 C-6.17107197 28.16586974 -6.17107197 28.16586974 -11 20 C-17.57982181 15.61345212 -23.95448165 16.36055077 -29.8125 21.4375 Z " fill="#000000" transform="translate(252,134)"/>
<path d="M0 0 C4.03938069 2.91608881 7.42475805 6.44255049 10.87109375 10.01953125 C11.88315478 11.04145374 12.89686124 12.06174905 13.91212463 13.08049011 C16.02794957 15.21153924 18.13023135 17.35476975 20.22241211 19.5090332 C22.90079176 22.26676168 25.600451 25.00232953 28.30908108 27.73032093 C30.89936297 30.34056509 33.47965984 32.96058168 36.05859375 35.58203125 C36.54898069 36.07920969 37.03936764 36.57638813 37.54461479 37.08863258 C38.93288974 38.50012744 40.31318477 39.91945751 41.69311523 41.33911133 C42.47871323 42.14439774 43.26431122 42.94968414 44.07371521 43.77937317 C46.40800975 46.47035485 47.88052103 48.60856784 48.1875 52.18359375 C47.82058796 56.59418217 47.36134948 58.5681433 44.4375 62.0625 C41.16236376 63.90848588 38.84618441 64.86601667 35.05322266 64.61035156 C32.52269034 63.85811247 31.21998732 62.76190237 29.2734375 60.984375 C28.57847168 60.35047852 27.88350586 59.71658203 27.16748047 59.06347656 C22.80179993 54.90727788 18.57860194 50.61646355 14.35546875 46.31640625 C10.36153368 42.27866202 6.28052529 38.4428305 1.97753906 34.73730469 C-1.43096846 31.74286771 -4.65477829 28.56925218 -7.875 25.375 C-8.86886719 24.41207031 -8.86886719 24.41207031 -9.8828125 23.4296875 C-13.82017443 19.52433664 -16.82428914 16.47321795 -17.1171875 10.68359375 C-16.70996209 6.90690649 -16.44656674 4.59542232 -14.125 1.5 C-9.57373671 -1.71265644 -5.14381917 -1.74684111 0 0 Z " fill="#000000" transform="translate(151,60)"/>
<path d="M0 0 C3.02508145 1.73602105 5.41790069 3.83580137 7 7 C7.1071768 9.12794395 7.14889226 11.25928644 7.16113281 13.38989258 C7.16609772 14.04539597 7.17106262 14.70089935 7.17617798 15.37626648 C7.19080544 17.54903202 7.19760315 19.72172452 7.203125 21.89453125 C7.20887676 23.40427147 7.21463449 24.91401166 7.22039795 26.42375183 C7.23091013 29.59215638 7.23675111 32.76053554 7.24023438 35.92895508 C7.24571421 39.98434083 7.26973009 44.03938999 7.29820633 48.0946703 C7.31685386 51.2148282 7.32203946 54.33490545 7.32357025 57.45511436 C7.32659345 58.94981409 7.33461078 60.4445125 7.34775543 61.93915749 C7.36485798 64.03367111 7.3629258 66.12736823 7.35644531 68.22192383 C7.36009094 69.41280106 7.36373657 70.60367828 7.36749268 71.8306427 C6.86899212 76.12984779 5.22055796 78.68903034 2.3125 81.8125 C-1.10872305 83.56934427 -4.2951849 83.78220664 -8 83 C-11.0190434 81.24700706 -13.41511201 79.16977599 -15 76 C-15.11751539 73.8469726 -15.16982626 71.69028863 -15.19287109 69.53417969 C-15.20104858 68.87052902 -15.20922607 68.20687836 -15.21765137 67.52311707 C-15.24250036 65.32271221 -15.25902176 63.12237194 -15.2734375 60.921875 C-15.27876118 60.16995125 -15.28408485 59.4180275 -15.28956985 58.64331818 C-15.31630191 54.66179931 -15.33567479 50.68031177 -15.35009766 46.69873047 C-15.36672755 42.59165473 -15.41148995 38.48538426 -15.4624691 34.37861252 C-15.496176 31.21638093 -15.50767885 28.05433947 -15.51332474 24.89194489 C-15.52002999 23.3784903 -15.53523343 21.86504791 -15.55921555 20.35176849 C-15.75843679 7.01782047 -15.75843679 7.01782047 -12.59228516 3.08691406 C-8.56468516 -0.15549739 -5.11258979 -0.87264983 0 0 Z " fill="#000000" transform="translate(235,30)"/>
<path d="M0 0 C0.6847641 -0.00817749 1.3695282 -0.01635498 2.07504272 -0.02478027 C4.34518559 -0.04962838 6.61526595 -0.0661489 8.88549805 -0.08056641 C9.66073507 -0.08589008 10.4359721 -0.09121376 11.23470116 -0.09669876 C15.33826077 -0.12342819 19.44178998 -0.14280345 23.54541016 -0.15722656 C27.78260851 -0.17387168 32.01902864 -0.21864781 36.25593281 -0.26959801 C39.51505927 -0.30326546 42.7740009 -0.31480335 46.03328514 -0.32045364 C47.59501275 -0.32716791 49.15672812 -0.34239478 50.71828651 -0.36634445 C52.90658464 -0.39799064 55.09278283 -0.3980352 57.28125 -0.390625 C59.14750786 -0.40275528 59.14750786 -0.40275528 61.0514679 -0.41513062 C65.22813969 0.35831778 66.68162323 1.95596147 69.3347168 5.19287109 C70.88948369 8.30240489 70.62116116 10.7555387 70.3347168 14.19287109 C68.63357909 17.5321414 67.45649145 19.61881579 64.08590698 21.34367371 C60.93046457 22.31764979 58.30522016 22.45375785 55.00317383 22.4675293 C53.7448172 22.47706131 52.48646057 22.48659332 51.18997192 22.49641418 C49.82415743 22.49615271 48.45834292 22.49521543 47.0925293 22.49365234 C45.6815478 22.49754316 44.27056746 22.50187862 42.85958862 22.50663757 C39.9057841 22.51408667 36.95209912 22.5138184 33.99829102 22.50854492 C30.22675856 22.50275662 26.45571821 22.51967166 22.68426704 22.5428896 C19.77075372 22.55767595 16.85735752 22.55849193 13.94381332 22.55537987 C12.55404563 22.55589078 11.16427098 22.56108497 9.77453995 22.57119179 C-3.85169337 22.65812202 -3.85169337 22.65812202 -9.6652832 19.19287109 C-12.14424098 16.31408142 -12.62241482 14.52969414 -13.1027832 10.75537109 C-12.58736677 6.5584087 -11.30489311 4.45356569 -8.6652832 1.19287109 C-5.77144524 -0.25404789 -3.23322572 0.03348455 0 0 Z " fill="#000000" transform="translate(291.665283203125,137.80712890625)"/>
<path d="M0 0 C0.68491013 -0.00832352 1.36982025 -0.01664703 2.07548523 -0.02522278 C4.34025758 -0.04932301 6.60474191 -0.0580948 8.86962891 -0.06469727 C10.44520148 -0.07366375 12.02077318 -0.0827856 13.59634399 -0.09205627 C16.90002512 -0.10854897 20.20360487 -0.11624685 23.50732422 -0.11914062 C27.73669766 -0.12452422 31.96511587 -0.16220078 36.19421959 -0.20788479 C39.44908103 -0.23765666 42.70371251 -0.2448642 45.95869827 -0.24586678 C47.51761881 -0.25006904 49.07654003 -0.26250381 50.63532639 -0.28338432 C52.81879236 -0.31030373 55.00004546 -0.30547446 57.18359375 -0.29296875 C58.42474945 -0.2980394 59.66590515 -0.30311005 60.94467163 -0.30833435 C65.11257969 0.47363609 66.57090197 2.07565727 69.22119141 5.30639648 C70.7759583 8.41593028 70.50763577 10.86906409 70.22119141 14.30639648 C68.40938561 17.99969291 67.30128963 19.85462691 63.46983337 21.4571991 C60.12902752 22.33048819 57.31537859 22.56641189 53.86791992 22.58105469 C52.0105294 22.59535271 52.0105294 22.59535271 50.11561584 22.60993958 C48.77710949 22.60967812 47.43860312 22.60874093 46.10009766 22.60717773 C44.71296563 22.61106992 43.32583478 22.61540566 41.93870544 22.62016296 C39.037955 22.62760401 36.13732632 22.62734924 33.23657227 22.62207031 C29.53344652 22.61627687 25.83082113 22.63321339 22.12777805 22.65641499 C19.26487858 22.67120102 16.4020983 22.67201748 13.5391674 22.66890526 C12.17451931 22.66941598 10.80986411 22.67460656 9.44525337 22.68471718 C-5.78630684 22.78373672 -5.78630684 22.78373672 -11.71630859 17.61889648 C-13.28644886 14.20153238 -13.32373094 10.96100904 -12.77880859 7.30639648 C-9.90392721 1.00903726 -6.6488588 0.05707047 0 0 Z " fill="#000000" transform="translate(112.77880859375,137.693603515625)"/>
<path d="M0 0 C3.99091631 2.14895493 6.31812054 3.79449647 8 8 C8.564367 11.27701228 8.13208878 13.8811329 7 17 C3.97726848 21.12939193 0.36697862 24.59081395 -3.30859375 28.125 C-4.35779763 29.16180281 -5.40530432 30.20032565 -6.45118713 31.24047852 C-9.19644273 33.96097844 -11.96528817 36.65618755 -14.73950195 39.34710693 C-17.00571275 41.55311896 -19.25493954 43.77601317 -21.50343227 46.00006104 C-26.14316731 50.58924814 -30.79604676 55.1649899 -35.47436523 59.71484375 C-36.30185776 60.52042725 -37.12935028 61.32601074 -37.98191833 62.15600586 C-41.40643387 65.28510945 -44.15141194 65.47140288 -48.66796875 65.3984375 C-52.05640773 64.81950823 -53.77027698 63.50827186 -55.953125 60.90234375 C-58.00499731 57.17375489 -58.02317825 54.07142481 -57 50 C-55.72503662 48.13987732 -55.72503662 48.13987732 -54.04589844 46.31811523 C-53.41043091 45.62571747 -52.77496338 44.9333197 -52.12023926 44.21994019 C-48.27642194 40.19537338 -44.38579249 36.22296464 -40.453125 32.28515625 C-39.56010681 31.38880966 -38.66708862 30.49246307 -37.74700928 29.56895447 C-35.87251184 27.68942335 -33.99693968 25.81103961 -32.11962891 23.93432617 C-29.71484862 21.52964842 -27.31707724 19.11810637 -24.92091751 16.70484257 C-22.62363719 14.39380196 -20.31920081 12.08991914 -18.015625 9.78515625 C-17.15624329 8.91858902 -16.29686157 8.05202179 -15.41143799 7.15919495 C-14.61340759 6.36424118 -13.8153772 5.56928741 -12.99316406 4.75024414 C-11.94228607 3.69722862 -11.94228607 3.69722862 -10.87017822 2.62294006 C-7.52319817 -0.28156816 -4.27125777 -0.41875076 0 0 Z " fill="#000000" transform="translate(320,59)"/>
</svg>
