<?xml version="1.0" encoding="UTF-8"?>
<svg version="1.1" xmlns="http://www.w3.org/2000/svg" width="512" height="512">
<path d="M0 0 C0.71334365 -0.00350607 1.42668729 -0.00701215 2.16164741 -0.01062447 C4.55229173 -0.01992936 6.94269197 -0.01501755 9.33334637 -0.01015663 C11.06452863 -0.01389335 12.79570922 -0.01849495 14.52688712 -0.02388728 C19.28463583 -0.03612998 24.0423143 -0.03585531 28.80007517 -0.03349853 C33.93108018 -0.03309068 39.06206257 -0.04412638 44.19305706 -0.05361366 C54.24576686 -0.07023145 64.2984532 -0.07572356 74.35117558 -0.07683842 C82.52172606 -0.07778849 90.69226879 -0.08189676 98.86281681 -0.08823967 C122.02354281 -0.10585396 145.18425027 -0.11507821 168.34498302 -0.11357872 C169.59376423 -0.11349881 170.84254544 -0.1134189 172.12916851 -0.11333656 C174.00462511 -0.11321392 174.00462511 -0.11321392 175.91796973 -0.1130888 C196.18410056 -0.11227578 216.45015709 -0.13141706 236.71626643 -0.1596133 C257.52116345 -0.18833095 278.32602422 -0.20215422 299.13094157 -0.20042574 C310.81302317 -0.19976147 322.49502688 -0.20527016 334.17709064 -0.22678185 C344.12290712 -0.24497887 354.06861038 -0.24935308 364.01443628 -0.235763 C369.08896494 -0.229226 374.1632763 -0.22914265 379.23778439 -0.2464695 C383.8845611 -0.2621727 388.53094774 -0.25936469 393.17771479 -0.24190123 C394.85736317 -0.23882529 396.53704047 -0.24248611 398.21665476 -0.25362138 C407.86310605 -0.31333084 416.32733495 -0.27747531 424.06740093 6.22211266 C431.12369104 14.9346469 431.87643526 22.8971383 431.93068218 33.88226891 C431.93638226 34.78799644 431.94208233 35.69372398 431.94795513 36.62689781 C431.95735741 38.53297333 431.96392 40.43906475 431.96779156 42.34515953 C431.97752758 45.24844246 432.00860837 48.15102575 432.04005718 51.05414391 C432.04658565 52.91351474 432.05183673 54.77289059 432.05568218 56.63226891 C432.06802898 57.49287926 432.08037579 58.35348961 432.09309673 59.24017906 C432.07321366 64.65798199 431.32306305 68.46751006 428.72755718 73.25726891 C423.94797096 75.64706202 418.07129703 74.25726891 412.72755718 74.25726891 C413.22255718 169.79226891 413.22255718 169.79226891 413.72755718 267.25726891 C421.64755718 271.21726891 421.64755718 271.21726891 429.72755718 275.25726891 C444.47274841 285.13806715 457.24597063 297.56981697 465.72755718 313.25726891 C466.04660015 313.83911949 466.36564312 314.42097008 466.69435406 315.0204525 C480.48074358 340.71134709 482.25245476 371.1007392 473.9626646 398.83563805 C468.68363982 415.25323658 459.48643545 428.77761877 447.72755718 441.25726891 C447.12556499 441.93531578 446.52357281 442.61336266 445.90333843 443.31195641 C429.71028779 460.8046662 403.93478562 471.13675226 380.4079771 472.3798275 C350.6510896 473.35526933 323.06830626 465.68706744 300.72755718 445.25726891 C299.88837749 444.49930016 299.04919781 443.74133141 298.18458843 442.96039391 C285.84458775 431.2517421 274.44458304 415.3457238 271.72755718 398.25726891 C271.18120227 398.25878779 270.63484737 398.26030667 270.07193625 398.26187158 C237.67158505 398.35143506 205.2712667 398.42004096 172.8708202 398.46153022 C168.97817633 398.46653289 165.08553271 398.4717102 161.19288921 398.47699547 C160.41795248 398.47804471 159.64301574 398.47909395 158.84459607 398.48017499 C146.30625135 398.49756775 133.76798019 398.52909919 121.22967906 398.56588009 C108.35879412 398.60332099 95.48794764 398.62551141 82.61701047 398.63362288 C74.67855207 398.63910415 66.7403016 398.65639967 58.80190723 398.68893477 C52.70889908 398.71263061 46.61606881 398.71508082 40.5230093 398.70969963 C38.02773288 398.71079881 35.53244848 398.71873856 33.03721905 398.73409081 C29.62476156 398.75405413 26.21318663 398.74918408 22.80070782 398.73828697 C21.81818967 398.74993834 20.83567153 398.7615897 19.82338011 398.77359414 C12.24383308 398.70837653 5.29662742 397.13425981 -0.70994282 392.29242516 C-1.22556782 391.64144859 -1.74119282 390.99047203 -2.27244282 390.31976891 C-2.80869282 389.67137047 -3.34494282 389.02297203 -3.89744282 388.35492516 C-6.58125645 384.26058447 -7.52251469 380.7203491 -7.51853848 375.84749699 C-7.52252057 374.7681393 -7.52650267 373.68878162 -7.53060544 372.57671613 C-7.52186691 370.80678075 -7.52186691 370.80678075 -7.51295185 369.0010891 C-7.5146607 367.7431664 -7.51636955 366.4852437 -7.51813018 365.18920213 C-7.52260175 361.70016958 -7.51460268 358.21125985 -7.50457406 354.72224295 C-7.49593911 350.95883288 -7.49885975 347.19542975 -7.50037861 343.43201256 C-7.50142743 336.91248178 -7.49515111 330.39299102 -7.48390293 323.87347031 C-7.46765054 314.44733742 -7.46244019 305.02122389 -7.45992695 295.59507851 C-7.45554944 280.30188165 -7.44223881 265.00870613 -7.42332172 249.71552086 C-7.40496438 234.85940215 -7.39080716 220.00328924 -7.3823061 205.14716148 C-7.38178065 204.23146746 -7.3812552 203.31577343 -7.38071384 202.37233111 C-7.37810377 197.77857444 -7.37557635 193.18481773 -7.37309003 188.591061 C-7.35235578 150.47978203 -7.31712872 112.36852688 -7.27244282 74.25726891 C-8.23666157 74.30367516 -9.20088032 74.35008141 -10.19431782 74.39789391 C-11.45759907 74.43398766 -12.72088032 74.47008141 -14.02244282 74.50726891 C-15.27541157 74.55367516 -16.52838032 74.60008141 -17.81931782 74.64789391 C-21.27244282 74.25726891 -21.27244282 74.25726891 -23.66306782 72.42914391 C-25.97688437 69.30661477 -26.39845912 66.79664975 -26.41770649 63.0204525 C-26.42408634 62.16881523 -26.43046619 61.31717796 -26.43703938 60.43973351 C-26.4381522 59.52100456 -26.43926502 58.60227562 -26.44041157 57.65570641 C-26.44373997 56.70467033 -26.44706837 55.75363426 -26.45049763 54.77377892 C-26.45556316 52.75802659 -26.45790607 50.74226587 -26.45774555 48.72650719 C-26.45991957 45.66500249 -26.4780447 42.6038655 -26.49705219 39.54242516 C-26.49998881 37.5801868 -26.50197181 35.61794674 -26.50291157 33.65570641 C-26.51009708 32.74912285 -26.5172826 31.84253929 -26.52468586 30.90848351 C-26.4916735 21.56744316 -25.48351901 13.5444192 -18.66697407 6.62836266 C-12.94273466 1.38430227 -7.7902854 0.00865084 0 0 Z M-9.27244282 22.25726891 C-9.27244282 34.13726891 -9.27244282 46.01726891 -9.27244282 58.25726891 C48.80755718 58.25726891 106.88755718 58.25726891 166.72755718 58.25726891 C166.72755718 44.72726891 166.72755718 31.19726891 166.72755718 17.25726891 C144.37061895 17.14446376 122.0139106 17.05233255 99.65676022 16.99820805 C89.27628432 16.97241074 78.8959976 16.93723104 68.51564312 16.88007164 C59.46962064 16.83028342 50.42373514 16.797989 41.37757945 16.78682643 C36.58627256 16.7802999 31.79535759 16.76492912 27.00417614 16.72861862 C22.49631654 16.69473145 17.98901106 16.68420114 13.48103619 16.6917305 C11.82497683 16.69035268 10.16889932 16.68037662 8.51294994 16.66124153 C6.25406898 16.63641535 3.99728848 16.64232308 1.7383604 16.65599632 C0.47366043 16.65138736 -0.79103954 16.64677839 -2.09406376 16.64202976 C-5.98311936 17.03875197 -5.98311936 17.03875197 -9.27244282 22.25726891 Z M183.72755718 17.25726891 C183.72755718 73.35726891 183.72755718 129.45726891 183.72755718 187.25726891 C191.40429172 183.56181427 191.40429172 183.56181427 198.72755718 179.25726891 C206.72755718 179.25726891 206.72755718 179.25726891 222.72755718 187.25726891 C222.72755718 131.15726891 222.72755718 75.05726891 222.72755718 17.25726891 C209.85755718 17.25726891 196.98755718 17.25726891 183.72755718 17.25726891 Z M238.72755718 17.25726891 C238.72755718 30.78726891 238.72755718 44.31726891 238.72755718 58.25726891 C296.80755718 58.25726891 354.88755718 58.25726891 414.72755718 58.25726891 C416.66716215 37.30455348 416.66716215 37.30455348 411.72755718 18.25726891 C408.80899873 16.79798968 406.25590058 17.13462737 402.99522686 17.13701439 C402.29523056 17.13615996 401.59523425 17.13530554 400.87402594 17.13442522 C398.51707191 17.13277174 396.1601883 17.13828965 393.80324078 17.14374352 C392.11823815 17.14402544 390.4332354 17.14386755 388.74823284 17.14330101 C384.16377605 17.14301325 379.57934524 17.14890658 374.9948945 17.15587497 C370.20759207 17.16211201 365.42028908 17.16271258 360.63298321 17.16390038 C351.56301482 17.16701265 342.49305844 17.17522466 333.42309535 17.18524987 C323.09918414 17.1964142 312.77527238 17.20192226 302.45135665 17.2069453 C281.21008196 17.21740735 259.96882374 17.23575155 238.72755718 17.25726891 Z M8.72755718 74.25726891 C8.61104736 127.63323286 8.61104736 127.63323286 8.53224468 181.00922203 C8.52441295 188.20071003 8.51633096 195.39219768 8.50783062 202.58368492 C8.50677562 203.48504561 8.50572063 204.38640629 8.50463367 205.31508094 C8.48722694 219.87506503 8.45568646 234.43498606 8.418946 248.99493273 C8.38156624 263.93258687 8.35932761 278.87020794 8.3512032 293.80790693 C8.34570927 303.02848703 8.3283448 312.24888899 8.29589131 321.46941427 C8.27478001 327.78858579 8.26834944 334.10766494 8.27355167 340.42686918 C8.27611876 344.07511592 8.27212869 347.72305093 8.25073528 351.37124252 C8.22772531 355.32390202 8.23558649 359.276153 8.24653912 363.2288723 C8.23488775 364.38548353 8.22323638 365.54209476 8.21123195 366.73375481 C8.2452622 371.25644369 8.29260884 374.40200719 10.36215496 378.47146416 C13.44219184 380.79679573 15.20907283 380.87420085 19.0550108 380.85854149 C20.35628918 380.86541481 21.65756756 380.87228813 22.99827862 380.87936974 C24.43831734 380.86167496 25.87835024 380.84350093 27.31837749 380.82489586 C28.83618911 380.82348535 30.35400414 380.82427742 31.87181377 380.82710838 C35.99157886 380.82854387 40.11061711 380.79913333 44.23021317 380.7642386 C48.53566656 380.73299683 52.84113634 380.73004609 57.1466856 380.72411156 C65.2994689 380.70856666 73.45191723 380.66752958 81.60455298 380.61736411 C90.88616303 380.56149064 100.16778902 380.53398919 109.44952536 380.50888693 C128.54239259 380.45661419 147.63494796 380.36865947 166.72755718 380.25726891 C166.73968746 378.92089127 166.73968746 378.92089127 166.7520628 377.5575161 C166.83004615 369.15603135 166.91734825 360.75470603 167.01508427 352.35342693 C167.06500196 348.03437886 167.11133238 343.7153547 167.14943218 339.39618492 C167.18634222 335.22691793 167.23271764 331.05785327 167.28562069 326.88875961 C167.30413427 325.29921777 167.31925343 323.70963261 167.33090115 322.12002563 C167.34781578 319.89123054 167.37686268 317.66289577 167.40870953 315.43427086 C167.4220332 314.16630165 167.43535686 312.89833244 167.44908428 311.59193993 C167.81446921 307.21651044 168.60657648 304.37824961 171.72755718 301.25726891 C178.89213423 300.04082334 183.93922772 303.68568694 189.97755718 307.19476891 C191.94008281 308.30984028 193.90358104 309.42320212 195.86818218 310.53461266 C197.16030621 311.28085899 197.16030621 311.28085899 198.47853374 312.04218102 C200.78707234 313.37306502 200.78707234 313.37306502 203.72755718 314.25726891 C206.17016917 313.17690976 206.17016917 313.17690976 208.77052593 311.51117516 C209.76245953 310.92142906 210.75439312 310.33168297 211.77638531 309.72406578 C213.85283294 308.46424223 215.92582101 307.19869716 217.99513531 305.92719078 C228.04429588 299.97813962 228.04429588 299.97813962 234.72755718 301.25726891 C237.27203439 303.64205667 237.70835132 305.09695131 238.1262846 308.58557701 C238.15261204 309.92221782 238.16272321 311.25923894 238.15993023 312.59613609 C238.1752177 313.69428894 238.1752177 313.69428894 238.19081402 314.81462669 C238.22094232 317.22787696 238.23020943 319.64073028 238.23927593 322.05414391 C238.25612279 323.72995892 238.27427305 325.40576129 238.29367352 327.08154869 C238.34117909 331.48735162 238.37098475 335.89310333 238.39711285 340.29907799 C238.42691561 344.79696331 238.4734469 349.29467209 238.51857281 353.79242516 C238.60461241 362.61396772 238.67040823 371.43549182 238.72755718 380.25726891 C248.62755718 380.25726891 258.52755718 380.25726891 268.72755718 380.25726891 C268.52130718 377.84414391 268.31505718 375.43101891 268.10255718 372.94476891 C266.439602 347.35470595 273.18774793 320.22266111 289.93068218 300.29242516 C290.82013531 299.28502281 290.82013531 299.28502281 291.72755718 298.25726891 C292.40302593 297.45160484 293.07849468 296.64594078 293.77443218 295.81586266 C310.99334209 275.81872437 335.82719024 262.68834638 362.25099468 260.38226891 C374.00028358 259.78924486 384.9307186 260.86940554 396.72755718 262.25726891 C396.72755718 200.21726891 396.72755718 138.17726891 396.72755718 74.25726891 C344.58755718 74.25726891 292.44755718 74.25726891 238.72755718 74.25726891 C238.55702007 117.5184334 238.55702007 117.5184334 238.42970562 160.77972984 C238.38429546 169.14056969 238.38429546 169.14056969 238.35798931 173.0527401 C238.34335896 175.78946361 238.33512657 178.52551284 238.33601665 181.26221275 C238.33693073 185.40377217 238.30634405 189.54455105 238.27345562 193.68597984 C238.27847969 194.90821125 238.28350376 196.13044266 238.28868008 197.38971138 C238.27477356 198.50356335 238.26086704 199.61741531 238.24653912 200.76502037 C238.24100836 202.2196097 238.24100836 202.2196097 238.23536587 203.70358467 C237.57557265 207.02157349 236.39514426 208.23046218 233.72755718 210.25726891 C225.30988248 210.56937462 219.1402034 205.69021079 212.24122906 201.38617516 C211.34597515 200.84605797 210.45072124 200.30594078 209.52833843 199.74945641 C208.72565533 199.24784996 207.92297222 198.74624352 207.09596539 198.22943687 C204.12045201 197.00806853 202.75740568 197.26109281 199.72755718 198.25726891 C197.52229408 199.35769087 197.52229408 199.35769087 195.39943218 200.76117516 C194.59892437 201.25424156 193.79841656 201.74730797 192.97365093 202.25531578 C191.3190196 203.29237345 189.67045206 204.33917388 188.02833843 205.39594078 C182.63263538 208.68947792 178.10591008 210.54186593 171.72755718 209.25726891 C168.72755718 207.25726891 168.72755718 207.25726891 168.04994583 205.46841621 C167.67741715 202.91337656 167.58692827 200.46205174 167.5693388 197.87891197 C167.55956477 196.7902496 167.54979074 195.70158722 167.53972054 194.57993507 C167.53395028 193.38580875 167.52818003 192.19168243 167.52223492 190.96137047 C167.50718584 189.04263933 167.50718584 189.04263933 167.49183273 187.08514595 C167.46481031 183.62745428 167.44361944 180.16974994 167.42364025 176.71201134 C167.40400265 173.46649259 167.37910085 170.22101606 167.35463238 166.97553062 C167.28615433 157.48614673 167.22612102 147.99670341 167.16505718 138.50726891 C167.02068218 117.30476891 166.87630718 96.10226891 166.72755718 74.25726891 C114.58755718 74.25726891 62.44755718 74.25726891 8.72755718 74.25726891 Z M306.72755718 305.95258141 C290.35294126 324.82176772 282.35880837 348.32115412 283.72755718 373.25726891 C285.86864139 393.72929108 293.96140246 411.90652083 307.72755718 427.25726891 C308.55513531 428.20859703 308.55513531 428.20859703 309.39943218 429.17914391 C322.82955775 443.6730418 344.41647172 454.2222694 364.07960796 455.39789391 C391.283618 456.39383057 413.77829857 449.80824402 434.50490093 431.85101891 C452.48459662 414.78554504 462.30763 391.43959274 462.97755718 366.81976891 C462.73592267 341.74347658 452.6140443 319.59100458 435.35255718 301.56976891 C416.62683517 283.44810244 393.01562217 276.76329763 367.51661968 277.04242516 C344.18377941 277.64930517 322.72898797 289.37045353 306.72755718 305.95258141 Z M183.72755718 323.25726891 C183.72755718 342.06726891 183.72755718 360.87726891 183.72755718 380.25726891 C196.59755718 380.25726891 209.46755718 380.25726891 222.72755718 380.25726891 C222.72755718 361.44726891 222.72755718 342.63726891 222.72755718 323.25726891 C218.00553631 325.14607725 213.97734043 327.40365306 209.64161968 330.01508141 C206.72755718 331.25726891 206.72755718 331.25726891 199.72755718 331.25726891 C194.44755718 328.61726891 189.16755718 325.97726891 183.72755718 323.25726891 Z " fill="#000000" transform="translate(29.27244281768799,19.74273109436035)"/>
<path d="M0 0 C2.92776384 2.48859927 3.81306538 4.14010074 4.625 7.875 C3.28030865 14.59845674 -2.71743764 18.72857038 -7.73046875 22.984375 C-10.43131955 25.38306521 -12.96657171 27.92787682 -15.5 30.5 C-19.16813844 34.21878088 -22.9315158 37.736702 -26.90625 41.125 C-29.53985527 43.48345248 -32.01826514 45.98445404 -34.5 48.5 C-38.16847581 52.21845505 -41.93149229 55.73668195 -45.90625 59.125 C-49.04289122 61.93393243 -51.96918735 64.94820294 -54.92480469 67.94433594 C-58.2058732 71.25280377 -61.60341517 74.34735366 -65.1484375 77.3671875 C-67.74717391 79.6589002 -70.15074969 82.12380084 -72.5546875 84.6171875 C-74.54419651 86.52066369 -75.90635 86.9821619 -78.625 87.5 C-82.29436605 86.95639022 -82.98196591 86.43339634 -85.62109375 84.03125 C-86.67200195 83.07702148 -86.67200195 83.07702148 -87.74414062 82.10351562 C-88.48857422 81.40935547 -89.23300781 80.71519531 -90 80 C-90.76505859 79.29037109 -91.53011719 78.58074219 -92.31835938 77.84960938 C-94.71806932 75.59257417 -97.08023747 73.30127514 -99.4375 71 C-100.65856445 69.84757812 -100.65856445 69.84757812 -101.90429688 68.671875 C-108.40631445 62.29458336 -108.40631445 62.29458336 -109.08203125 58.08203125 C-108.99983084 54.99364451 -108.82607901 53.46520666 -107 51 C-103.0685897 48.3790598 -101.68213146 48.18248498 -97 49 C-93.32868999 51.66361497 -90.18693189 54.78252244 -87 58 C-86.27554687 58.7115625 -85.55109375 59.423125 -84.8046875 60.15625 C-83.18602944 61.75524825 -81.58500863 63.36775601 -80 65 C-77.01088056 63.64991643 -74.85366274 62.13092001 -72.48828125 59.8671875 C-71.82103027 59.23353271 -71.1537793 58.59987793 -70.46630859 57.94702148 C-69.75555176 57.26325439 -69.04479492 56.5794873 -68.3125 55.875 C-66.79053021 54.42560731 -65.26838972 52.97639385 -63.74609375 51.52734375 C-62.96476074 50.78081543 -62.18342773 50.03428711 -61.37841797 49.26513672 C-56.87848899 44.97953406 -52.33507056 40.73996641 -47.7980957 36.49365234 C-44.56449897 33.45609118 -41.37214516 30.39061224 -38.24609375 27.2421875 C-35.96991483 24.95024646 -33.66567703 22.76290334 -31.1875 20.6875 C-27.98210327 17.93382907 -25.01598215 15.02206146 -22.0625 12 C-8.37920867 -1.70424583 -8.37920867 -1.70424583 0 0 Z " fill="#000000" transform="translate(455,342)"/>
<path d="M0 0 C1.04465927 -0.0127597 2.08931854 -0.02551941 3.16563416 -0.03866577 C4.28861404 -0.04089142 5.41159393 -0.04311707 6.56860352 -0.04541016 C8.30691185 -0.05539536 8.30691185 -0.05539536 10.08033752 -0.06558228 C12.53059298 -0.07570513 14.98087599 -0.08039941 17.43115234 -0.08007812 C21.1799049 -0.08445212 24.92748106 -0.12078008 28.67602539 -0.15869141 C31.05688074 -0.1645594 33.43774168 -0.16852891 35.81860352 -0.17041016 C36.93955917 -0.18478119 38.06051483 -0.19915222 39.21543884 -0.21395874 C46.99271105 -0.16828681 46.99271105 -0.16828681 50.94384766 2.19433594 C53.10930942 4.6936846 53.69645561 5.8138712 54.13500977 9.10302734 C53.74263141 12.43824337 53.07398859 13.95832334 50.62283325 16.24951172 C46.36499796 18.62894976 41.11884408 17.95096945 36.38110352 17.88427734 C34.57477196 17.88433777 34.57477196 17.88433777 32.73194885 17.88439941 C30.18924737 17.87904343 27.64654635 17.86145773 25.10400391 17.83251953 C21.2082269 17.79064255 17.31417715 17.79145347 13.41821289 17.79833984 C10.94749773 17.78784827 8.47679149 17.77491036 6.00610352 17.75927734 C4.83937607 17.75907593 3.67264862 17.75887451 2.4705658 17.75866699 C0.84351463 17.73479919 0.84351463 17.73479919 -0.81640625 17.71044922 C-1.76951187 17.70203003 -2.72261749 17.69361084 -3.7046051 17.68493652 C-6.67682101 17.22257314 -8.05957576 16.32905209 -10.23999023 14.29052734 C-11.46873686 10.85144913 -11.56365893 7.40865556 -10.55249023 3.91552734 C-7.70349785 0.38820344 -4.33663947 0.03603058 0 0 Z " fill="#000000" transform="translate(97.239990234375,359.70947265625)"/>
<path d="M0 0 C1.20184937 -0.00478363 2.40369873 -0.00956726 3.64196777 -0.01449585 C6.18043325 -0.01789503 8.71894249 -0.00869162 11.25732422 0.01220703 C15.14259463 0.03896844 19.02497569 0.01245567 22.91015625 -0.01953125 C25.37761054 -0.01622716 27.84506304 -0.00982095 30.3125 0 C32.05484924 -0.01518173 32.05484924 -0.01518173 33.83239746 -0.03067017 C42.79410355 0.09955333 42.79410355 0.09955333 45.90039062 3.01416016 C48.03924469 6.24206923 48.22267288 7.86093745 47.65625 11.6640625 C46.96875 13.9140625 46.96875 13.9140625 45.65625 15.6640625 C42.16179447 17.35520525 39.34893903 17.91586593 35.48632812 17.92285156 C34.48178589 17.92915588 33.47724365 17.93546021 32.44226074 17.94195557 C30.83115417 17.93588287 30.83115417 17.93588287 29.1875 17.9296875 C27.51790222 17.93255768 27.51790222 17.93255768 25.8145752 17.93548584 C23.46443455 17.93684506 21.11428632 17.93316698 18.76416016 17.92480469 C15.1694246 17.91410173 11.57518879 17.92470915 7.98046875 17.9375 C5.6953114 17.93617836 3.41015436 17.93361587 1.125 17.9296875 C0.05092896 17.93373596 -1.02314209 17.93778442 -2.12976074 17.94195557 C-3.13430298 17.93565125 -4.13884521 17.92934692 -5.17382812 17.92285156 C-6.49356628 17.92046478 -6.49356628 17.92046478 -7.83996582 17.91802979 C-10.66535438 17.63144108 -12.79290679 16.8985438 -15.34375 15.6640625 C-17.70769858 12.51213106 -17.89261875 9.50614375 -17.34375 5.6640625 C-13.00456154 -0.88454033 -7.31623143 -0.06374903 0 0 Z " fill="#000000" transform="translate(103.34375,320.3359375)"/>
</svg>
