<svg width="220" height="161" viewBox="0 0 220 161" fill="none" xmlns="http://www.w3.org/2000/svg">
<path d="M213.5 161L219.34 151.039L207.793 150.962L213.5 161ZM0.00694428 1.99998C0.970646 1.99329 1.94731 1.99232 2.93642 1.99723L2.94634 -0.00274903C1.9494 -0.00769794 0.964792 -0.00671899 -0.00694428 2.92063e-05L0.00694428 1.99998ZM8.90634 2.09551C10.86 2.14954 12.8542 2.22563 14.8853 2.32484L14.9829 0.327225C12.9378 0.227329 10.9296 0.150704 8.96163 0.0962785L8.90634 2.09551ZM20.8301 2.67524C22.778 2.80946 24.7549 2.96449 26.7577 3.14121L26.9335 1.14895C24.9179 0.971109 22.9283 0.81507 20.9675 0.679974L20.8301 2.67524ZM32.6963 3.72167C34.6574 3.93192 36.6398 4.16276 38.6409 4.41494L38.891 2.43063C36.8775 2.1769 34.8828 1.94462 32.9094 1.73306L32.6963 3.72167ZM44.5377 5.21301C46.4862 5.49491 48.4497 5.79703 50.426 6.12004L50.7486 4.14623C48.7602 3.82123 46.7846 3.51725 44.8241 3.23362L44.5377 5.21301ZM56.3155 7.13857C58.2572 7.49293 60.209 7.8676 62.1688 8.26317L62.5645 6.30271C60.5924 5.90464 58.6284 5.52763 56.6746 5.17106L56.3155 7.13857ZM67.9968 9.49689C69.9311 9.9256 71.8713 10.375 73.8153 10.8455L74.2858 8.90165C72.329 8.428 70.3763 7.97574 68.4296 7.54427L67.9968 9.49689ZM79.5924 12.3042C81.5069 12.8079 83.4234 13.3326 85.3401 13.8788L85.8882 11.9553C83.9582 11.4054 82.0286 10.8771 80.1012 10.37L79.5924 12.3042ZM91.0632 15.5743C92.956 16.1569 94.8474 16.761 96.7355 17.3871L97.365 15.4887C95.4629 14.858 93.5579 14.2495 91.6515 13.6628L91.0632 15.5743ZM102.372 19.326C104.241 19.9927 106.106 20.6818 107.964 21.3936L108.679 19.5259C106.807 18.8085 104.927 18.114 103.044 17.4422L102.372 19.326ZM113.499 23.5904C115.335 24.3451 117.163 25.1229 118.981 25.9243L119.787 24.0942C117.954 23.2859 116.11 22.5015 114.259 21.7406L113.499 23.5904ZM124.398 28.3971C126.194 29.2452 127.977 30.1174 129.748 31.0141L130.651 29.2299C128.864 28.3248 127.064 27.4446 125.253 26.5888L124.398 28.3971ZM135.019 33.7788C136.764 34.7261 138.494 35.6984 140.207 36.6964L141.214 34.9681C139.483 33.9599 137.735 32.9778 135.974 32.0211L135.019 33.7788ZM145.302 39.7709C146.984 40.8225 148.648 41.9002 150.292 43.0046L151.408 41.3443C149.745 40.2275 148.063 39.1379 146.362 38.075L145.302 39.7709ZM155.174 46.4054C156.781 47.567 158.367 48.7558 159.93 49.9725L161.158 48.3944C159.577 47.1628 157.972 45.9596 156.345 44.7843L155.174 46.4054ZM164.55 53.7101C166.067 54.9852 167.559 56.2886 169.024 57.6208L170.37 56.1411C168.885 54.791 167.374 53.4705 165.837 52.1791L164.55 53.7101ZM173.338 61.7044C174.747 63.094 176.128 64.513 177.479 65.9619L178.942 64.598C177.571 63.1283 176.171 61.6893 174.742 60.2803L173.338 61.7044ZM181.432 70.3885C182.716 71.8916 183.969 73.4248 185.189 74.9886L186.766 73.7584C185.527 72.1708 184.256 70.6146 182.952 69.0893L181.432 70.3885ZM188.73 79.7465C189.87 81.3544 190.977 82.9928 192.048 84.6622L193.731 83.5823C192.643 81.8865 191.519 80.2224 190.361 78.5895L188.73 79.7465ZM195.139 89.7404C196.12 91.4411 197.065 93.1723 197.972 94.9343L199.75 94.0183C198.828 92.228 197.868 90.4691 196.871 88.7412L195.139 89.7404ZM200.566 100.277C201.382 102.064 202.16 103.882 202.9 105.73L204.757 104.987C204.005 103.109 203.214 101.262 202.385 99.4463L200.566 100.277ZM204.971 111.277C205.618 113.14 206.226 115.032 206.795 116.955L208.713 116.387C208.135 114.435 207.517 112.514 206.861 110.622L204.971 111.277ZM208.341 122.648C208.814 124.559 209.25 126.498 209.646 128.465L211.607 128.07C211.205 126.074 210.763 124.106 210.282 122.167L208.341 122.648ZM210.69 134.284C210.996 136.222 211.265 138.187 211.496 140.18L213.482 139.949C213.248 137.93 212.976 135.938 212.666 133.972L210.69 134.284ZM212.062 146.084C212.211 148.036 212.324 150.014 212.401 152.017L214.399 151.94C214.322 149.913 214.207 147.91 214.056 145.932L212.062 146.084Z" fill="#696969"/>
</svg>
