<svg width="98" height="98" viewBox="0 0 98 98" fill="none" xmlns="http://www.w3.org/2000/svg">
<path fill-rule="evenodd" clip-rule="evenodd" d="M73.5 57.1666H24.5V46.9583C24.5 43.5773 21.756 40.8333 18.375 40.8333H14.2917C10.9107 40.8333 8.16667 43.5773 8.16667 46.9583V65.3333C8.16667 69.8454 11.8213 73.5 16.3333 73.5H81.6667C86.1788 73.5 89.8333 69.8454 89.8333 65.3333V46.9583C89.8333 43.5773 87.0893 40.8333 83.7083 40.8333H79.625C76.244 40.8333 73.5 43.5773 73.5 46.9583V57.1666Z" stroke="#FE5402" stroke-width="4" stroke-linecap="round" stroke-linejoin="round"/>
<path d="M20.4167 73.5V81.6667" stroke="#FE5402" stroke-width="4" stroke-linecap="round" stroke-linejoin="round"/>
<path d="M77.5833 73.5V81.6667" stroke="#FE5402" stroke-width="4" stroke-linecap="round" stroke-linejoin="round"/>
<path d="M16.3333 40.8333V32.6667C16.3333 25.9006 21.8173 20.4167 28.5833 20.4167H69.4167C76.1828 20.4167 81.6667 25.9006 81.6667 32.6667V40.8333" stroke="#FE5402" stroke-width="4" stroke-linecap="round" stroke-linejoin="round"/>
</svg>
