<svg width="148" height="106" viewBox="0 0 148 106" fill="none" xmlns="http://www.w3.org/2000/svg">
<path d="M126.303 1.07973C112.64 6.81593 104.11 26.7787 44.7446 19.3521C12.2555 15.2878 -1.14024 30.4014 0.43485 56.9681C1.30947 71.718 13.5894 90.8672 32.3701 102.033H98.5608C108.083 96.7436 117.845 88.9532 127.625 78.0962C155.502 47.1499 139.965 -4.65647 126.303 1.07973Z" fill="#F4E9E4"/>
<path d="M65.7467 2.16113H10.4719V29.6231H65.7467V2.16113Z" fill="#F2D2C4"/>
<path d="M63.9483 3.95996H12.2688V27.8267H63.9483V3.95996Z" fill="#F4E9E4"/>
<path opacity="0.5" d="M37.7932 27.8257H12.2688V17.6739C14.9421 15.7793 18.2067 14.666 21.7301 14.666C24.6317 14.666 27.3558 15.4207 29.7195 16.7442C33.8294 19.0438 36.8437 23.0605 37.7932 27.8257Z" fill="#EDAA85"/>
<path opacity="0.5" d="M63.9483 24.5303V27.8258H24.1755C24.8458 23.5499 26.838 19.7126 29.7195 16.7447C33.4532 12.8962 38.6785 10.5059 44.4633 10.5059C53.5307 10.5054 61.226 16.3814 63.9483 24.5303Z" fill="#FFCFB9"/>
<path d="M94.1249 49.7773H49.0209C11.1229 51.7257 18.9218 83.0959 18.9218 83.0959H49.0209H94.1249H124.224C124.224 83.0959 132.023 51.7257 94.1249 49.7773Z" fill="#F1C2A7"/>
<path d="M30.3051 106.29H112.84C120.838 103.573 126.592 96.0015 126.592 87.0855V83.0977H16.5532V87.0855C16.5532 96.0015 22.3075 103.573 30.3051 106.29Z" fill="#F08664"/>
<path d="M105.98 76.8383V76.8125H104.945H38.2009H37.1663V76.8383C29.5927 77.2274 28.697 81.9157 28.7624 84.408C28.697 86.9003 29.5927 91.5886 37.1663 91.9777V92.0035H38.2009H104.945H105.98V91.9777C113.553 91.5886 114.449 86.9003 114.384 84.408C114.449 81.9162 113.553 77.2279 105.98 76.8383Z" fill="#F2C194"/>
<path d="M126.024 106.29C128.632 104.868 130.527 102.284 130.982 99.1814C132.382 89.6435 134.83 73.9085 136.786 66.3904C139.701 55.1876 132.002 51.6896 123.754 55.7707C115.605 59.8028 110.436 85.4059 110.712 106.29H126.024ZM17.1222 106.29H32.4336C32.7088 85.4055 27.5406 59.8028 19.3909 55.7707C11.1435 51.69 3.44516 55.1876 6.3597 66.3904C8.31577 73.9085 10.7642 89.6435 12.163 99.1814C12.6188 102.284 14.5142 104.868 17.1222 106.29Z" fill="#ED9F7E"/>
<path d="M119.503 60.4598C119.408 60.4598 119.313 60.4172 119.249 60.3359C111.232 50.0804 94.302 50.1006 94.127 50.1006C94.1261 50.1006 94.1253 50.1006 94.1244 50.1006C93.9477 50.1006 93.8036 49.9579 93.8023 49.7811C93.8011 49.6031 93.9438 49.4578 94.1223 49.4561C94.1657 49.4573 98.5152 49.4354 103.811 50.7078C108.714 51.8856 115.46 54.4428 119.757 59.9395C119.867 60.0796 119.842 60.2822 119.702 60.3918C119.643 60.4374 119.573 60.4598 119.503 60.4598ZM53.6644 74.4558C53.4937 74.4558 53.3518 74.3221 53.3428 74.1501L52.3589 54.9742C52.3499 54.7967 52.4867 54.6449 52.6642 54.6358C52.847 54.6259 52.9936 54.7635 53.0027 54.9411L53.9865 74.117C53.9955 74.2946 53.8588 74.4464 53.6812 74.4554C53.6756 74.4558 53.67 74.4558 53.6644 74.4558ZM102.788 77.1347H66.4986C66.3206 77.1347 66.1766 76.9907 66.1766 76.8127C66.1766 76.6346 66.321 76.4906 66.4986 76.4906H102.788C102.967 76.4906 103.111 76.6346 103.111 76.8127C103.111 76.9907 102.967 77.1347 102.788 77.1347Z" fill="#042C30"/>
<path d="M16.4438 70.4922C19.4515 69.9356 21.3969 66.8216 20.789 63.5369C20.181 60.2523 17.25 58.0408 14.2423 58.5975C11.2346 59.1542 9.28922 62.2682 9.89716 65.5528C10.5051 68.8375 13.4362 71.0489 16.4438 70.4922Z" fill="#F08664"/>
<path d="M16.4432 70.8149C16.2909 70.8149 16.1555 70.7061 16.1267 70.5513C16.094 70.3763 16.2097 70.2081 16.3847 70.1759C19.2128 69.6526 21.0463 66.7011 20.4718 63.5965C19.8973 60.4919 17.129 58.3922 14.3009 58.9151C14.125 58.9473 13.9578 58.8316 13.9255 58.6566C13.8928 58.4816 14.0085 58.3135 14.1835 58.2812C17.3621 57.693 20.4662 60.0249 21.1056 63.4791C21.7451 66.9333 19.6798 70.2215 16.5025 70.8097C16.4823 70.8132 16.4625 70.8149 16.4432 70.8149Z" fill="#042C30"/>
<path d="M128.658 70.4893C131.665 69.9326 133.611 66.8186 133.003 63.534C132.395 60.2493 129.464 58.0379 126.456 58.5946C123.448 59.1513 121.503 62.2653 122.111 65.5499C122.719 68.8345 125.65 71.046 128.658 70.4893Z" fill="#F08664"/>
<path d="M128.656 70.8149C128.504 70.8149 128.368 70.7061 128.34 70.5513C128.307 70.3763 128.422 70.2081 128.598 70.1759C131.426 69.6526 133.259 66.7011 132.685 63.5965C132.11 60.4919 129.341 58.3922 126.514 58.9151C126.337 58.9473 126.171 58.8316 126.138 58.6566C126.106 58.4816 126.221 58.3135 126.396 58.2812C129.574 57.693 132.679 60.0249 133.318 63.4791C133.958 66.9333 131.893 70.2215 128.715 70.8097C128.695 70.8132 128.675 70.8149 128.656 70.8149Z" fill="#042C30"/>
<path d="M32.4448 103.161C32.2668 103.161 32.1228 103.017 32.1228 102.839C32.1228 86.6714 29.5595 75.6922 27.4091 69.3287C25.0802 62.4375 22.7217 59.3273 22.6976 59.2963C22.5892 59.1553 22.6155 58.9532 22.7565 58.8444C22.8971 58.7361 23.0996 58.7618 23.208 58.9029C23.306 59.0302 25.6409 62.1012 28.0042 69.0771C30.177 75.4914 32.7673 86.5558 32.7673 102.839C32.7673 103.017 32.6228 103.161 32.4448 103.161ZM110.701 102.548C110.699 102.548 110.698 102.548 110.696 102.548C110.518 102.546 110.376 102.4 110.378 102.222C110.741 74.3648 119.723 59.0852 119.813 58.9338C119.905 58.7812 120.103 58.7318 120.256 58.8233C120.408 58.9149 120.458 59.1127 120.366 59.2654C120.276 59.415 111.383 74.5626 111.022 102.23C111.02 102.406 110.877 102.548 110.701 102.548Z" fill="#042C30"/>
<path d="M98.9809 47.7076C98.8837 47.6474 98.8097 47.5726 98.762 47.4797C98.6265 47.2183 98.725 46.8825 99.063 46.4542C99.8241 45.4893 100.608 44.9548 101.392 44.8662C102.144 44.7815 102.609 45.1487 102.629 45.1642C102.718 45.236 102.733 45.3671 102.66 45.4561C102.589 45.5452 102.459 45.5585 102.369 45.4884C102.315 45.4463 101.099 44.5424 99.3894 46.7113C99.0772 47.1069 99.1129 47.2531 99.1314 47.2884C99.2844 47.5842 100.618 47.515 101.69 47.4591C103.498 47.3649 105.549 47.2574 106.568 48.0916C106.657 48.1643 106.67 48.295 106.597 48.384C106.525 48.473 106.393 48.4859 106.305 48.4137C105.409 47.6835 103.359 47.7885 101.712 47.874C100.43 47.9411 99.4418 47.9927 98.9809 47.7076Z" fill="#042C30"/>
<path d="M102.452 43.6641L111.616 46.985L114.369 48.33L104.342 44.8319L102.452 43.6641Z" fill="#384D54"/>
<path d="M104.342 44.832L98.0955 60.9966L110.141 64.6103L114.369 48.3301L104.342 44.832Z" fill="#F08664"/>
<path d="M104.342 44.8319L102.452 43.6641L95.4222 58.5605L96.9066 58.6943L98.0956 60.9965L104.342 44.8319Z" fill="#F47C49"/>
<path d="M107.871 48.1384C107.745 48.3414 107.479 48.4042 107.276 48.279C107.073 48.1535 107.01 47.8873 107.136 47.6844C107.262 47.4814 107.528 47.4186 107.731 47.5442C107.934 47.6693 107.996 47.9355 107.871 48.1384ZM111.255 49.2139C111.129 49.4168 110.863 49.4796 110.66 49.354C110.457 49.2285 110.395 48.9623 110.52 48.7594C110.645 48.5564 110.911 48.4936 111.114 48.6192C111.317 48.7447 111.38 49.0109 111.255 49.2139Z" fill="#FE5402"/>
<path d="M107.394 48.088C107.321 48.0428 107.281 47.9547 107.301 47.8661C107.326 47.7543 107.437 47.6834 107.549 47.7083C108.205 47.8541 109.018 46.5808 109.878 45.2328C110.984 43.499 112.238 41.5339 113.856 41.3568C114.813 41.2523 115.265 41.6517 115.476 42.0052C116.239 43.284 115.166 46.1113 114.098 47.6606C112.615 49.8123 110.703 49.0022 110.684 48.9936C110.58 48.948 110.532 48.8246 110.578 48.7197C110.624 48.6147 110.747 48.5674 110.851 48.613C110.917 48.6414 112.473 49.2855 113.756 47.4245C114.757 45.9732 115.759 43.29 115.119 42.2176C114.9 41.8504 114.502 41.7038 113.901 41.7696C112.481 41.9248 111.284 43.8009 110.228 45.456C109.246 46.9941 108.399 48.3228 107.458 48.1138C107.435 48.1091 107.413 48.1 107.394 48.088Z" fill="#042C30"/>
<path d="M104.413 48.6621L102.941 55.2923L112.244 51.7693L104.413 48.6621Z" fill="#ED9F7E"/>
<path d="M125.404 50.7848C126.778 49.4107 126.778 47.1828 125.404 45.8087C124.03 44.4345 121.802 44.4346 120.428 45.8087C119.054 47.1829 119.054 49.4108 120.428 50.7849C121.802 52.159 124.03 52.159 125.404 50.7848Z" fill="#F2C194"/>
<path d="M121.96 51.7557C121.953 51.7557 121.947 51.7548 121.94 51.7531C121.442 51.6125 120.971 51.3593 120.577 51.0204C120.547 50.9942 120.544 50.949 120.569 50.9185C120.595 50.8884 120.641 50.885 120.671 50.9108C121.049 51.2358 121.502 51.4792 121.979 51.6142C122.018 51.625 122.04 51.665 122.029 51.7033C122.02 51.7351 121.991 51.7557 121.96 51.7557ZM122.918 51.8877C122.878 51.8877 122.845 51.8555 122.845 51.8155C122.845 51.7755 122.878 51.7432 122.918 51.7432C124.818 51.7432 126.364 50.197 126.364 48.2968C126.364 47.8565 126.282 47.4273 126.121 47.0218C126.106 46.9849 126.124 46.9427 126.161 46.9281C126.198 46.9131 126.24 46.9315 126.255 46.9685C126.423 47.3912 126.509 47.838 126.509 48.2968C126.508 50.2769 124.897 51.8877 122.918 51.8877Z" fill="#F08664"/>
<path d="M122.367 51.1638C122.36 51.1638 122.354 51.163 122.347 51.1612C121.976 51.0563 121.624 50.8676 121.331 50.6147C121.3 50.5889 121.297 50.5433 121.323 50.5132C121.349 50.4831 121.394 50.4797 121.425 50.5055C121.703 50.7446 122.035 50.9235 122.386 51.0224C122.424 51.0331 122.447 51.0731 122.436 51.1114C122.427 51.1432 122.398 51.1638 122.367 51.1638ZM123.076 51.2614C123.036 51.2614 123.004 51.2292 123.004 51.1892C123.004 51.1492 123.036 51.117 123.076 51.117C124.474 51.117 125.61 49.98 125.61 48.583C125.61 48.2592 125.55 47.9436 125.431 47.6456C125.417 47.6086 125.435 47.5664 125.472 47.5518C125.509 47.5372 125.551 47.5553 125.566 47.5922C125.691 47.9074 125.755 48.2407 125.755 48.583C125.755 50.06 124.553 51.2614 123.076 51.2614ZM120.387 49.2353C120.358 49.2353 120.331 49.2181 120.32 49.1897C120.194 48.8745 120.13 48.5408 120.13 48.199C120.13 46.7224 121.332 45.5205 122.809 45.5205C122.849 45.5205 122.881 45.5528 122.881 45.5927C122.881 45.6327 122.849 45.665 122.809 45.665C121.411 45.665 120.275 46.8019 120.275 48.199C120.275 48.5228 120.335 48.8384 120.454 49.1364C120.468 49.1734 120.45 49.2155 120.413 49.2301C120.405 49.2336 120.396 49.2353 120.387 49.2353Z" fill="#EFD8CE"/>
<path d="M122.908 49.7218V49.6956C122.904 49.6762 122.902 49.6401 122.902 49.5881L122.895 49.4806L122.782 49.484C122.632 49.484 122.502 49.4698 122.393 49.4419C122.326 49.4225 122.293 49.3997 122.293 49.3735C122.293 49.3473 122.304 49.3262 122.327 49.3099C122.35 49.2935 122.385 49.2853 122.431 49.2853C122.477 49.2853 122.54 49.2939 122.619 49.3116C122.699 49.3288 122.753 49.3378 122.782 49.3378C122.807 49.3378 122.841 49.3357 122.882 49.3314L122.826 48.3836L122.814 48.1815C122.55 47.9949 122.369 47.8522 122.271 47.7533C122.172 47.6544 122.123 47.5477 122.123 47.4325C122.123 47.3413 122.179 47.2527 122.29 47.1672C122.401 47.0816 122.552 47.0158 122.745 46.9702L122.738 46.8563C122.738 46.7978 122.765 46.7686 122.82 46.7686C122.857 46.7686 122.89 46.7806 122.917 46.8042C122.944 46.8283 122.958 46.8576 122.958 46.892V46.9345C123.1 46.9173 123.228 46.9083 123.341 46.9083C123.416 46.9083 123.489 46.9199 123.56 46.9427C123.631 46.9655 123.682 46.9943 123.711 47.0291L123.604 47.0975C123.546 47.0975 123.473 47.0932 123.385 47.0846C123.276 47.0782 123.196 47.0747 123.146 47.0747C123.087 47.0747 123.029 47.0777 122.97 47.0846L123.058 48.1071C123.158 48.1747 123.239 48.2314 123.299 48.2783C123.36 48.3252 123.426 48.3811 123.497 48.446C123.631 48.5784 123.698 48.7195 123.698 48.8695C123.698 48.9869 123.654 49.0974 123.566 49.2019C123.478 49.306 123.355 49.3821 123.196 49.4298V49.6775C123.196 49.7751 123.135 49.8241 123.014 49.8241C122.943 49.8228 122.908 49.7889 122.908 49.7218ZM122.795 47.8036C122.783 47.6582 122.77 47.4346 122.757 47.1328C122.653 47.1676 122.571 47.211 122.513 47.2631C122.454 47.3151 122.425 47.365 122.425 47.4127C122.425 47.4974 122.456 47.58 122.519 47.6604C122.582 47.7408 122.676 47.8276 122.802 47.921L122.795 47.8036ZM123.341 49.054C123.387 48.9822 123.41 48.9194 123.41 48.8652C123.41 48.7177 123.302 48.5569 123.084 48.3832L123.159 49.2333C123.235 49.1856 123.295 49.1258 123.341 49.054Z" fill="#ED9F7E"/>
<path d="M27.9467 40.5306C27.2209 41.7875 25.5181 42.2239 24.1438 41.5058C22.7695 40.7877 22.2436 39.1873 22.9699 37.9304C23.6958 36.6735 25.3986 36.2371 26.7733 36.9552C28.1471 37.6733 28.673 39.2741 27.9467 40.5306Z" fill="#ED9F7E"/>
<path d="M28.0546 40.266C27.3288 41.5228 25.626 41.9593 24.2517 41.2412C22.8774 40.5231 22.3516 38.9226 23.0778 37.6657C23.8037 36.4089 25.5065 35.9724 26.8807 36.6905C28.255 37.4082 28.7805 39.0091 28.0546 40.266Z" fill="#F2C194"/>
<path d="M23.5963 40.8494C23.5916 40.8468 23.5873 40.8438 23.5834 40.8403C23.2841 40.5656 23.0455 40.2276 22.8933 39.8629C22.8817 39.835 22.8963 39.8045 22.9259 39.7941C22.9556 39.7843 22.9892 39.7989 23.0008 39.8268C23.1465 40.1768 23.3757 40.5011 23.663 40.7646C23.6862 40.7857 23.687 40.8197 23.6651 40.8408C23.6466 40.8584 23.6182 40.861 23.5963 40.8494ZM24.2245 41.2888C24.1962 41.2742 24.1854 41.2411 24.2005 41.2157C24.2155 41.1899 24.2503 41.1809 24.2783 41.1955C25.6225 41.8977 27.2935 41.469 28.0034 40.2401C28.1681 39.9554 28.2704 39.6475 28.3074 39.3254C28.3108 39.2962 28.3392 39.2756 28.371 39.2799C28.4029 39.2837 28.4256 39.3113 28.4222 39.3405C28.3835 39.6759 28.2769 39.9967 28.1053 40.2934C27.3657 41.5735 25.6246 42.0203 24.2245 41.2888Z" fill="#F08664"/>
<path d="M24.105 40.617C24.1003 40.6144 24.096 40.6114 24.0921 40.6079C23.869 40.4032 23.6909 40.1508 23.5774 39.8791C23.5658 39.8511 23.5804 39.8206 23.6101 39.8103C23.6398 39.8004 23.6733 39.815 23.6849 39.843C23.7924 40.1005 23.9606 40.3387 24.1717 40.5327C24.1949 40.5537 24.1958 40.5877 24.1738 40.6088C24.1553 40.626 24.1274 40.6286 24.105 40.617ZM24.5703 40.9425C24.5423 40.9278 24.5312 40.8947 24.5462 40.8694C24.5613 40.8436 24.5961 40.8345 24.624 40.8496C25.6122 41.366 26.8411 41.0508 27.3631 40.147C27.484 39.9376 27.5592 39.7114 27.5867 39.4744C27.5902 39.4452 27.6186 39.4246 27.6504 39.4289C27.6822 39.4332 27.705 39.4603 27.7016 39.4895C27.6727 39.7398 27.5932 39.9788 27.4651 40.2003C26.9134 41.1549 25.6148 41.4881 24.5703 40.9425ZM23.4252 38.6381C23.405 38.6273 23.3921 38.6063 23.3947 38.5839C23.4235 38.3337 23.503 38.0946 23.6312 37.8731C24.1829 36.9181 25.4815 36.5848 26.5259 37.1305C26.5543 37.1451 26.5651 37.1782 26.55 37.2036C26.535 37.2294 26.5001 37.2384 26.4722 37.2234C25.484 36.707 24.2551 37.0222 23.7331 37.926C23.6123 38.1354 23.537 38.3616 23.5095 38.5985C23.506 38.6278 23.4777 38.6484 23.4458 38.6441C23.4385 38.6437 23.4312 38.6415 23.4252 38.6381Z" fill="#EFD8CE"/>
<path d="M25.0262 39.8854L25.0361 39.8687C25.0404 39.8545 25.0524 39.8304 25.0718 39.7968L25.1074 39.725L25.0262 39.6855C24.9195 39.63 24.8331 39.5728 24.7669 39.5143C24.7269 39.4769 24.7118 39.4498 24.7213 39.4331C24.7312 39.4163 24.7471 39.4068 24.7695 39.4047C24.7918 39.4025 24.8193 39.4103 24.852 39.427C24.8847 39.4442 24.9256 39.4731 24.9754 39.5135C25.0253 39.5539 25.0606 39.5797 25.0812 39.5904C25.0988 39.5999 25.1234 39.6107 25.1547 39.6236L25.4691 38.9897L25.5357 38.8547C25.4192 38.6367 25.3444 38.4776 25.3117 38.377C25.279 38.2768 25.2842 38.1895 25.3272 38.1151C25.3611 38.0562 25.4334 38.0192 25.5439 38.005C25.6544 37.9904 25.786 38.0042 25.9395 38.0459L25.9778 37.9698C25.9997 37.9319 26.0298 37.9229 26.0685 37.9431C26.0952 37.9569 26.1136 37.9767 26.124 38.002C26.1343 38.0274 26.133 38.0515 26.1201 38.0738L26.1042 38.1014C26.2113 38.1426 26.3046 38.1843 26.3845 38.2261C26.4379 38.254 26.4852 38.2884 26.5273 38.3293C26.569 38.3701 26.594 38.4075 26.6017 38.4406L26.5006 38.4454C26.4594 38.4239 26.4091 38.3938 26.3501 38.3559C26.2758 38.3116 26.2207 38.2798 26.185 38.2613C26.1437 38.2398 26.1007 38.22 26.0569 38.2028L25.737 38.8964C25.783 38.9773 25.8187 39.0435 25.844 39.0964C25.8694 39.1488 25.8952 39.2095 25.921 39.2778C25.9662 39.4129 25.961 39.529 25.9047 39.6257C25.8608 39.7014 25.7886 39.7569 25.6875 39.7917C25.5865 39.8265 25.4708 39.83 25.3405 39.8024L25.2481 39.9624C25.2115 40.0256 25.1504 40.0346 25.0644 39.9899C25.0137 39.9637 25.0012 39.9289 25.0262 39.8854ZM25.663 38.6032C25.7086 38.5043 25.783 38.3551 25.887 38.1555C25.8002 38.1392 25.7262 38.1375 25.6651 38.1495C25.6041 38.1616 25.565 38.1831 25.5469 38.214C25.5151 38.2686 25.5065 38.3336 25.5211 38.4088C25.5353 38.4841 25.5697 38.5748 25.6234 38.6819L25.663 38.6032ZM25.5822 39.6137C25.6415 39.5844 25.6815 39.5522 25.7017 39.5169C25.7567 39.4215 25.74 39.2774 25.651 39.0848L25.3865 39.6623C25.4575 39.6588 25.5228 39.6429 25.5822 39.6137Z" fill="#ED9F7E"/>
<path d="M100.782 37.945C100.344 38.9822 98.7487 39.3963 97.22 38.8695C95.6914 38.3432 94.8077 37.0751 95.2463 36.038C95.6849 35.0008 97.2798 34.5867 98.8084 35.1135C100.337 35.6398 101.221 36.9074 100.782 37.945Z" fill="#ED9F7E"/>
<path d="M100.886 37.5651C100.448 38.6023 98.8527 39.0164 97.3241 38.4896C95.7954 37.9633 94.9118 36.6952 95.3504 35.6581C95.789 34.6209 97.3839 34.2068 98.9125 34.7336C100.441 35.2603 101.325 36.528 100.886 37.5651Z" fill="#F2C194"/>
<path d="M96.584 38.1983C96.5788 38.1966 96.5741 38.1944 96.5689 38.1914C96.209 37.9816 95.8956 37.7188 95.6621 37.4312C95.644 37.4092 95.6517 37.3839 95.6788 37.3748C95.7059 37.3658 95.7425 37.3761 95.7605 37.3985C95.9846 37.6746 96.2856 37.927 96.6309 38.1282C96.6584 38.1445 96.667 38.1716 96.6498 38.1893C96.636 38.2035 96.6085 38.2069 96.584 38.1983ZM97.3077 38.5281C97.2763 38.5174 97.2582 38.4911 97.2673 38.4701C97.2763 38.449 97.309 38.4404 97.3404 38.4511C98.8355 38.9658 100.401 38.5599 100.83 37.5456C100.929 37.3103 100.962 37.0592 100.926 36.7991C100.923 36.7754 100.946 36.7578 100.979 36.7599C101.011 36.7621 101.04 36.7832 101.044 36.8068C101.08 37.0781 101.047 37.3396 100.943 37.5847C100.496 38.6412 98.8651 39.0647 97.3077 38.5281Z" fill="#F08664"/>
<path d="M97.0378 37.9937C97.0327 37.992 97.0279 37.9898 97.0232 37.9868C96.7549 37.8303 96.521 37.6342 96.3468 37.4196C96.3288 37.3977 96.3365 37.3723 96.3636 37.3633C96.3907 37.3543 96.4277 37.3646 96.4453 37.387C96.61 37.5899 96.8314 37.7753 97.0851 37.9236C97.1131 37.9399 97.1212 37.967 97.104 37.9847C97.0899 37.9988 97.0628 38.0023 97.0378 37.9937ZM97.574 38.2384C97.5426 38.2276 97.5246 38.2014 97.5336 38.1803C97.5426 38.1592 97.5753 38.1506 97.6067 38.1614C98.7058 38.5398 99.8569 38.2414 100.172 37.4953C100.245 37.3225 100.269 37.1376 100.243 36.9466C100.24 36.923 100.263 36.9054 100.296 36.9075C100.329 36.9097 100.357 36.9307 100.36 36.9544C100.388 37.1565 100.363 37.3517 100.286 37.5344C99.9519 38.3226 98.7359 38.6383 97.574 38.2384ZM95.9155 36.4276C95.8932 36.4199 95.8755 36.4031 95.8729 36.3851C95.8454 36.183 95.8704 35.9877 95.9478 35.805C96.281 35.0168 97.4975 34.7012 98.6594 35.1011C98.6907 35.1118 98.7088 35.1381 98.6998 35.1591C98.6907 35.1802 98.6581 35.1888 98.6267 35.1781C97.5276 34.7997 96.3765 35.0981 96.0613 35.8441C95.9882 36.017 95.9645 36.2015 95.9903 36.3928C95.9933 36.4165 95.9701 36.4341 95.9374 36.4319C95.9297 36.4319 95.9224 36.4302 95.9155 36.4276Z" fill="#EFD8CE"/>
<path d="M97.7888 37.3712L97.7948 37.3574C97.7961 37.3458 97.8026 37.326 97.8142 37.2985L97.8335 37.2396L97.7441 37.2108C97.6254 37.1699 97.5269 37.1273 97.4474 37.0826C97.3992 37.0542 97.3782 37.0327 97.3838 37.019C97.3898 37.0052 97.4035 36.9971 97.4255 36.9945C97.4474 36.9919 97.4762 36.9971 97.5123 37.0095C97.5484 37.022 97.5957 37.0435 97.6547 37.0745C97.7131 37.1054 97.754 37.1248 97.7772 37.1325C97.797 37.1394 97.8236 37.1471 97.8576 37.1562L98.027 36.635L98.0627 36.5236C97.8976 36.3525 97.7875 36.2274 97.7325 36.1478C97.6774 36.0683 97.6628 35.9982 97.689 35.9367C97.7097 35.8881 97.7733 35.8558 97.88 35.8399C97.9866 35.824 98.1208 35.83 98.2824 35.858L98.3031 35.7956C98.3164 35.7642 98.3444 35.7561 98.3869 35.7707C98.4166 35.781 98.4394 35.7961 98.4553 35.8163C98.4712 35.8365 98.4755 35.8558 98.4674 35.8743L98.4579 35.8971C98.5736 35.9264 98.6759 35.9565 98.7649 35.987C98.8242 36.0072 98.8793 36.0334 98.93 36.0648C98.9808 36.0962 99.0139 36.125 99.0289 36.1517L98.9296 36.1594C98.8836 36.1435 98.8268 36.1216 98.7598 36.0928C98.6755 36.0597 98.614 36.0364 98.5744 36.0231C98.5284 36.0072 98.4815 35.993 98.4338 35.9805L98.2721 36.5503C98.3358 36.6135 98.3865 36.6655 98.4235 36.7072C98.4605 36.7485 98.5 36.7962 98.5413 36.8504C98.6166 36.9575 98.6376 37.0508 98.6037 37.1308C98.5774 37.1931 98.5177 37.2404 98.4248 37.2723C98.3323 37.3041 98.218 37.3114 98.0821 37.2938L98.0262 37.4258C98.0042 37.4778 97.9453 37.4877 97.8499 37.4546C97.794 37.4348 97.7738 37.4073 97.7888 37.3712ZM98.1328 36.3168C98.1556 36.236 98.1965 36.113 98.2545 35.9483C98.1642 35.9384 98.0902 35.9397 98.0326 35.9513C97.9746 35.9633 97.9406 35.9818 97.9299 36.0076C97.9109 36.0528 97.9169 36.1052 97.9479 36.165C97.9793 36.2248 98.0335 36.2966 98.1113 36.3804L98.1328 36.3168ZM98.2803 37.1321C98.3328 37.1063 98.365 37.0788 98.3775 37.0499C98.4106 36.9713 98.3616 36.856 98.2296 36.7042L98.0971 37.1785C98.1663 37.1734 98.2278 37.1579 98.2803 37.1321Z" fill="#ED9F7E"/>
<path d="M146.659 106.358H1.49952C1.26216 106.358 1.06995 106.166 1.06995 105.929C1.06995 105.691 1.26216 105.499 1.49952 105.499H146.659C146.896 105.499 147.088 105.691 147.088 105.929C147.088 106.166 146.896 106.358 146.659 106.358Z" fill="#042C30"/>
<path d="M143.722 12.9648H79.1911C77.5691 12.9648 76.2546 14.2798 76.2546 15.9013V24.2197C76.2546 25.8416 77.5696 27.1561 79.1911 27.1561H143.722C145.344 27.1561 146.659 25.8416 146.659 24.2197V15.9013C146.659 14.2794 145.344 12.9648 143.722 12.9648Z" fill="#F1C2A7"/>
<path d="M79.9369 17.7841H91.1891C91.4996 17.7841 91.7516 17.5321 91.7516 17.2216C91.7516 16.9112 91.4996 16.6592 91.1891 16.6592H79.9369C79.6264 16.6592 79.3745 16.9107 79.3745 17.2216C79.3745 17.5321 79.6264 17.7841 79.9369 17.7841ZM79.9369 20.5494H84.5383C84.8488 20.5494 85.1008 20.2974 85.1008 19.9869C85.1008 19.6765 84.8492 19.4245 84.5383 19.4245H79.9369C79.6264 19.4245 79.3745 19.6761 79.3745 19.9869C79.3745 20.2978 79.6264 20.5494 79.9369 20.5494ZM91.1896 19.4249H86.5881C86.2777 19.4249 86.0257 19.6765 86.0257 19.9874C86.0257 20.2978 86.2777 20.5498 86.5881 20.5498H91.1896C91.5 20.5498 91.752 20.2978 91.752 19.9874C91.7516 19.6765 91.5 19.4249 91.1896 19.4249ZM87.3269 22.1903H79.9373C79.6269 22.1903 79.3749 22.4422 79.3749 22.7527C79.3749 23.0632 79.6269 23.3151 79.9373 23.3151H87.3269C87.6373 23.3151 87.8893 23.0632 87.8893 22.7527C87.8889 22.4422 87.6373 22.1903 87.3269 22.1903Z" fill="#F4E9E4"/>
<path d="M146.659 18.0928C146.54 18.0928 146.444 17.9964 146.444 17.8778V16.2356C146.444 14.5508 145.073 13.18 143.388 13.18H87.8887C87.77 13.18 87.6737 13.0837 87.6737 12.965C87.6737 12.8463 87.7696 12.75 87.8887 12.75H143.388C145.31 12.75 146.874 14.3135 146.874 16.2352V17.8773C146.874 17.9969 146.778 18.0928 146.659 18.0928Z" fill="#F08664"/>
<path d="M126.62 11.1719H115.241C114.212 11.1719 113.378 12.0056 113.378 13.0346V27.2582C113.378 28.2867 114.212 29.1209 115.241 29.1209H126.62C127.649 29.1209 128.483 28.2872 128.483 27.2582V13.0342C128.483 12.0056 127.649 11.1719 126.62 11.1719Z" fill="#F2D2C4"/>
<path d="M100.562 17.2139H108.224C108.224 17.2139 112.279 18.9657 111.306 23.1672C110.851 25.1302 108.289 22.8426 104.563 22.9238C101.684 22.9866 99.1069 24.8382 98.1798 23.1672C96.2684 19.7242 100.562 17.2139 100.562 17.2139Z" fill="#ED9F7E"/>
<path d="M101.217 18.1464C101.1 18.1464 101.001 18.057 100.99 17.9383C100.988 17.9134 100.812 15.4533 103.656 15.1373C105.027 14.9851 106.086 15.2323 106.801 15.8726C107.694 16.6715 107.704 17.7809 107.704 17.8278C107.704 17.9534 107.602 18.0553 107.477 18.0553C107.351 18.0553 107.249 17.9534 107.249 17.8278C107.249 17.8188 107.235 16.8676 106.493 16.2076C105.878 15.6606 104.941 15.4525 103.706 15.5897C101.31 15.8558 101.437 17.8171 101.444 17.9005C101.454 18.0256 101.36 18.1353 101.236 18.1456C101.23 18.1464 101.223 18.1464 101.217 18.1464Z" fill="#FE5402"/>
<path d="M100.08 23.0151C100.08 23.0151 100.08 23.0151 100.079 23.0151C99.3511 23.004 98.848 22.804 98.5844 22.4209C98.2163 21.8855 98.4593 21.2023 98.47 21.173C98.4872 21.1257 98.5393 21.1016 98.5866 21.1188C98.6339 21.136 98.6579 21.1881 98.6412 21.2354C98.639 21.2414 98.4197 21.8614 98.7353 22.3185C98.9637 22.6496 99.4169 22.8229 100.082 22.8328C100.132 22.8337 100.172 22.875 100.172 22.9253C100.171 22.9756 100.13 23.0151 100.08 23.0151Z" fill="#F08664"/>
<path d="M119.272 14.6023C119.213 14.6023 119.163 14.5571 119.158 14.4978C119.157 14.4853 119.506 13.0225 120.974 13.0225C122.538 13.0225 122.538 14.4187 122.538 14.4423C122.538 14.5055 122.487 14.5567 122.424 14.5567C122.361 14.5567 122.31 14.5055 122.31 14.4423C122.31 14.438 122.015 13.4417 120.931 13.4335C119.982 13.4267 119.384 14.4367 119.387 14.4789C119.392 14.5417 119.345 14.5971 119.282 14.6023C119.279 14.6023 119.275 14.6023 119.272 14.6023Z" fill="#FE5402"/>
<path d="M117.465 22.5408C117.465 22.5408 116.694 25.3672 116.122 24.7988C115.551 24.2303 116.598 22.0928 116.598 22.0928L117.465 22.5408ZM124.231 22.5408C124.231 22.5408 125.002 25.3672 125.573 24.7988C126.145 24.2303 125.098 22.0928 125.098 22.0928L124.231 22.5408Z" fill="#FE5402"/>
<path d="M120.93 25.2993C117.752 25.2993 115.275 22.5461 115.61 19.3864L115.897 16.6787H125.83L126.215 19.1172C126.726 22.3637 124.217 25.2993 120.93 25.2993Z" fill="#F08664"/>
<path d="M120.931 13.6631C123.929 13.6631 126.266 15.0266 125.95 16.5918L125.68 17.933H116.307L115.945 16.7251C115.462 15.1169 117.83 13.6631 120.931 13.6631Z" fill="#F08664"/>
<path d="M123.46 19.0098C123.554 19.0098 123.635 19.082 123.643 19.1779C123.645 19.1981 123.787 21.1864 121.488 21.4418C120.379 21.5648 119.524 21.3649 118.946 20.8476C118.224 20.2017 118.216 19.3052 118.216 19.2673C118.216 19.1659 118.298 19.0833 118.4 19.0833C118.501 19.0833 118.584 19.1654 118.584 19.2673C118.584 19.2746 118.595 20.0435 119.195 20.5771C119.692 21.0192 120.45 21.1873 121.448 21.0763C123.385 20.8613 123.282 19.2759 123.277 19.2089C123.269 19.1078 123.344 19.0192 123.445 19.0106C123.45 19.0102 123.454 19.0098 123.46 19.0098Z" fill="#FE5402"/>
<path d="M119.3 14.6035H122.327C123.363 14.6035 124.35 15.0834 124.956 15.9236C125.426 16.5764 125.748 17.4871 125.469 18.6902C125.157 20.0379 117.095 19.8375 116.459 18.6902C115.943 17.7614 116.085 16.932 116.448 16.2668C117.013 15.2296 118.119 14.6035 119.3 14.6035Z" fill="#ED9F7E"/>
<path d="M117.763 18.5856C117.763 18.5856 117.763 18.5856 117.762 18.5856C117.263 18.5778 116.917 18.4407 116.736 18.1779C116.484 17.8107 116.651 17.3411 116.658 17.3214C116.67 17.2891 116.705 17.2723 116.738 17.284C116.77 17.2956 116.787 17.3317 116.775 17.3639C116.773 17.3682 116.623 17.7939 116.84 18.1074C116.997 18.3349 117.307 18.4536 117.764 18.4604C117.798 18.4609 117.826 18.4892 117.826 18.5236C117.825 18.558 117.798 18.5856 117.763 18.5856Z" fill="#F08664"/>
<path d="M135.353 17.7022C135.28 17.7022 135.219 17.6471 135.213 17.574C135.212 17.5585 135.103 16.0419 136.856 15.8471C137.702 15.7534 138.355 15.9056 138.796 16.3004C139.346 16.7931 139.353 17.4768 139.353 17.5061C139.353 17.5835 139.29 17.6463 139.212 17.6463C139.135 17.6463 139.072 17.5835 139.072 17.5061C139.072 17.5005 139.064 16.914 138.606 16.5072C138.227 16.1701 137.649 16.0415 136.888 16.1262C135.411 16.2905 135.489 17.4996 135.493 17.5508C135.499 17.6278 135.442 17.6957 135.364 17.7017C135.36 17.7017 135.357 17.7022 135.353 17.7022Z" fill="#FE5402"/>
<path d="M140.649 21.7387H133.915C132.521 21.7387 131.392 20.6087 131.392 19.2151C131.392 17.821 132.522 16.6914 133.915 16.6914H140.649C142.043 16.6914 143.173 17.8214 143.173 19.2151C143.173 20.6087 142.043 21.7387 140.649 21.7387Z" fill="#ED9F7E"/>
<path d="M141.214 23.9649H133.351C131.724 23.9649 130.404 22.6456 130.404 21.0181C130.404 19.3905 131.724 18.0713 133.351 18.0713H141.214C142.841 18.0713 144.16 19.3905 144.16 21.0181C144.16 22.6456 142.841 23.9649 141.214 23.9649Z" fill="#ED9F7E"/>
<path d="M139.683 22.7683H131.896C131.846 22.7683 131.805 22.7274 131.805 22.6771C131.805 22.6268 131.846 22.5859 131.896 22.5859H139.683C139.733 22.5859 139.774 22.6268 139.774 22.6771C139.774 22.7278 139.733 22.7683 139.683 22.7683Z" fill="#F08664"/>
<path d="M142.571 18.5163H134.784C134.734 18.5163 134.693 18.4755 134.693 18.4251C134.693 18.3748 134.734 18.334 134.784 18.334H142.571C142.621 18.334 142.662 18.3748 142.662 18.4251C142.662 18.4755 142.621 18.5163 142.571 18.5163Z" fill="#F08664"/>
<path d="M39.2273 63.5108C39.2273 63.5108 36.8821 69.3708 41.8821 73.1669C46.8822 76.9629 79.4276 62.9961 79.4276 62.9961L39.2273 63.5108Z" fill="#042C30"/>
<path d="M76.8411 32.0738C75.6122 29.8421 72.68 26.409 67.4645 25.0988C61.2287 23.5319 47.9589 29.5093 43.434 33.473C37.5933 38.5918 31.5363 45.2034 30.6725 51.174C29.769 57.4189 33.8773 60.4069 38.0018 61.8384C38.136 62.8055 38.3234 63.7502 38.5733 64.6639L77.1172 65.3562C77.1172 65.3562 79.95 63.8732 79.7892 61.9055C81.2005 60.9294 87.0579 58.5872 87.3052 54.7382C87.6788 48.9096 81.3316 38.5879 76.8411 32.0738Z" fill="#F47C49"/>
<path d="M78.3543 49.0727C78.2653 49.0727 78.1818 49.0168 78.1513 48.9278L75.3185 40.695C75.2798 40.5828 75.3395 40.4607 75.4518 40.422C75.564 40.3837 75.6861 40.4435 75.7248 40.5553L78.5577 48.788C78.5964 48.9003 78.5366 49.0224 78.4244 49.0611C78.4011 49.0688 78.3775 49.0727 78.3543 49.0727ZM73.3456 33.0475C73.227 33.0475 73.1306 32.9511 73.1306 32.8325C73.1306 28.9724 71.2627 27.3117 71.2438 27.2954C71.1539 27.2175 71.1445 27.0821 71.2219 26.9922C71.2993 26.9023 71.4352 26.8929 71.525 26.9703C71.608 27.0421 73.5606 28.7776 73.5606 32.8325C73.5606 32.9516 73.4647 33.0475 73.3456 33.0475Z" fill="#042C30"/>
<path d="M54.8227 33.0486C54.8175 33.0486 54.8124 33.0486 54.8072 33.0482C54.6889 33.0396 54.5995 32.9368 54.6081 32.8186C54.8644 29.2418 54.2521 28.5134 53.9764 28.3663C53.6995 28.218 53.3946 28.4446 53.3916 28.4467C53.2979 28.5198 53.1629 28.5026 53.0902 28.4089C53.0175 28.3152 53.0343 28.1801 53.128 28.1075C53.1491 28.0907 53.6539 27.7063 54.179 27.9871C54.9607 28.4046 55.2411 29.9952 55.0364 32.8491C55.0286 32.9626 54.9345 33.0486 54.8227 33.0486ZM56.7306 52.3079C56.691 52.3079 56.651 52.2971 56.6153 52.2743C56.5152 52.2103 56.4859 52.0778 56.55 51.9776C61.1488 44.7695 60.2794 30.4557 60.2699 30.3117C60.2622 30.1934 60.352 30.0911 60.4703 30.0833C60.5851 30.0756 60.6909 30.1655 60.6986 30.2837C60.7081 30.429 61.5857 44.8831 56.912 52.2085C56.8708 52.273 56.8015 52.3079 56.7306 52.3079ZM70.0111 54.5133C69.9673 54.5133 69.9226 54.5 69.8843 54.4716C63.5689 49.8341 67.9867 31.0452 68.178 30.248C68.206 30.1328 68.3212 30.0623 68.4373 30.0889C68.5526 30.1164 68.624 30.2325 68.596 30.3478C68.55 30.5404 64.0522 49.6556 70.1388 54.1251C70.2343 54.1951 70.2549 54.3297 70.1849 54.4252C70.1423 54.4828 70.0773 54.5133 70.0111 54.5133Z" fill="#042C30"/>
<path d="M67.4289 53.2699C71.6769 65.0309 57.2693 61.7513 57.9061 56.8738C57.9061 56.8738 59.338 51.8307 60.3515 46.2769C60.4779 45.5837 60.5983 44.8828 60.7093 44.184C60.8318 43.3967 60.941 42.6128 61.0352 41.8405C61.1199 41.1285 61.1896 40.4276 61.2403 39.7477C61.2592 39.5121 61.2743 39.2786 61.2876 39.049C61.3194 38.4818 61.3405 37.9336 61.3517 37.4042C61.3667 36.6694 61.365 35.9706 61.3478 35.3114C61.325 34.4656 61.2782 33.6839 61.2158 32.9679C61.1479 32.1918 61.0632 31.493 60.9707 30.8751C60.6486 28.7367 60.2453 27.5727 60.2268 27.5142C60.3098 27.5405 65.0832 29.1267 68.7361 26.625C68.7361 26.625 68.1259 28.2603 67.4646 30.8751C67.3025 31.5175 67.1369 32.2184 66.9765 32.9679C66.82 33.7045 66.6674 34.4884 66.528 35.3114C66.4132 35.9857 66.3074 36.6848 66.2154 37.4042C66.1174 38.1636 66.0344 38.9471 65.9703 39.7477C65.9157 40.4336 65.8744 41.1323 65.8516 41.8405C65.8254 42.6111 65.8216 43.3946 65.8422 44.184C65.8611 44.8772 65.8968 45.5764 65.957 46.2769C66.1591 48.6376 66.6132 51.0112 67.4289 53.2699Z" fill="#EFF0F9"/>
<path d="M67.4646 30.874C67.3025 31.5164 67.1369 32.2173 66.9765 32.9668H61.2158C61.1479 32.1907 61.0632 31.4919 60.9707 30.874H67.4646Z" fill="#F4E9E4"/>
<path d="M66.5284 35.3105C66.4136 35.9848 66.3078 36.684 66.2158 37.4034H61.3516C61.3667 36.6685 61.365 35.9697 61.3478 35.3105H66.5284Z" fill="#ED9F7E"/>
<path d="M65.9708 39.7471C65.9162 40.4329 65.8749 41.1317 65.8521 41.8399H61.0353C61.12 41.1278 61.1896 40.4269 61.2404 39.7471H65.9708Z" fill="#F4E9E4"/>
<path d="M65.9573 46.2764H60.351C60.4774 45.5832 60.5978 44.8823 60.7088 44.1836H65.8421C65.8615 44.8768 65.8971 45.5755 65.9573 46.2764Z" fill="#ED9F7E"/>
<path d="M40.108 82.6859L36.0987 83.091C36.0987 83.091 37.3005 85.388 34.5447 86.3435C31.7888 87.2989 29.1813 82.701 29.9523 81.1482C30.9494 79.1401 38.3489 77.998 38.3489 77.998L40.108 82.6859Z" fill="#F4E9E4"/>
<path d="M36.2642 84.5978C36.2422 84.5978 36.2203 84.5944 36.1984 84.5875C36.0861 84.5514 36.0246 84.4318 36.059 84.32C36.0664 84.2934 36.4022 82.9354 33.5126 81.2421C33.4102 81.1819 33.3758 81.0503 33.436 80.948C33.4958 80.8457 33.6274 80.8113 33.7302 80.8715C36.9668 82.7682 36.4908 84.3815 36.4693 84.449C36.4392 84.5398 36.3549 84.5978 36.2642 84.5978ZM31.6666 83.2468C31.6266 83.2468 31.5862 83.2356 31.5501 83.2124C31.4972 83.178 31.0332 82.8645 31.0293 82.4195C31.0268 82.1666 31.1678 81.9426 31.4477 81.753C31.5458 81.6867 31.6795 81.7125 31.7457 81.8106C31.8124 81.909 31.7866 82.0423 31.6881 82.109C31.535 82.2122 31.458 82.3154 31.4585 82.4147C31.4598 82.5979 31.7001 82.797 31.7844 82.8525C31.8833 82.9174 31.9113 83.0507 31.8463 83.1496C31.8051 83.2124 31.7367 83.2468 31.6666 83.2468ZM36.2878 82.2414C36.1833 82.2414 36.0917 82.1649 36.0754 82.0587C36.0578 81.9413 36.1386 81.8321 36.256 81.8144L38.077 81.5414C38.1979 81.5238 38.3036 81.605 38.3213 81.722C38.3389 81.8394 38.2581 81.9486 38.1407 81.9662L36.3196 82.2393C36.3093 82.2406 36.2986 82.2414 36.2878 82.2414Z" fill="#042C30"/>
<path d="M34.3154 85.9833C34.2114 85.9833 34.1202 85.9081 34.1034 85.8023C34.0849 85.6853 34.1645 85.5752 34.2815 85.5563C34.2956 85.5537 35.0112 85.429 35.2309 84.9431C35.3741 84.6267 35.2829 84.2044 34.9596 83.6884C34.8968 83.5878 34.9269 83.4553 35.0275 83.3921C35.1277 83.3293 35.2606 83.3594 35.3238 83.4601C35.7288 84.1068 35.829 84.6662 35.6218 85.1224C35.304 85.8208 34.3885 85.9743 34.3498 85.9803C34.3382 85.9824 34.3266 85.9833 34.3154 85.9833Z" fill="#042C30"/>
<path d="M35.0851 77.6345C35.0851 77.6345 75.2691 60.2207 85.6893 64.9215C98.1674 70.5506 81.2491 82.195 76.1974 83.2687C66.6334 85.3014 37.0872 83.2687 37.0872 83.2687L35.0851 77.6345Z" fill="#042C30"/>
<path d="M36.3136 77.1898C36.2319 77.1898 36.1541 77.1434 36.118 77.0642C36.069 76.9563 36.1163 76.829 36.2242 76.7796C36.4461 76.6781 58.582 66.6475 72.7978 66.4514C72.923 66.4458 73.0141 66.5447 73.0154 66.6634C73.0171 66.7821 72.9221 66.8797 72.8034 66.881C58.6784 67.0758 36.6232 77.0694 36.4022 77.1704C36.3738 77.1838 36.3437 77.1898 36.3136 77.1898Z" fill="#F4E9E4"/>
<path d="M49.9468 58.1426C49.9468 58.1426 51.3636 58.4522 51.5606 59.052C51.8233 59.8523 50.6541 63.5116 50.6541 63.5116L49.7967 63.34V61.4093C49.7967 61.4093 48.351 62.9478 47.7873 61.9064C47.7869 61.9068 47.2481 59.9034 49.9468 58.1426Z" fill="#FFCFB9"/>
<path d="M78.8114 92.9238L80.8372 96.4073C80.8372 96.4073 82.432 94.3635 84.441 96.4782C86.45 98.5929 83.3402 102.868 81.6077 102.807C79.367 102.729 75.2695 96.4627 75.2695 96.4627L78.8114 92.9238Z" fill="#F4E9E4"/>
<path d="M80.0082 99.7196C80.0009 99.7196 79.9932 99.7192 79.9858 99.7183C79.8676 99.7058 79.782 99.6005 79.7945 99.4822C80.1845 95.7511 81.8499 95.5181 81.9204 95.5099C82.0395 95.4961 82.1449 95.5808 82.1582 95.6991C82.1715 95.816 82.0885 95.9218 81.9724 95.9364C81.9445 95.9412 80.5694 96.197 80.2215 99.5269C80.2099 99.6374 80.117 99.7196 80.0082 99.7196ZM82.0481 101.362C81.8903 101.362 81.72 101.307 81.5403 101.197C81.4392 101.135 81.4074 101.002 81.4698 100.901C81.5317 100.8 81.6637 100.768 81.7652 100.83C81.9221 100.927 82.0477 100.955 82.1384 100.913C82.3048 100.836 82.387 100.535 82.4024 100.436C82.4209 100.319 82.5323 100.239 82.6471 100.256C82.7641 100.274 82.8449 100.383 82.8273 100.5C82.8178 100.562 82.7241 101.114 82.3203 101.302C82.2339 101.342 82.1432 101.362 82.0481 101.362ZM79.7893 96.8902C79.7188 96.8902 79.65 96.8558 79.6087 96.7921L78.6073 95.2467C78.5428 95.147 78.5711 95.0141 78.6705 94.9496C78.7702 94.8851 78.9031 94.9135 78.9676 95.0132L79.9691 96.5586C80.0336 96.6584 80.0052 96.7913 79.9059 96.8558C79.8697 96.879 79.8293 96.8902 79.7893 96.8902Z" fill="#042C30"/>
<path d="M81.6714 97.2952C81.6305 97.2952 81.5892 97.2836 81.5527 97.2595C81.4538 97.1941 81.4267 97.0604 81.492 96.9619C81.9134 96.326 82.3813 96.0039 82.8818 96.0039C82.8822 96.0039 82.8822 96.0039 82.8827 96.0039C83.6498 96.0043 84.1675 96.7745 84.1894 96.8076C84.2548 96.9065 84.2277 97.0398 84.1288 97.1051C84.0299 97.1701 83.8966 97.1434 83.8313 97.0445C83.8222 97.0312 83.4141 96.4335 82.8822 96.4335C82.8822 96.4335 82.8818 96.4335 82.8814 96.4335C82.5339 96.4339 82.1869 96.6915 81.8507 97.1993C81.8094 97.2612 81.741 97.2952 81.6714 97.2952Z" fill="#042C30"/>
<path d="M79.7888 93.7978L75.4824 97.6145L59.854 81.0337C59.854 81.0337 45.1764 66.2413 57.861 61.866C65.4862 59.2366 75.5215 78.8441 79.7888 93.7978Z" fill="#384D54"/>
<path d="M81.4546 47.4062H53.9032C53.2505 47.4062 52.6958 47.8835 52.599 48.529L50.0422 65.5389C49.9223 66.3366 50.5402 67.0538 51.3464 67.0538H78.8978C79.5505 67.0538 80.1052 66.5765 80.202 65.9311L82.7588 48.9211C82.8787 48.1235 82.2608 47.4062 81.4546 47.4062Z" fill="#384D54"/>
<path d="M83.1867 46.8896H54.9107C54.2408 46.8896 53.6719 47.3798 53.5721 48.042L51.208 63.7706L42.7004 62.8469C41.68 62.8469 40.8527 63.6743 40.8527 64.6942L51.0338 67.0536H59.8183H80.5628C81.2327 67.0536 81.8016 66.5639 81.9014 65.9012L84.5252 48.4441C84.6482 47.6258 84.0144 46.8896 83.1867 46.8896Z" fill="#F4E9E4"/>
<path d="M81.8705 50.1165H72.3636C72.245 50.1165 72.1486 50.0202 72.1486 49.9015C72.1486 49.7828 72.2445 49.6865 72.3636 49.6865H81.8705C81.9892 49.6865 82.0855 49.7828 82.0855 49.9015C82.0855 50.0202 81.9892 50.1165 81.8705 50.1165ZM79.9106 51.3906H64.4246C64.3059 51.3906 64.2096 51.2943 64.2096 51.1756C64.2096 51.0569 64.3054 50.9606 64.4246 50.9606H79.9106C80.0293 50.9606 80.1256 51.0569 80.1256 51.1756C80.1256 51.2943 80.0293 51.3906 79.9106 51.3906ZM50.9741 65.5724C50.9578 65.5724 50.9419 65.5707 50.926 65.5669L42.9129 63.7213C42.7973 63.6946 42.725 63.5794 42.7517 63.4637C42.7783 63.3481 42.8932 63.2762 43.0093 63.3025L50.7957 65.096L52.7505 52.0614C52.7681 51.9445 52.8752 51.8623 52.9947 51.8808C53.1121 51.8984 53.193 52.0077 53.1753 52.1251L51.1861 65.3888C51.1771 65.4482 51.144 65.5011 51.0946 65.5346C51.0593 65.5595 51.0171 65.5724 50.9741 65.5724ZM79.9106 64.8182H70.0115C69.8929 64.8182 69.7965 64.7219 69.7965 64.6032C69.7965 64.4845 69.8924 64.3882 70.0115 64.3882H79.9106C80.0293 64.3882 80.1256 64.4845 80.1256 64.6032C80.1256 64.7219 80.0293 64.8182 79.9106 64.8182Z" fill="#042C30"/>
<path d="M40.412 53.1898C40.3961 53.1898 40.3797 53.1881 40.3634 53.1842C40.2477 53.1575 40.1755 53.0423 40.2021 52.9266C40.7882 50.3879 43.8606 49.7657 44.2605 49.6952C49.027 47.0468 53.7949 35.4041 53.8426 35.2863C53.8873 35.1762 54.0133 35.1238 54.1225 35.1681C54.2326 35.2128 54.2855 35.3379 54.2408 35.448C54.043 35.9347 49.347 47.4016 44.4355 50.0895C44.414 50.1011 44.3903 50.1093 44.3658 50.1131C44.334 50.1183 41.1692 50.6485 40.621 53.0234C40.5977 53.1227 40.5096 53.1898 40.412 53.1898ZM43.4087 62.6433C38.1295 62.6433 35.0473 60.9595 33.3174 59.3801C31.0118 57.2748 30.5521 54.9528 30.5336 54.8547C30.5117 54.7382 30.5882 54.626 30.7047 54.6041C30.823 54.5821 30.9335 54.6587 30.9559 54.7748C30.9602 54.7976 31.4155 57.0727 33.627 59.0808C35.6738 60.9392 39.69 62.9452 47.1978 61.9489C47.3148 61.9343 47.4236 62.016 47.439 62.1338C47.4545 62.2516 47.372 62.3595 47.2546 62.375C45.8588 62.5603 44.5795 62.6433 43.4087 62.6433Z" fill="#042C30"/>
<path d="M47.6153 62.121C47.5009 62.121 47.4059 62.0307 47.4007 61.915C47.3964 61.8161 47.3324 59.5573 49.6926 58.0463L41.3984 51.3422C41.3059 51.2678 41.2917 51.1323 41.3665 51.0399C41.4409 50.9474 41.5759 50.9332 41.6688 51.0076L50.2009 57.9044C50.2559 57.9491 50.2856 58.0179 50.28 58.0889C50.2744 58.1594 50.234 58.223 50.1725 58.2583C47.7753 59.6295 47.8269 61.8062 47.8299 61.8982C47.8342 62.0165 47.7421 62.1162 47.6235 62.121C47.6209 62.1205 47.6183 62.121 47.6153 62.121Z" fill="#042C30"/>
<path d="M45.7999 60.8717C45.7896 60.8717 45.7792 60.8708 45.7689 60.8695C45.652 60.8523 45.5703 60.7444 45.587 60.627C45.5999 60.5367 45.9336 58.4013 48.7987 56.9355C48.9036 56.8813 49.0335 56.923 49.0877 57.0288C49.1414 57.1346 49.0997 57.264 48.9939 57.3177C46.3391 58.6757 46.0153 60.6679 46.0119 60.6877C45.9964 60.7947 45.9048 60.8717 45.7999 60.8717ZM33.108 55.5608C33.0418 55.5608 32.9768 55.5307 32.9347 55.4735C31.5028 53.5299 32.8556 50.6355 32.9136 50.5134C32.9648 50.4064 33.0934 50.3612 33.2 50.4119C33.3071 50.4631 33.3527 50.5913 33.3019 50.6983C33.2886 50.7258 32.002 53.4839 33.2809 55.2189C33.3514 55.3144 33.3312 55.449 33.2353 55.5195C33.1966 55.547 33.1523 55.5608 33.108 55.5608ZM87.3207 59.6591C87.2656 59.6591 87.2102 59.638 87.1685 59.5959C87.0846 59.5116 87.085 59.3757 87.1693 59.2923C89.3954 57.0757 88.615 54.9828 88.5806 54.8947C88.5376 54.7842 88.5918 54.6599 88.7023 54.6165C88.8119 54.5731 88.9366 54.6268 88.9805 54.7369C89.0196 54.8354 89.9076 57.1728 87.4725 59.5967C87.4303 59.6385 87.3753 59.6591 87.3207 59.6591ZM27.3615 50.3487C27.334 50.3487 27.306 50.3436 27.2789 50.332L23.7211 48.8493C23.6114 48.8037 23.5598 48.6777 23.6054 48.5685C23.651 48.4593 23.777 48.4077 23.8862 48.4529L27.444 49.9355C27.5537 49.9811 27.6053 50.1071 27.5597 50.2163C27.5253 50.2989 27.4453 50.3487 27.3615 50.3487ZM21.6911 54.5137C21.584 54.5137 21.4915 54.4337 21.4782 54.3249C21.4636 54.2071 21.5474 54.1001 21.6653 54.0854L28.8699 53.2035C28.9869 53.1885 29.0948 53.2727 29.109 53.3906C29.1236 53.5084 29.0398 53.6154 28.9219 53.6301L21.7173 54.512C21.7087 54.5133 21.6997 54.5137 21.6911 54.5137ZM27.2566 59.9489C27.223 59.9489 27.1895 59.9412 27.1581 59.9248C27.0527 59.8702 27.0115 59.7408 27.0661 59.635L28.2043 57.439C28.2589 57.3337 28.3887 57.2928 28.4937 57.3474C28.599 57.402 28.6403 57.5315 28.5857 57.6372L27.4475 59.8332C27.4092 59.9063 27.3344 59.9489 27.2566 59.9489Z" fill="#042C30"/>
<path d="M70.9935 16.866C70.9935 15.567 70.311 14.4301 69.2872 13.7855C69.562 13.3546 69.7232 12.8442 69.7232 12.2955C69.7232 11.6196 69.4811 10.9999 69.08 10.5183C69.2004 10.2075 69.2692 9.87033 69.2692 9.51687C69.2692 7.9822 68.0252 6.73821 66.4905 6.73821C66.226 6.73821 65.9715 6.77734 65.729 6.84657C65.1618 6.19512 64.3289 5.78146 63.3971 5.78146C62.7164 5.78146 62.0894 6.00377 61.5786 6.37658C60.9684 5.98657 60.2456 5.75781 59.4677 5.75781C57.9133 5.75781 56.5738 6.66253 55.9366 7.97188C55.8063 7.95296 55.6738 7.94006 55.5384 7.94006C54.0037 7.94006 52.7597 9.18405 52.7597 10.7187C52.7597 11.6591 53.228 12.4886 53.9431 12.9913C53.8266 13.2286 53.7354 13.4802 53.6726 13.7433C52.6105 14.3793 51.8976 15.5377 51.8976 16.8656C51.8976 18.8763 53.5277 20.5064 55.5384 20.5064C56.0148 20.5064 56.4685 20.4122 56.8852 20.2462C56.8852 20.2501 56.8847 20.254 56.8847 20.2583C56.8847 22.269 58.5149 23.8991 60.5255 23.8991C61.3185 23.8991 62.0495 23.6428 62.6476 23.2128C63.2453 23.6428 63.9767 23.8991 64.7692 23.8991C66.7489 23.8991 68.3558 22.3184 68.4053 20.3507C69.9025 19.8988 70.9935 18.5103 70.9935 16.866Z" fill="#042C30"/>
<path d="M61.3666 23.3537C61.6349 21.8195 62.2906 19.8827 61.889 18.3777C61.8533 18.2449 61.6607 18.1111 61.5252 18.1352C61.3898 18.1593 61.2724 18.2427 61.1417 18.2844C60.6338 18.4474 60.2047 17.6351 60.0039 17.1406C59.3589 15.5505 60.6618 15.7104 60.9301 16.0403C61.1275 15.9981 59.4526 13.1386 63.2375 11.6151C65.1699 11.1636 65.9267 12.0374 66.6151 12.9099C67.7585 14.359 68.557 16.6573 68.2827 18.4827C68.1962 19.0584 67.9873 19.5241 67.5409 19.906C67.1346 20.2538 66.5029 20.3222 65.9882 20.3102C66.075 21.1542 66.0763 21.6513 66.1787 23.7893C66.7407 24.3294 68.5815 25.0135 69.0584 25.5265C70.2091 26.764 67.0081 31.771 65.3247 31.9206C60.7267 32.3291 58.5036 27.274 57.5112 26.122C58.5582 25.4869 61.1554 24.5607 61.3666 23.3537Z" fill="#FFCFB9"/>
<path d="M60.3892 17.2223C60.3604 17.2223 60.3316 17.2107 60.3105 17.1879C60.1652 17.0314 60.1015 16.8633 60.1217 16.6887C60.1587 16.3692 60.4692 16.1568 60.4825 16.1477C60.5319 16.1146 60.5977 16.1275 60.6313 16.1766C60.6648 16.2256 60.6515 16.2922 60.6029 16.3258C60.6003 16.3275 60.3599 16.4935 60.335 16.7141C60.3225 16.8246 60.366 16.9321 60.4679 17.0417C60.5083 17.0851 60.5057 17.1531 60.4623 17.1935C60.4416 17.2129 60.4154 17.2223 60.3892 17.2223ZM66.963 12.2279C66.963 12.2279 66.3597 13.3347 65.2731 12.8578C64.1865 12.3809 62.8286 11.5089 62.62 12.9769C62.5392 13.5467 61.1146 13.5394 61.4921 14.5348C61.8396 15.4516 61.189 16.3808 60.6605 15.8734C59.8642 15.1089 59.5726 13.2323 61.4457 11.8701C63.3179 10.5079 66.487 11.0019 66.963 12.2279Z" fill="#042C30"/>
<path d="M63.7291 14.3062C63.7123 14.1381 63.1757 14.0538 62.7543 14.0955C62.3329 14.1372 62.1858 14.2894 62.2026 14.4576C62.2193 14.6257 62.3931 14.7461 62.8145 14.7044C63.2363 14.6627 63.7458 14.4743 63.7291 14.3062Z" fill="#042C30"/>
<path d="M65.4375 14.0973C65.3536 13.9506 65.7428 13.5714 66.1109 13.3615C66.4789 13.1517 66.6866 13.1908 66.7705 13.3379C66.8543 13.4845 66.7821 13.6836 66.414 13.893C66.0455 14.1024 65.5209 14.2439 65.4375 14.0973Z" fill="#042C30"/>
<g opacity="0.5">
<path d="M63.4596 16.3113C63.4841 16.4975 63.7532 16.6157 64.0611 16.5749C64.3686 16.5345 64.5978 16.3504 64.5733 16.1642C64.5488 15.978 64.2796 15.8598 63.9717 15.9006C63.6642 15.9411 63.435 16.1251 63.4596 16.3113Z" fill="#EDAA85"/>
</g>
<g opacity="0.5">
<path d="M66.3702 15.7097C66.3947 15.8959 66.6639 16.0142 66.9718 15.9733C67.2792 15.9329 67.5088 15.7489 67.4839 15.5627C67.4594 15.3765 67.1902 15.2582 66.8823 15.2991C66.5753 15.3395 66.3457 15.5235 66.3702 15.7097Z" fill="#EDAA85"/>
</g>
<path d="M66.5364 17.4717C66.284 17.562 66.2298 17.7783 65.4635 17.4717C64.6972 17.1651 64.4165 16.9235 64.2888 17.3255C64.161 17.7271 65.6682 19.0206 66.5364 18.3825C67.4045 17.7435 66.7062 17.4107 66.5364 17.4717Z" fill="#F4E9E4"/>
<path d="M65.6218 16.5007C65.5784 16.5007 65.5375 16.4741 65.5212 16.4311C65.5001 16.3756 65.5285 16.3137 65.584 16.2926C65.6674 16.2612 65.7697 16.2075 65.7813 16.1297C65.7886 16.0806 65.7702 15.9392 65.4408 15.6842C64.9256 15.286 64.8568 14.6698 64.8538 14.644C64.8478 14.5851 64.8904 14.5326 64.9493 14.5262C65.0091 14.5189 65.0611 14.5627 65.0675 14.6216C65.068 14.6272 65.1316 15.1738 65.5719 15.5143C65.8845 15.756 66.0226 15.968 65.9933 16.1615C65.9714 16.3068 65.8592 16.4186 65.6592 16.4939C65.6472 16.4986 65.6347 16.5007 65.6218 16.5007ZM66.1541 20.5995C65.547 20.5995 65.0172 20.3514 64.5606 20.1381L64.4836 20.1024C64.3761 20.0521 64.3292 19.9244 64.3795 19.8169C64.4294 19.7094 64.5567 19.663 64.6651 19.7128L64.7429 19.749C65.4115 20.062 66.1034 20.3858 66.9539 19.9829C67.0614 19.9321 67.1896 19.9782 67.2403 20.0852C67.2911 20.1923 67.2451 20.3204 67.138 20.3712C66.7901 20.5354 66.462 20.5995 66.1541 20.5995Z" fill="#042C30"/>
<g opacity="0.25">
<path d="M66.3478 18.8377C65.9225 19.0389 65.5751 18.8613 65.2732 18.7207L66.3478 18.8377Z" fill="url(#paint0_linear_348_21937)"/>
<path d="M65.9599 19.0351C65.6933 19.0351 65.4611 18.9268 65.2611 18.833L65.2276 18.8171C65.1738 18.7922 65.1502 18.7281 65.1755 18.6744C65.2005 18.6206 65.2646 18.5974 65.3183 18.6223L65.3523 18.6382C65.6404 18.7728 65.9384 18.9121 66.3021 18.7397C66.355 18.7143 66.4195 18.7371 66.4453 18.7909C66.4707 18.8446 66.4479 18.9087 66.3942 18.9341C66.2402 19.0072 66.0957 19.0351 65.9599 19.0351Z" fill="#042C30"/>
</g>
<path d="M63.7221 15.6371C63.9577 15.6371 64.1487 15.491 64.1487 15.3107C64.1487 15.1305 63.9577 14.9844 63.7221 14.9844C63.4865 14.9844 63.2955 15.1305 63.2955 15.3107C63.2955 15.491 63.4865 15.6371 63.7221 15.6371Z" fill="#042C30"/>
<path d="M66.9669 14.7111C66.9669 14.8913 66.776 15.0375 66.5403 15.0375C66.3047 15.0375 66.1138 14.8913 66.1138 14.7111C66.1138 14.531 66.3047 14.3848 66.5403 14.3848C66.776 14.3848 66.9669 14.531 66.9669 14.7111Z" fill="#042C30"/>
<path d="M66.8868 12.7732C66.8176 12.7732 66.7492 12.7397 66.708 12.6777C66.6417 12.5788 66.6684 12.4455 66.7673 12.3798C68.2714 11.3748 68.1437 9.82728 68.1377 9.76192C68.1265 9.6441 68.213 9.53918 68.3308 9.52757C68.4477 9.51725 68.5535 9.60196 68.5651 9.71978C68.5729 9.79546 68.7298 11.5851 67.0059 12.7371C66.969 12.7612 66.9277 12.7732 66.8868 12.7732ZM56.4297 13.1727C56.3733 13.1727 56.317 13.1508 56.2749 13.1069C56.1927 13.0213 56.1953 12.8854 56.2809 12.8033C57.0738 12.0401 57.865 11.681 58.6304 11.7361C59.5816 11.8044 60.1272 12.492 60.15 12.5212C60.2227 12.615 60.2059 12.75 60.1126 12.8227C60.0189 12.8953 59.8847 12.879 59.8116 12.7857C59.8022 12.7741 59.3489 12.2159 58.5939 12.1643C57.9549 12.123 57.2781 12.4404 56.5789 13.1129C56.5367 13.1529 56.4834 13.1727 56.4297 13.1727ZM59.7368 22.9354C59.723 22.9354 59.7093 22.9341 59.6951 22.9315C57.8396 22.5686 57.6676 20.8409 57.6663 20.8232C57.656 20.705 57.7433 20.6009 57.8616 20.5906C57.9764 20.5777 58.0834 20.6671 58.0942 20.7854C58.0998 20.8439 58.246 22.2104 59.7776 22.5097C59.8942 22.5325 59.9699 22.6452 59.9471 22.7617C59.9273 22.864 59.8374 22.9354 59.7368 22.9354ZM55.6428 20.0093C55.6398 20.0093 55.6363 20.0093 55.6333 20.0093C53.3977 19.9134 52.8912 17.9246 52.886 17.9048C52.8581 17.7896 52.929 17.6735 53.0443 17.6455C53.1591 17.6176 53.2752 17.6881 53.3036 17.8034C53.3208 17.8726 53.7452 19.4988 55.6518 19.5805C55.7705 19.5857 55.8621 19.6859 55.8573 19.8046C55.8522 19.919 55.7571 20.0093 55.6428 20.0093ZM63.6988 11.7343C63.6657 11.7343 63.6317 11.7266 63.6003 11.7102C63.495 11.6556 63.4537 11.5262 63.5079 11.4209C64.2251 10.0328 63.0345 8.26939 62.3043 7.53108C62.2209 7.4468 62.2218 7.31049 62.306 7.22707C62.3908 7.14365 62.5266 7.14451 62.6096 7.22879C63.4752 8.10427 64.7183 10.0139 63.8893 11.6178C63.8515 11.6918 63.7766 11.7343 63.6988 11.7343ZM61.8967 11.4785C61.8941 11.4785 61.8915 11.4785 61.8889 11.4785C61.7703 11.4742 61.6778 11.3748 61.6817 11.2562C61.7066 10.5437 61.2943 9.8032 60.5787 9.27559C59.8985 8.77421 59.0914 8.57813 58.5233 8.77593C58.4107 8.81506 58.289 8.75572 58.2499 8.64392C58.2107 8.53169 58.2701 8.40957 58.3819 8.37044C59.0909 8.12319 60.0301 8.33776 60.8337 8.92987C61.6636 9.54176 62.1414 10.4172 62.1113 11.2716C62.107 11.3873 62.0119 11.4785 61.8967 11.4785ZM65.4407 11.7184C65.3853 11.7184 65.3298 11.6969 65.2877 11.6543C65.2042 11.5701 65.2051 11.4338 65.2898 11.3508C66.3416 10.3145 65.983 9.16422 65.4382 8.07503C65.3853 7.96882 65.4283 7.83982 65.5341 7.78693C65.6403 7.73404 65.7688 7.77704 65.8222 7.88282C66.1778 8.59361 67.0102 10.2586 65.5912 11.6569C65.5495 11.6978 65.4954 11.7184 65.4407 11.7184Z" fill="#384D54"/>
<path d="M133.493 11.84C133.493 11.84 133.493 11.84 133.492 11.84L130.961 11.8293C130.842 11.8288 130.746 11.7321 130.747 11.6134C130.747 11.4951 130.843 11.3997 130.962 11.3997C130.962 11.3997 130.962 11.3997 130.963 11.3997L133.494 11.4104C133.613 11.4109 133.709 11.5076 133.708 11.6263C133.707 11.7445 133.612 11.84 133.493 11.84ZM129.209 10.2189C129.134 10.2189 129.061 10.1793 129.022 10.1093C128.964 10.0056 129 9.8749 129.104 9.81685L133.259 7.48023C133.363 7.42175 133.493 7.45873 133.552 7.56236C133.61 7.66599 133.573 7.79671 133.47 7.85476L129.315 10.1914C129.281 10.2099 129.245 10.2189 129.209 10.2189ZM128.483 7.59074C128.476 7.59074 128.47 7.59031 128.464 7.58988C128.346 7.57956 128.258 7.47507 128.269 7.35682L128.411 5.73873C128.421 5.62048 128.523 5.53534 128.644 5.54351C128.762 5.55383 128.85 5.65832 128.839 5.77657L128.697 7.39466C128.687 7.50646 128.593 7.59074 128.483 7.59074Z" fill="#042C30"/>
<defs>
<linearGradient id="paint0_linear_348_21937" x1="66.3478" y1="18.8243" x2="65.273" y2="18.8243" gradientUnits="userSpaceOnUse">
<stop stop-color="white"/>
<stop offset="1"/>
</linearGradient>
</defs>
</svg>
