<svg width="144" height="102" viewBox="0 0 144 102" fill="none" xmlns="http://www.w3.org/2000/svg">
<path d="M100.144 102.253C103.586 101.442 107.175 101.348 110.695 101.417C114.389 101.491 118.071 101.793 121.76 101.976C125.685 102.172 129.621 102.098 133.55 102.098H139.93C144.35 86.3675 143.258 61.8771 127.531 44.4176C68.086 -21.573 9.33647 32.3653 7.43882 64.3665C5.95159 89.4507 18.5999 103.721 49.2756 99.8832C73.9598 96.7953 89.3348 98.7232 99.9154 102.31C99.9914 102.291 100.067 102.271 100.144 102.253Z" fill="#F4E9E4"/>
<path d="M39.2786 50.6523H26.2729V102.232H39.2786V50.6523Z" fill="#F0CEBB"/>
<g opacity="0.5">
<path d="M30.6785 52.5068H27.827V56.2072H30.6785V52.5068Z" fill="#F2B694"/>
<path d="M34.2804 52.5068H31.429V56.2072H34.2804V52.5068Z" fill="#F2B694"/>
<path d="M37.8789 52.5068H35.0275V56.2072H37.8789V52.5068Z" fill="#F2B694"/>
<path d="M30.6785 57.3096H27.827V61.0099H30.6785V57.3096Z" fill="#F2B694"/>
<path d="M34.2804 57.3096H31.429V61.0099H34.2804V57.3096Z" fill="#F2B694"/>
<path d="M37.8789 57.3096H35.0275V61.0099H37.8789V57.3096Z" fill="#F2B694"/>
<path d="M30.6785 62.0938H27.827V65.7941H30.6785V62.0938Z" fill="#F2B694"/>
<path d="M34.2804 62.0938H31.429V65.7941H34.2804V62.0938Z" fill="#F2B694"/>
<path d="M37.8789 62.0938H35.0275V65.7941H37.8789V62.0938Z" fill="#F2B694"/>
<path d="M30.6785 66.8965H27.827V70.5968H30.6785V66.8965Z" fill="#F2B694"/>
<path d="M34.2804 66.8965H31.429V70.5968H34.2804V66.8965Z" fill="#F2B694"/>
<path d="M37.8789 66.8965H35.0275V70.5968H37.8789V66.8965Z" fill="#F2B694"/>
</g>
<path d="M44.073 55.0762H34.4833V102.232H44.073V55.0762Z" fill="#EFD0CE"/>
<path d="M29.0342 70.7559H15.0152V102.231H29.0342V70.7559Z" fill="#EFD0CE"/>
<path d="M103.244 102.231H117.263V49.2366H103.244V102.231Z" fill="#F2B694"/>
<path d="M118.79 102.231H131.795V58.645H118.79V102.231Z" fill="#F0CEBB"/>
<path d="M131.795 76.3041C131.677 76.3041 131.58 76.2078 131.58 76.0891V58.8605H118.77V67.5504C118.77 67.669 118.674 67.7653 118.555 67.7653C118.436 67.7653 118.34 67.669 118.34 67.5504V58.6456C118.34 58.5269 118.436 58.4307 118.555 58.4307H131.796C131.914 58.4307 132.011 58.5269 132.011 58.6456V76.0896C132.01 76.2078 131.914 76.3041 131.795 76.3041Z" fill="#F09664"/>
<path d="M110.254 102.231H119.844V62.3833H110.254V102.231Z" fill="#EFD0CE"/>
<g opacity="0.5">
<path d="M113.238 63.5801H110.99V66.4976H113.238V63.5801Z" fill="#F2B694"/>
<path d="M116.078 63.5801H113.83V66.4976H116.078V63.5801Z" fill="#F2B694"/>
<path d="M118.915 63.5801H116.667V66.4976H118.915V63.5801Z" fill="#F2B694"/>
<path d="M113.238 67.3672H110.99V70.2847H113.238V67.3672Z" fill="#F2B694"/>
<path d="M116.078 67.3672H113.83V70.2847H116.078V67.3672Z" fill="#F2B694"/>
<path d="M118.915 67.3672H116.667V70.2847H118.915V67.3672Z" fill="#F2B694"/>
<path d="M113.238 71.1387H110.99V74.0561H113.238V71.1387Z" fill="#F2B694"/>
<path d="M116.078 71.1387H113.83V74.0561H116.078V71.1387Z" fill="#F2B694"/>
<path d="M118.915 71.1387H116.667V74.0561H118.915V71.1387Z" fill="#F2B694"/>
<path d="M113.238 74.9258H110.99V77.8432H113.238V74.9258Z" fill="#F2B694"/>
<path d="M116.078 74.9258H113.83V77.8432H116.078V74.9258Z" fill="#F2B694"/>
<path d="M118.915 74.9258H116.667V77.8432H118.915V74.9258Z" fill="#F2B694"/>
</g>
<path d="M125.292 102.231H139.311V63.8934H125.292V102.231Z" fill="#EFD0CE"/>
<g opacity="0.5">
<path d="M129.969 65.8301H126.909V69.8002H129.969V65.8301Z" fill="#F2B694"/>
<path d="M133.833 65.8301H130.774V69.8002H133.833V65.8301Z" fill="#F2B694"/>
<path d="M137.695 65.8301H134.635V69.8002H137.695V65.8301Z" fill="#F2B694"/>
<path d="M129.969 70.9844H126.909V74.9545H129.969V70.9844Z" fill="#F2B694"/>
<path d="M133.833 70.9844H130.774V74.9545H133.833V70.9844Z" fill="#F2B694"/>
<path d="M137.695 70.9844H134.635V74.9545H137.695V70.9844Z" fill="#F2B694"/>
<path d="M129.969 76.1162H126.909V80.0863H129.969V76.1162Z" fill="#F2B694"/>
<path d="M133.833 76.1162H130.774V80.0863H133.833V76.1162Z" fill="#F2B694"/>
<path d="M137.695 76.1162H134.635V80.0863H137.695V76.1162Z" fill="#F2B694"/>
<path d="M129.969 81.2695H126.909V85.2396H129.969V81.2695Z" fill="#F2B694"/>
<path d="M133.833 81.2695H130.774V85.2396H133.833V81.2695Z" fill="#F2B694"/>
<path d="M137.695 81.2695H134.635V85.2396H137.695V81.2695Z" fill="#F2B694"/>
</g>
<path d="M93.6031 102.216H136.509C136.509 102.216 139.446 94.4846 126.751 93.3565C114.056 92.2283 99.4118 91.4528 98.3902 96.2782C98.1615 97.3602 92.0054 95.5454 93.6031 102.216Z" fill="#F2B694"/>
<path d="M108.259 96.963C107.42 97.6854 106.117 97.8102 105.156 97.259C104.803 98.1049 103.658 98.2663 102.761 98.0756C101.145 97.7316 99.7139 96.6466 98.893 95.2125C98.0722 93.7784 97.8585 92.0214 98.2517 90.4168C98.581 89.0746 99.4019 87.7704 100.682 87.2486C101.961 86.7268 103.688 87.2684 104.138 88.5748C103.849 86.3259 105.343 84.0942 107.254 82.8724C108.404 82.1361 109.776 81.6143 111.123 81.8387C112.053 81.9932 112.905 82.499 113.56 83.1779C114.535 84.19 115.085 85.5999 115.053 87.0052C115.021 88.4104 114.407 89.7936 113.385 90.7599C113.987 90.4492 114.681 90.1855 115.346 90.0538C116.01 89.9222 116.745 89.9956 117.285 90.4043C117.683 90.7055 117.939 91.1569 118.143 91.6127C118.695 92.8457 118.943 94.2898 118.447 95.5461C117.987 96.7088 116.949 97.5586 115.828 98.111C113.663 99.1787 110.89 99.2348 108.95 97.7977C108.784 97.6751 108.617 97.5305 108.558 97.3324C108.5 97.1339 108.055 96.9953 108.259 96.963Z" fill="#F1C2A7"/>
<path d="M102.761 98.2909C102.747 98.2909 102.731 98.2896 102.716 98.2862C101.068 97.9353 99.5689 96.8261 98.7066 95.3195C97.871 93.8599 97.6294 92.0542 98.0432 90.3654C98.4312 88.7837 99.3872 87.5437 100.601 87.0491C101.102 86.845 101.689 86.7855 102.256 86.8821C102.373 86.902 102.452 87.0133 102.432 87.1303C102.412 87.2472 102.301 87.3262 102.184 87.3064C101.696 87.2231 101.191 87.2736 100.763 87.4475C99.6772 87.8903 98.8166 89.0193 98.4614 90.4677C98.0734 92.0503 98.2992 93.7408 99.0803 95.1054C99.8831 96.5072 101.276 97.5391 102.807 97.865C102.923 97.8896 102.997 98.0039 102.972 98.12C102.95 98.2219 102.861 98.2909 102.761 98.2909Z" fill="#F09664"/>
<path d="M109.904 97.2786C109.835 97.2786 109.767 97.2453 109.725 97.1836C109.689 97.1305 106.096 91.8674 102.472 91.6085C102.353 91.5998 102.264 91.4971 102.273 91.3784C102.281 91.2602 102.384 91.1726 102.503 91.179C106.335 91.4531 109.931 96.7188 110.082 96.9428C110.148 97.0412 110.122 97.175 110.024 97.2414C109.987 97.2669 109.945 97.2786 109.904 97.2786Z" fill="#F09664"/>
<path d="M132.994 91.3339C132.671 90.7435 132.28 90.1639 131.713 89.8014C130.944 89.3098 129.948 89.2895 129.069 89.5373C128.191 89.785 127.286 90.2131 126.511 90.6943C127.78 89.2874 128.458 87.3634 128.352 85.4714C128.245 83.5793 127.356 81.7434 125.937 80.4875C124.985 79.645 123.786 79.0559 122.52 78.9476C120.686 78.7901 118.898 79.6373 117.431 80.749C114.994 82.5944 113.223 85.7527 113.852 88.7444C113.108 87.0367 110.729 86.4933 109.064 87.3306C107.4 88.1683 106.436 90.0081 106.137 91.8471C105.779 94.046 106.253 96.3843 107.509 98.2236C108.765 100.064 110.803 101.369 113.012 101.659C114.237 101.82 115.759 101.482 116.144 100.306C117.494 100.945 119.231 100.639 120.282 99.5784C120.011 99.6431 120.624 99.7821 120.724 100.042C120.824 100.302 121.063 100.478 121.299 100.625C124.06 102.35 127.779 101.978 130.576 100.313C132.024 99.4511 133.328 98.1986 133.822 96.5871C134.355 94.8461 133.867 92.9316 132.994 91.3339Z" fill="#F0CEBB"/>
<path d="M127.081 82.0018C127.022 82.0018 126.963 81.9777 126.92 81.9298C122.5 76.9558 117.766 80.7515 117.567 80.9155C117.475 80.9911 117.34 80.9781 117.264 80.8862C117.189 80.7947 117.201 80.6592 117.293 80.5837C117.345 80.5405 122.542 76.3563 127.242 81.6436C127.321 81.7325 127.312 81.8685 127.224 81.9474C127.183 81.9837 127.132 82.0018 127.081 82.0018ZM113.584 101.911C113.381 101.911 113.18 101.898 112.984 101.873C110.751 101.579 108.638 100.261 107.331 98.3453C106.064 96.4886 105.551 94.1076 105.924 91.8129C106.273 89.6701 107.41 87.9227 108.967 87.1389C109.924 86.6573 111.118 86.5951 112.162 86.9719C112.703 87.1674 113.164 87.4686 113.517 87.8502C113.453 86.6663 113.718 85.4277 114.3 84.2176C114.351 84.1101 114.48 84.0656 114.587 84.117C114.694 84.1684 114.739 84.297 114.687 84.404C113.991 85.8524 113.775 87.3379 114.061 88.7004C114.084 88.8083 114.021 88.9157 113.916 88.9494C113.811 88.9826 113.697 88.9317 113.653 88.8303C113.366 88.17 112.784 87.6538 112.016 87.3763C111.081 87.0384 110.014 87.0932 109.16 87.523C107.726 88.2446 106.675 89.8743 106.348 91.8815C105.992 94.0683 106.48 96.3354 107.686 98.1023C108.925 99.918 110.926 101.168 113.039 101.446C114.195 101.597 115.596 101.285 115.938 100.24C115.975 100.127 116.096 100.065 116.21 100.102C116.323 100.139 116.384 100.261 116.347 100.374C115.992 101.464 114.761 101.911 113.584 101.911ZM117.691 101.969C117.581 101.969 117.488 101.885 117.477 101.774C116.675 93.2768 119.725 88.7625 119.855 88.5743C119.923 88.4768 120.057 88.4526 120.154 88.52C120.252 88.5873 120.276 88.7215 120.209 88.819C120.178 88.8639 117.119 93.405 117.905 101.733C117.916 101.851 117.829 101.956 117.711 101.968C117.705 101.968 117.698 101.969 117.691 101.969Z" fill="#F09664"/>
<path d="M125.497 95.1984C125.459 95.1984 125.421 95.1884 125.386 95.1673C122.238 93.2658 118.058 94.7711 118.016 94.7862C117.905 94.8276 117.781 94.7702 117.74 94.6589C117.699 94.5476 117.756 94.4237 117.867 94.3827C118.046 94.3167 122.28 92.7889 125.609 94.7987C125.711 94.86 125.743 94.9925 125.682 95.0939C125.641 95.1613 125.57 95.1984 125.497 95.1984ZM117.48 98.2906C117.411 98.2906 117.343 98.257 117.301 98.1948C117.27 98.1478 114.105 93.4764 110.483 93.2174C110.364 93.2088 110.275 93.1061 110.284 92.9874C110.292 92.8691 110.395 92.782 110.514 92.788C114.347 93.0616 117.526 97.7555 117.659 97.9553C117.725 98.0541 117.698 98.1875 117.599 98.2535C117.563 98.279 117.521 98.2906 117.48 98.2906ZM135.966 94.4435C135.849 94.4435 135.753 94.3495 135.751 94.2321C135.636 87.5883 130.758 86.8995 130.551 86.8736C130.433 86.859 130.349 86.7515 130.364 86.6337C130.378 86.5159 130.486 86.433 130.603 86.4468C130.658 86.4537 136.06 87.1973 136.181 94.2252C136.184 94.3438 136.089 94.4418 135.97 94.444C135.969 94.4435 135.967 94.4435 135.966 94.4435Z" fill="#F09664"/>
<path d="M5.78109 102.216H50.6886C50.6886 102.216 53.7632 94.1246 40.4757 92.9438C27.1883 91.763 11.8607 90.9516 10.7917 96.002C10.5522 97.134 4.10915 95.2346 5.78109 102.216Z" fill="#F2B694"/>
<path d="M21.1207 96.7183C20.2424 97.4749 18.8791 97.6048 17.8735 97.0282C17.5041 97.9138 16.3051 98.0825 15.3665 97.8827C13.6747 97.5223 12.1771 96.3873 11.3178 94.8863C10.4585 93.3852 10.235 91.5463 10.6467 89.8666C10.9911 88.4618 11.8504 87.0967 13.19 86.5507C14.5296 86.0048 16.3371 86.5715 16.8084 87.9387C16.5054 85.5849 18.0699 83.2487 20.0689 81.97C21.2735 81.1996 22.7085 80.6532 24.1189 80.888C25.0925 81.0498 25.9842 81.5789 26.6691 82.2898C27.6902 83.3493 28.2655 84.8244 28.2318 86.2952C28.1982 87.7661 27.5551 89.2136 26.4865 90.2248C27.1162 89.8994 27.8425 89.6236 28.5378 89.4859C29.2331 89.3482 30.003 89.4251 30.568 89.8527C30.9849 90.1682 31.2516 90.6404 31.4656 91.1173C32.0435 92.4077 32.3038 93.9191 31.7837 95.2341C31.3025 96.4512 30.2167 97.3402 29.0432 97.919C26.7765 99.0363 23.8746 99.0954 21.8436 97.591C21.6701 97.4623 21.4953 97.3113 21.434 97.1041C21.3732 96.8974 20.9075 96.752 21.1207 96.7183Z" fill="#F1C2A7"/>
<path d="M15.3669 98.0973C15.3522 98.0973 15.3371 98.096 15.322 98.0926C13.5991 97.7257 12.0325 96.5669 11.1314 94.9925C10.2583 93.4669 10.0054 91.5796 10.4378 89.8149C10.8431 88.1624 11.8417 86.8676 13.1089 86.351C13.6311 86.1383 14.2448 86.0765 14.8356 86.1767C14.9526 86.1965 15.0315 86.3079 15.0117 86.4248C14.9918 86.5418 14.8805 86.6208 14.7635 86.6009C14.2504 86.5137 13.7208 86.566 13.2716 86.7494C12.1318 87.2142 11.2285 88.3984 10.856 89.9172C10.4495 91.5761 10.686 93.3482 11.5047 94.7789C12.3458 96.2489 13.8063 97.3304 15.4113 97.6718C15.5274 97.6964 15.6017 97.8107 15.5771 97.9268C15.5555 98.0283 15.4661 98.0973 15.3669 98.0973Z" fill="#F09664"/>
<path d="M22.8427 97.0384C22.7736 97.0384 22.7059 97.0051 22.664 96.9434C22.6265 96.8877 18.8622 91.3752 15.0648 91.1037C14.9461 91.0951 14.8572 90.9924 14.8654 90.8737C14.8736 90.755 14.9763 90.6665 15.0954 90.6743C19.1022 90.9604 22.8625 96.4682 23.0205 96.7026C23.087 96.801 23.0611 96.9348 22.9627 97.0013C22.926 97.0267 22.8841 97.0384 22.8427 97.0384Z" fill="#F09664"/>
<path d="M47.0102 90.8258C46.6723 90.2078 46.2627 89.6014 45.6693 89.2216C44.8644 88.7072 43.8213 88.686 42.902 88.9449C41.9823 89.2039 41.0355 89.6523 40.2241 90.1564C41.5525 88.6838 42.262 86.6701 42.1507 84.69C42.0393 82.7095 41.1084 80.7881 39.6233 79.4735C38.6273 78.5918 37.3726 77.9751 36.0468 77.8616C34.1267 77.6967 32.2558 78.5832 30.7194 79.7471C28.1688 81.6789 26.3156 84.9843 26.9738 88.1155C26.1943 86.3283 23.705 85.7595 21.9631 86.6356C20.2213 87.5121 19.2118 89.4378 18.8989 91.3627C18.5243 93.6638 19.0211 96.1113 20.3356 98.0366C21.6502 99.9627 23.7835 101.329 26.0951 101.632C27.3777 101.8 28.9707 101.446 29.3733 100.217C30.7863 100.885 32.6046 100.564 33.7042 99.4543C33.4211 99.5221 34.0624 99.6675 34.1669 99.9394C34.2718 100.211 34.5225 100.396 34.7694 100.55C37.6588 102.355 41.5521 101.967 44.479 100.224C45.9947 99.3214 47.359 98.0107 47.8764 96.3241C48.4353 94.502 47.9243 92.4986 47.0102 90.8258Z" fill="#F0CEBB"/>
<path d="M26.6945 101.887C26.4822 101.887 26.272 101.873 26.0679 101.846C23.7343 101.54 21.5251 100.161 20.1582 98.1586C18.8329 96.2174 18.2964 93.728 18.687 91.3289C19.0513 89.089 20.2403 87.263 21.8669 86.4442C22.8664 85.9415 24.1132 85.8763 25.2034 86.2699C25.7778 86.4775 26.266 86.799 26.6371 87.2077C26.5642 85.9622 26.8404 84.6571 27.4532 83.3826C27.505 83.2752 27.6336 83.2307 27.7402 83.2821C27.8473 83.3334 27.8926 83.462 27.8408 83.5691C27.1114 85.0869 26.8844 86.6441 27.1848 88.0722C27.2077 88.1801 27.1451 88.288 27.0398 88.3216C26.9353 88.3553 26.8214 88.3039 26.7769 88.2025C26.4744 87.509 25.8637 86.9665 25.0571 86.6751C24.0766 86.3208 22.9557 86.3782 22.0602 86.8288C20.5562 87.5858 19.4539 89.294 19.1117 91.3983C18.7388 93.6896 19.2498 96.0654 20.5134 97.9165C21.8121 99.8193 23.9095 101.129 26.1235 101.42C27.3376 101.579 28.8093 101.25 29.1692 100.151C29.2059 100.038 29.3276 99.976 29.4406 100.013C29.5537 100.05 29.615 100.171 29.5783 100.285C29.2067 101.42 27.9232 101.887 26.6945 101.887ZM30.993 101.947C30.8834 101.947 30.7898 101.863 30.779 101.752C29.94 92.8627 33.2334 87.9915 33.2666 87.9431C33.3344 87.8456 33.4681 87.8214 33.5657 87.8887C33.6632 87.9561 33.6878 88.0903 33.6205 88.1878C33.5881 88.2349 30.3845 92.99 31.2075 101.711C31.2188 101.83 31.132 101.934 31.0133 101.946C31.0069 101.947 30.9999 101.947 30.993 101.947Z" fill="#F09664"/>
<path d="M39.1633 94.8613C39.1253 94.8613 39.0869 94.8514 39.0524 94.8302C35.7529 92.8372 31.3733 94.4146 31.3293 94.431C31.2179 94.472 31.0945 94.415 31.053 94.3037C31.012 94.1923 31.069 94.0685 31.1804 94.0275C31.3672 93.9584 35.7952 92.3607 39.2751 94.4621C39.3769 94.5234 39.4093 94.6559 39.348 94.7573C39.3074 94.8242 39.2362 94.8613 39.1633 94.8613ZM30.7725 98.0977C30.703 98.0977 30.6348 98.064 30.5934 98.0023C30.5606 97.9531 27.2457 93.0594 23.4495 92.7884C23.3308 92.7798 23.2419 92.6771 23.2501 92.5584C23.2587 92.4401 23.3614 92.353 23.4801 92.359C27.4873 92.6451 30.8118 97.5543 30.9512 97.7632C31.0172 97.8621 30.9905 97.9954 30.8916 98.0614C30.8549 98.086 30.8135 98.0977 30.7725 98.0977ZM50.1211 94.0715C50.0041 94.0715 49.9083 93.9774 49.9061 93.86C49.7857 86.8969 44.6719 86.1758 44.4544 86.1481C44.3366 86.1335 44.2529 86.026 44.2676 85.9082C44.2822 85.7904 44.3919 85.7071 44.5071 85.7213C44.5641 85.7282 50.2095 86.5055 50.3364 93.8527C50.3386 93.9714 50.2436 94.0693 50.125 94.0715C50.1237 94.0715 50.1224 94.0715 50.1211 94.0715Z" fill="#F09664"/>
<path d="M101.173 0.491211H47.5601C44.3755 0.491211 41.7938 3.07292 41.7938 6.25754V102.338H106.94V6.25797C106.94 3.07335 104.358 0.491211 101.173 0.491211Z" fill="#384D54"/>
<path d="M101.032 3.0332H47.7004C45.842 3.0332 44.3349 4.53984 44.3349 6.39865V102.339H104.397V6.39865C104.398 4.53984 102.891 3.0332 101.032 3.0332Z" fill="#ACD9FB"/>
<path d="M104.294 23.3507L94.7951 34.6054L84.328 26.8862L103.001 4.39102C102.429 3.94261 101.712 3.67676 100.929 3.67676H97.735L80.6928 24.2074L76.519 21.1272V3.67676H72.0103V22.2662C72.0103 22.9804 72.3495 23.6545 72.9261 24.0792L77.8094 27.6812L71.8463 34.8665C71.4618 35.327 71.2792 35.9248 71.3362 36.5203C71.3932 37.1185 71.6875 37.6688 72.1523 38.0486L83.8222 47.6067L77.3584 55.2643L44.4393 22.6037V29.6367L74.4449 58.7195L63.9066 71.2059C63.3796 71.83 63.2324 72.6914 63.522 73.4553L74.6939 102.982H79.5155L68.2059 73.0997L78.7917 60.5589C80.0662 60.744 82.3035 61.1972 84.5818 62.2485C88.0081 63.8337 90.2838 66.178 91.3731 69.2366H82.8827V73.7453H86.7198V102.982H91.2285V73.7453H94.2185C94.8689 73.7453 95.4882 73.4652 95.915 72.9741C96.3423 72.4851 96.5391 71.8352 96.4515 71.1895C95.6518 65.2618 92.1517 60.7345 86.3288 58.0911C84.8386 57.4148 83.3816 56.9496 82.1097 56.6293L104.294 30.3419V23.3507H104.294ZM86.7293 44.161L76.7655 35.9981L81.4451 30.3626L91.8811 38.0602L86.7293 44.161Z" fill="#EFF0F9"/>
<path d="M40.1348 6.9541L38.3994 16.4644C37.9596 18.8752 39.424 20.873 41.6807 20.873C43.937 20.873 46.05 18.8752 46.3922 16.4644L47.7422 6.9541H40.1348Z" fill="#EFBCA5"/>
<path d="M47.7418 6.9541L46.3918 16.4644C46.0496 18.8752 47.5955 20.873 49.8518 20.873C52.1081 20.873 54.1399 18.8752 54.3846 16.4644L55.3488 6.9541H47.7418Z" fill="#F47249"/>
<path d="M55.3488 6.9541L54.3846 16.4644C54.1404 18.8752 55.767 20.873 58.0233 20.873C60.2796 20.873 62.2307 18.8752 62.377 16.4644L62.9554 6.9541H55.3488Z" fill="#EFBCA5"/>
<path d="M62.9558 6.9541L62.3775 16.4644C62.2308 18.8752 63.9385 20.873 66.1952 20.873C68.4515 20.873 70.3216 18.8752 70.3703 16.4644L70.5633 6.9541H62.9558Z" fill="#F47249"/>
<path d="M70.5628 6.9541L70.3699 16.4644C70.3211 18.8752 72.1096 20.873 74.3663 20.873C76.6226 20.873 78.4115 18.8752 78.3627 16.4644L78.1698 6.9541H70.5628Z" fill="#EFBCA5"/>
<path d="M78.1698 6.9541L78.3627 16.4644C78.4115 18.8752 80.2815 20.873 82.5378 20.873C84.7941 20.873 86.5019 18.8752 86.3556 16.4644L85.7772 6.9541H78.1698Z" fill="#F47249"/>
<path d="M85.7773 6.9541L86.3556 16.4644C86.5023 18.8752 88.4531 20.873 90.7094 20.873C92.9657 20.873 94.5927 18.8752 94.348 16.4644L93.3839 6.9541H85.7773Z" fill="#EFBCA5"/>
<path d="M93.3843 6.9541L94.3484 16.4644C94.5927 18.8752 96.6246 20.873 98.8813 20.873C101.138 20.873 102.684 18.8752 102.341 16.4644L100.991 6.9541H93.3843Z" fill="#F47249"/>
<path d="M100.991 6.9541L102.341 16.4644C102.683 18.8752 104.796 20.873 107.053 20.873C109.309 20.873 110.774 18.8752 110.334 16.4644L108.599 6.9541H100.991Z" fill="#EFBCA5"/>
<path d="M47.7306 7.03413L51.3558 2.03516H44.7812L40.1201 7.03413H47.7306Z" fill="#F2D2C4"/>
<path d="M55.3406 7.03413L57.9301 2.03516H51.3559L47.7306 7.03413H55.3406Z" fill="#F09664"/>
<path d="M62.9511 7.03413L64.5048 2.03516H57.9301L55.3406 7.03413H62.9511Z" fill="#F2D2C4"/>
<path d="M70.5615 7.03413L71.0794 2.03516H64.5047L62.951 7.03413H70.5615Z" fill="#F09664"/>
<path d="M78.1716 7.03413L77.6537 2.03516H71.0794L70.5615 7.03413H78.1716Z" fill="#F2D2C4"/>
<path d="M85.782 7.03413L84.2284 2.03516H77.6537L78.1716 7.03413H85.782Z" fill="#F09664"/>
<path d="M93.3925 7.03413L90.803 2.03516H84.2283L85.782 7.03413H93.3925Z" fill="#F2D2C4"/>
<path d="M101.003 7.03413L97.3773 2.03516H90.803L93.3925 7.03413H101.003Z" fill="#F09664"/>
<path d="M108.613 7.03413L103.952 2.03516H97.3773L101.003 7.03413H108.613Z" fill="#F2D2C4"/>
<path d="M94.3661 97.2841L53.329 98.9452C51.6946 99.0113 50.317 97.723 50.2519 96.0675L50.2445 95.8815C50.1794 94.2259 51.4512 92.8306 53.0852 92.7642L94.1223 91.103C95.7563 91.037 97.1343 92.3253 97.1994 93.9808L97.2068 94.1668C97.2724 95.8223 96.0005 97.2181 94.3661 97.2841Z" fill="#042C30"/>
<path d="M97.9478 102.212C99.082 100.029 99.1938 97.9441 98.0139 96.8483C95.2803 94.3102 50.1988 95.4638 50.1988 95.4638V101.925C50.1988 101.925 50.2631 102.026 50.3745 102.212H97.9478ZM21.1065 102.212C21.504 93.7103 22.8441 86.0791 22.8441 86.0791H18.0604L12.8802 102.212H21.1065Z" fill="#F09664"/>
<path d="M24.0309 81.2637L38.5488 71.2743C38.5488 71.2743 46.76 51.5266 49.472 52.7488C52.1841 53.971 51.4504 72.0892 45.486 75.6743C39.5215 79.2594 25.1249 83.8087 25.1249 83.8087L24.0309 81.2637Z" fill="#EDA585"/>
<path d="M49.8993 48.7109C49.8993 48.7109 44.0971 56.0896 44.0924 58.9411C44.0872 61.793 46.7824 62.0372 46.7824 62.0372L49.8993 48.7109Z" fill="#384D54"/>
<path d="M22.3792 79.9365L10.9821 81.0742L11.9868 91.1408L23.3839 90.0031C26.1637 89.7256 28.1921 87.2475 27.9146 84.4677C27.6371 81.6874 25.1586 79.659 22.3792 79.9365Z" fill="#F47249"/>
<path d="M13.4649 85.9096C13.7355 88.6204 13.0683 90.906 11.9743 91.0152C10.8807 91.1244 9.77452 89.0157 9.50392 86.3049C9.23332 83.5942 9.90054 81.3086 10.9946 81.1994C12.0882 81.0902 13.1943 83.1993 13.4649 85.9096Z" fill="#EFBCA5"/>
<path d="M32.1618 102.211H42.8158L43.2098 100.357C43.2098 100.357 63.1302 92.8865 61.233 84.7051C59.3357 76.5236 49.3758 82.0966 49.3758 82.0966C49.3758 82.0966 30.1239 89.8395 31.7837 99.6813C31.9197 100.486 32.0453 101.334 32.1618 102.211Z" fill="#042C30"/>
<path d="M48.636 102.211C50.232 101.249 57.5084 96.9899 66.4486 93.6961C76.5868 89.9612 69.65 80.3564 69.65 80.3564L55.9431 81.4289C55.9431 81.4289 40.1253 85.5147 38.1689 99.3878C38.0334 100.349 37.9583 101.289 37.9264 102.211H48.636Z" fill="#384D54"/>
<path d="M51.8638 46.2085C55.4943 43.0101 69.294 63.4609 70.8947 77.1562C72.4955 90.8515 48.4841 88.8951 47.0617 82.67C45.6387 76.4445 44.3936 52.7892 51.8638 46.2085Z" fill="#F47249"/>
<path d="M30.1213 81.3484L44.0924 73.6892C44.0924 73.6892 52.8409 50.9562 55.553 52.1784C58.265 53.4007 56.994 74.504 51.0296 78.0891C45.0652 81.6743 31.2154 83.893 31.2154 83.893L30.1213 81.3484Z" fill="#EFBCA5"/>
<path d="M33.1972 84.5698C33.1972 83.7718 32.6076 83.1249 31.8631 83.0709V83.0605H31.7656H22.0188H21.9213V83.0709C21.1768 83.1249 20.5873 83.7714 20.5873 84.5698C20.5873 85.3678 21.1773 86.0147 21.9213 86.0687V86.079H22.0188H31.7652H31.8627V86.0687C32.6072 86.0147 33.1972 85.3682 33.1972 84.5698Z" fill="#042C30"/>
<path d="M20.0025 83.0452C19.9645 83.0452 19.9261 83.0353 19.8912 83.0141C19.7893 82.9524 19.7569 82.8203 19.8186 82.7189L25.0105 74.1521C25.0356 74.1102 25.0744 74.0787 25.1202 74.0619L30.3988 72.115C30.5102 72.0736 30.634 72.131 30.675 72.2424C30.716 72.3537 30.659 72.4776 30.5477 72.5186L25.3398 74.4395L20.1868 82.9421C20.1462 83.0081 20.0754 83.0452 20.0025 83.0452Z" fill="#042C30"/>
<path d="M31.9732 74.8118C33.7256 74.8118 35.1462 73.3912 35.1462 71.6388C35.1462 69.8864 33.7256 68.4658 31.9732 68.4658C30.2208 68.4658 28.8002 69.8864 28.8002 71.6388C28.8002 73.3912 30.2208 74.8118 31.9732 74.8118Z" fill="#042C30"/>
<path d="M67.2854 100.939C59.8575 100.939 53.8452 100.612 53.2764 100.58C53.1577 100.573 53.0671 100.471 53.0735 100.353C53.0804 100.234 53.1832 100.144 53.3005 100.15C53.6277 100.168 86.1385 101.938 95.0813 97.1841C95.1861 97.1284 95.3165 97.1681 95.3722 97.273C95.4278 97.3778 95.3881 97.5082 95.2832 97.5639C90.0719 100.335 77.3736 100.939 67.2854 100.939ZM18.5209 101.582C18.5092 101.582 18.4972 101.581 18.4851 101.579C18.3681 101.559 18.2887 101.448 18.3086 101.332C18.9149 97.7145 19.4272 94.4478 19.5584 91.0928C19.5632 90.9741 19.6667 90.8783 19.7815 90.886C19.9002 90.8908 19.9926 90.9905 19.9883 91.1092C19.8562 94.4893 19.3413 97.7706 18.7328 101.402C18.7155 101.508 18.6245 101.582 18.5209 101.582ZM13.5232 87.1339C13.4067 87.1339 13.3109 87.0407 13.3083 86.9237C13.1939 81.8837 10.9795 81.4159 10.957 81.4116C10.8409 81.39 10.7628 81.2791 10.7835 81.1626C10.8038 81.046 10.9139 80.9679 11.03 80.9873C11.1353 81.005 13.6156 81.4811 13.7386 86.9138C13.7412 87.0325 13.6471 87.1309 13.5284 87.1334C13.5267 87.1339 13.5249 87.1339 13.5232 87.1339Z" fill="#042C30"/>
<path d="M12.3662 86.2853C12.3627 86.2853 12.3593 86.2853 12.3558 86.2853C12.2371 86.2797 12.1456 86.1787 12.1512 86.06C12.2449 84.0894 10.948 83.4666 10.8927 83.4412C10.7853 83.3915 10.7378 83.2638 10.787 83.1563C10.8362 83.0489 10.9631 83.0005 11.071 83.0493C11.137 83.0791 12.6894 83.8067 12.5815 86.0803C12.5755 86.1955 12.4801 86.2853 12.3662 86.2853Z" fill="#F4E9E4"/>
<path d="M99.1925 91.9982H70.8338L69.4796 60.1787L101.53 62.0699L99.1925 91.9982Z" fill="#EDA585"/>
<g opacity="0.5">
<path d="M72.2999 88.3636L72.3569 89.9518L75.2977 89.963L75.2606 88.3834L72.2999 88.3636ZM74.9809 89.7153L72.6612 89.7054L72.6236 88.6178L74.9541 88.6325L74.9809 89.7153ZM75.6697 88.3865L75.7038 89.9647L78.6079 89.976L78.5932 88.4063L75.6697 88.3865ZM78.2993 89.7295L76.0085 89.7196L75.9865 88.6389L78.2877 88.6536L78.2993 89.7295ZM80.0437 88.5638L80.6985 89.6583L79.3942 89.6527L80.0437 88.5638ZM80.0425 88.1875C79.9031 88.1866 79.7749 88.2574 79.7058 88.3735L79.0567 89.4641C78.9881 89.5793 78.9894 89.7218 79.0593 89.837C79.1292 89.9522 79.2578 90.0239 79.3964 90.0243L80.6985 90.0291C80.8361 90.0295 80.9634 89.9596 81.0321 89.8448C81.1011 89.73 81.1011 89.5884 81.0325 89.4732L80.3795 88.3774C80.3105 88.2609 80.1819 88.1884 80.0425 88.1875Z" fill="#384D54"/>
<path d="M80.8534 87.2848L72.2585 87.2084L72.2352 86.5537L80.8534 86.6409V87.2848Z" fill="#384D54"/>
</g>
<path d="M95.3445 66.0454C95.3406 66.0454 95.3371 66.0454 95.3333 66.0449L73.0733 64.9103C72.9546 64.9043 72.8631 64.8033 72.8696 64.6846C72.8756 64.5659 72.9783 64.4735 73.0953 64.4809L95.3553 65.6155C95.474 65.6215 95.5655 65.7225 95.559 65.8412C95.5534 65.956 95.4584 66.0454 95.3445 66.0454Z" fill="#042C30"/>
<path opacity="0.5" d="M87.7724 69.4983L83.8835 69.3304L83.9815 61.0342L87.9943 61.2707L87.7724 69.4983Z" fill="#F2D2C4"/>
<path opacity="0.5" d="M87.1665 91.9977H83.6155L83.6966 85.1162L87.3508 85.1641L87.1665 91.9977Z" fill="#F2D2C4"/>
<path d="M99.915 66.2781C99.9111 66.2781 99.9076 66.2781 99.9037 66.2776L96.433 66.1007C96.3143 66.0946 96.2228 65.9937 96.2293 65.875C96.2353 65.7563 96.3397 65.6644 96.455 65.6713L99.9257 65.8482C100.044 65.8543 100.136 65.9552 100.129 66.0739C100.124 66.1892 100.028 66.2781 99.915 66.2781Z" fill="#042C30"/>
<path d="M49.472 43.4496L49.6804 49.6488C49.6804 49.6488 54.7032 50.3311 55.0493 47.3657L53.0437 40.8135L49.472 43.4496Z" fill="#EFBCA5"/>
<path d="M47.1436 45.7845C55.3881 45.7698 54.6958 36.0183 53.5957 35.2294C52.4948 34.4409 48.1069 34.2221 46.2243 36.0878C45.6085 36.6972 45.5183 39.2357 45.5925 41.0548C45.6063 41.4182 44.7436 41.5878 45.6637 42.0574C45.9106 44.3106 46.0202 45.7862 47.1436 45.7845Z" fill="#EFBCA5"/>
<path d="M46.0418 36.311C46.0418 36.311 43.984 35.2968 44.0967 36.6783C44.2098 38.0598 45.3293 37.5523 46.2097 37.201C47.0901 36.8496 47.9287 38.5311 48.7232 38.4413C49.5173 38.3511 48.9783 39.5966 49.926 38.7356C50.8742 37.8746 46.0418 36.311 46.0418 36.311ZM48.7849 45.7454C48.2942 45.8381 47.7457 45.8938 47.1423 45.8861C47.0858 45.8852 47.0409 45.839 47.0413 45.7829C47.0422 45.7264 47.0884 45.6819 47.1445 45.6819C49.8941 45.716 51.5134 44.3734 51.5293 44.36C51.5725 44.3237 51.6368 44.3289 51.6731 44.3721C51.7093 44.4152 51.7041 44.4795 51.661 44.5158C51.6083 44.5607 50.5911 45.404 48.7849 45.7454ZM52.0753 40.0066C52.0576 40.0101 52.039 40.0088 52.0209 40.0019C51.9683 39.9825 51.9411 39.9238 51.9605 39.8707C52.1452 39.3701 52.1508 39.0119 51.9765 38.8051C51.7236 38.5052 51.156 38.607 51.1504 38.6083C51.0952 38.6187 51.0417 38.582 51.0313 38.5268C51.0209 38.4715 51.0572 38.418 51.1124 38.4077C51.1405 38.4025 51.8017 38.2825 52.1318 38.6731C52.3575 38.9398 52.364 39.3666 52.1517 39.9415C52.1392 39.9764 52.1089 40.0002 52.0753 40.0066ZM45.9201 42.1784C45.911 42.1801 45.902 42.1805 45.8925 42.1797C45.161 42.1171 45.0703 41.5901 45.0669 41.5677C45.0591 41.5189 45.0876 41.4714 45.1346 41.4555C45.5019 41.3294 45.5015 40.6765 45.501 40.67C45.5006 40.6139 45.5459 40.5677 45.602 40.5673C45.6586 40.5668 45.7043 40.6122 45.7047 40.6683C45.7052 40.6989 45.7065 41.3795 45.2913 41.6087C45.3409 41.7243 45.4894 41.9406 45.9097 41.9768C45.9659 41.9816 46.0077 42.0312 46.0025 42.0873C45.9991 42.1335 45.9641 42.1702 45.9201 42.1784ZM46.5899 39.2134C46.627 39.4102 46.8169 39.5397 47.0137 39.5026C47.2105 39.4655 47.34 39.2756 47.3029 39.0788C47.2658 38.882 47.0759 38.7525 46.8791 38.7896C46.6823 38.8267 46.5528 39.0166 46.5899 39.2134Z" fill="#042C30"/>
<path opacity="0.5" d="M47.3115 41.0792C47.3702 41.3903 47.7405 41.582 48.138 41.5069C48.5355 41.4318 48.8104 41.1184 48.7517 40.8073C48.693 40.4961 48.3227 40.3045 47.9252 40.3796C47.5273 40.4542 47.2528 40.7676 47.3115 41.0792Z" fill="#EDA585"/>
<path d="M54.8491 40.6825C54.8033 40.0515 54.6984 39.4244 54.5539 38.809C54.4313 38.2859 54.2828 37.7697 54.0213 37.2976C53.799 36.8962 53.5103 36.535 53.172 36.2255C52.4715 35.5855 51.595 35.1708 50.715 34.8384C49.6106 34.4211 48.2692 34.0888 47.1652 34.6904C46.7479 34.9179 46.4609 35.2877 46.268 35.715C46.0893 36.1099 45.9771 36.5302 45.8386 36.9402C45.9568 36.8815 46.0902 36.7814 46.2606 36.6273C47.0194 35.9411 48.2878 35.655 49.1026 36.8073C49.9174 37.96 49.4448 40.7985 50.3477 39.976C51.2506 39.1534 50.0775 37.8927 51.7499 38.2553C52.4417 38.4054 53.0408 39.8646 51.6178 41.0834C51.6178 41.0834 52.5677 43.369 54.8189 42.2219C54.8189 42.2219 54.8292 42.2245 54.8473 42.2275C54.7835 41.7157 54.8862 41.1965 54.8491 40.6825ZM46.6249 43.688C46.4527 43.7203 46.2641 43.7428 46.0574 43.751C46.0008 43.7531 45.9538 43.7095 45.9512 43.653C45.9491 43.5969 45.9931 43.5494 46.0492 43.5468C47.4587 43.4912 47.9762 42.7268 47.9814 42.7191C48.012 42.672 48.0754 42.6587 48.1225 42.6893C48.1695 42.7199 48.1833 42.7829 48.1527 42.83C48.1328 42.8611 47.7194 43.4812 46.6249 43.688Z" fill="#042C30"/>
<path d="M45.5373 38.7523C45.5062 38.7583 45.4734 38.7497 45.4484 38.7264C45.4074 38.688 45.4053 38.6232 45.4437 38.5822C46.3664 37.5956 47.1868 37.962 47.2213 37.978C47.2723 38.0017 47.2947 38.0626 47.2705 38.1135C47.2468 38.1644 47.1864 38.1865 47.1354 38.1632C47.1057 38.1493 46.4091 37.8481 45.5926 38.7216C45.5774 38.7384 45.558 38.7484 45.5373 38.7523Z" fill="#042C30"/>
<path d="M41.0998 36.0135L45.8705 36.9138L46.2252 35.3286C46.2252 35.3286 41.5646 34.2449 41.0998 36.0135Z" fill="#EDA67E"/>
<path d="M45.8705 36.9136L54.8844 40.4655C54.8844 40.4655 56.4752 37.1298 54.8668 34.7143C53.2583 32.2987 49.9562 31.8331 47.8234 32.7433C45.691 33.653 45.8705 36.9136 45.8705 36.9136Z" fill="#F47249"/>
<path d="M48.251 32.6514C48.251 32.6514 46.57 37.501 45.6512 36.8726C44.7324 36.2434 45.7203 33.0545 48.251 32.6514Z" fill="#F09664"/>
<path d="M55.3082 39.1561C55.3082 39.1561 52.6696 38.2571 52.9704 37.532C53.2712 36.807 55.6276 37.7491 55.6276 37.7491C55.6276 37.7491 55.5223 38.4431 55.3082 39.1561Z" fill="#384D54"/>
<path d="M25.0006 83.0606H26.08C26.08 83.0606 25.1085 84.4244 25.238 85.3816C25.367 86.3389 26.7053 86.5633 26.8918 85.9927C26.8918 85.9927 27.5042 86.691 27.8106 86.1075C27.8106 86.1075 29.0134 87.0609 29.1153 86.0786C29.1153 86.0786 28.9931 83.3264 30.0522 83.0606H31.3966C31.3966 83.0606 31.58 81.8983 30.5818 81.4706C29.584 81.043 25.0006 81.1465 25.0006 83.0606Z" fill="#EFBCA5"/>
<path d="M27.8107 86.2792C27.7278 86.2792 27.6553 86.2192 27.6415 86.1351C27.6333 86.0833 27.4387 84.8554 27.6445 84.051C27.6683 83.959 27.7619 83.9034 27.853 83.9275C27.9449 83.9508 28.0001 84.0445 27.9764 84.136C27.7882 84.871 27.9777 86.0686 27.9794 86.0807C27.9945 86.1739 27.9307 86.2624 27.8374 86.277C27.8288 86.2788 27.8197 86.2792 27.8107 86.2792Z" fill="#042C30"/>
<path d="M27.1948 86.4357C27.0537 86.4357 26.8331 86.3571 26.7296 86.0481C26.6165 85.7102 26.8431 84.6109 26.8901 84.3943C26.91 84.3015 27.0015 84.2428 27.0938 84.2626C27.1866 84.2825 27.2453 84.3736 27.2254 84.4664C27.118 84.9674 26.9937 85.7559 27.055 85.9393C27.1085 86.099 27.1913 86.0938 27.1922 86.0934C27.2854 86.0757 27.3748 86.1374 27.392 86.2307C27.4093 86.3239 27.348 86.4132 27.2548 86.4305C27.2371 86.4335 27.2168 86.4357 27.1948 86.4357Z" fill="#042C30"/>
<path d="M26.2682 86.4388C26.1271 86.4388 25.8729 86.409 25.721 86.2131C25.5535 85.9977 25.7106 85.1035 25.8724 84.3913C25.8936 84.299 25.9846 84.2407 26.0779 84.2623C26.1702 84.283 26.2281 84.3749 26.2069 84.4677C26.0623 85.1043 25.9449 85.8781 26.0002 86.0162C26.0666 86.0991 26.2622 86.1 26.3256 86.0931C26.4149 86.0844 26.5043 86.1496 26.5155 86.2433C26.5263 86.3369 26.4602 86.4219 26.3662 86.4332C26.3541 86.4349 26.3183 86.4388 26.2682 86.4388Z" fill="#042C30"/>
<path d="M25.4689 86.0702C25.44 86.0702 25.4106 86.0629 25.3834 86.0465C25.3524 86.0284 24.6338 85.5804 25.3476 84.022C25.3869 83.9361 25.4883 83.8981 25.5746 83.9374C25.6609 83.9771 25.6985 84.0785 25.6592 84.1644C25.0857 85.4168 25.5565 85.75 25.5613 85.7534C25.6385 85.8048 25.6627 85.9101 25.613 85.9887C25.5811 86.0409 25.5259 86.0702 25.4689 86.0702Z" fill="#042C30"/>
<path d="M25.5897 83.2456C25.4641 83.2456 25.3878 83.2309 25.3787 83.2288C25.2859 83.2098 25.2259 83.1192 25.2449 83.0264C25.2635 82.9336 25.3524 82.8727 25.4464 82.8926C25.4715 82.8969 26.0304 82.9949 26.6998 82.4899C26.7753 82.4325 26.8827 82.4476 26.9397 82.5236C26.9967 82.5991 26.9816 82.7066 26.9061 82.7635C26.3592 83.177 25.8603 83.2456 25.5897 83.2456Z" fill="#042C30"/>
<path d="M31.1593 82.1152C31.104 82.1152 31.0501 82.0888 31.0169 82.0396C30.5762 81.3867 29.5883 81.435 29.5784 81.435C29.4848 81.4393 29.4028 81.3681 29.3976 81.2736C29.392 81.1791 29.464 81.0979 29.5581 81.0928C29.6073 81.0897 30.7502 81.0319 31.3008 81.8476C31.3539 81.9261 31.3332 82.0327 31.2547 82.0858C31.2253 82.1057 31.1921 82.1152 31.1593 82.1152Z" fill="#042C30"/>
<path d="M47.3094 63.4229C48.0685 65.9727 54.9051 68.2018 56.9111 68.0123C58.9171 67.8229 58.8882 52.9969 56.3911 51.0379C53.8935 49.079 46.2136 59.7429 47.3094 63.4229Z" fill="#384D54"/>
<path d="M34.9693 78.7988C34.9313 78.7988 34.8942 78.7785 34.8747 78.7431C34.8463 78.6909 34.8652 78.6257 34.9175 78.5972L44.0074 73.6138L46.4842 67.5095C46.5067 67.4543 46.5692 67.4279 46.6245 67.4504C46.6797 67.4728 46.706 67.5354 46.6836 67.5907L44.1925 73.7307C44.183 73.7536 44.1662 73.7726 44.1446 73.7847L35.021 78.7862C35.0042 78.7949 34.9865 78.7988 34.9693 78.7988Z" fill="#042C30"/>
<path d="M37.8828 101.519H37.8824C37.8228 101.519 37.7749 101.47 37.7753 101.411C37.8021 95.7067 40.9893 90.0836 46.5196 85.9841C46.567 85.9487 46.6348 85.9586 46.6702 86.0065C46.7056 86.0544 46.6956 86.1218 46.6477 86.1571C41.1723 90.2157 38.0166 95.7762 37.9903 101.413C37.9903 101.472 37.9419 101.519 37.8828 101.519Z" fill="#F4E9E4"/>
<path d="M48.813 78.1969C48.7647 78.1969 48.7211 78.1645 48.709 78.1153C48.6943 78.0579 48.7297 77.9992 48.7871 77.9849C50.9839 77.4355 51.718 75.0895 51.7249 75.0657C51.7421 75.0088 51.8021 74.9764 51.8591 74.9941C51.9161 75.0114 51.948 75.0714 51.9307 75.1283C51.9234 75.1529 51.153 77.6151 48.8389 78.1934C48.8307 78.196 48.8217 78.1969 48.813 78.1969Z" fill="#042C30"/>
<path d="M55.4537 55.6827L54.247 55.375C54.247 55.375 52.2138 57.5571 52.3058 60.6532C52.3058 60.6532 53.8935 62.6903 54.8568 61.5496C55.8201 60.4089 55.6272 55.6831 55.6272 55.6831" fill="#F47249"/>
<path d="M57.2672 68.9326C57.2154 68.9326 57.1701 68.8954 57.161 68.8428C57.1511 68.7841 57.1908 68.7288 57.2495 68.7189C59.5559 68.3335 59.2529 65.0816 59.2495 65.0492C59.2434 64.9901 59.2866 64.9374 59.3457 64.9314C59.407 64.9262 59.4575 64.9685 59.4635 65.0276C59.467 65.0626 59.7902 68.5131 57.2849 68.9317C57.2789 68.9321 57.2733 68.9326 57.2672 68.9326ZM63.7832 85.1038C63.7245 85.1038 63.6762 85.0563 63.6757 84.9972C63.6753 84.9377 63.7228 84.8893 63.7823 84.8885C66.6437 84.8565 68.3122 83.2441 68.9194 81.7453C70.7571 77.2115 68.0291 71.2424 68.0014 71.1828C67.9764 71.1289 67.9997 71.065 68.0537 71.04C68.1076 71.0149 68.1715 71.0387 68.1965 71.0922C68.2246 71.1526 70.991 77.2064 69.1188 81.826C68.4857 83.3887 66.7516 85.0701 63.7849 85.1034C63.7841 85.1038 63.7836 85.1038 63.7832 85.1038ZM50.9204 49.9034C50.1561 49.9034 49.6589 49.7545 49.6481 49.751C49.5916 49.7333 49.5596 49.6729 49.5773 49.6164C49.595 49.5598 49.655 49.5279 49.712 49.5456C49.7357 49.5529 52.1262 50.2633 54.4861 48.4537C54.5336 48.4179 54.6009 48.4265 54.6372 48.4736C54.6734 48.5206 54.6644 48.5884 54.6173 48.6246C53.254 49.6699 51.8781 49.9034 50.9204 49.9034Z" fill="#042C30"/>
<path d="M142.96 102.829H5.50447C5.26667 102.829 5.07418 102.637 5.07418 102.399C5.07418 102.161 5.26667 101.969 5.50447 101.969H142.96C143.198 101.969 143.39 102.161 143.39 102.399C143.39 102.636 143.198 102.829 142.96 102.829ZM3.87223 102.829H1.03978C0.801981 102.829 0.609497 102.637 0.609497 102.399C0.609497 102.161 0.801981 101.969 1.03978 101.969H3.87223C4.11003 101.969 4.30252 102.161 4.30252 102.399C4.30252 102.636 4.1096 102.829 3.87223 102.829Z" fill="#042C30"/>
<path d="M85.8205 26.1631C82.8775 26.1631 80.4913 28.5489 80.4913 31.4922C80.4913 34.4352 82.8771 41.1928 85.8205 41.1928C88.7634 41.1928 91.1492 34.4356 91.1492 31.4922C91.1496 28.5489 88.7634 26.1631 85.8205 26.1631ZM85.8205 34.5983C84.1058 34.5983 82.714 33.2065 82.714 31.4918C82.714 29.7771 84.1058 28.3874 85.8205 28.3874C87.5351 28.3874 88.927 29.7771 88.927 31.4918C88.927 33.2065 87.5351 34.5983 85.8205 34.5983Z" fill="#EDA67E"/>
<path d="M85.8205 41.3003C85.2046 41.3003 84.5836 41.0198 83.9742 40.467C83.9302 40.4272 83.9267 40.3591 83.9669 40.315C84.007 40.271 84.0752 40.268 84.1188 40.3077C85.3017 41.3815 86.4782 41.3366 87.6586 40.1791C87.7009 40.1372 87.7691 40.1381 87.8105 40.1804C87.8519 40.2227 87.8515 40.2909 87.8092 40.3323C87.1541 40.9745 86.4851 41.3003 85.8205 41.3003ZM88.7065 39.1519C88.6862 39.1519 88.6659 39.1463 88.6473 39.1342C88.5977 39.1014 88.5839 39.035 88.6163 38.9853C90.0672 36.777 91.0417 33.3282 91.0417 31.4923C91.0417 29.8156 90.2278 28.2295 88.8644 27.2498C88.8161 27.2153 88.8053 27.148 88.8398 27.0997C88.8743 27.0513 88.9417 27.0401 88.99 27.0751C90.4095 28.0953 91.2567 29.7465 91.2567 31.4923C91.2567 33.3515 90.3158 36.7903 88.7958 39.1036C88.7755 39.1351 88.7414 39.1519 88.7065 39.1519ZM87.5658 34.1698C87.5313 34.1698 87.4976 34.1534 87.4769 34.1227C87.4437 34.0735 87.4562 34.0066 87.5054 33.9734C88.3284 33.4132 88.82 32.4858 88.82 31.4927C88.82 29.8402 87.4747 28.4958 85.8209 28.4958C85.7614 28.4958 85.7135 28.4479 85.7135 28.3884C85.7135 28.3288 85.7614 28.2809 85.8209 28.2809C87.593 28.2809 89.0349 29.7219 89.0349 31.4927C89.0349 32.5574 88.5084 33.5513 87.6262 34.1517C87.6077 34.1637 87.5865 34.1698 87.5658 34.1698Z" fill="#F76B2F"/>
<path d="M81.5647 29.2804C81.55 29.2804 81.5353 29.2774 81.5211 29.2714C81.4667 29.2476 81.4421 29.1837 81.4663 29.1298C81.5025 29.0478 82.376 27.1178 84.4782 26.7285C84.5361 26.7173 84.5926 26.7561 84.6034 26.8148C84.6142 26.8731 84.5758 26.9292 84.5171 26.94C82.5292 27.3081 81.6713 29.1976 81.6631 29.2165C81.6449 29.2563 81.6057 29.2804 81.5647 29.2804Z" fill="#F4E9E4"/>
<path d="M120.909 24.2988H94.9596C94.2755 24.2988 93.7209 24.8534 93.7209 25.5375V30.0414C93.7209 30.6991 94.2341 31.2356 94.8819 31.2762L93.8785 34.0443L98.5999 31.28H120.909C121.593 31.28 122.148 30.7255 122.148 30.0414V25.5379C122.148 24.8534 121.593 24.2988 120.909 24.2988Z" fill="#F47249"/>
<path d="M98.0596 29.1425C98.0001 29.1175 97.9703 29.083 97.9703 29.0381C98.0605 28.9768 98.1058 28.8141 98.1058 28.55C98.1058 28.3911 98.0873 28.1602 98.0501 27.8573C98.0091 27.5681 97.9884 27.3398 97.9884 27.1728L98.0009 26.9432C98.0048 26.8763 98.007 26.7999 98.007 26.7136C98.007 26.6355 97.9863 26.5371 97.9453 26.4171C97.8961 26.2919 97.8715 26.2043 97.8715 26.1543C97.8715 26.0567 98.0294 26.0084 98.3453 26.0084H98.4377C98.6595 26.0084 98.852 26.0541 99.0164 26.1461C99.1476 26.2238 99.2586 26.3368 99.3488 26.484C99.4105 26.5841 99.4636 26.7231 99.5089 26.9013C99.5335 27.0571 99.546 27.1797 99.546 27.2686V27.4024V27.5983C99.5378 27.6096 99.5335 27.6208 99.5335 27.6316C99.5335 27.654 99.5356 27.6704 99.5395 27.6816C99.5434 27.6928 99.5456 27.7067 99.5456 27.7235C99.5456 27.8124 99.5261 27.919 99.4869 28.0429C99.4476 28.1667 99.3915 28.2927 99.3177 28.4205C99.133 28.7265 98.9258 28.9436 98.6958 29.0717C98.5603 29.1442 98.4187 29.1801 98.2711 29.1801C98.19 29.1801 98.1192 29.1676 98.0596 29.1425ZM98.8019 28.6604C98.9167 28.5396 99.0052 28.4054 99.0665 28.2578C99.1774 27.985 99.2327 27.7097 99.2327 27.4313C99.2327 27.2811 99.2119 27.1171 99.1709 26.9389C99.1256 26.7662 99.0294 26.6104 98.8814 26.4715C98.8114 26.4046 98.7234 26.3524 98.6164 26.3152C98.5098 26.2777 98.3885 26.2587 98.253 26.2587V26.263C98.253 26.5133 98.2776 26.8918 98.3268 27.3981C98.376 27.9017 98.4006 28.2828 98.4006 28.5413V28.938C98.5534 28.8741 98.6867 28.7817 98.8019 28.6604ZM100.439 29.1762C100.369 29.1624 100.334 29.1235 100.334 29.0592V26.6346C100.334 26.5871 100.322 26.5164 100.297 26.4218C100.269 26.3355 100.254 26.2648 100.254 26.2091V26.1966C100.324 26.1189 100.375 26.0688 100.408 26.0464C100.466 26.0464 100.542 26.0408 100.636 26.0295C100.722 26.0183 100.798 26.0127 100.864 26.0127C100.93 26.0127 100.994 26.0261 101.055 26.0524C101.117 26.0787 101.147 26.1102 101.147 26.1465C101.147 26.2298 101.053 26.2717 100.864 26.2717H100.778C100.753 26.2691 100.724 26.2678 100.691 26.2678C100.654 26.2678 100.632 26.2691 100.624 26.2717C100.624 26.3662 100.632 26.4805 100.648 26.6139L100.661 26.7309L100.673 26.9605C100.673 27.0135 100.667 27.0942 100.654 27.2026L100.642 27.4361L100.729 27.4235C100.811 27.4067 100.878 27.3985 100.932 27.3985C100.977 27.3985 101.018 27.4106 101.055 27.4339C101.092 27.4576 101.11 27.4848 101.11 27.515C101.11 27.5483 101.094 27.5785 101.064 27.6048C101.033 27.6311 100.995 27.6445 100.95 27.6445L100.876 27.6402H100.796C100.735 27.6402 100.692 27.6501 100.667 27.6695V28.9591L101.012 28.9466C101.246 28.9466 101.363 28.9828 101.363 29.0549V29.0717C101.338 29.105 101.293 29.1322 101.227 29.1529C101.161 29.1736 101.098 29.187 101.036 29.1926L100.833 29.1969H100.642C100.565 29.1969 100.497 29.19 100.439 29.1762ZM101.973 29.2094C101.907 29.1844 101.874 29.155 101.874 29.1218C101.874 29.0886 101.886 29.0614 101.911 29.0407C101.936 29.02 101.971 29.0092 102.016 29.0092C102.057 29.0092 102.116 29.0204 102.195 29.0424C102.281 29.0648 102.334 29.0756 102.355 29.0756C102.433 29.0756 102.504 29.0528 102.567 29.007C102.63 28.9613 102.681 28.9004 102.718 28.8253C102.792 28.6863 102.829 28.5612 102.829 28.4498C102.829 28.3303 102.801 28.2043 102.746 28.0722C102.69 27.9401 102.615 27.8115 102.521 27.6864L102.422 27.553C102.32 27.414 102.241 27.304 102.186 27.2233C102.13 27.1426 102.082 27.055 102.041 26.9605C101.979 26.8271 101.949 26.6976 101.949 26.5725C101.949 26.4723 101.974 26.3778 102.025 26.2885C102.077 26.1996 102.154 26.1245 102.256 26.0632C102.359 25.9963 102.486 25.9631 102.638 25.9631C102.712 25.9631 102.784 25.9778 102.854 26.0067C102.924 26.036 102.973 26.0727 103.001 26.1172L102.897 26.2048C102.79 26.2048 102.71 26.191 102.657 26.1629C102.583 26.1685 102.518 26.1927 102.463 26.2358C102.407 26.279 102.365 26.3282 102.337 26.3839C102.312 26.4365 102.299 26.4896 102.299 26.5427C102.299 26.6484 102.321 26.7563 102.364 26.8659C102.407 26.976 102.463 27.0796 102.533 27.1767L102.964 27.761C103.034 27.8612 103.089 27.9738 103.13 28.099C103.171 28.2241 103.192 28.3493 103.192 28.4744C103.192 28.6579 103.126 28.8305 102.995 28.9919C102.925 29.0752 102.835 29.1417 102.724 29.19C102.613 29.2388 102.49 29.2629 102.355 29.2629C102.207 29.2638 102.079 29.2457 101.973 29.2094ZM104.21 29.1408C104.176 29.1007 104.158 29.051 104.158 28.9928C104.158 28.9008 104.166 28.7882 104.183 28.6548L104.195 28.5465L104.207 28.3251C104.207 28.228 104.193 28.0109 104.164 27.6743C104.135 27.3377 104.121 27.1206 104.121 27.023C104.121 27.0148 104.122 26.9989 104.124 26.9751C104.126 26.9514 104.127 26.9147 104.127 26.8646C104.132 26.809 104.133 26.7408 104.133 26.6601C104.133 26.4572 104.113 26.3278 104.072 26.2721C104.047 26.2721 103.993 26.2764 103.911 26.2846L103.739 26.2928C103.685 26.2928 103.638 26.2824 103.597 26.2613C103.556 26.2406 103.536 26.2134 103.536 26.1797C103.536 26.1465 103.585 26.1172 103.683 26.0921C103.827 26.0589 104.071 26.0352 104.416 26.0213C104.555 26.0157 104.639 26.0131 104.668 26.0131C104.718 26.0131 104.763 26.0244 104.804 26.0464C104.845 26.0688 104.866 26.0964 104.866 26.1301C104.866 26.1633 104.848 26.1905 104.813 26.2112C104.778 26.232 104.734 26.2427 104.681 26.2427L104.57 26.2384C104.537 26.2358 104.5 26.2341 104.459 26.2341H104.397C104.426 26.4231 104.441 26.5945 104.441 26.7473L104.434 27.0144C104.43 27.0951 104.428 27.1853 104.428 27.2854C104.428 27.4188 104.437 27.5789 104.453 27.7654C104.473 27.9962 104.484 28.1564 104.484 28.2453C104.484 28.351 104.492 28.4762 104.508 28.6207C104.525 28.7683 104.533 28.8935 104.533 28.9962C104.533 29.1326 104.473 29.2008 104.354 29.2008C104.294 29.2012 104.245 29.1809 104.21 29.1408ZM105.365 29.0424C105.365 28.9755 105.427 28.9423 105.55 28.9423H105.623C105.64 28.9453 105.658 28.9466 105.679 28.9466C105.712 28.9466 105.736 28.9397 105.75 28.9259C105.764 28.9121 105.772 28.887 105.772 28.8508C105.772 28.6143 105.751 28.2914 105.71 27.8827C105.673 27.4572 105.655 27.1357 105.655 26.9186C105.655 26.8409 105.657 26.7697 105.661 26.7058L105.667 26.4931C105.667 26.4011 105.661 26.3247 105.648 26.2635C105.603 26.2747 105.556 26.2803 105.507 26.2803C105.412 26.2803 105.365 26.2471 105.365 26.1802C105.365 26.1469 105.395 26.1176 105.454 26.0926C105.514 26.0675 105.591 26.0494 105.685 26.0382C105.857 26.0188 106.003 26.0088 106.122 26.0088C106.172 26.0088 106.213 26.02 106.249 26.0421C106.284 26.0645 106.301 26.0908 106.301 26.1215C106.301 26.1521 106.288 26.1784 106.261 26.2009C106.234 26.2233 106.201 26.2341 106.16 26.2341C106.135 26.2341 106.114 26.2328 106.098 26.2298H106.049C106.008 26.2298 105.978 26.2363 105.959 26.2488C105.941 26.2613 105.932 26.2842 105.932 26.3174C105.932 26.6122 105.958 27.0187 106.011 27.5362C106.061 28.0787 106.085 28.4865 106.085 28.7588V28.9177C106.114 28.9151 106.155 28.9134 106.209 28.9134C106.381 28.9134 106.467 28.9621 106.467 29.0592V29.0843L106.313 29.155C106.309 29.155 106.297 29.1559 106.276 29.1572C106.255 29.1585 106.214 29.1594 106.153 29.1594C106.014 29.165 105.927 29.1676 105.895 29.1676C105.541 29.1676 105.365 29.1261 105.365 29.0424ZM108.105 28.3747C107.818 27.7045 107.569 27.0882 107.36 26.5259V27.8948C107.36 28.0118 107.377 28.2107 107.409 28.4917C107.438 28.7977 107.453 28.9954 107.453 29.0843C107.453 29.1093 107.43 29.1309 107.385 29.149C107.339 29.1671 107.289 29.1762 107.231 29.1762C107.144 29.1762 107.101 29.1537 107.101 29.1093L107.113 28.9884C107.121 28.8995 107.125 28.8408 107.125 28.8132C107.125 28.6661 107.113 28.4321 107.089 28.1123C107.064 27.7869 107.052 27.5893 107.052 27.5198V26.9851C107.052 26.8987 107.058 26.771 107.07 26.601C107.087 26.4534 107.095 26.3256 107.095 26.2168V26.1918C107.095 26.0528 107.14 25.9829 107.23 25.9829C107.283 25.9829 107.351 26.0442 107.434 26.1664C107.569 26.3666 107.741 26.7257 107.951 27.2431C108.07 27.5435 108.21 27.9302 108.37 28.4032C108.365 28.392 108.398 28.4882 108.468 28.6911L108.474 28.7118C108.474 28.4421 108.478 28.2 108.486 27.9855L108.499 27.2595V26.0244C108.515 25.9549 108.581 25.9199 108.696 25.9199C108.807 25.9199 108.862 25.9743 108.862 26.0826V26.1077C108.837 26.1409 108.825 26.1815 108.825 26.2285C108.825 26.3981 108.819 26.654 108.807 26.9963C108.795 27.3411 108.788 27.6001 108.788 27.7723V29.045C108.788 29.0894 108.771 29.1322 108.736 29.1723C108.701 29.2124 108.659 29.2327 108.61 29.2327C108.528 29.2344 108.359 28.9479 108.105 28.3747ZM110.7 29.1468C110.67 29.13 110.654 29.1024 110.654 29.0631V28.5163C110.6 28.4913 110.5 28.4688 110.352 28.4494C110.205 28.43 110.065 28.4175 109.934 28.4119C109.888 28.4701 109.856 28.5413 109.835 28.6246L109.811 28.7079C109.806 28.7273 109.794 28.7705 109.774 28.8374C109.753 28.9043 109.731 28.9617 109.706 29.0105C109.682 29.0592 109.657 29.0976 109.632 29.1253C109.477 29.1253 109.386 29.0976 109.361 29.0415C109.407 28.9971 109.458 28.8663 109.515 28.6492L109.719 27.8853C109.809 27.5237 109.892 27.2147 109.968 26.9587C110.044 26.7028 110.125 26.4887 110.212 26.3161C110.306 26.1241 110.396 26.0282 110.483 26.0282C110.569 26.0282 110.635 26.0395 110.68 26.0615C110.68 26.1728 110.719 26.4413 110.797 26.8668C110.879 27.2841 110.92 27.5694 110.92 27.7222C110.92 27.8698 110.942 28.0808 110.988 28.3566C111.029 28.6376 111.049 28.8616 111.049 29.0286C111.049 29.1231 110.982 29.1706 110.846 29.1706C110.779 29.1719 110.731 29.1637 110.7 29.1468ZM110.648 28.2621C110.635 28.1395 110.615 27.988 110.586 27.8072C110.492 27.1784 110.445 26.793 110.445 26.6514V26.6182C110.404 26.6463 110.347 26.7719 110.275 26.9958C110.203 27.2198 110.137 27.4598 110.075 27.7157C110.014 27.9716 109.981 28.1413 109.977 28.225C110.149 28.2582 110.332 28.275 110.525 28.275C110.557 28.2746 110.599 28.2703 110.648 28.2621ZM112.098 29.1408C112.063 29.1007 112.045 29.051 112.045 28.9928C112.045 28.9008 112.054 28.7882 112.07 28.6548L112.082 28.5465L112.094 28.3251C112.094 28.228 112.08 28.0109 112.051 27.6743C112.022 27.3377 112.008 27.1206 112.008 27.023C112.008 27.0148 112.009 26.9989 112.011 26.9751C112.013 26.9514 112.014 26.9147 112.014 26.8646C112.018 26.809 112.02 26.7408 112.02 26.6601C112.02 26.4572 111.999 26.3278 111.958 26.2721C111.934 26.2721 111.88 26.2764 111.798 26.2846L111.625 26.2928C111.572 26.2928 111.525 26.2824 111.484 26.2613C111.443 26.2406 111.422 26.2134 111.422 26.1797C111.422 26.1465 111.471 26.1172 111.57 26.0921C111.713 26.0589 111.958 26.0352 112.303 26.0213C112.442 26.0157 112.526 26.0131 112.555 26.0131C112.604 26.0131 112.65 26.0244 112.691 26.0464C112.732 26.0688 112.752 26.0964 112.752 26.1301C112.752 26.1633 112.735 26.1905 112.7 26.2112C112.665 26.232 112.621 26.2427 112.568 26.2427L112.457 26.2384C112.424 26.2358 112.387 26.2341 112.346 26.2341H112.284C112.313 26.4231 112.327 26.5945 112.327 26.7473L112.321 27.0144C112.317 27.0951 112.315 27.1853 112.315 27.2854C112.315 27.4188 112.323 27.5789 112.34 27.7654C112.36 27.9962 112.37 28.1564 112.37 28.2453C112.37 28.351 112.379 28.4762 112.395 28.6207C112.411 28.7683 112.42 28.8935 112.42 28.9962C112.42 29.1326 112.36 29.2008 112.241 29.2008C112.181 29.2012 112.133 29.1809 112.098 29.1408ZM113.252 29.0424C113.252 28.9755 113.314 28.9423 113.437 28.9423H113.511C113.527 28.9453 113.546 28.9466 113.566 28.9466C113.599 28.9466 113.622 28.9397 113.637 28.9259C113.651 28.9121 113.658 28.887 113.658 28.8508C113.658 28.6143 113.637 28.2914 113.596 27.8827C113.559 27.4572 113.541 27.1357 113.541 26.9186C113.541 26.8409 113.543 26.7697 113.547 26.7058L113.553 26.4931C113.553 26.4011 113.547 26.3247 113.535 26.2635C113.489 26.2747 113.442 26.2803 113.393 26.2803C113.299 26.2803 113.252 26.2471 113.252 26.1802C113.252 26.1469 113.281 26.1176 113.341 26.0926C113.401 26.0675 113.477 26.0494 113.572 26.0382C113.744 26.0188 113.89 26.0088 114.009 26.0088C114.058 26.0088 114.1 26.02 114.136 26.0421C114.17 26.0645 114.188 26.0908 114.188 26.1215C114.188 26.1521 114.174 26.1784 114.148 26.2009C114.121 26.2233 114.087 26.2341 114.046 26.2341C114.022 26.2341 114.001 26.2328 113.984 26.2298H113.935C113.894 26.2298 113.864 26.2363 113.846 26.2488C113.827 26.2613 113.818 26.2842 113.818 26.3174C113.818 26.6122 113.845 27.0187 113.898 27.5362C113.947 28.0787 113.972 28.4865 113.972 28.7588V28.9177C114 28.9151 114.042 28.9134 114.095 28.9134C114.267 28.9134 114.353 28.9621 114.353 29.0592V29.0843L114.199 29.155C114.196 29.155 114.183 29.1559 114.162 29.1572C114.142 29.1585 114.101 29.1594 114.039 29.1594C113.9 29.165 113.814 29.1676 113.781 29.1676C113.429 29.1676 113.252 29.1261 113.252 29.0424ZM115.481 29.2137C115.391 29.1637 115.312 29.0955 115.247 29.0092C115.128 28.859 115.04 28.6531 114.982 28.3916C114.941 28.2107 114.91 28.0019 114.889 27.7658L114.883 27.5444V27.3191C114.879 27.247 114.877 27.159 114.877 27.0563C114.877 26.8892 114.888 26.7421 114.908 26.6139C114.924 26.4805 114.965 26.348 115.031 26.2173C115.097 26.1033 115.191 26.0226 115.314 25.9752C115.388 25.9527 115.462 25.9419 115.536 25.9419C115.754 25.9419 115.926 26.0002 116.053 26.1172C116.192 26.2479 116.285 26.3938 116.33 26.5552C116.396 26.7498 116.433 26.9363 116.441 27.1145C116.457 27.3122 116.466 27.4986 116.466 27.6739V27.9117C116.466 27.9591 116.455 28.048 116.435 28.1788C116.419 28.282 116.41 28.3696 116.41 28.4416V28.4585C116.386 28.5362 116.373 28.6281 116.373 28.7338C116.373 28.8115 116.349 28.8922 116.299 28.9759C116.25 29.0592 116.18 29.1304 116.09 29.1887C116 29.2556 115.897 29.2888 115.782 29.2888C115.672 29.2888 115.571 29.2638 115.481 29.2137ZM116.004 28.9047C116.053 28.8128 116.089 28.701 116.112 28.569C116.135 28.4369 116.154 28.2871 116.171 28.1205C116.179 28.048 116.183 27.9548 116.183 27.8409L116.177 27.4568C116.169 27.3066 116.145 27.1188 116.104 26.8936C116.071 26.7015 116.009 26.5319 115.919 26.3843C115.878 26.3148 115.826 26.2604 115.765 26.2216C115.703 26.1828 115.637 26.1633 115.568 26.1633C115.465 26.1633 115.389 26.2177 115.34 26.326C115.278 26.44 115.237 26.5651 115.217 26.7015C115.192 26.8491 115.178 26.9894 115.174 27.1232L115.168 27.2608C115.164 27.2997 115.162 27.3528 115.162 27.4192V27.4361C115.162 27.6225 115.19 27.8521 115.248 28.1249C115.314 28.4947 115.41 28.758 115.538 28.9138C115.62 29.0113 115.706 29.0597 115.796 29.0597C115.877 29.0592 115.947 29.0079 116.004 28.9047ZM118.178 28.3747C117.89 27.7045 117.642 27.0882 117.433 26.5259V27.8948C117.433 28.0118 117.449 28.2107 117.482 28.4917C117.51 28.7977 117.525 28.9954 117.525 29.0843C117.525 29.1093 117.503 29.1309 117.457 29.149C117.412 29.1671 117.361 29.1762 117.303 29.1762C117.217 29.1762 117.174 29.1537 117.174 29.1093L117.186 28.9884C117.194 28.8995 117.198 28.8408 117.198 28.8132C117.198 28.6661 117.186 28.4321 117.161 28.1123C117.137 27.7869 117.124 27.5893 117.124 27.5198V26.9851C117.124 26.8987 117.13 26.771 117.143 26.601C117.159 26.4534 117.167 26.3256 117.167 26.2168V26.1918C117.167 26.0528 117.213 25.9829 117.303 25.9829C117.356 25.9829 117.424 26.0442 117.506 26.1664C117.642 26.3666 117.814 26.7257 118.024 27.2431C118.143 27.5435 118.282 27.9302 118.442 28.4032C118.438 28.392 118.471 28.4882 118.541 28.6911L118.547 28.7118C118.547 28.4421 118.551 28.2 118.559 27.9855L118.571 27.2595V26.0244C118.588 25.9549 118.653 25.9199 118.769 25.9199C118.879 25.9199 118.935 25.9743 118.935 26.0826V26.1077C118.91 26.1409 118.898 26.1815 118.898 26.2285C118.898 26.3981 118.892 26.654 118.879 26.9963C118.867 27.3411 118.861 27.6001 118.861 27.7723V29.045C118.861 29.0894 118.843 29.1322 118.809 29.1723C118.774 29.2124 118.732 29.2327 118.682 29.2327C118.601 29.2344 118.432 28.9479 118.178 28.3747Z" fill="#EFBCA5"/>
<path d="M112.754 31.3508H97.8723C97.7537 31.3508 97.6574 31.2545 97.6574 31.1358C97.6574 31.0171 97.7537 30.9209 97.8723 30.9209H112.754C112.872 30.9209 112.969 31.0171 112.969 31.1358C112.969 31.2541 112.872 31.3508 112.754 31.3508Z" fill="#042C30"/>
<path d="M125.128 55.221C127.092 55.221 128.684 53.6293 128.684 51.6657C128.684 49.7021 127.092 48.1104 125.128 48.1104C123.165 48.1104 121.573 49.7021 121.573 51.6657C121.573 53.6293 123.165 55.221 125.128 55.221Z" fill="#F2B694"/>
<path d="M125.895 54.6939C123.816 54.6939 122.125 53.0025 122.125 50.9236C122.125 48.8447 123.816 47.1533 125.895 47.1533C127.974 47.1533 129.665 48.8447 129.665 50.9236C129.665 53.0025 127.974 54.6939 125.895 54.6939ZM125.895 47.5832C124.053 47.5832 122.555 49.0816 122.555 50.9232C122.555 52.7647 124.054 54.2632 125.895 54.2632C127.737 54.2632 129.235 52.7647 129.235 50.9232C129.235 49.0816 127.737 47.5832 125.895 47.5832Z" fill="#042C30"/>
<path d="M125.895 52.4887C125.846 52.4887 125.797 52.4823 125.749 52.4685C125.603 52.4275 125.482 52.3269 125.414 52.1918L124.134 49.636C124.001 49.3706 124.108 49.0473 124.374 48.9144C124.639 48.7815 124.962 48.8889 125.095 49.1544L126.111 51.1824L131.768 47.6538C132.02 47.4967 132.352 47.5735 132.509 47.8255C132.666 48.0776 132.589 48.4095 132.337 48.5666L126.179 52.4076C126.094 52.4611 125.995 52.4887 125.895 52.4887Z" fill="#042C30"/>
<path d="M97.5887 97.8316H103.811C103.948 97.8316 104.059 97.7207 104.059 97.5843C104.059 97.4475 103.948 97.337 103.811 97.337H97.5887C97.4519 97.337 97.3414 97.4479 97.3414 97.5843C97.3414 97.7211 97.4519 97.8316 97.5887 97.8316ZM97.5887 96.23H102.042C102.179 96.23 102.289 96.1191 102.289 95.9827C102.289 95.8459 102.178 95.7354 102.042 95.7354H97.5887C97.4519 95.7354 97.3414 95.8463 97.3414 95.9827C97.3414 96.1195 97.4519 96.23 97.5887 96.23ZM97.5887 94.6284H100.738C100.875 94.6284 100.986 94.5175 100.986 94.3811C100.986 94.2447 100.875 94.1338 100.738 94.1338H97.5887C97.4519 94.1338 97.3414 94.2447 97.3414 94.3811C97.3414 94.5179 97.4519 94.6284 97.5887 94.6284Z" fill="#EDA67E"/>
<path d="M112.142 41.3335C112.087 41.3335 112.032 41.3123 111.99 41.2705C111.906 41.1863 111.906 41.0504 111.99 40.9662L114.211 38.7457C114.295 38.6616 114.431 38.6616 114.515 38.7457C114.599 38.8299 114.599 38.9658 114.515 39.05L112.294 41.2705C112.252 41.3123 112.197 41.3335 112.142 41.3335Z" fill="#EDA67E"/>
<path d="M114.363 41.3335C114.307 41.3335 114.252 41.3123 114.211 41.2705L111.99 39.05C111.906 38.9658 111.906 38.8299 111.99 38.7457C112.074 38.6616 112.21 38.6616 112.294 38.7457L114.515 40.9662C114.599 41.0504 114.599 41.1863 114.515 41.2705C114.473 41.3123 114.417 41.3335 114.363 41.3335Z" fill="#EDA67E"/>
<path d="M29.568 47.7125C28.723 47.7125 28.0355 47.025 28.0355 46.18C28.0355 45.335 28.723 44.6475 29.568 44.6475C30.4131 44.6475 31.1006 45.335 31.1006 46.18C31.1006 47.025 30.4131 47.7125 29.568 47.7125ZM29.568 45.0777C28.9604 45.0777 28.4658 45.5723 28.4658 46.18C28.4658 46.7877 28.9604 47.2823 29.568 47.2823C30.1757 47.2823 30.6703 46.7877 30.6703 46.18C30.6703 45.5723 30.1757 45.0777 29.568 45.0777ZM139.528 98.6686C138.683 98.6686 137.996 97.9811 137.996 97.1361C137.996 96.2911 138.683 95.6036 139.528 95.6036C140.373 95.6036 141.061 96.2911 141.061 97.1361C141.061 97.9811 140.373 98.6686 139.528 98.6686ZM139.528 96.0334C138.921 96.0334 138.426 96.528 138.426 97.1357C138.426 97.7433 138.921 98.2379 139.528 98.2379C140.136 98.2379 140.631 97.7433 140.631 97.1357C140.631 96.528 140.136 96.0334 139.528 96.0334ZM22.1772 65.9748C22.1772 66.6027 21.668 67.112 21.04 67.112C20.4121 67.112 19.9028 66.6027 19.9028 65.9748C19.9028 65.3469 20.4121 64.8376 21.04 64.8376C21.668 64.8376 22.1772 65.3469 22.1772 65.9748ZM16.3794 78.6235H13.3627L14.871 76.0112L16.3794 78.6235ZM14.108 78.1932H15.6341L14.871 76.8717L14.108 78.1932Z" fill="#EDA67E"/>
</svg>
