<svg width="16" height="18" viewBox="0 0 16 18" fill="none" xmlns="http://www.w3.org/2000/svg">
<path fill-rule="evenodd" clip-rule="evenodd" d="M4 1C4 0.447715 4.44772 0 5 0H11C11.5523 0 12 0.447715 12 1C12 1.55228 11.5523 2 11 2H5C4.44772 2 4 1.55228 4 1ZM13.0682 16.1534C12.9881 17.1954 12.1192 18 11.0741 18L4.9262 18C3.88113 18 3.01224 17.1954 2.93209 16.1534L2.08594 5.15339C2.08198 5.1019 2.08 5.05075 2.07993 5H1C0.447715 5 0 4.55228 0 4C0 3.44772 0.447715 3 1 3H4.08005H15C15.5523 3 16 3.44772 16 4C16 4.55228 15.5523 5 15 5H13.9204C13.9203 5.05075 13.9184 5.1019 13.9144 5.15339L13.0682 16.1534ZM4.08004 5L4.9262 16H11.0741L11.9203 5H4.08004Z" fill="#676B78"/>
</svg>
