<svg y="0px" x="0px" viewBox="0 0.108496505925 479.28355 396.0558507" xmlns="http://www.w3.org/2000/svg" style="max-height: 500px" width="479.28355" height="396.0558507"><title>Virtual Office</title><g data-name="Virtual Office"><path d="M423.83,354.6l-38.18-60V218.75a7.82,7.82,0,0,0-15.63,0v70.31H338.77a7.82,7.82,0,0,0,0,15.63h34.78l37.1,58.3a7.81,7.81,0,0,1-6.59,12H23.49a7.81,7.81,0,0,1-6.59-12L54,304.69H260.65a7.82,7.82,0,0,0,0-15.63H57.52V101.56A23.46,23.46,0,0,1,81,78.13H221.59a7.82,7.82,0,0,0,0-15.63H81A39.1,39.1,0,0,0,41.9,101.56v193l-38.19,60a23.45,23.45,0,0,0,19.78,36H404.06a23.45,23.45,0,0,0,19.77-36Z"/><path d="M291.9,289.06a7.82,7.82,0,0,0,0,15.63h15.62a7.82,7.82,0,1,0,0-15.63Z"/><path d="M252.84,187.5H409.09a7.81,7.81,0,0,0,7.81-7.81V62.5a7.81,7.81,0,0,0-7.81-7.81H393.46a7.81,7.81,0,1,0,0,15.62h7.81V171.88H370V7.81A7.8,7.8,0,0,0,362.21,0H252.84A7.81,7.81,0,0,0,245,7.81V179.69A7.81,7.81,0,0,0,252.84,187.5Zm7.81-171.87H354.4V171.88H323.15V156.25a7.81,7.81,0,0,0-7.81-7.81H299.71a7.8,7.8,0,0,0-7.81,7.81v15.63H260.65Z"/><rect rx="7.81" height="23.44" width="23.44" y="31.25" x="315.34"/><rect rx="7.81" height="23.44" width="23.44" y="31.25" x="276.27"/><rect rx="7.81" height="23.44" width="23.44" y="70.31" x="315.34"/><rect rx="7.81" height="23.44" width="23.44" y="70.31" x="276.27"/><rect rx="7.81" height="23.44" width="23.44" y="109.38" x="315.34"/><rect rx="7.81" height="23.44" width="23.44" y="109.38" x="276.27"/></g><text font-family="'Helvetica Neue', Helvetica, Arial-Unicode, Arial, Sans-serif" font-weight="bold" font-size="5px" fill="#000000" y="405.63" x="0">Created by Dude Design Studio</text><text font-family="'Helvetica Neue', Helvetica, Arial-Unicode, Arial, Sans-serif" font-weight="bold" font-size="5px" fill="#000000" y="410.63" x="0">from the Noun Project</text></svg>