<svg width="12" height="14" viewBox="0 0 12 14" fill="none" xmlns="http://www.w3.org/2000/svg">
<path d="M10.6847 11.2788C10.7005 11.2788 11.0016 11.0984 11.3537 10.8779C11.7059 10.6573 11.9871 10.4637 11.9787 10.4477C11.9702 10.4316 11.8011 10.2032 11.6028 9.94011C11.2046 9.41175 10.8213 8.71324 10.6514 8.20655C10.122 6.62737 10.3657 4.98752 11.3264 3.66387L11.5711 3.32679L11.1053 2.86105L10.6396 2.39528L10.3317 2.61467C8.31476 4.05208 5.8973 3.88669 3.75404 2.16472C3.61409 2.05227 3.49444 1.96548 3.48811 1.97181C3.42986 2.03006 2.69727 3.22787 2.69744 3.26456C2.69756 3.29108 2.82569 3.39957 2.98215 3.50556C4.71457 4.67938 6.69673 5.0621 8.22891 4.51873L8.59645 4.38839L3.48665 9.51677L0.25556 12.7596L1.19814 13.7022L4.44936 10.4628L9.5657 5.36513L9.41065 5.83864C9.0084 7.06702 9.17316 8.5228 9.88062 9.99052C10.0821 10.4087 10.6251 11.2785 10.6847 11.2788Z" fill="#475467"/>
</svg>
