<svg width="26" height="27" viewBox="0 0 26 27" fill="none" xmlns="http://www.w3.org/2000/svg">
<g filter="url(#filter0_d_872_58)">
<path fill-rule="evenodd" clip-rule="evenodd" d="M10.8575 7.47425H13.9525V9.01591C14.3983 8.12925 15.5417 7.33258 17.2592 7.33258C20.5517 7.33258 21.3333 9.09758 21.3333 12.3359V18.3334H18V13.0734C18 11.2292 17.5542 10.1892 16.4192 10.1892C14.845 10.1892 14.1908 11.3101 14.1908 13.0726V18.3334H10.8575V7.47425ZM5.14167 18.1917H8.475V7.33258H5.14167V18.1917ZM8.9525 3.79175C8.95262 4.07114 8.89721 4.34778 8.78949 4.60557C8.68177 4.86336 8.52388 5.09718 8.325 5.29341C7.922 5.69393 7.37651 5.91813 6.80833 5.91675C6.24116 5.91637 5.69693 5.69275 5.29333 5.29425C5.09518 5.09734 4.93782 4.86327 4.83029 4.60544C4.72275 4.34761 4.66715 4.0711 4.66667 3.79175C4.66667 3.22758 4.89167 2.68758 5.29417 2.28925C5.69741 1.89021 6.24187 1.6665 6.80917 1.66675C7.3775 1.66675 7.9225 1.89091 8.325 2.28925C8.72667 2.68758 8.9525 3.22758 8.9525 3.79175Z" fill="#FCFCFC"/>
</g>
<defs>
<filter id="filter0_d_872_58" x="-1" y="0" width="28" height="28" filterUnits="userSpaceOnUse" color-interpolation-filters="sRGB">
<feFlood flood-opacity="0" result="BackgroundImageFix"/>
<feColorMatrix in="SourceAlpha" type="matrix" values="0 0 0 0 0 0 0 0 0 0 0 0 0 0 0 0 0 0 127 0" result="hardAlpha"/>
<feOffset dy="4"/>
<feGaussianBlur stdDeviation="2"/>
<feComposite in2="hardAlpha" operator="out"/>
<feColorMatrix type="matrix" values="0 0 0 0 0 0 0 0 0 0 0 0 0 0 0 0 0 0 0.25 0"/>
<feBlend mode="normal" in2="BackgroundImageFix" result="effect1_dropShadow_872_58"/>
<feBlend mode="normal" in="SourceGraphic" in2="effect1_dropShadow_872_58" result="shape"/>
</filter>
</defs>
</svg>
