<svg width="24" height="24" viewBox="0 0 24 24" fill="none" xmlns="http://www.w3.org/2000/svg">
<rect x="12" y="7.15332" width="4.00815" height="4.00815" rx="1" transform="rotate(45 12 7.15332)" fill="#464646"/>
<path d="M18 9.5C18 11.6495 16.8363 14.4537 15.3552 16.7892C14.6258 17.9395 13.8533 18.9217 13.1733 19.6027C12.8321 19.9444 12.5349 20.1894 12.2967 20.3422C12.1306 20.4487 12.0347 20.4837 12 20.4949C11.9653 20.4837 11.8694 20.4487 11.7033 20.3422C11.4651 20.1894 11.1679 19.9444 10.8267 19.6027C10.1467 18.9217 9.3742 17.9395 8.64476 16.7892C7.16369 14.4537 6 11.6495 6 9.5C6 6.18629 8.68629 3.5 12 3.5C15.3137 3.5 18 6.18629 18 9.5Z" stroke="#464646" stroke-width="2"/>
</svg>
