<svg width="17" height="16" viewBox="0 0 17 16" fill="none" xmlns="http://www.w3.org/2000/svg">
<path fill-rule="evenodd" clip-rule="evenodd" d="M8.28955 0C12.5294 0 15.9782 3.3727 15.9782 7.51907C15.9782 9.47532 15.2105 11.2595 13.9543 12.5986L16.4262 15.0109C16.6575 15.2371 16.6583 15.6031 16.427 15.8294C16.3117 15.9436 16.1593 16 16.0077 16C15.8569 16 15.7053 15.9436 15.5893 15.8309L13.0875 13.3912C11.7715 14.4219 10.1029 15.0389 8.28955 15.0389C4.04965 15.0389 0.600098 11.6655 0.600098 7.51907C0.600098 3.3727 4.04965 0 8.28955 0ZM8.28955 1.15821C4.70261 1.15821 1.78443 4.01125 1.78443 7.51907C1.78443 11.0269 4.70261 13.8807 8.28955 13.8807C11.8757 13.8807 14.7939 11.0269 14.7939 7.51907C14.7939 4.01125 11.8757 1.15821 8.28955 1.15821Z" fill="#464646"/>
</svg>
