<svg width="148" height="108" viewBox="0 0 148 108" fill="none" xmlns="http://www.w3.org/2000/svg">
<path d="M7.56143 74.8837C10.4798 98.3378 24.6205 109.371 52.3347 100.57C102.975 84.4902 113.651 100.544 126.509 103.345C139.367 106.146 144.561 58.3948 115.216 35.8763C48.9412 -14.9806 3.83863 44.9619 7.56143 74.8837Z" fill="#F4E9E4"/>
<path d="M96.0174 110.945H145.574C145.574 110.945 148.967 102.015 134.304 100.712C119.641 99.4096 102.727 98.514 101.547 104.087C101.283 105.336 94.1724 103.24 96.0174 110.945Z" fill="#F2B694"/>
<path d="M112.945 104.878C111.976 105.713 110.471 105.857 109.362 105.22C108.954 106.197 107.631 106.384 106.595 106.163C104.728 105.766 103.076 104.513 102.128 102.856C101.18 101.2 100.933 99.1707 101.387 97.317C101.767 95.7668 102.716 94.2606 104.194 93.6577C105.672 93.0552 107.667 93.6805 108.187 95.1893C107.852 92.5917 109.578 90.0139 111.785 88.603C113.114 87.7528 114.698 87.1503 116.254 87.4093C117.328 87.588 118.312 88.1719 119.068 88.9561C120.194 90.1252 120.83 91.7531 120.793 93.3763C120.756 94.9995 120.046 96.5967 118.867 97.7128C119.561 97.3537 120.363 97.0495 121.131 96.8975C121.898 96.7456 122.747 96.8307 123.371 97.3024C123.831 97.6507 124.125 98.1716 124.361 98.6981C124.999 100.122 125.286 101.79 124.712 103.241C124.181 104.584 122.983 105.565 121.688 106.203C119.187 107.436 115.984 107.501 113.744 105.841C113.552 105.7 113.36 105.533 113.291 105.304C113.224 105.076 112.71 104.915 112.945 104.878Z" fill="#F1C2A7"/>
<path d="M106.595 106.379C106.58 106.379 106.565 106.378 106.55 106.375C104.655 105.971 102.931 104.696 101.94 102.963C100.978 101.285 100.7 99.2073 101.177 97.2648C101.622 95.4479 102.719 94.0241 104.112 93.4566C104.685 93.2231 105.357 93.1549 106.006 93.2658C106.124 93.2861 106.203 93.3979 106.183 93.5161C106.163 93.6339 106.052 93.7138 105.933 93.6935C105.363 93.5964 104.775 93.6551 104.276 93.8584C103.012 94.3737 102.01 95.6861 101.598 97.3684C101.148 99.2039 101.41 101.165 102.316 102.748C103.247 104.376 104.863 105.573 106.64 105.951C106.757 105.976 106.832 106.091 106.807 106.208C106.785 106.309 106.696 106.379 106.595 106.379Z" fill="#F09664"/>
<path d="M114.845 105.21C114.776 105.21 114.707 105.177 114.666 105.115C114.624 105.054 110.465 98.9619 106.264 98.6615C106.144 98.6529 106.055 98.5493 106.063 98.4298C106.071 98.3107 106.173 98.2205 106.295 98.2291C110.707 98.5446 114.851 104.614 115.025 104.872C115.092 104.972 115.066 105.106 114.967 105.173C114.929 105.198 114.887 105.21 114.845 105.21Z" fill="#F09664"/>
<path d="M141.515 98.3753C141.142 97.6934 140.69 97.024 140.035 96.6054C139.147 96.0374 137.996 96.0141 136.982 96.3002C135.967 96.5864 134.922 97.0805 134.027 97.6368C135.492 96.0115 136.276 93.7897 136.153 91.6047C136.03 89.4191 135.002 87.2988 133.364 85.8482C132.265 84.875 130.88 84.1949 129.417 84.0697C127.298 83.8876 125.234 84.8664 123.538 86.1504C120.724 88.2819 118.679 91.9301 119.405 95.3848C118.545 93.4125 115.798 92.785 113.876 93.7522C111.954 94.7198 110.84 96.8444 110.494 98.9687C110.081 101.508 110.629 104.209 112.08 106.334C113.53 108.459 115.885 109.966 118.436 110.302C119.851 110.487 121.609 110.097 122.053 108.74C123.613 109.477 125.619 109.124 126.833 107.898C126.52 107.973 127.227 108.134 127.343 108.434C127.458 108.734 127.735 108.937 128.008 109.107C131.196 111.099 135.493 110.671 138.723 108.747C140.395 107.751 141.901 106.305 142.471 104.444C143.087 102.432 142.524 100.221 141.515 98.3753Z" fill="#F0CEBB"/>
<path d="M134.685 87.5645C134.626 87.5645 134.566 87.5399 134.523 87.492C129.396 81.724 123.907 86.127 123.676 86.3173C123.584 86.3937 123.447 86.3799 123.371 86.2879C123.295 86.1956 123.308 86.0592 123.4 85.9828C123.46 85.9336 129.44 81.1198 134.847 87.2037C134.927 87.2931 134.919 87.4303 134.829 87.5097C134.788 87.5464 134.737 87.5645 134.685 87.5645Z" fill="#F09664"/>
<path d="M119.097 110.561C118.863 110.561 118.631 110.546 118.407 110.516C115.838 110.178 113.405 108.66 111.9 106.456C110.441 104.317 109.85 101.576 110.28 98.9335C110.681 96.4684 111.989 94.4589 113.778 93.5582C114.876 93.0058 116.247 92.9346 117.444 93.367C118.095 93.6022 118.646 93.9713 119.057 94.4404C118.964 93.0511 119.268 91.5933 119.952 90.1699C120.004 90.062 120.133 90.0163 120.241 90.0685C120.349 90.1203 120.394 90.2497 120.343 90.3576C119.535 92.0369 119.285 93.7598 119.617 95.3402C119.64 95.449 119.577 95.5573 119.471 95.5914C119.364 95.6251 119.251 95.5733 119.206 95.4714C118.87 94.7011 118.192 94.0981 117.296 93.7749C116.208 93.3817 114.966 93.4456 113.973 93.9458C112.307 94.7844 111.087 96.6747 110.708 99.0035C110.295 101.537 110.861 104.164 112.258 106.211C113.694 108.316 116.014 109.764 118.463 110.086C119.812 110.264 121.446 109.897 121.846 108.672C121.883 108.558 122.006 108.496 122.119 108.533C122.233 108.57 122.295 108.693 122.258 108.807C121.852 110.05 120.444 110.561 119.097 110.561Z" fill="#F09664"/>
<path d="M132.856 102.808C132.818 102.808 132.779 102.798 132.744 102.777C129.094 100.572 124.252 102.317 124.203 102.335C124.092 102.376 123.966 102.319 123.925 102.206C123.884 102.094 123.941 101.969 124.053 101.928C124.259 101.852 129.136 100.092 132.968 102.406C133.07 102.468 133.103 102.601 133.042 102.704C133.001 102.77 132.929 102.808 132.856 102.808Z" fill="#F09664"/>
<path d="M123.596 106.379C123.526 106.379 123.457 106.346 123.415 106.283C123.379 106.228 119.715 100.82 115.516 100.521C115.397 100.512 115.307 100.408 115.315 100.289C115.324 100.17 115.422 100.082 115.547 100.088C119.959 100.403 123.622 105.812 123.776 106.042C123.843 106.142 123.816 106.276 123.717 106.343C123.679 106.367 123.637 106.379 123.596 106.379Z" fill="#F09664"/>
<path d="M144.948 101.936C144.829 101.936 144.733 101.841 144.731 101.723C144.598 94.0199 138.938 93.2228 138.697 93.1926C138.578 93.1779 138.494 93.0696 138.508 92.9509C138.523 92.8322 138.629 92.7481 138.75 92.7623C138.812 92.7701 145.024 93.6255 145.164 101.715C145.167 101.835 145.071 101.934 144.952 101.936C144.95 101.936 144.949 101.936 144.948 101.936Z" fill="#F09664"/>
<path d="M1.44682 110.945H36.4082C36.4082 110.945 38.8017 104.645 28.4572 103.726C18.1127 102.806 6.17995 102.175 5.34786 106.106C5.16142 106.988 0.14518 105.509 1.44682 110.945Z" fill="#F2B694"/>
<path d="M13.389 106.665C12.7054 107.253 11.6437 107.355 10.8609 106.906C10.573 107.595 9.63992 107.727 8.90925 107.571C7.59207 107.29 6.42638 106.407 5.75743 105.238C5.08848 104.069 4.91456 102.638 5.23479 101.33C5.5028 100.236 6.17218 99.1733 7.21487 98.7482C8.25757 98.3231 9.66495 98.7642 10.0318 99.8289C9.79572 97.9964 11.0136 96.1777 12.5703 95.1821C13.5077 94.5822 14.6255 94.1571 15.7235 94.3396C16.4813 94.4656 17.1757 94.8778 17.7087 95.4306C18.5037 96.2554 18.9517 97.4043 18.9253 98.5492C18.899 99.6942 18.3984 100.821 17.5667 101.609C18.057 101.355 18.6228 101.141 19.164 101.033C19.7052 100.926 20.3047 100.986 20.7444 101.319C21.069 101.565 21.277 101.932 21.4432 102.304C21.8929 103.308 22.0957 104.485 21.6905 105.508C21.3159 106.456 20.4704 107.148 19.5567 107.599C17.792 108.469 15.5327 108.514 13.9518 107.343C13.8167 107.243 13.6808 107.125 13.6329 106.964C13.5854 106.804 13.2229 106.691 13.389 106.665Z" fill="#F1C2A7"/>
<path d="M8.90926 107.724C8.89847 107.724 8.88811 107.724 8.87732 107.721C7.54029 107.436 6.3241 106.537 5.62451 105.315C4.9465 104.13 4.75056 102.665 5.08633 101.294C5.40095 100.013 6.17477 99.0078 7.15705 98.6078C7.56144 98.4429 8.03574 98.395 8.49321 98.4731C8.57651 98.4874 8.63261 98.5663 8.61837 98.6496C8.60413 98.7329 8.52515 98.789 8.44186 98.7748C8.03962 98.7066 7.62445 98.7476 7.27271 98.8913C6.38107 99.2551 5.67457 100.181 5.38369 101.368C5.06604 102.662 5.25076 104.046 5.89036 105.163C6.54722 106.311 7.68789 107.156 8.94119 107.423C9.02362 107.44 9.07671 107.522 9.05901 107.604C9.04348 107.675 8.98003 107.724 8.90926 107.724Z" fill="#F09664"/>
<path d="M14.73 106.899C14.6808 106.899 14.6324 106.875 14.6031 106.832C14.5737 106.788 11.6394 102.491 8.67577 102.279C8.59161 102.273 8.52817 102.2 8.53421 102.116C8.54025 102.031 8.61233 101.968 8.69778 101.974C11.8099 102.196 14.7338 106.478 14.8568 106.661C14.9039 106.73 14.8858 106.826 14.8154 106.873C14.7891 106.891 14.7593 106.899 14.73 106.899Z" fill="#F09664"/>
<path d="M33.5447 102.078C33.2818 101.596 32.9629 101.124 32.5007 100.829C31.874 100.429 31.0622 100.412 30.3462 100.614C29.6302 100.815 28.8931 101.164 28.2613 101.557C29.2953 100.41 29.8477 98.8425 29.761 97.3009C29.6743 95.7593 28.9496 94.2635 27.7934 93.2398C27.0183 92.5531 26.0412 92.0732 25.0093 91.9852C23.5143 91.8566 22.0577 92.5471 20.8618 93.453C18.8761 94.9566 17.4334 97.5305 17.9461 99.9677C17.3393 98.5763 15.4011 98.1335 14.0451 98.8158C12.689 99.4981 11.9031 100.997 11.6593 102.496C11.3675 104.287 11.7542 106.193 12.7779 107.692C13.8012 109.191 15.4624 110.254 17.262 110.491C18.2607 110.622 19.5011 110.346 19.814 109.389C20.9141 109.909 22.3296 109.66 23.1855 108.796C22.9649 108.848 23.4643 108.962 23.5454 109.173C23.627 109.385 23.8225 109.528 24.0145 109.648C26.2639 111.054 29.2949 110.752 31.5736 109.394C32.7536 108.692 33.8157 107.671 34.2183 106.358C34.6538 104.939 34.2563 103.38 33.5447 102.078Z" fill="#F0CEBB"/>
<path d="M28.7265 94.4509C28.6842 94.4509 28.6423 94.4337 28.6121 94.3996C24.9951 90.3302 21.1229 93.4367 20.9594 93.5709C20.8942 93.6249 20.798 93.6154 20.744 93.5502C20.6905 93.485 20.6996 93.3888 20.7647 93.3353C20.807 93.3008 25.0257 89.9042 28.8404 94.1967C28.8965 94.2597 28.8909 94.3564 28.8279 94.4125C28.799 94.438 28.7628 94.4509 28.7265 94.4509Z" fill="#F09664"/>
<path d="M17.729 110.674C17.5641 110.674 17.401 110.664 17.2426 110.643C15.43 110.405 13.714 109.334 12.6523 107.778C11.6226 106.27 11.2057 104.336 11.5091 102.471C11.7922 100.732 12.7145 99.3147 13.9769 98.679C14.7515 98.2893 15.7183 98.2388 16.5629 98.5444C17.0221 98.7105 17.4105 98.9708 17.701 99.3018C17.6354 98.3217 17.8494 97.2932 18.3324 96.2889C18.3686 96.213 18.4601 96.1806 18.5365 96.2173C18.6124 96.254 18.6448 96.3455 18.6081 96.4214C18.0389 97.6061 17.8619 98.8214 18.0963 99.9366C18.1122 100.013 18.0678 100.09 17.9931 100.114C17.9176 100.137 17.8378 100.101 17.8063 100.029C17.5693 99.4852 17.0907 99.0601 16.4589 98.8322C15.6915 98.5551 14.815 98.6 14.1141 98.9526C12.9389 99.5439 12.0779 100.878 11.8108 102.521C11.5199 104.309 11.9187 106.162 12.9048 107.606C13.9182 109.091 15.5547 110.113 17.2823 110.34C18.234 110.466 19.3867 110.206 19.6694 109.342C19.6957 109.262 19.782 109.218 19.8623 109.244C19.9426 109.271 19.9866 109.357 19.9603 109.437C19.6724 110.314 18.6798 110.674 17.729 110.674Z" fill="#F09664"/>
<path d="M21.075 110.721C20.9969 110.721 20.9305 110.661 20.9231 110.582C20.2706 103.667 22.8311 99.8789 22.857 99.8413C22.9054 99.7718 23.0003 99.7546 23.0698 99.8025C23.1393 99.8504 23.1565 99.9458 23.1086 100.015C23.0836 100.052 20.5865 103.757 21.2274 110.553C21.2356 110.637 21.1734 110.712 21.0897 110.72C21.0845 110.721 21.0798 110.721 21.075 110.721Z" fill="#F09664"/>
<path d="M27.4356 105.205C27.4089 105.205 27.3813 105.198 27.3567 105.183C24.781 103.627 21.3655 104.858 21.3314 104.871C21.2524 104.899 21.1639 104.859 21.135 104.78C21.1057 104.7 21.1462 104.613 21.2252 104.584C21.3702 104.53 24.8112 103.288 27.5146 104.921C27.5867 104.964 27.61 105.058 27.5664 105.13C27.5379 105.178 27.4874 105.205 27.4356 105.205Z" fill="#F09664"/>
<path d="M20.9033 107.724C20.8541 107.724 20.8053 107.7 20.776 107.656C20.7501 107.618 18.1658 103.802 15.203 103.591C15.1188 103.584 15.0554 103.511 15.0614 103.427C15.0675 103.343 15.1369 103.281 15.225 103.285C18.3375 103.508 20.9218 107.324 21.0302 107.486C21.0772 107.556 21.0582 107.651 20.9879 107.698C20.962 107.716 20.9326 107.724 20.9033 107.724Z" fill="#F09664"/>
<path d="M35.9662 104.59C35.8829 104.59 35.8148 104.523 35.8135 104.44C35.7194 99.0056 31.7264 98.4433 31.5564 98.4217C31.4726 98.4113 31.4131 98.3349 31.4234 98.2512C31.4342 98.1675 31.5067 98.1083 31.5939 98.1183C31.6379 98.1239 36.0206 98.7272 36.119 104.434C36.1203 104.519 36.053 104.589 35.9688 104.59C35.9684 104.59 35.9675 104.59 35.9662 104.59Z" fill="#F09664"/>
<path d="M46.6616 55.5548C46.6616 55.5548 50.2308 67.7141 56.4507 67.7081C62.6706 67.702 63.0375 52.4229 63.0375 52.4229L46.6616 55.5548Z" fill="#EDA585"/>
<path d="M109.705 55.7568C110.054 56.1056 116.376 68.3715 110.304 72.2237C110.304 72.2237 105.951 71.4875 106.222 70.8927C106.493 70.298 103.479 57.0641 103.479 57.0641L109.705 55.7568Z" fill="#EDA585"/>
<path d="M104.767 60.8506L111.326 59.3233C111.134 51.1125 96.1016 37.2329 96.1016 37.2329C92.4681 33.7984 88.0574 31.6561 82.7045 31.6263C55.0645 31.4739 54.0563 89.6624 54.0563 89.6624L106.221 88.3789C106.222 88.3785 108.633 74.6888 104.767 60.8506Z" fill="#F47249"/>
<path d="M92.5165 44.6254C92.4297 44.6254 92.3482 44.5731 92.3145 44.4872C90.6344 40.193 92.1078 34.8121 92.1712 34.5851C92.204 34.4694 92.3248 34.4025 92.4383 34.4349C92.5536 34.4673 92.6209 34.5868 92.5885 34.7021C92.5734 34.7564 91.0914 40.1723 92.7184 44.3293C92.762 44.4406 92.7072 44.5667 92.5954 44.6102C92.57 44.6206 92.5428 44.6254 92.5165 44.6254Z" fill="#042C30"/>
<path d="M68.2121 45.4485C68.2039 45.4485 68.1961 45.448 68.1879 45.4472C68.0688 45.4338 67.9833 45.3268 67.9963 45.2077C68.8413 37.6322 71.4377 35.5873 71.5478 35.504C71.6431 35.4315 71.7791 35.4505 71.8516 35.5459C71.9237 35.6413 71.9051 35.7768 71.8102 35.8489C71.7847 35.8687 69.2479 37.8976 68.4274 45.2551C68.4149 45.3665 68.3213 45.4485 68.2121 45.4485Z" fill="#042C30"/>
<path d="M79.8228 37.8912C79.8228 37.8912 75.7332 48.4541 78.4353 48.442C79.7719 48.436 82.5698 40.5368 82.0731 38.17C81.5772 35.8041 79.8228 37.8912 79.8228 37.8912Z" fill="#F2D2C4"/>
<path d="M81.4667 39.0634C81.4667 39.4332 81.1668 39.7332 80.7969 39.7332C80.4271 39.7332 80.1271 39.4332 80.1271 39.0634C80.1271 38.6935 80.4271 38.3936 80.7969 38.3936C81.1668 38.3936 81.4667 38.6935 81.4667 39.0634Z" fill="#042C30"/>
<path d="M80.6014 42.0087C80.6014 42.3785 80.3015 42.6785 79.9316 42.6785C79.5617 42.6785 79.2618 42.3785 79.2618 42.0087C79.2618 41.6388 79.5617 41.3389 79.9316 41.3389C80.3015 41.3389 80.6014 41.6384 80.6014 42.0087Z" fill="#042C30"/>
<path d="M97.8935 43.6554L48.9745 41.96L48.3334 60.4571L97.2524 62.1526L97.8935 43.6554Z" fill="#EDA585"/>
<path d="M77.917 57.1613L80.557 57.2523C80.557 57.2523 82.1081 50.6103 79.5535 48.055L75.4177 47.9121C75.4177 47.9121 71.2646 52.9668 63.6688 54.9948C63.6688 54.9948 59.4899 55.0267 60.4182 56.204C61.3465 57.3814 73.0522 56.9934 73.0522 56.9934C73.0522 56.9934 75.6939 52.6798 76.8165 53.3349C77.9386 53.9905 77.917 57.1613 77.917 57.1613Z" fill="#EFBCA5"/>
<path d="M98.8235 42.7127L48.1097 40.9551L47.9684 45.0345L98.6821 46.7922L98.8235 42.7127Z" fill="#EFBCA5"/>
<path d="M65.8246 61.4774C65.8211 61.4774 65.8173 61.4774 65.8134 61.4769L49.8449 60.6807C49.7254 60.6746 49.6335 60.5732 49.6391 60.4532C49.6451 60.3337 49.7496 60.2413 49.8665 60.2474L65.8349 61.0436C65.9545 61.0497 66.0464 61.1511 66.0408 61.2711C66.0352 61.3871 65.9394 61.4774 65.8246 61.4774Z" fill="#042C30"/>
<path d="M95.9233 46.9154C95.9207 46.9154 95.9182 46.9154 95.9156 46.9154L69.4788 46.0017C69.3588 45.9974 69.2656 45.8973 69.2694 45.7777C69.2733 45.6582 69.373 45.5658 69.4934 45.5684L95.9302 46.4821C96.0502 46.4864 96.1434 46.5865 96.1396 46.7061C96.1357 46.823 96.0399 46.9154 95.9233 46.9154Z" fill="#042C30"/>
<g opacity="0.5">
<path d="M77.3858 41.6341L69.5707 41.3633L69.4029 46.2031L77.218 46.474L77.3858 41.6341Z" fill="#F2D2C4"/>
</g>
<g opacity="0.5">
<path d="M76.8003 58.5863L68.9852 58.3154L68.8863 61.169L76.7014 61.4399L76.8003 58.5863Z" fill="#F2D2C4"/>
</g>
<path d="M112.882 67.199C111.399 62.0909 101.887 57.0634 101.887 57.0634C99.6569 55.8101 96.5944 49.7287 95.6242 51.4184C94.651 53.1101 97.783 55.7566 97.783 55.7566C97.783 55.7566 97.7325 55.7467 97.6384 55.7337C97.0683 55.6496 94.9082 55.3859 92.9411 55.8179C92.3848 55.8326 91.6576 56.2037 91.1794 56.4838C90.6024 56.8217 90.2515 57.1286 90.2899 57.8398C90.3555 59.0284 91.2955 59.1277 91.2955 59.1277C91.2955 59.1277 90.4725 59.5575 90.6723 60.5087C90.8834 61.5199 91.6317 61.3287 91.6317 61.3287C91.6317 61.3287 90.9308 62.046 91.1268 62.8358C91.3335 63.67 92.1979 63.4314 92.1979 63.4314C92.1979 63.4314 91.6278 63.8677 91.8596 64.8469C91.974 65.3307 92.6455 65.4723 93.0564 65.5439C93.5121 65.6238 93.9653 65.6354 94.4214 65.6156C94.6049 65.6074 94.7887 65.5944 94.9734 65.5785C96.3937 65.4568 97.7394 64.916 99.1468 64.698C99.5879 64.6299 99.9892 64.4823 100.352 64.276C101.788 66.0838 107.428 73.0271 109.2 72.8022C111.236 72.5442 114.364 72.3068 112.882 67.199Z" fill="#EFBCA5"/>
<path d="M99.1097 57.2801C99.1062 57.2801 99.1028 57.2801 99.0993 57.2801C98.9798 57.2744 98.8874 57.1735 98.8926 57.0535C98.906 56.754 98.8317 56.5213 98.6651 56.3418C98.3453 55.9978 97.7826 55.9732 97.7769 55.9728C97.6574 55.9693 97.5629 55.8697 97.5659 55.7501C97.5694 55.6323 97.6656 55.5391 97.7826 55.5391C97.7847 55.5391 97.7869 55.5391 97.7886 55.5391C97.8188 55.5399 98.5348 55.565 98.9824 56.0462C99.2288 56.3116 99.3444 56.6568 99.3255 57.0725C99.3207 57.1894 99.2245 57.2801 99.1097 57.2801Z" fill="#042C30"/>
<path d="M111.99 70.7161C111.96 70.7161 111.929 70.7097 111.9 70.6963C111.791 70.6466 111.743 70.518 111.793 70.4088C112.171 69.5824 112.228 68.8806 111.96 68.3243C111.57 67.5134 110.619 67.2665 110.609 67.2639C110.493 67.235 110.422 67.1172 110.452 67.0011C110.48 66.8846 110.598 66.8142 110.714 66.8436C110.761 66.8552 111.874 67.1444 112.351 68.1366C112.676 68.815 112.622 69.6402 112.187 70.5893C112.15 70.6695 112.072 70.7161 111.99 70.7161Z" fill="#042C30"/>
<path d="M97.2832 52.59C97.272 52.59 97.2604 52.5892 97.2487 52.5874C96.2358 52.4247 96.0446 51.7023 96.0852 51.3432C96.0985 51.2241 96.2034 51.1373 96.3251 51.152C96.4434 51.1654 96.5288 51.2716 96.5163 51.3898C96.5103 51.4558 96.4831 52.0255 97.3178 52.1593C97.436 52.1783 97.5163 52.2897 97.4973 52.4079C97.48 52.5141 97.3877 52.59 97.2832 52.59Z" fill="#042C30"/>
<path d="M93.8518 64.8541C93.7974 64.8541 93.743 64.8338 93.7007 64.7928C93.1125 64.2223 93.1716 63.388 93.2165 63.0864C92.535 62.2621 92.6796 61.2159 92.7396 60.916C92.3421 60.0718 92.5031 59.1905 92.5661 58.9255C92.0758 57.737 92.4107 57.002 92.4254 56.9709C92.4763 56.863 92.6054 56.8164 92.7141 56.8673C92.822 56.9182 92.8682 57.0464 92.8181 57.1543C92.8056 57.1828 92.5458 57.7896 92.9933 58.8228L93.0244 58.8944L93.002 58.97C92.9994 58.9795 92.7266 59.9402 93.1604 60.7904L93.1979 60.8637L93.1772 60.9436C93.1742 60.9548 92.8924 62.0929 93.6079 62.8762L93.6847 62.9604L93.6593 63.0713C93.6575 63.0795 93.4659 63.9612 94.0028 64.4817C94.0887 64.565 94.0909 64.7022 94.0076 64.7881C93.9648 64.8321 93.9083 64.8541 93.8518 64.8541Z" fill="#042C30"/>
<path d="M91.6153 59.2604C91.5074 59.2604 91.4142 59.1802 91.4004 59.0706C91.3857 58.9519 91.4699 58.8435 91.589 58.8289L92.6753 58.6942C92.7939 58.6787 92.9023 58.7637 92.9169 58.8828C92.9316 59.0015 92.8475 59.1098 92.7283 59.1245L91.6421 59.2592C91.6334 59.26 91.6244 59.2604 91.6153 59.2604Z" fill="#042C30"/>
<path d="M91.7983 61.4771C91.7051 61.4771 91.6188 61.4163 91.5907 61.3222C91.5566 61.2074 91.6218 61.0866 91.7362 61.0525L92.9001 60.7037C93.0145 60.6688 93.1353 60.7344 93.1699 60.8492C93.204 60.964 93.1388 61.0844 93.0244 61.1189L91.8605 61.4676C91.8397 61.4741 91.8186 61.4771 91.7983 61.4771Z" fill="#042C30"/>
<path d="M92.4517 63.5823C92.3585 63.5823 92.2722 63.5214 92.2441 63.4273C92.21 63.3125 92.2752 63.1917 92.3896 63.1576L93.3503 62.8697C93.4651 62.8348 93.5855 62.9008 93.62 63.0152C93.6541 63.13 93.5889 63.2508 93.4745 63.2849L92.5139 63.5728C92.4931 63.5792 92.472 63.5823 92.4517 63.5823Z" fill="#042C30"/>
<path d="M49.6391 54.5996C49.6391 54.5996 51.9364 56.1848 52.5186 55.565C53.1008 54.9457 50.1324 50.5225 46.0855 51.2954C42.0385 52.0684 45.42 60.4768 46.8304 61.2507C48.4194 62.1225 49.4608 61.3961 49.4608 61.3961C49.4608 61.3961 49.5502 62.485 51.5031 61.6106C51.5031 61.6106 53.3442 62.8026 54.3148 61.8842C55.2859 60.9663 49.7314 59.0841 49.6391 54.5996Z" fill="#EFBCA5"/>
<path d="M53.1711 62.4434C52.8336 62.4434 52.4361 62.3826 52.0253 62.1896C51.0918 61.7512 50.3961 60.781 49.9567 59.3063C49.9226 59.1915 49.9878 59.071 50.1026 59.0365C50.2174 59.002 50.3382 59.068 50.3719 59.1824C50.7733 60.5302 51.3891 61.4089 52.2027 61.7943C53.1081 62.2229 53.9631 61.8742 53.9717 61.8707C54.0818 61.8241 54.2086 61.8763 54.2557 61.9859C54.3019 62.096 54.2514 62.2229 54.1413 62.2699C54.1159 62.2803 53.724 62.4434 53.1711 62.4434Z" fill="#042C30"/>
<path d="M50.2532 62.2428C50.1238 62.2428 49.9822 62.2186 49.8372 62.1534C49.2705 61.8984 48.9011 61.1258 48.7392 59.8578C48.7241 59.7392 48.8079 59.6304 48.927 59.6153C49.047 59.5989 49.1544 59.6844 49.1695 59.803C49.3452 61.1785 49.7245 61.6243 50.0115 61.7559C50.3249 61.9001 50.6244 61.7067 50.6373 61.6985C50.7366 61.6329 50.8708 61.6593 50.9373 61.7585C51.0037 61.8574 50.9783 61.9911 50.8799 62.058C50.8648 62.068 50.6024 62.2428 50.2532 62.2428Z" fill="#042C30"/>
<path d="M48.4635 61.9229C48.3366 61.9229 48.1885 61.8987 48.0353 61.8232C47.6124 61.6156 47.315 61.109 47.1528 60.3183C47.1286 60.2009 47.2041 60.0865 47.3215 60.0624C47.438 60.0373 47.5533 60.1137 47.5774 60.2311C47.7086 60.8694 47.9309 61.2842 48.2205 61.4309C48.4531 61.5483 48.662 61.4551 48.6706 61.4508C48.7789 61.4011 48.9071 61.4469 48.9585 61.5543C49.0094 61.6614 48.9658 61.7891 48.8592 61.8413C48.8484 61.8465 48.6887 61.9229 48.4635 61.9229Z" fill="#042C30"/>
<path d="M47.2771 61.6788C47.2533 61.6788 47.2287 61.675 47.205 61.6668C47.145 61.6456 45.7255 61.1277 45.1429 59.3932C45.1049 59.2797 45.1658 59.1567 45.2793 59.1187C45.3928 59.0807 45.5158 59.1416 45.5538 59.2551C46.0665 60.7825 47.3366 61.2533 47.3491 61.2581C47.4613 61.2982 47.5205 61.4221 47.4803 61.5347C47.4492 61.6236 47.366 61.6788 47.2771 61.6788Z" fill="#042C30"/>
<path d="M51.2161 55.6938C51.1747 55.6938 51.1328 55.6821 51.0961 55.6571C51.0849 55.6498 49.9822 54.9195 48.7475 54.5751C48.6322 54.5428 48.5649 54.4232 48.5968 54.308C48.6292 54.1923 48.7496 54.1254 48.8635 54.1574C50.1669 54.5212 51.2895 55.2648 51.3365 55.2963C51.4362 55.3628 51.4625 55.4974 51.3965 55.5967C51.3546 55.6601 51.286 55.6938 51.2161 55.6938Z" fill="#042C30"/>
<path d="M95.5604 17.5492C95.7132 17.5699 95.8702 17.5772 96.0304 17.5677C97.3613 17.4892 98.3769 16.3464 98.2979 15.015C98.2914 14.9088 98.2763 14.8052 98.2569 14.7034C98.9634 14.2463 99.4114 13.4337 99.3583 12.5338C99.3272 12.0103 99.13 11.5369 98.8231 11.1584C99.344 10.6051 99.6466 9.84853 99.5982 9.03025C99.5598 8.37814 99.303 7.79205 98.9068 7.33329C99.0342 6.97939 99.0941 6.59485 99.0708 6.19564C98.9845 4.73604 97.8175 3.59927 96.3942 3.51122C96.2021 2.29935 95.1184 1.40728 93.8677 1.48151C93.7926 1.48582 93.7193 1.49489 93.6467 1.50568C92.9053 0.380549 91.8328 -0.223662 90.816 0.384865C88.826 1.57559 87.7156 0.491896 86.2029 0.657191C81.9553 1.12071 84.7321 5.90907 83.8417 6.44639C79.0861 9.31639 90.7271 17.7572 91.8 18.0101C93.5738 18.4283 94.7589 18.159 95.5604 17.5492Z" fill="#042C30"/>
<path d="M93.9394 20.3746C94.1599 20.0664 94.2915 19.6901 94.2915 19.2822C94.2915 18.5542 93.8768 17.9245 93.2709 17.6125C93.1077 16.0579 92.1578 14.8883 93.2911 12.7115C93.9074 11.5281 93.1569 10.3628 91.8428 9.60365C91.8505 9.52122 91.8553 9.43793 91.8553 9.35334C91.8553 7.94251 90.7806 6.78329 89.4056 6.6482C89.2123 5.05395 87.8567 3.81748 86.2102 3.81748C85.7601 3.81748 85.3315 3.9107 84.9422 4.07729C84.3997 3.66254 83.7243 3.41309 82.9885 3.41309C82.0653 3.41309 81.235 3.80366 80.6476 4.426C80.2018 4.1062 79.6567 3.91544 79.0659 3.91544C78.0504 3.91544 77.1669 4.47304 76.6999 5.29779C76.5843 5.28269 76.4669 5.27233 76.3469 5.27233C74.8455 5.27233 73.628 6.48981 73.628 7.99128C73.628 8.17168 73.6465 8.34776 73.6802 8.51823C73.1424 9.31924 72.9025 10.4172 73.2037 11.9376C72.3104 12.2933 71.6777 13.1642 71.6777 14.1849C71.6777 15.1516 72.246 15.9833 73.0652 16.3708C72.95 16.6345 72.8852 16.925 72.8852 17.231C72.8852 18.4191 73.8485 19.3824 75.0366 19.3824C76.0755 19.3824 76.9425 18.6461 77.1436 17.6668C77.5346 17.4597 77.8605 17.1485 78.0875 16.7705C78.2014 17.0695 78.3179 17.3673 78.4418 17.6625C79.6148 20.457 81.238 23.0624 83.2349 25.3425C83.7929 25.9799 84.9673 26.6191 86.3798 26.2669C86.7113 26.7995 87.3004 27.1547 87.9737 27.1547C89.0112 27.1547 89.8523 26.3135 89.8523 25.276C89.8523 25.2635 89.8506 25.2514 89.8506 25.2389C89.9546 25.2626 90.0625 25.276 90.1738 25.276C90.9774 25.276 91.6287 24.6248 91.6287 23.8212C91.6287 23.5208 91.5376 23.2415 91.3814 23.0094C91.6775 22.9597 94.7128 22.9697 93.9394 20.3746Z" fill="#042C30"/>
<path d="M94.2915 19.4983C94.1716 19.4983 94.0749 19.4012 94.0749 19.2817C94.0749 18.6576 93.7292 18.0914 93.172 17.8048C93.1069 17.7711 93.0633 17.7073 93.0559 17.6348C93.0128 17.2248 92.9135 16.8463 92.8091 16.4458C92.5286 15.3737 92.2385 14.265 93.0995 12.6112C93.8544 11.1619 92.2459 10.0864 91.7353 9.79125C91.6624 9.74895 91.6201 9.66825 91.6278 9.58409C91.6347 9.50813 91.6395 9.43131 91.6395 9.35319C91.6395 8.06018 90.6706 6.98987 89.3854 6.86385C89.2844 6.85392 89.2037 6.77494 89.1911 6.67438C89.009 5.16947 87.7277 4.03441 86.2111 4.03441C85.8015 4.03441 85.4036 4.11598 85.0286 4.27653C84.9569 4.30717 84.8736 4.29725 84.8115 4.24934C84.2815 3.84366 83.6514 3.62959 82.9894 3.62959C82.8694 3.62959 82.7727 3.53249 82.7727 3.41294C82.7727 3.29339 82.8698 3.19629 82.9894 3.19629C83.7058 3.19629 84.3894 3.4151 84.9738 3.83071C85.3687 3.67793 85.7843 3.60068 86.2107 3.60068C87.8895 3.60068 89.3159 4.816 89.5968 6.45385C91.0197 6.67568 92.0728 7.89359 92.0728 9.35319C92.0728 9.39765 92.0715 9.44167 92.0693 9.48526C93.5462 10.3855 94.0883 11.6509 93.4841 12.811C92.7003 14.3164 92.9567 15.2973 93.2281 16.3357C93.3235 16.7 93.4219 17.0759 93.4737 17.4759C94.115 17.8523 94.5082 18.5337 94.5082 19.2817C94.5082 19.4012 94.4111 19.4983 94.2915 19.4983Z" fill="#F4E9E4"/>
<path d="M90.0526 20.3465C89.7073 19.4152 88.6797 18.7885 87.694 18.9072C87.6862 17.7692 87.6059 16.6194 87.268 15.5327C86.3755 12.6623 75.9343 13.2604 75.5584 14.036C75.4544 14.2505 74.0984 23.2886 76.564 27.0546C77.4272 28.373 79.4388 28.6523 81.1012 28.465C80.5738 30.1637 80.0132 31.0954 79.5881 32.3699C83.9513 34.5722 86.3233 32.5844 87.6254 32.473C87.3263 30.4429 87.0281 25.0076 86.729 22.9779C87.4588 23.6511 88.6439 23.4211 89.2028 22.9753C89.9792 22.356 90.3978 21.2775 90.0526 20.3465Z" fill="#EFBCA5"/>
<path d="M80.5954 12.8972C80.5954 12.8972 78.2562 16.0261 75.6292 14.9446C73.0022 13.863 78.1311 9.45877 81.651 9.1886C85.171 8.918 89.2818 13.7638 88.4432 16.6139C87.6046 19.4645 81.2061 14.7858 80.5954 12.8972Z" fill="#042C30"/>
<path d="M88.807 21.4322C88.8442 21.4322 88.8808 21.4175 88.908 21.3882C89.1182 21.1616 89.2101 20.9195 89.1812 20.6683C89.1277 20.2061 88.6771 19.8979 88.6577 19.885C88.5947 19.8422 88.5092 19.8591 88.4665 19.9221C88.4238 19.9851 88.4402 20.0706 88.5032 20.1133C88.5067 20.1159 88.8692 20.3658 88.9072 20.7011C88.9261 20.8685 88.8584 21.0364 88.7056 21.2009C88.6538 21.2565 88.6568 21.3437 88.7129 21.3955C88.7397 21.4201 88.7734 21.4322 88.807 21.4322Z" fill="#042C30"/>
<path d="M79.9998 28.6094C80.9791 28.6094 82.1758 28.3086 83.2841 27.2116C83.3381 27.158 83.3389 27.0709 83.285 27.0165C83.2315 26.9621 83.1439 26.9621 83.0899 27.0156C80.7926 29.29 78.1772 27.9772 78.0672 27.9202C77.9999 27.8857 77.9166 27.9116 77.8816 27.9793C77.8467 28.0471 77.873 28.13 77.9403 28.1649C77.9558 28.1727 78.8203 28.6094 79.9998 28.6094Z" fill="#313844"/>
<path d="M78.5769 21.7997C78.6585 21.7997 78.7439 21.7868 78.8324 21.7574C78.9045 21.7333 78.9437 21.6556 78.9196 21.5831C78.8954 21.511 78.8186 21.4717 78.7452 21.4959C78.4181 21.6047 78.1673 21.3751 78.0659 21.259C78.2886 20.8002 79.3421 18.5465 79.0564 17.5103C79.0361 17.4369 78.9593 17.3942 78.8868 17.414C78.8134 17.4343 78.7702 17.5103 78.7905 17.5836C79.0745 18.6143 77.7936 21.1886 77.7806 21.2141C77.7582 21.259 77.7616 21.3121 77.7897 21.3535C77.9079 21.5274 78.201 21.7997 78.5769 21.7997Z" fill="#042C30"/>
<path d="M80.9803 16.9146C80.9536 16.6669 81.7032 16.3825 82.3247 16.3151C82.9462 16.2482 83.2043 16.4235 83.231 16.6712C83.2578 16.9189 83.0433 17.1455 82.4218 17.2128C81.7999 17.2797 81.0071 17.1623 80.9803 16.9146Z" fill="#042C30"/>
<path d="M78.7892 16.4488C78.816 16.201 78.0663 15.9166 77.4448 15.8493C76.8234 15.7824 76.5653 15.9576 76.5385 16.2054C76.5118 16.4531 76.7263 16.6797 77.3477 16.747C77.9696 16.8143 78.7625 16.6969 78.7892 16.4488Z" fill="#042C30"/>
<g opacity="0.5">
<path d="M81.9562 20.3913C81.9199 20.6663 81.5224 20.8402 81.0688 20.7806C80.6152 20.7206 80.2764 20.4492 80.3131 20.1743C80.3494 19.8993 80.7469 19.725 81.2005 19.7854C81.654 19.845 81.9924 20.1164 81.9562 20.3913Z" fill="#EDA585"/>
</g>
<g opacity="0.5">
<path d="M77.6606 19.5055C77.6244 19.7804 77.2269 19.9543 76.7733 19.8948C76.3193 19.8348 75.9809 19.5633 76.0176 19.2884C76.0539 19.0135 76.4514 18.8395 76.9049 18.8995C77.3585 18.9591 77.6969 19.2306 77.6606 19.5055Z" fill="#EDA585"/>
</g>
<path d="M77.7172 23.4971C78.0901 23.63 78.1695 23.9494 79.3002 23.4971C80.4309 23.0448 80.8457 22.6883 81.0339 23.2813C81.2225 23.8743 78.9985 25.7827 77.7172 24.8406C76.4358 23.898 77.4664 23.4073 77.7172 23.4971Z" fill="#F4E9E4"/>
<path d="M78.5678 25.7828C78.9575 25.7828 79.2981 25.6236 79.5907 25.4867L79.6399 25.4639C79.7089 25.4319 79.7387 25.3499 79.7068 25.2809C79.6748 25.2118 79.5932 25.182 79.5238 25.214L79.4741 25.2373C79.0447 25.438 78.6006 25.646 78.0547 25.3875C77.9852 25.3547 77.9036 25.3845 77.8712 25.4531C77.8389 25.5217 77.8682 25.6041 77.9368 25.6365C78.16 25.7422 78.3702 25.7828 78.5678 25.7828Z" fill="#EDA585"/>
<path d="M74.7509 20.3451C75.1683 20.8005 75.7345 21.0538 76.346 21.0585C76.3521 21.0585 76.3581 21.0585 76.3637 21.0585C77.2882 21.0585 78.1345 20.4854 78.5998 19.6464C78.6938 20.1419 78.9109 20.5972 79.2381 20.9541C79.6809 21.437 80.2816 21.7059 80.9303 21.7111C80.9363 21.7111 80.9432 21.7111 80.9493 21.7111C82.3541 21.7115 83.5923 20.4664 83.7144 18.927C83.7774 18.1303 83.5284 17.3625 83.0308 16.8196C82.588 16.3366 81.9868 16.0678 81.3381 16.0626C81.3321 16.0626 81.3256 16.0626 81.3191 16.0626C80.3157 16.0626 79.3995 16.6996 78.9122 17.6236C78.8173 17.1817 78.6157 16.7773 78.3218 16.4566C77.9049 16.0017 77.3382 15.7484 76.7271 15.7432C75.3905 15.7346 74.2222 16.9072 74.107 18.3616C74.0479 19.1113 74.2822 19.8341 74.7509 20.3451ZM79.1043 18.8907C79.204 17.6322 80.1962 16.6141 81.3196 16.6141C81.3247 16.6141 81.3295 16.6141 81.3342 16.6141C81.8284 16.618 82.2863 16.8235 82.6247 17.1925C83.0191 17.6227 83.2164 18.2395 83.165 18.8838C83.0653 20.1423 82.0731 21.16 80.9497 21.1604C80.945 21.1604 80.9398 21.1604 80.9346 21.1604C80.4409 21.1565 79.9825 20.9511 79.6442 20.5821C79.2501 20.1514 79.0529 19.5351 79.1043 18.8907ZM74.6568 18.4056C74.7492 17.2386 75.6685 16.2948 76.709 16.2948C76.7138 16.2948 76.7181 16.2948 76.7228 16.2948C77.1794 16.2982 77.6028 16.4881 77.9157 16.8291C78.2812 17.2278 78.4634 17.7988 78.4163 18.3961C78.324 19.5631 77.4047 20.507 76.3642 20.507C76.3594 20.507 76.3551 20.507 76.3504 20.507C75.8938 20.5035 75.4704 20.3136 75.1575 19.9723C74.7919 19.5743 74.6094 19.0029 74.6568 18.4056Z" fill="#F47249"/>
<path d="M82.5163 19.3363C82.4887 19.3363 82.4607 19.3307 82.433 19.3195L80.7024 18.6009C80.6208 18.5672 80.5678 18.4865 80.5691 18.3981C80.5699 18.3096 80.6247 18.2306 80.7076 18.1987L81.8811 17.7451C81.992 17.7019 82.118 17.7576 82.1612 17.869C82.2043 17.9807 82.1491 18.1063 82.0373 18.1495L81.3683 18.4084L82.5996 18.9198C82.7101 18.9656 82.7628 19.0925 82.7166 19.203C82.6821 19.2863 82.6014 19.3363 82.5163 19.3363Z" fill="#042C30"/>
<path d="M77.7659 18.1646C77.709 18.1646 77.652 18.1422 77.6093 18.0977C77.2347 17.7058 76.7811 17.9113 76.7617 17.9203C76.6542 17.9708 76.5247 17.9251 76.4734 17.8176C76.422 17.7102 76.4665 17.582 76.5735 17.5298C76.8311 17.4046 77.4453 17.2993 77.9222 17.7982C78.005 17.8845 78.0016 18.0218 77.9153 18.1046C77.8738 18.1448 77.8199 18.1646 77.7659 18.1646Z" fill="#042C30"/>
<path d="M81.651 34.9888C81.9251 36.161 81.8456 38.3103 85.6699 37.473C89.4941 36.6357 87.5667 32.0338 87.5667 32.0338C87.5667 32.0338 82.4922 34.7933 79.7529 31.626C79.7529 31.626 75.4708 35.0441 77.4582 36.3841C79.4456 37.7242 81.651 34.9888 81.651 34.9888Z" fill="#F2D2C4"/>
<path d="M98.6954 79.8711H67.2872V111.279H98.6954V79.8711Z" fill="#EDA67E"/>
<g opacity="0.5">
<path d="M68.9665 107.256V108.999H72.0601V107.256H68.9665ZM71.732 108.725H69.2945V107.531H71.732V108.725Z" fill="#384D54"/>
<path d="M72.4903 107.256V108.999H75.5839V107.256H72.4903ZM75.2559 108.725H72.8183V107.531H75.2559V108.725Z" fill="#384D54"/>
<path d="M77.1307 107.419L77.832 108.634H76.4298L77.1307 107.419ZM77.1307 107.003C76.9818 107.003 76.8445 107.082 76.7703 107.211L76.069 108.425C75.9947 108.554 75.9947 108.713 76.069 108.842C76.1432 108.97 76.2809 109.05 76.4294 109.05H77.8316C77.9804 109.05 78.1177 108.97 78.1919 108.842C78.2662 108.713 78.2662 108.554 78.1919 108.425L77.4906 107.211C77.4168 107.082 77.2796 107.003 77.1307 107.003Z" fill="#384D54"/>
<path d="M77.9986 105.298H68.9665V106.003H77.9986V105.298Z" fill="#384D54"/>
</g>
<path d="M92.5609 83.9255H70.5133C70.3933 83.9255 70.2966 83.8284 70.2966 83.7088C70.2966 83.5893 70.3937 83.4922 70.5133 83.4922H92.5609C92.6809 83.4922 92.7776 83.5893 92.7776 83.7088C92.7776 83.8284 92.6809 83.9255 92.5609 83.9255Z" fill="#042C30"/>
<path d="M84.9595 79.8711H81.0235V87.5463H84.9595V79.8711Z" fill="#F2D2C4"/>
<path d="M84.9595 103.604H81.0235V111.28H84.9595V103.604Z" fill="#F2D2C4"/>
<path d="M97.3264 83.9255H93.6998C93.5799 83.9255 93.4832 83.8284 93.4832 83.7088C93.4832 83.5893 93.5803 83.4922 93.6998 83.4922H97.3264C97.4464 83.4922 97.5431 83.5893 97.5431 83.7088C97.5431 83.8284 97.4459 83.9255 97.3264 83.9255Z" fill="#042C30"/>
<path d="M69.2462 72.2236H30.19V111.28H69.2462V72.2236Z" fill="#EDA585"/>
<g opacity="0.5">
<path d="M32.2784 106.276V108.444H36.1251V106.276H32.2784ZM35.7172 108.104H32.6862V106.619H35.7172V108.104Z" fill="#384D54"/>
<path d="M36.6602 106.276V108.444H40.5069V106.276H36.6602ZM40.099 108.104H37.0681V106.619H40.099V108.104Z" fill="#384D54"/>
<path d="M42.4304 106.479L43.3022 107.989H41.5582L42.4304 106.479ZM42.4304 105.962C42.2453 105.962 42.0748 106.061 41.982 106.221L41.1102 107.731C41.0179 107.891 41.0179 108.088 41.1102 108.248C41.2026 108.409 41.3735 108.507 41.5586 108.507H43.3026C43.4878 108.507 43.6583 108.409 43.7511 108.248C43.8434 108.088 43.8434 107.891 43.7511 107.731L42.8793 106.221C42.786 106.06 42.6151 105.962 42.4304 105.962Z" fill="#384D54"/>
<path d="M43.5098 103.842H32.2784V104.718H43.5098V103.842Z" fill="#384D54"/>
</g>
<path d="M61.6176 77.1955H34.2015C34.091 77.1955 34.0017 77.1062 34.0017 76.9957C34.0017 76.8852 34.091 76.7959 34.2015 76.7959H61.6176C61.728 76.7959 61.8174 76.8852 61.8174 76.9957C61.8174 77.1062 61.728 77.1955 61.6176 77.1955Z" fill="#042C30"/>
<g opacity="0.5">
<path d="M52.1656 72.2236H47.271V81.7676H52.1656V72.2236Z" fill="#F2D2C4"/>
</g>
<g opacity="0.5">
<path d="M52.1656 101.736H47.271V111.28H52.1656V101.736Z" fill="#F2D2C4"/>
</g>
<path d="M67.5436 77.1955H63.0336C62.9231 77.1955 62.8338 77.1062 62.8338 76.9957C62.8338 76.8852 62.9231 76.7959 63.0336 76.7959H67.5431C67.6536 76.7959 67.743 76.8852 67.743 76.9957C67.7434 77.1062 67.6541 77.1955 67.5436 77.1955Z" fill="#042C30"/>
<path d="M117.604 91.4521C118.824 88.5859 117.532 75.9648 117.532 75.9648L115.245 76.3015C113.627 80.5284 114.269 87.6041 114.796 91.4516H117.604V91.4521Z" fill="#EDA67E"/>
<path d="M116.162 91.4522C116.691 86.448 115.272 76.4816 115.246 76.302C115.212 76.0733 98.7122 76.1661 98.7122 76.1661C98.7122 76.1661 96.7382 87.1778 97.5029 91.4522H116.162Z" fill="#F1C2A7"/>
<path d="M116.245 90.5761C116.238 90.5761 116.23 90.5756 116.223 90.5748C116.104 90.5622 116.017 90.4561 116.029 90.337C116.237 88.3392 115.879 84.0294 115.542 80.7658C115.53 80.6467 115.616 80.5401 115.735 80.528C115.856 80.5129 115.96 80.6023 115.973 80.7214C116.312 84.0053 116.672 88.3474 116.46 90.3818C116.449 90.4932 116.355 90.5761 116.245 90.5761Z" fill="#042C30"/>
<path d="M115.597 79.4628C115.488 79.4628 115.394 79.3808 115.382 79.2699C115.243 78.0175 115.123 77.0512 115.075 76.6654L105.944 76.3641C105.824 76.3602 105.731 76.2601 105.734 76.1401C105.738 76.0201 105.841 75.9265 105.958 75.9308L115.274 76.2381C115.38 76.2415 115.468 76.3214 115.482 76.4271C115.483 76.4383 115.631 77.5876 115.813 79.222C115.826 79.3411 115.74 79.4482 115.621 79.4616C115.613 79.4624 115.605 79.4628 115.597 79.4628Z" fill="#042C30"/>
<path d="M116.154 78.5932C116.063 78.5932 115.978 78.5353 115.949 78.4438C115.911 78.3299 115.973 78.2078 116.087 78.1702L117.536 77.6955C117.651 77.6579 117.773 77.7205 117.81 77.834C117.847 77.948 117.785 78.0701 117.671 78.1076L116.222 78.5824C116.2 78.5897 116.177 78.5932 116.154 78.5932Z" fill="#042C30"/>
<path d="M105.956 84.2234C104.517 84.2234 103.337 83.8078 102.442 82.9847C100.83 81.501 100.737 79.246 100.734 79.151C100.732 79.0923 100.754 79.0358 100.795 78.9939C100.835 78.9521 100.891 78.9279 100.949 78.9279L112.516 78.8994H112.517C112.582 78.8994 112.643 78.9283 112.684 78.9788C112.725 79.0293 112.742 79.0958 112.729 79.1592C112.719 79.2071 111.674 83.9463 106.349 84.2135C106.216 84.2199 106.085 84.2234 105.956 84.2234ZM101.185 79.3595C101.252 79.9473 101.539 81.5687 102.738 82.6693C103.624 83.4828 104.829 83.8578 106.328 83.7819C110.61 83.5669 111.937 80.2904 112.234 79.3323L101.185 79.3595Z" fill="#EDA67E"/>
<path d="M106.992 82.6957C106.986 82.6957 106.98 82.6957 106.973 82.6949L104.517 82.4856C104.398 82.4752 104.309 82.3703 104.319 82.2512C104.329 82.1317 104.43 82.0432 104.554 82.0536L107.01 82.2629C107.129 82.2732 107.218 82.3781 107.208 82.4972C107.198 82.6103 107.103 82.6957 106.992 82.6957Z" fill="#042C30"/>
<path d="M97.9224 89.7749C97.9224 89.7749 103.964 84.6676 105.996 86.3698C108.027 88.0724 101.877 89.7564 99.0756 89.8664C99.0756 89.8664 103.706 88.6019 103.497 87.6606C103.387 87.1665 98.8926 89.8664 98.8926 89.8664L97.9224 89.7749Z" fill="#EDA585"/>
<path d="M98.8486 89.7749C98.8486 89.7749 92.8073 84.6676 90.7755 86.3698C88.7436 88.0724 94.8945 89.7564 97.6954 89.8664C97.6954 89.8664 93.0654 88.6019 93.2743 87.6606C93.3839 87.1665 97.8784 89.8664 97.8784 89.8664L98.8486 89.7749Z" fill="#F2D2C4"/>
<path d="M99.2983 90.4332C99.2638 90.4332 99.2297 90.4163 99.2085 90.3857C98.3902 89.1764 94.0701 86.7527 94.0261 86.7285C93.9739 86.6991 93.9553 86.6331 93.9843 86.5809C94.0136 86.5287 94.0796 86.5101 94.1319 86.539C94.3114 86.6396 98.5409 89.0124 99.3876 90.264C99.4213 90.3136 99.4083 90.3809 99.3587 90.4146C99.3406 90.4271 99.3194 90.4332 99.2983 90.4332Z" fill="#042C30"/>
<path d="M85.8089 92.0459V108.072C85.8089 109.533 86.9935 110.718 88.4553 110.718H108.315C109.777 110.718 110.962 109.533 110.962 108.072V92.0459H85.8089Z" fill="#EFBCA5"/>
<path d="M110.118 89.7754H86.6522C85.9034 89.7754 85.2961 90.3826 85.2961 91.1314V94.9013H111.474V91.1314C111.474 90.3826 110.868 89.7754 110.118 89.7754Z" fill="#F2D2C4"/>
<path d="M101.221 89.8662H96.1862V94.9006H101.221V89.8662Z" fill="#EDA585"/>
<path d="M100.909 95.1387H96.4973V110.9H100.909V95.1387Z" fill="#F2D2C4"/>
<path d="M110.136 95.1179H87.3992C87.2792 95.1179 87.1826 95.0208 87.1826 94.9012C87.1826 94.7817 87.2797 94.6846 87.3992 94.6846H110.136C110.256 94.6846 110.352 94.7817 110.352 94.9012C110.352 95.0208 110.255 95.1179 110.136 95.1179Z" fill="#042C30"/>
<path d="M108.068 110.935H105.742C105.622 110.935 105.526 110.838 105.526 110.718C105.526 110.598 105.623 110.501 105.742 110.501H108.068C108.884 110.501 109.646 110.136 110.157 109.499C110.542 109.019 110.745 108.44 110.745 107.824V101.382C110.745 101.262 110.843 101.165 110.962 101.165C111.082 101.165 111.179 101.262 111.179 101.382V107.824C111.179 108.53 110.936 109.221 110.495 109.77C109.901 110.51 109.016 110.935 108.068 110.935Z" fill="#042C30"/>
<path d="M39.601 79.643C39.601 79.643 48.5394 72.0861 51.5462 74.6048C54.5526 77.1239 45.4519 79.6159 41.3074 79.7781C41.3074 79.7781 48.1583 77.9068 47.8489 76.5141C47.6866 75.7826 41.0368 79.7781 41.0368 79.7781L39.601 79.643Z" fill="#F2D2C4"/>
<path d="M40.9708 79.643C40.9708 79.643 32.0324 72.0861 29.0256 74.6048C26.0188 77.1239 35.1199 79.6159 39.2644 79.7781C39.2644 79.7781 32.4135 77.9068 32.7229 76.5141C32.8856 75.7826 39.535 79.7781 39.535 79.7781L40.9708 79.643Z" fill="#F2D2C4"/>
<path d="M41.6363 80.5638C41.6018 80.5638 41.5677 80.547 41.5465 80.5164C40.3291 78.7167 33.9257 75.1251 33.861 75.0888C33.8088 75.0595 33.7902 74.9935 33.8191 74.9412C33.8485 74.889 33.9145 74.8705 33.9667 74.8994C34.2321 75.0478 40.4797 78.5527 41.7257 80.3947C41.7593 80.4443 41.7464 80.5116 41.6967 80.5453C41.6786 80.5578 41.6575 80.5638 41.6363 80.5638Z" fill="#042C30"/>
<path d="M21.6775 83.001V106.713C21.6775 108.876 23.4306 110.629 25.5932 110.629H54.9781C57.1408 110.629 58.8943 108.876 58.8943 106.713V83.001H21.6775Z" fill="#F2D2C4"/>
<path d="M57.6462 79.6426H22.9256C21.8178 79.6426 20.9192 80.5407 20.9192 81.649V87.2267H59.6526V81.649C59.6526 80.5407 58.7545 79.6426 57.6462 79.6426Z" fill="#EFBCA5"/>
<path d="M44.4804 79.7783H37.0318V87.2269H44.4804V79.7783Z" fill="#F4E9E4"/>
<path d="M44.0199 87.5791H37.4923V110.9H44.0199V87.5791Z" fill="#F4E9E4"/>
<path d="M57.6712 87.444H24.0301C23.9101 87.444 23.8134 87.3469 23.8134 87.2274C23.8134 87.1078 23.9105 87.0107 24.0301 87.0107H57.6712C57.7912 87.0107 57.8879 87.1078 57.8879 87.2274C57.8879 87.3469 57.7912 87.444 57.6712 87.444Z" fill="#042C30"/>
<path d="M54.6126 110.846H51.1708C51.0508 110.846 50.9541 110.749 50.9541 110.63C50.9541 110.51 51.0512 110.413 51.1708 110.413H54.6126C55.8517 110.413 57.0079 109.858 57.7843 108.891C58.3686 108.163 58.6776 107.284 58.6776 106.349V96.8163C58.6776 96.6967 58.7747 96.5996 58.8943 96.5996C59.0143 96.5996 59.1109 96.6967 59.1109 96.8163V106.349C59.1109 107.369 58.7596 108.368 58.1222 109.162C57.2629 110.233 55.9837 110.846 54.6126 110.846Z" fill="#042C30"/>
<path d="M46.0596 89.8887C45.89 89.8887 45.7385 89.8515 45.6055 89.7717C45.2309 89.5473 45.0933 89.0475 45.1856 88.2435C45.3932 86.4326 45.9655 85.1473 46.886 84.4236C47.7673 83.7309 48.6417 83.8314 48.6784 83.8353C48.8471 83.8565 48.9671 84.0106 48.946 84.1793C48.9253 84.3476 48.772 84.4654 48.6037 84.4473C48.5023 84.4365 46.2646 84.244 45.7976 88.3134C45.7126 89.0557 45.8714 89.2124 45.9219 89.243C46.3453 89.4968 47.9745 88.3695 49.283 87.4636C51.4906 85.935 53.9942 84.2004 55.9298 84.4585C56.0985 84.481 56.2172 84.6355 56.1948 84.8042C56.1723 84.9734 56.0157 85.0925 55.8491 85.0692C54.1491 84.8469 51.6446 86.5776 49.6335 87.9703C48.0694 89.0536 46.8632 89.8887 46.0596 89.8887Z" fill="#042C30"/>
<path d="M47.2857 82.0809L61.4367 79.1255L65.9584 78.6758L50.5808 82.0809H47.2857Z" fill="#384D54"/>
<path d="M50.5808 82.0809L55.304 107.344L73.3172 102.511L65.9584 78.6758L50.5808 82.0809Z" fill="#F0CEBB"/>
<path d="M50.5808 82.0811H47.2857L50.0318 106.355L52.0089 105.367L55.304 107.344L50.5808 82.0811Z" fill="#F2B694"/>
<path d="M57.6104 83.5003C57.6104 83.8542 57.3234 84.1412 56.9695 84.1412C56.6156 84.1412 56.3286 83.8542 56.3286 83.5003C56.3286 83.1464 56.6156 82.8594 56.9695 82.8594C57.3238 82.8594 57.6104 83.1464 57.6104 83.5003Z" fill="#F76B2F"/>
<path d="M62.7181 82.219C62.7181 82.5729 62.4311 82.8599 62.0772 82.8599C61.7233 82.8599 61.4363 82.5729 61.4363 82.219C61.4363 81.8651 61.7233 81.5781 62.0772 81.5781C62.4311 81.5786 62.7181 81.8651 62.7181 82.219Z" fill="#F76B2F"/>
<path d="M56.9699 83.8086C56.8426 83.8086 56.723 83.7288 56.679 83.6015C56.6229 83.4409 56.7079 83.2653 56.8689 83.2092C57.8106 82.8812 57.8425 80.6413 57.8771 78.2697C57.9207 75.2202 57.9707 71.7633 59.8744 70.2778C61 69.3999 61.8817 69.5514 62.4233 69.8324C64.3836 70.8505 65.2342 75.2543 65.0948 78.0414C64.9014 81.9127 61.858 82.381 61.8273 82.3848C61.6599 82.409 61.5032 82.2908 61.4799 82.122C61.4566 81.9541 61.5735 81.7983 61.7414 81.7746C61.8467 81.7591 64.3123 81.3581 64.4798 78.0104C64.6106 75.3993 63.7832 71.2324 62.1398 70.3787C61.577 70.0866 60.9603 70.2117 60.2542 70.7629C58.5831 72.0667 58.5357 75.3665 58.4938 78.2775C58.455 80.9835 58.4213 83.3201 57.0722 83.7901C57.0376 83.803 57.0036 83.8086 56.9699 83.8086Z" fill="#042C30"/>
<path d="M53.6562 86.8583L56.9699 96.3698L65.9584 84.6719L53.6562 86.8583Z" fill="#F2B694"/>
<path d="M128.689 89.5745C128.857 89.5542 129.003 89.499 129.126 89.4036C129.47 89.1356 129.546 88.6229 129.358 87.8357C128.933 86.0632 128.209 84.8565 127.208 84.2493C126.25 83.6679 125.394 83.8734 125.357 83.882C125.193 83.9234 125.092 84.0909 125.133 84.2558C125.174 84.4202 125.341 84.5186 125.505 84.4802C125.605 84.4569 127.803 83.9955 128.758 87.979C128.933 88.7053 128.794 88.8805 128.747 88.9168C128.357 89.2198 126.604 88.2975 125.196 87.5565C122.819 86.3057 120.125 84.8863 118.234 85.3766C118.069 85.4193 117.971 85.5872 118.013 85.752C118.056 85.9169 118.225 86.0166 118.388 85.9734C120.049 85.5475 122.744 86.9626 124.909 88.102C126.593 88.9884 127.891 89.6716 128.689 89.5745Z" fill="#042C30"/>
<path d="M126.528 81.9725L112.124 80.749L107.581 80.8492L123.257 82.3709L126.528 81.9725Z" fill="#384D54"/>
<path d="M123.257 82.3704L121.621 108.019L103.156 105.398L107.581 80.8486L123.257 82.3704Z" fill="#EDA585"/>
<path d="M123.257 82.371L126.528 81.9727L126.735 106.401L124.654 105.659L121.621 108.019L123.257 82.371Z" fill="#F2D2C4"/>
<path d="M116.451 84.6293C116.493 84.9806 116.813 85.2305 117.164 85.1878C117.515 85.145 117.765 84.8257 117.722 84.4743C117.68 84.123 117.36 83.8732 117.009 83.9159C116.658 83.9586 116.408 84.278 116.451 84.6293Z" fill="#F76B2F"/>
<path d="M111.226 83.975C111.269 84.3263 111.588 84.5762 111.939 84.5335C112.291 84.4907 112.54 84.1714 112.498 83.8201C112.455 83.4687 112.136 83.2189 111.784 83.2616C111.433 83.3039 111.183 83.6237 111.226 83.975Z" fill="#F76B2F"/>
<path d="M117.124 84.8583C117.25 84.8427 117.359 84.7491 117.388 84.6174C117.424 84.4513 117.318 84.2873 117.152 84.251C116.177 84.0391 115.875 81.8199 115.555 79.47C115.142 76.4481 114.675 73.0226 112.606 71.778C111.383 71.0426 110.525 71.2993 110.022 71.6442C108.199 72.8919 107.887 77.366 108.362 80.1161C109.022 83.9355 112.099 84.0326 112.13 84.0331C112.3 84.037 112.441 83.9006 112.444 83.7301C112.447 83.5605 112.312 83.4202 112.142 83.4168C112.035 83.4142 109.54 83.3141 108.969 80.0112C108.524 77.4351 108.841 73.1987 110.37 72.153C110.893 71.7948 111.521 71.8449 112.288 72.3066C114.105 73.399 114.551 76.6686 114.944 79.5537C115.309 82.2351 115.625 84.551 117.022 84.8539C117.056 84.8608 117.091 84.8621 117.124 84.8583Z" fill="#042C30"/>
<path d="M120.781 87.4844L118.642 97.3266L108.306 86.8008L120.781 87.4844Z" fill="#EFBCA5"/>
<path d="M94.4586 68.6228C91.5601 68.6228 89.3612 66.6466 89.3323 66.6203C89.2438 66.5396 89.2382 66.4024 89.3189 66.3143C89.3996 66.2263 89.5368 66.2202 89.6249 66.3009C89.6607 66.3337 93.248 69.5481 97.1835 67.515C97.2897 67.4597 97.4205 67.5016 97.4757 67.6082C97.5305 67.7144 97.4887 67.8451 97.3825 67.9004C96.3692 68.4239 95.3783 68.6228 94.4586 68.6228Z" fill="#042C30"/>
<path d="M70.8831 66.6224C66.6524 66.6224 65.6804 64.8322 65.6312 64.736C65.5769 64.6294 65.6196 64.4986 65.7262 64.4446C65.8319 64.3903 65.9623 64.4326 66.0166 64.5383C66.0378 64.5771 67.5492 67.2136 74.9952 65.7351C82.6268 64.2198 84.6781 63.8124 85.9906 65.8296C86.0562 65.9297 86.0277 66.0644 85.9271 66.1295C85.8261 66.1951 85.6923 66.1662 85.6272 66.0661C84.5133 64.3549 82.8336 64.6212 75.0794 66.1606C73.4118 66.4912 72.0277 66.6224 70.8831 66.6224Z" fill="#042C30"/>
<path d="M90.2969 71.3822C90.2282 71.3822 90.1609 71.3499 90.1186 71.289C88.7583 69.3292 86.4959 69.4384 76.0332 70.2761C65.5928 71.1125 63.7888 67.9654 63.7172 67.8308C63.6607 67.725 63.7008 67.5938 63.8061 67.5373C63.9105 67.4812 64.0417 67.5205 64.0987 67.6249C64.1237 67.6694 65.9325 70.6498 75.9982 69.8437C86.6664 68.9891 88.9766 68.8834 90.4742 71.0413C90.5424 71.1397 90.5182 71.2748 90.4198 71.343C90.3827 71.3697 90.3396 71.3822 90.2969 71.3822Z" fill="#042C30"/>
<path d="M121.102 68.7274C120.179 68.7274 119.429 67.9769 119.429 67.0546C119.429 66.1324 120.179 65.3818 121.102 65.3818C122.024 65.3818 122.774 66.1324 122.774 67.0546C122.774 67.9769 122.024 68.7274 121.102 68.7274ZM121.102 65.8156C120.418 65.8156 119.863 66.3714 119.863 67.0546C119.863 67.7378 120.418 68.2937 121.102 68.2937C121.785 68.2937 122.341 67.7378 122.341 67.0546C122.341 66.3714 121.785 65.8156 121.102 65.8156Z" fill="#EDA67E"/>
<path d="M11.0473 91.4531C11.0473 92.147 10.4845 92.7098 9.79054 92.7098C9.09656 92.7098 8.53378 92.147 8.53378 91.4531C8.53378 90.7591 9.09656 90.1963 9.79054 90.1963C10.4845 90.1963 11.0473 90.7586 11.0473 91.4531Z" fill="#EDA67E"/>
<path d="M125.385 79.246C125.385 79.94 124.822 80.5028 124.128 80.5028C123.434 80.5028 122.872 79.94 122.872 79.246C122.872 78.552 123.434 77.9893 124.128 77.9893C124.822 77.9893 125.385 78.552 125.385 79.246Z" fill="#EDA67E"/>
<path d="M39.4338 42.5145C40.5934 41.0053 40.31 38.8418 38.8007 37.6822C37.2915 36.5226 35.128 36.806 33.9684 38.3152C32.8088 39.8244 33.0922 41.9879 34.6014 43.1475C36.1106 44.3071 38.2742 44.0237 39.4338 42.5145Z" fill="#F2B694"/>
<path d="M35.7617 43.8063C35.7552 43.8063 35.7487 43.8055 35.7422 43.8037C35.255 43.6661 34.7932 43.4179 34.4074 43.086C34.378 43.0606 34.3746 43.0161 34.4 42.9863C34.4255 42.957 34.4699 42.9535 34.4997 42.979C34.87 43.2975 35.3132 43.5357 35.7806 43.6678C35.8182 43.6786 35.8402 43.7174 35.8294 43.755C35.8208 43.786 35.7927 43.8063 35.7617 43.8063Z" fill="#F09664"/>
<path d="M36.6999 43.9357C36.6611 43.9357 36.6291 43.9042 36.6291 43.8649C36.6291 43.8261 36.6606 43.7942 36.6999 43.7942C38.5613 43.7942 40.0757 42.2797 40.0757 40.4183C40.0757 39.9868 39.9954 39.5668 39.837 39.1694C39.8224 39.1331 39.8401 39.0921 39.8763 39.0774C39.9126 39.0628 39.9536 39.0805 39.9682 39.1167C40.1331 39.5306 40.2168 39.9682 40.2168 40.4179C40.2168 42.3579 38.6394 43.9357 36.6999 43.9357Z" fill="#F09664"/>
<path d="M36.1609 43.2274C36.1544 43.2274 36.1479 43.2266 36.1414 43.2248C35.7781 43.1221 35.4337 42.937 35.1458 42.6897C35.116 42.6642 35.113 42.6198 35.1385 42.59C35.1639 42.5602 35.2084 42.5572 35.2382 42.5827C35.5105 42.817 35.8363 42.9918 36.1799 43.0889C36.2174 43.0997 36.2394 43.1385 36.2286 43.1761C36.22 43.2072 36.1915 43.2274 36.1609 43.2274Z" fill="#EFD0CE"/>
<path d="M36.8557 43.3234C36.8169 43.3234 36.7849 43.2919 36.7849 43.2527C36.7849 43.2138 36.8164 43.1819 36.8557 43.1819C38.2242 43.1819 39.3377 42.0684 39.3377 40.6999C39.3377 40.3827 39.2786 40.0737 39.1625 39.7815C39.1483 39.7452 39.1655 39.7042 39.2022 39.6896C39.2385 39.6753 39.2795 39.6926 39.2941 39.7288C39.4171 40.0374 39.4793 40.3641 39.4793 40.6994C39.4788 42.1465 38.3019 43.3234 36.8557 43.3234Z" fill="#EFD0CE"/>
<path d="M34.2214 41.3384C34.1933 41.3384 34.1666 41.3216 34.1558 41.294C34.0328 40.9854 33.9702 40.6587 33.9702 40.3233C33.9702 38.8771 35.1471 37.7002 36.5933 37.7002C36.6322 37.7002 36.6641 37.7317 36.6641 37.771C36.6641 37.8098 36.6326 37.8418 36.5933 37.8418C35.2248 37.8418 34.1113 38.9552 34.1113 40.3238C34.1113 40.641 34.1704 40.95 34.2865 41.2422C34.3008 41.2784 34.2835 41.3194 34.2468 41.3341C34.2391 41.3367 34.23 41.3384 34.2214 41.3384Z" fill="#EFD0CE"/>
<path d="M36.6909 41.8162V41.7907C36.6865 41.7717 36.6848 41.7363 36.6848 41.6854L36.6788 41.5801L36.5683 41.5831C36.4207 41.5831 36.2938 41.5693 36.1872 41.5417C36.1216 41.5227 36.0888 41.5002 36.0888 41.4748C36.0888 41.4493 36.1 41.4286 36.1225 41.4126C36.1449 41.3967 36.1786 41.3889 36.2239 41.3889C36.2688 41.3889 36.3305 41.3975 36.4082 41.4144C36.4858 41.4312 36.5394 41.4398 36.5679 41.4398C36.5925 41.4398 36.6252 41.4377 36.6662 41.4333L36.611 40.505L36.5989 40.3074C36.3408 40.1244 36.1635 39.9845 36.0672 39.8879C35.971 39.7912 35.9226 39.6863 35.9226 39.5737C35.9226 39.4843 35.977 39.3976 36.0853 39.3139C36.1937 39.2297 36.3426 39.1654 36.5312 39.1209L36.5251 39.0092C36.5251 38.9518 36.5519 38.9229 36.605 38.9229C36.6417 38.9229 36.6736 38.9345 36.7003 38.9578C36.7271 38.9811 36.7405 39.01 36.7405 39.0441V39.0856C36.8799 39.0687 37.0046 39.0601 37.1155 39.0601C37.1893 39.0601 37.261 39.0713 37.3304 39.0938C37.3999 39.1162 37.4491 39.1442 37.4781 39.1783L37.3736 39.2452C37.3162 39.2452 37.2446 39.2409 37.1587 39.2323C37.0521 39.2258 36.9744 39.2228 36.9252 39.2228C36.8678 39.2228 36.8104 39.2258 36.753 39.2323L36.8389 40.234C36.9373 40.3 37.0163 40.3557 37.0754 40.4014C37.1345 40.4472 37.1993 40.502 37.2692 40.5659C37.4004 40.6958 37.466 40.8339 37.466 40.9806C37.466 41.0954 37.4228 41.2037 37.3369 41.306C37.251 41.4079 37.1298 41.4825 36.9744 41.5292V41.7717C36.9744 41.8675 36.9148 41.9154 36.7962 41.9154C36.7258 41.915 36.6909 41.8822 36.6909 41.8162ZM36.5804 39.9371C36.5683 39.7946 36.5558 39.5754 36.5437 39.2798C36.441 39.3139 36.3611 39.3562 36.3042 39.4075C36.2468 39.4584 36.2183 39.5076 36.2183 39.5543C36.2183 39.6371 36.2489 39.7178 36.3106 39.7968C36.3719 39.8753 36.4643 39.9608 36.5873 40.0519L36.5804 39.9371ZM37.1151 41.1623C37.16 41.092 37.1829 41.0303 37.1829 40.9772C37.1829 40.8326 37.0763 40.6751 36.8631 40.505L36.9368 41.3375C37.0106 41.2909 37.0698 41.2322 37.1151 41.1623Z" fill="#EDA67E"/>
<path d="M110.186 50.9856C109.757 52.0015 108.194 52.4067 106.697 51.891C105.2 51.3753 104.334 50.1336 104.764 49.1177C105.194 48.1017 106.756 47.6965 108.253 48.2122C109.75 48.728 110.616 49.9696 110.186 50.9856Z" fill="#EDA67E"/>
<path d="M110.288 50.6135C109.859 51.6294 108.297 52.0347 106.8 51.5189C105.302 51.0032 104.437 49.7615 104.867 48.7456C105.296 47.7297 106.858 47.3244 108.355 47.8402C109.853 48.3559 110.718 49.5975 110.288 50.6135Z" fill="#F2B694"/>
<path d="M106.075 51.2337C106.069 51.232 106.065 51.2299 106.06 51.2273C105.708 51.0218 105.4 50.7642 105.172 50.4824C105.154 50.4608 105.162 50.4362 105.188 50.4271C105.215 50.418 105.251 50.4284 105.268 50.45C105.488 50.7202 105.782 50.9675 106.121 51.1647C106.148 51.1807 106.156 51.2074 106.139 51.2242C106.125 51.2389 106.099 51.2424 106.075 51.2337Z" fill="#F09664"/>
<path d="M106.783 51.5573C106.753 51.5469 106.735 51.5215 106.743 51.5003C106.752 51.4796 106.784 51.471 106.815 51.4818C108.279 51.9863 109.812 51.5884 110.233 50.5949C110.33 50.3644 110.362 50.1184 110.327 49.8638C110.324 49.8405 110.347 49.8232 110.379 49.8254C110.411 49.8275 110.439 49.8478 110.442 49.8711C110.478 50.1365 110.446 50.3929 110.344 50.6329C109.906 51.6682 108.309 52.0825 106.783 51.5573Z" fill="#F09664"/>
<path d="M106.519 51.0326C106.514 51.0308 106.509 51.0287 106.504 51.0261C106.242 50.8729 106.012 50.6808 105.842 50.4706C105.824 50.4491 105.832 50.4245 105.858 50.4154C105.885 50.4063 105.921 50.4167 105.938 50.4383C106.1 50.6372 106.316 50.8189 106.565 50.9639C106.592 50.9799 106.6 51.0067 106.583 51.0235C106.57 51.0377 106.543 51.0408 106.519 51.0326Z" fill="#EFD0CE"/>
<path d="M107.044 51.2727C107.013 51.2619 106.996 51.2369 107.004 51.2158C107.013 51.195 107.045 51.1869 107.076 51.1972C108.153 51.5679 109.279 51.2753 109.588 50.5451C109.66 50.3759 109.683 50.1951 109.658 50.0073C109.655 49.984 109.678 49.9668 109.71 49.9689C109.742 49.9711 109.77 49.9918 109.773 50.0147C109.8 50.2128 109.776 50.404 109.7 50.5831C109.373 51.3552 108.182 51.6646 107.044 51.2727Z" fill="#EFD0CE"/>
<path d="M105.42 49.4993C105.398 49.4915 105.381 49.4755 105.378 49.4578C105.351 49.2597 105.376 49.0685 105.452 48.8894C105.778 48.1173 106.97 47.8083 108.107 48.2002C108.138 48.211 108.156 48.236 108.147 48.2572C108.138 48.2779 108.106 48.2861 108.075 48.2757C106.999 47.905 105.872 48.1976 105.563 48.9278C105.491 49.097 105.468 49.2779 105.493 49.4656C105.496 49.4889 105.473 49.5062 105.441 49.504C105.434 49.5031 105.426 49.5018 105.42 49.4993Z" fill="#EFD0CE"/>
<path d="M107.254 50.4231L107.26 50.4093C107.261 50.3981 107.267 50.3786 107.279 50.3514L107.298 50.2936L107.21 50.2651C107.094 50.225 106.998 50.1831 106.92 50.1395C106.873 50.1115 106.852 50.0908 106.858 50.077C106.863 50.0631 106.877 50.0554 106.898 50.0528C106.92 50.0502 106.948 50.0554 106.983 50.0675C107.019 50.0796 107.065 50.1007 107.123 50.1309C107.18 50.1611 107.22 50.1801 107.243 50.1879C107.262 50.1944 107.289 50.2021 107.322 50.2112L107.488 49.7006L107.523 49.5919C107.361 49.4244 107.253 49.3018 107.199 49.2237C107.145 49.146 107.131 49.077 107.156 49.017C107.177 48.9691 107.239 48.9376 107.343 48.9225C107.448 48.9069 107.579 48.913 107.737 48.9402L107.758 48.8789C107.771 48.8483 107.798 48.8401 107.84 48.8547C107.869 48.8647 107.891 48.8798 107.907 48.8992C107.923 48.919 107.927 48.938 107.919 48.9562L107.91 48.9782C108.023 49.0066 108.123 49.036 108.21 49.0662C108.268 49.0861 108.322 49.1115 108.372 49.1422C108.422 49.1728 108.454 49.2013 108.469 49.2272L108.372 49.2345C108.326 49.219 108.271 49.1974 108.206 49.1693C108.123 49.137 108.063 49.1141 108.024 49.1007C107.979 49.0852 107.933 49.0714 107.886 49.0593L107.728 49.6173C107.79 49.679 107.84 49.7304 107.876 49.771C107.913 49.8115 107.951 49.8582 107.992 49.9112C108.065 50.0161 108.086 50.1076 108.053 50.1857C108.027 50.247 107.969 50.2932 107.878 50.3243C107.787 50.3553 107.675 50.3622 107.542 50.345L107.488 50.4744C107.466 50.5254 107.409 50.5349 107.315 50.5029C107.26 50.4852 107.24 50.458 107.254 50.4231ZM107.592 49.3903C107.614 49.3109 107.654 49.1905 107.711 49.0295C107.622 49.02 107.55 49.0209 107.493 49.0325C107.437 49.0442 107.403 49.0628 107.392 49.0874C107.374 49.1318 107.379 49.1832 107.41 49.2419C107.44 49.3006 107.494 49.3709 107.57 49.4529L107.592 49.3903ZM107.736 50.1887C107.787 50.1633 107.819 50.1365 107.831 50.1085C107.863 50.0312 107.815 49.9186 107.686 49.7701L107.556 50.2345C107.625 50.2293 107.684 50.2142 107.736 50.1887Z" fill="#EDA67E"/>
<path d="M21.9753 70.1547C21.9196 70.1547 21.8644 70.1336 21.8221 70.0913C21.7375 70.0067 21.7375 69.8695 21.8221 69.7849L24.1431 67.4638C24.2277 67.3792 24.365 67.3792 24.4495 67.4638C24.5341 67.5484 24.5341 67.6857 24.4495 67.7703L22.1285 70.0913C22.0862 70.1336 22.0305 70.1547 21.9753 70.1547Z" fill="#EDA67E"/>
<path d="M24.2959 70.1547C24.2402 70.1547 24.185 70.1336 24.1427 70.0913L21.8217 67.7703C21.7371 67.6857 21.7371 67.5484 21.8217 67.4638C21.9063 67.3792 22.0435 67.3792 22.1281 67.4638L24.4491 69.7849C24.5337 69.8695 24.5337 70.0067 24.4491 70.0913C24.4068 70.1336 24.3516 70.1547 24.2959 70.1547Z" fill="#EDA67E"/>
</svg>
