<svg width="19" height="19" viewBox="0 0 19 19" fill="none" xmlns="http://www.w3.org/2000/svg">
<g clip-path="url(#clip0_7_2338)">
<path d="M0.475938 9.38628C0.475496 10.9827 0.892613 12.5414 1.68575 13.9153L0.400085 18.6095L5.20399 17.3499C6.5327 18.0732 8.0214 18.4522 9.53422 18.4523H9.5382C14.5323 18.4523 18.5977 14.3884 18.5998 9.39343C18.6008 6.97299 17.659 4.69697 15.948 2.98461C14.2372 1.2724 11.962 0.328955 9.53783 0.32785C4.54312 0.32785 0.478074 4.39149 0.476012 9.38628" fill="#00AB11"/>
<path d="M0.152407 9.38335C0.151891 11.0372 0.583957 12.6516 1.40538 14.0747L0.0736084 18.9372L5.04977 17.6324C6.42086 18.38 7.96457 18.7741 9.53539 18.7747H9.53944C14.7127 18.7747 18.9241 14.5647 18.9263 9.39086C18.9272 6.88345 17.9516 4.52561 16.1794 2.75191C14.407 0.978426 12.0505 0.00103101 9.53944 0C4.36525 0 0.154469 4.20946 0.152407 9.38335ZM3.11589 13.8296L2.93009 13.5347C2.14903 12.2928 1.73677 10.8576 1.73736 9.38394C1.73898 5.08353 5.23881 1.58481 9.54238 1.58481C11.6265 1.58569 13.5851 2.39812 15.0583 3.87217C16.5314 5.34636 17.342 7.30602 17.3414 9.39027C17.3395 13.6907 13.8396 17.1898 9.53944 17.1898H9.53634C8.13616 17.1891 6.76293 16.8131 5.56534 16.1025L5.28034 15.9335L2.32739 16.7077L3.11589 13.8296Z" fill="url(#paint0_linear_7_2338)"/>
<path d="M7.19332 5.46052C7.01761 5.06999 6.83269 5.06211 6.66559 5.05526C6.52876 5.04937 6.37234 5.04981 6.21607 5.04981C6.05965 5.04981 5.80551 5.10865 5.59069 5.34321C5.37565 5.57798 4.76971 6.14533 4.76971 7.29925C4.76971 8.45317 5.61021 9.56842 5.72737 9.72506C5.84469 9.88141 7.34996 12.3252 9.73394 13.2653C11.7152 14.0466 12.1184 13.8912 12.5484 13.852C12.9785 13.813 13.9362 13.2848 14.1316 12.7372C14.3271 12.1895 14.3271 11.7201 14.2685 11.622C14.2098 11.5243 14.0534 11.4656 13.8189 11.3484C13.5843 11.2311 12.4311 10.6636 12.2162 10.5854C12.0011 10.5072 11.8448 10.4681 11.6884 10.703C11.5319 10.9375 11.0828 11.4656 10.9459 11.622C10.8091 11.7788 10.6722 11.7983 10.4378 11.681C10.2031 11.5634 9.44769 11.316 8.55152 10.517C7.85427 9.89533 7.38354 9.12759 7.24671 8.89275C7.10988 8.65827 7.23206 8.53116 7.34966 8.41429C7.45505 8.3092 7.58429 8.14041 7.70168 8.0035C7.81863 7.86653 7.85766 7.7688 7.93587 7.61238C8.01415 7.45582 7.97497 7.31884 7.91642 7.20153C7.85766 7.08421 7.40188 5.92425 7.19332 5.46052Z" fill="white"/>
</g>
<defs>
<linearGradient id="paint0_linear_7_2338" x1="942.709" y1="1893.72" x2="942.709" y2="0" gradientUnits="userSpaceOnUse">
<stop stop-color="#F9F9F9"/>
<stop offset="1" stop-color="white"/>
</linearGradient>
<clipPath id="clip0_7_2338">
<rect width="18.8527" height="19" fill="white" transform="translate(0.0736084)"/>
</clipPath>
</defs>
</svg>
