<svg width="242" height="276" viewBox="0 0 242 276" fill="none" xmlns="http://www.w3.org/2000/svg">
<g clip-path="url(#clip0_129_2305)">
<path d="M94.9089 44.3802V87.2595H76.0107C75.2064 87.2578 74.4357 86.938 73.8676 86.3705C73.2995 85.8029 72.9805 85.0338 72.9805 84.2319V47.4272C72.9779 47.0269 73.055 46.63 73.2072 46.2596C73.3595 45.8892 73.5839 45.5525 73.8676 45.2692C74.1512 44.9858 74.4884 44.7613 74.8596 44.6087C75.2308 44.4561 75.6287 44.3784 76.0303 44.3802H94.9089Z" fill="#1D253D"/>
<path d="M168.397 64.683C166.442 82.8742 156.08 87.2401 156.08 87.2401H94.9089V44.3803C112.074 41.0928 120.252 20.017 118.48 9.44659C118.79 7.30506 118.79 5.13024 118.48 2.9887C118.778 2.00191 119.433 1.16043 120.318 0.626561C121.202 0.0926908 122.254 -0.0957463 123.269 0.0975947C135.071 1.93621 135.749 26.3514 135.651 34.3101C135.649 34.97 135.9 35.6057 136.351 36.0884C136.802 36.571 137.421 36.8643 138.082 36.9089C142.591 37.2142 152.418 38.1043 161.046 40.3522C166.703 41.827 169.049 43.3018 169.746 46.5307C170.495 49.9871 169.394 55.3405 168.397 64.683Z" fill="#FEA30A"/>
<path d="M94.9089 44.3802V80.6976H76.0107C75.207 80.6976 74.4363 80.3794 73.868 79.8128C73.2997 79.2462 72.9805 78.4778 72.9805 77.6766V47.4272C72.9779 47.0269 73.055 46.63 73.2072 46.2596C73.3595 45.8892 73.5839 45.5525 73.8676 45.2692C74.1512 44.9858 74.4884 44.7613 74.8596 44.6087C75.2308 44.4561 75.6287 44.3784 76.0303 44.3802H94.9089Z" fill="#465A94"/>
<path d="M169.759 46.5825C169.459 49.5645 168.912 53.3262 168.397 58.1599C166.442 76.3511 156.08 80.717 156.08 80.717H94.9089V44.38C103.465 42.7428 110.125 36.4344 114.166 28.9824C117.072 23.603 117.984 17.5415 118.369 11.5189C118.597 7.99755 117.222 -1.13704 123.282 0.0973617C135.084 1.93598 135.762 26.3512 135.664 34.3099C135.662 34.9698 135.913 35.6055 136.364 36.0881C136.816 36.5707 137.434 36.8641 138.095 36.9086C142.604 37.214 152.431 38.104 161.059 40.352C166.716 41.8787 169.062 43.3535 169.759 46.5825Z" fill="#F0A37E"/>
<path d="M145.308 87.2594H154.523L150.072 92.1061V97.3555H143.556V92.8077C143.558 91.7684 143.78 90.7414 144.207 89.7932L145.308 87.2594Z" fill="#BF6D3E"/>
<path d="M145.048 91.437C145.554 91.191 145.977 90.8042 146.267 90.3233C146.557 89.8424 146.701 89.288 146.682 88.7272C146.663 88.1664 146.481 87.6232 146.159 87.1633C145.836 86.7034 145.387 86.3464 144.865 86.1355C144.683 84.3424 143.054 82.9326 141.275 82.6207C142.549 85.5626 143.371 88.6794 143.712 91.8658L145.048 91.437Z" fill="#BF6D3E"/>
<path d="M143.608 83.4913C143.894 83.6476 144.136 83.8727 144.312 84.1462C144.489 84.4196 144.594 84.7328 144.618 85.057C144.67 85.4239 144.804 85.7745 145.009 86.0835C145.29 86.3428 145.605 86.5615 145.947 86.7332C146.259 86.9345 146.522 87.2019 146.718 87.5164C146.914 87.8309 147.038 88.1846 147.081 88.5524C147.106 89.3874 146.936 90.2169 146.586 90.9757C146.488 91.2226 146.117 91.0277 146.214 90.7808C146.551 90.0648 146.703 89.2767 146.657 88.4874C146.582 88.1324 146.426 87.7997 146.199 87.5155C145.973 87.2314 145.684 87.0036 145.354 86.8502C145.067 86.7106 144.817 86.5059 144.624 86.2525C144.463 85.995 144.348 85.7113 144.285 85.4144C144.142 84.8426 144.051 84.115 143.425 83.8616C143.158 83.7642 143.354 83.3938 143.608 83.4913Z" fill="#80410E"/>
<path d="M85.6553 87.2594H76.4473L80.8982 92.1061V97.3555H87.4148V92.8077C87.412 91.7684 87.1899 90.7414 86.7631 89.7932L85.6553 87.2594Z" fill="#BF6D3E"/>
<path d="M124.814 134.914C130.312 131.344 135.303 127.052 139.652 122.154C141.117 113.345 142.137 104.467 142.708 95.5559C145.491 95.2455 148.296 95.1911 151.089 95.3935C153.166 107.07 153.838 118.953 153.089 130.788C145.7 138.084 137.808 146.212 130.412 153.527L124.814 134.914Z" fill="#465A94"/>
<path d="M152.281 125.448C152.708 124.85 153.077 124.213 153.383 123.544C153.35 125.961 153.259 128.372 153.089 130.795C145.699 138.084 137.808 146.212 130.411 153.527L129.108 149.207C137.3 141.833 145.4 134.329 152.281 125.448Z" fill="#1D253D"/>
<path d="M143.38 99.701L148.971 99.8309C149.238 99.8309 149.264 100.253 148.971 100.247L143.38 100.117C143.132 100.11 143.112 99.6945 143.38 99.701Z" fill="#1D253D"/>
<path d="M106.072 134.914C100.573 131.344 95.5824 127.052 91.2335 122.154C89.7682 113.345 88.7482 104.467 88.1772 95.5559C85.3947 95.2455 82.5894 95.1911 79.7969 95.3935C77.7192 107.07 77.0476 118.953 77.7962 130.788C85.1861 138.078 93.0777 146.206 100.468 153.495L106.072 134.914Z" fill="#465A94"/>
<path d="M100.819 147.135C100.943 148.531 101.041 149.928 101.126 151.325L100.474 153.502C93.0842 146.212 85.1926 138.085 77.8027 130.795C77.5877 127.644 77.4899 124.5 77.4899 121.362C81.5368 132.166 90.7317 140.43 100.819 147.135Z" fill="#1D253D"/>
<path d="M80.2335 100.013L87.6364 99.6425C87.6917 99.6425 87.7447 99.6644 87.7838 99.7034C87.8229 99.7423 87.8449 99.7952 87.8449 99.8504C87.8449 99.9055 87.8229 99.9584 87.7838 99.9974C87.7447 100.036 87.6917 100.058 87.6364 100.058L80.227 100.435C80.1773 100.426 80.1325 100.399 80.1006 100.36C80.0686 100.321 80.0516 100.272 80.0523 100.221C80.0531 100.171 80.0717 100.122 80.1048 100.084C80.138 100.046 80.1835 100.021 80.2335 100.013Z" fill="#1D253D"/>
<path d="M97.2484 264.851C97.2484 265.871 97.2484 266.865 97.2484 267.82H103.192L103.517 264.851H97.2484Z" fill="#001E4A"/>
<path d="M126.651 264.851C126.651 265.871 126.651 266.865 126.651 267.82H132.595L132.927 264.851H126.651Z" fill="#001E4A"/>
<path d="M133.149 184.141C117.417 185.869 115.137 194.841 115.137 194.841L121.49 232.257L124.827 266.521H135.416C138.609 223.694 133.149 184.141 133.149 184.141Z" fill="#1D253D"/>
<path d="M119.366 194.328C119.366 194.328 126.365 189.858 127.186 185.947L98.8189 186.876C98.8189 186.876 94.8698 237.402 94.9806 264.838H105.805L119.366 194.328Z" fill="#465A94"/>
<path d="M118.571 198.473L105.805 266.521H94.9806C94.8958 246.095 97.0659 211.226 98.1802 195.575C104.752 197.733 111.656 198.714 118.571 198.473Z" fill="#465A94"/>
<path d="M98.1802 195.575C98.5582 190.189 98.8319 186.876 98.8319 186.876L127.199 185.947C126.378 189.845 119.379 194.328 119.379 194.328L118.584 198.473C111.664 198.715 104.757 197.734 98.1802 195.575Z" fill="#1D253D"/>
<path d="M124.781 189.91C126.169 188.52 127.388 186.934 127.701 185.427L101.145 184.173C101.145 184.173 100.93 187.019 100.833 188.201C108.666 190.086 116.758 190.664 124.781 189.91Z" fill="#1D253D"/>
<path d="M103.543 267.372L96.5902 267.184C94.654 269.211 93.2836 271.709 92.6151 274.428H105.166C104.917 272.018 104.372 269.649 103.543 267.372Z" fill="#001E4A"/>
<path d="M92.615 274.428C92.5499 274.681 92.4782 274.941 92.4326 275.201C92.4096 275.298 92.4092 275.399 92.4315 275.496C92.4538 275.593 92.4981 275.683 92.5611 275.76C92.624 275.838 92.704 275.899 92.7947 275.941C92.8854 275.982 92.9844 276.003 93.0842 276H104.593C104.683 276 104.773 275.982 104.856 275.946C104.939 275.909 105.014 275.856 105.075 275.79C105.137 275.723 105.183 275.644 105.213 275.558C105.242 275.473 105.252 275.382 105.244 275.292C105.244 275.006 105.192 274.714 105.166 274.428H92.615Z" fill="#A86114"/>
<path d="M126.28 267.372L133.227 267.184C135.182 269.191 146.827 271.732 147.505 274.428H124.696C124.929 272.02 125.461 269.65 126.28 267.372Z" fill="#001E4A"/>
<path d="M147.505 274.428C147.57 274.681 147.635 274.941 147.687 275.201C147.71 275.298 147.71 275.399 147.688 275.496C147.666 275.593 147.622 275.683 147.559 275.76C147.496 275.838 147.416 275.899 147.325 275.941C147.234 275.982 147.135 276.003 147.035 276H125.25C125.16 276 125.07 275.982 124.987 275.946C124.903 275.909 124.829 275.856 124.767 275.79C124.706 275.723 124.659 275.644 124.63 275.558C124.601 275.473 124.59 275.382 124.599 275.292C124.599 275.006 124.644 274.714 124.677 274.428H147.505Z" fill="#A86114"/>
<path d="M102.755 234.998C101.895 233.517 100.989 232.081 100.279 230.522C99.5919 228.942 99.0043 227.321 98.5191 225.669C98.5046 225.631 98.4767 225.6 98.4408 225.582C98.4048 225.564 98.3634 225.56 98.3246 225.57C98.2857 225.581 98.2521 225.605 98.2302 225.639C98.2084 225.673 98.1999 225.714 98.2063 225.753C98.5549 227.464 99.1039 229.128 99.842 230.71C100.512 232.331 101.388 233.86 102.449 235.258C102.592 235.388 102.866 235.18 102.755 234.998Z" fill="#1D253D"/>
<path d="M96.7075 263.844H103.609C103.876 263.844 103.895 264.26 103.609 264.26H96.727C96.4598 264.26 96.4403 263.844 96.7075 263.844Z" fill="#1D253D"/>
<path d="M130.34 139.962C130.267 139.031 129.918 138.143 129.338 137.409C128.758 136.676 127.973 136.131 127.081 135.843C122.907 134.421 118.485 133.868 114.087 134.219C110.045 134.54 106.05 135.302 102.175 136.493C99.64 137.233 98.0564 139.488 98.4474 141.814C100.784 155.707 101.525 169.82 100.657 183.881C111.083 186.889 121.425 187.779 131.285 184.342C131.578 170.023 131.018 154.307 130.34 139.962Z" fill="#A6F3FF"/>
<path d="M115.69 138.208C114.551 138.782 113.483 139.488 112.51 140.313C112.093 139.533 111.702 138.734 111.298 137.948L110.647 136.649C110.454 136.203 110.216 135.779 109.936 135.382C109.812 135.232 109.578 135.382 109.623 135.564C109.776 136.015 109.973 136.45 110.21 136.863C110.438 137.311 110.666 137.76 110.862 138.208C111.311 139.091 111.78 139.962 112.198 140.859C112.219 140.892 112.247 140.921 112.28 140.942C112.313 140.963 112.351 140.977 112.39 140.982C112.43 140.987 112.47 140.983 112.507 140.971C112.545 140.958 112.579 140.938 112.608 140.911C113.634 140.04 114.747 139.277 115.932 138.637C116.212 138.474 115.971 138.065 115.69 138.208Z" fill="#47BED1"/>
<path d="M119.796 138.214C119.796 137.831 119.796 137.454 119.796 137.077C119.847 136.712 119.818 136.339 119.711 135.986C119.694 135.962 119.672 135.942 119.646 135.929C119.62 135.915 119.591 135.908 119.561 135.908C119.532 135.908 119.503 135.915 119.477 135.929C119.451 135.942 119.428 135.962 119.411 135.986C119.3 136.323 119.274 136.682 119.333 137.032C119.333 137.428 119.333 137.818 119.333 138.214C119.333 138.864 119.405 139.468 119.457 140.092L117.893 139.234L116.929 138.702C116.625 138.498 116.291 138.345 115.938 138.247C115.911 138.241 115.883 138.244 115.858 138.255C115.833 138.266 115.812 138.285 115.798 138.309C115.784 138.333 115.778 138.361 115.781 138.388C115.784 138.415 115.796 138.441 115.814 138.461C116.077 138.713 116.378 138.921 116.707 139.079L117.658 139.637L119.613 140.748C119.65 140.775 119.694 140.79 119.739 140.793C119.785 140.795 119.83 140.784 119.869 140.762C119.909 140.739 119.94 140.705 119.961 140.665C119.982 140.624 119.99 140.579 119.985 140.534C119.881 139.748 119.828 138.981 119.796 138.214Z" fill="#47BED1"/>
<path d="M115.814 138.429L114.335 139.592L115.071 140.748L114.934 179.944L117.867 181.471L120.363 179.944L116.922 140.969L117.346 139.429L115.814 138.429Z" fill="#DD4F05"/>
<path d="M97.5416 144.594C97.0398 141.242 98.4148 137.617 101.126 136.636C103.327 135.81 105.628 135.275 107.968 135.044C109.799 142.665 117.346 158.238 117.346 158.238C117.346 158.238 123.211 140.417 119.763 134.277C121.972 134.16 126.169 134.784 128.385 135.908C130.464 136.96 131.767 140.371 131.923 143.016C132.888 159.368 135.951 176.364 137.241 192.944C135.638 193.691 133.546 193.711 131.819 193.86C129.01 194.113 126.195 194.243 123.347 194.347C114.224 194.685 105.179 194.393 96.5446 191.099C97.8283 175.552 99.842 160.063 97.5416 144.594Z" fill="#465A94"/>
<path d="M100.819 147.135C102.123 161.902 100.865 176.929 98.0173 191.606C97.5351 191.437 97.0528 191.268 96.5706 191.079C97.8153 175.656 99.8289 160.265 97.5807 144.9C98.6494 145.666 99.729 146.411 100.819 147.135Z" fill="#1D253D"/>
<path d="M122.67 148.044L125.772 146.985L126.547 146.719C126.782 146.654 127.011 146.569 127.231 146.465C127.675 146.225 127.505 145.699 127.375 145.309C126.723 143.217 125.993 141.131 125.309 139.039C125.292 138.987 125.296 138.93 125.321 138.88C125.346 138.831 125.39 138.794 125.443 138.776C125.495 138.759 125.553 138.763 125.602 138.788C125.652 138.813 125.689 138.857 125.706 138.91L127.466 144.243C127.603 144.653 127.759 145.069 127.87 145.491C127.971 145.799 127.959 146.133 127.837 146.433C127.756 146.568 127.648 146.685 127.521 146.777C127.393 146.87 127.248 146.936 127.095 146.972L125.791 147.414L122.787 148.44C122.737 148.449 122.685 148.439 122.641 148.413C122.597 148.386 122.565 148.344 122.551 148.295C122.536 148.246 122.54 148.193 122.562 148.147C122.584 148.101 122.622 148.064 122.67 148.044Z" fill="#1D253D"/>
<path d="M122.937 148.148L126.436 151.767C126.619 151.955 126.339 152.267 126.15 152.072L122.657 148.453C122.468 148.265 122.748 147.953 122.937 148.148Z" fill="#1D253D"/>
<path d="M118.206 161.688L126.137 151.767C126.306 151.552 126.612 151.838 126.449 152.046L118.519 161.973C118.349 162.175 118.03 161.895 118.206 161.688Z" fill="#1D253D"/>
<path d="M109.91 148.772L106.691 148.122L105.889 147.966C105.647 147.936 105.407 147.886 105.173 147.817C104.697 147.635 104.795 147.089 104.866 146.686C105.257 144.523 105.655 142.353 106.046 140.189C106.055 140.134 106.042 140.078 106.01 140.032C105.978 139.986 105.928 139.955 105.873 139.946C105.818 139.936 105.761 139.949 105.715 139.981C105.669 140.014 105.638 140.063 105.629 140.118L104.632 145.64C104.554 146.069 104.456 146.504 104.41 146.94C104.344 147.258 104.4 147.589 104.567 147.869C104.771 148.109 105.06 148.263 105.375 148.298L106.717 148.551L109.838 149.149C109.879 149.14 109.915 149.12 109.944 149.091C109.973 149.061 109.992 149.024 110 148.984C110.008 148.944 110.003 148.902 109.987 148.864C109.971 148.827 109.944 148.794 109.91 148.772Z" fill="#1D253D"/>
<path d="M109.663 148.915L106.704 152.982C106.541 153.196 106.867 153.463 107.023 153.248L109.982 149.181C110.138 148.98 109.819 148.7 109.663 148.915Z" fill="#1D253D"/>
<path d="M116.231 161.662L106.997 152.943C106.802 152.754 106.535 153.079 106.73 153.261L115.971 161.974C116.166 162.168 116.427 161.85 116.231 161.662Z" fill="#1D253D"/>
<path d="M117.548 158.926C117.847 163.6 118.08 168.271 118.245 172.94C118.41 177.609 118.512 182.285 118.551 186.967C118.551 189.596 118.551 192.229 118.551 194.867C118.551 195.133 118.134 195.153 118.134 194.867C118.173 190.189 118.147 185.512 118.056 180.834C117.965 176.156 117.806 171.483 117.58 166.814C117.45 164.18 117.302 161.551 117.137 158.926C117.146 158.878 117.171 158.835 117.209 158.804C117.246 158.772 117.293 158.755 117.342 158.755C117.391 158.755 117.439 158.772 117.476 158.804C117.514 158.835 117.539 158.878 117.548 158.926Z" fill="#1D253D"/>
<path d="M124.807 180.165C127.273 180.852 129.894 180.745 132.295 179.859C132.549 179.768 132.679 180.165 132.425 180.256C129.95 181.166 127.25 181.275 124.709 180.567C124.455 180.483 124.547 180.08 124.807 180.165Z" fill="#1D253D"/>
<path d="M102.312 180.697C104.779 181.387 107.402 181.282 109.806 180.399C110.06 180.301 110.19 180.697 109.936 180.795C107.46 181.699 104.762 181.808 102.221 181.107C101.966 181.035 102.058 180.626 102.312 180.697Z" fill="#1D253D"/>
<path d="M123.243 121.141C123.979 118.581 123.799 115.845 122.735 113.403C122.866 112.788 122.769 112.146 122.461 111.597C122.145 111.073 121.696 110.642 121.158 110.349C120.806 110.139 120.415 110.001 120.01 109.942C119.604 109.883 119.19 109.904 118.792 110.005C118.396 110.114 118.042 110.341 117.777 110.655C117.513 110.97 117.351 111.357 117.313 111.766C116.754 111.384 116.155 111.064 115.527 110.811C114.86 110.554 114.13 110.509 113.436 110.681C113.092 110.77 112.777 110.944 112.517 111.185C112.258 111.427 112.063 111.729 111.95 112.064C111.852 112.404 111.874 112.767 112.013 113.093C112.152 113.418 112.399 113.686 112.712 113.851C112.384 113.551 111.976 113.351 111.537 113.275C111.098 113.199 110.647 113.25 110.236 113.422C109.491 113.791 108.914 114.427 108.62 115.202C108.345 115.799 108.25 116.463 108.346 117.113C108.398 117.435 108.525 117.74 108.718 118.005C108.91 118.269 109.163 118.484 109.454 118.633C108.333 119.192 107.968 120.582 108.203 121.777C108.511 123.003 109.141 124.124 110.027 125.026C110.906 125.92 111.67 126.92 112.302 128.001L123.243 121.141Z" fill="#7A2923"/>
<path d="M122.904 121.394C123.56 118.928 123.403 116.318 122.455 113.949C122.571 113.359 122.483 112.748 122.207 112.214C121.937 111.716 121.536 111.3 121.047 111.012C120.739 110.812 120.393 110.679 120.03 110.622C119.667 110.565 119.297 110.585 118.942 110.681C118.583 110.806 118.268 111.033 118.037 111.335C117.805 111.636 117.667 111.998 117.639 112.376C117.146 112.009 116.613 111.699 116.049 111.454C115.46 111.21 114.807 111.166 114.192 111.33C113.884 111.423 113.604 111.591 113.377 111.817C113.149 112.044 112.982 112.323 112.888 112.63C112.794 112.948 112.807 113.289 112.925 113.599C113.042 113.91 113.258 114.174 113.54 114.351C113.26 114.065 112.898 113.872 112.504 113.798C112.11 113.723 111.703 113.771 111.337 113.936C110.66 114.309 110.146 114.92 109.897 115.651C109.652 116.229 109.569 116.862 109.656 117.483C109.697 117.786 109.807 118.076 109.977 118.331C110.148 118.585 110.375 118.797 110.64 118.951C109.643 119.49 109.337 120.796 109.526 121.979C109.801 123.134 110.358 124.203 111.148 125.091C111.937 125.958 112.618 126.918 113.175 127.949L122.904 121.394Z" fill="#3B1411"/>
<path d="M111.331 124.61C111.592 127.986 111.513 131.379 111.096 134.739C111.052 135.071 111.101 135.409 111.236 135.716C111.372 136.024 111.589 136.288 111.865 136.48C113.431 137.578 115.358 138.043 117.254 137.779C117.709 137.707 118.12 137.466 118.404 137.104C118.688 136.743 118.824 136.288 118.786 135.83C118.607 133.669 118.546 131.501 118.603 129.333C116.714 127.062 114.178 125.415 111.331 124.61Z" fill="#BF6D3E"/>
<path d="M118.603 129.294C116.709 127.037 114.174 125.404 111.331 124.61C111.396 125.494 111.442 126.384 111.468 127.274C111.975 128.955 112.904 130.481 114.166 131.706C115.428 132.931 116.982 133.816 118.682 134.277C118.59 132.634 118.558 131.016 118.603 129.294Z" fill="#80410E"/>
<path d="M123.302 119.094C123.953 123.798 122.943 131.867 119.392 132.231C115.195 132.66 112.628 128.943 111.689 125.519C111.689 125.578 111.305 125.799 110.894 125.773C110.42 125.652 110.008 125.357 109.741 124.948C109.311 124.298 108.874 123.317 109.337 122.589C109.891 121.712 111.109 121.53 111.624 122.589C111.678 120.9 112.058 119.236 112.745 117.691C112.838 117.431 112.989 117.194 113.185 116.999C113.381 116.803 113.618 116.654 113.879 116.56C116.423 115.721 119.161 115.665 121.738 116.398C122.04 116.492 122.313 116.661 122.533 116.888C122.753 117.115 122.912 117.393 122.996 117.697C123.129 118.156 123.231 118.622 123.302 119.094Z" fill="#BF6D3E"/>
<path d="M118.245 119.406C117.489 118.444 115.397 119.107 114.622 119.724C114.485 119.835 114.315 119.984 114.328 120.179C114.332 120.23 114.351 120.279 114.382 120.319C114.413 120.36 114.456 120.39 114.504 120.406C114.739 120.471 114.961 120.277 115.156 120.173C115.414 120.035 115.691 119.934 115.977 119.874C116.331 119.791 116.697 119.769 117.059 119.809C117.396 119.903 117.745 119.954 118.095 119.958C118.375 119.913 118.382 119.575 118.245 119.406Z" fill="#3B1411"/>
<path d="M117.137 121.089C117.116 121.032 117.082 120.982 117.039 120.939C116.996 120.899 116.945 120.868 116.889 120.848C116.834 120.816 116.77 120.803 116.707 120.809H116.583C116.508 120.834 116.44 120.874 116.381 120.926L116.31 121.024C116.265 121.094 116.243 121.175 116.244 121.258V121.303C116.244 121.366 116.257 121.428 116.283 121.485C116.305 121.541 116.339 121.592 116.381 121.634C116.424 121.677 116.475 121.71 116.531 121.732C116.586 121.758 116.646 121.771 116.707 121.771H116.831C116.91 121.752 116.982 121.711 117.039 121.654L117.111 121.556C117.152 121.485 117.175 121.405 117.176 121.323V121.277C117.177 121.212 117.164 121.148 117.137 121.089Z" fill="#3B1411"/>
<path d="M122.214 121.381C122.192 121.325 122.158 121.274 122.116 121.232C122.073 121.189 122.022 121.156 121.966 121.134C121.913 121.102 121.851 121.088 121.79 121.095H121.666C121.59 121.12 121.521 121.162 121.464 121.219L121.393 121.31C121.348 121.379 121.326 121.461 121.327 121.543V121.595C121.321 121.657 121.334 121.718 121.366 121.771C121.388 121.827 121.422 121.878 121.464 121.92C121.507 121.963 121.558 121.996 121.614 122.018C121.669 122.044 121.729 122.058 121.79 122.057H121.914C121.991 122.037 122.061 121.997 122.116 121.94L122.194 121.849C122.232 121.776 122.252 121.696 122.253 121.615V121.563C122.261 121.5 122.248 121.435 122.214 121.381Z" fill="#3B1411"/>
<path d="M123.132 120.075C123.031 119.907 122.895 119.762 122.733 119.65C122.571 119.538 122.388 119.462 122.194 119.425C121.833 119.331 121.454 119.331 121.093 119.425C121.012 119.449 120.943 119.501 120.898 119.572C120.853 119.642 120.834 119.726 120.845 119.809C120.884 120.088 121.125 120.095 121.347 120.101C121.644 120.093 121.94 120.149 122.214 120.264C122.403 120.342 123.387 120.829 123.191 120.212C123.179 120.163 123.16 120.117 123.132 120.075Z" fill="#3B1411"/>
<path d="M118.799 129.294C118.65 129.271 118.498 129.271 118.349 129.294C118.217 129.301 118.084 129.301 117.952 129.294C117.814 129.273 117.677 129.245 117.541 129.21C117.4 129.154 117.25 129.123 117.098 129.119C117.064 129.122 117.032 129.134 117.004 129.154C116.976 129.174 116.955 129.201 116.941 129.233C116.928 129.264 116.923 129.298 116.928 129.332C116.933 129.366 116.946 129.398 116.968 129.424C117.084 129.544 117.234 129.626 117.398 129.658C117.544 129.71 117.694 129.747 117.847 129.768C118.009 129.796 118.172 129.812 118.336 129.814C118.513 129.835 118.692 129.813 118.858 129.749C118.904 129.728 118.943 129.692 118.967 129.647C118.992 129.602 119.002 129.551 118.995 129.5C118.989 129.449 118.966 129.402 118.931 129.365C118.896 129.328 118.849 129.303 118.799 129.294Z" fill="#804E26"/>
<path d="M111.233 124.35C111.195 124.363 111.155 124.369 111.115 124.366C111.074 124.363 111.035 124.352 110.999 124.334C110.963 124.316 110.932 124.291 110.906 124.26C110.88 124.229 110.86 124.194 110.849 124.155C110.844 124.114 110.848 124.072 110.862 124.033C110.875 123.993 110.898 123.958 110.927 123.928C110.953 123.897 110.984 123.872 111.02 123.854C111.056 123.836 111.095 123.826 111.135 123.824C111.163 123.823 111.191 123.815 111.216 123.802C111.241 123.789 111.262 123.771 111.279 123.749C111.296 123.726 111.308 123.7 111.313 123.673C111.319 123.646 111.318 123.617 111.311 123.59C111.267 123.328 111.132 123.091 110.929 122.918C110.726 122.746 110.47 122.65 110.203 122.648C110.078 122.658 109.957 122.7 109.853 122.771C109.749 122.842 109.666 122.938 109.61 123.051C109.564 123.162 109.553 123.284 109.578 123.402C109.578 123.467 109.682 123.642 109.78 123.551C109.878 123.46 109.819 123.428 109.838 123.363C109.855 123.29 109.886 123.222 109.93 123.161C109.971 123.103 110.027 123.057 110.093 123.03C110.159 123.002 110.231 122.994 110.301 123.005C110.437 123.027 110.563 123.086 110.667 123.175C110.77 123.265 110.847 123.382 110.888 123.512C110.755 123.569 110.647 123.672 110.583 123.802C110.52 123.932 110.505 124.08 110.542 124.22C110.592 124.377 110.7 124.51 110.844 124.59C110.988 124.671 111.157 124.694 111.318 124.655C111.513 124.597 111.429 124.292 111.233 124.35Z" fill="#804E26"/>
<path d="M121.047 123.759C120.818 123.575 120.576 123.408 120.324 123.259C120.202 123.185 120.105 123.078 120.044 122.949C119.984 122.821 119.963 122.678 119.985 122.537C119.985 122.323 119.711 122.297 119.607 122.44C119.294 122.875 119.724 123.428 120.076 123.681C120.305 123.813 120.523 123.963 120.728 124.129C120.976 124.38 121.125 124.712 121.149 125.063C121.173 125.415 121.07 125.763 120.858 126.046C120.538 126.398 120.105 126.627 119.633 126.695C119.599 126.703 119.569 126.721 119.548 126.748C119.526 126.774 119.514 126.807 119.514 126.842C119.514 126.876 119.526 126.909 119.548 126.936C119.569 126.962 119.599 126.981 119.633 126.988C119.886 127.034 120.147 127.019 120.394 126.943C120.64 126.868 120.864 126.733 121.047 126.553C121.243 126.378 121.399 126.163 121.505 125.924C121.61 125.684 121.663 125.424 121.66 125.162C121.658 124.899 121.603 124.639 121.497 124.398C121.392 124.157 121.239 123.939 121.047 123.759Z" fill="#80410E"/>
<path d="M119.457 128.339C118.724 128.555 117.941 128.53 117.224 128.27C116.506 128.009 115.891 127.525 115.469 126.89C115.319 126.669 115.671 126.442 115.821 126.663C116.187 127.226 116.727 127.657 117.358 127.891C117.99 128.125 118.68 128.15 119.327 127.962C119.372 127.96 119.416 127.973 119.453 127.998C119.49 128.023 119.518 128.06 119.533 128.102C119.548 128.145 119.548 128.191 119.534 128.233C119.521 128.276 119.494 128.313 119.457 128.339Z" fill="#3B1411"/>
<path d="M132.002 142.483C132.327 148.72 132.894 154.935 133.702 161.129C133.928 162.861 134.176 164.594 134.445 166.326C134.484 166.593 134.067 166.606 134.028 166.326C133.077 160.154 132.371 153.952 131.91 147.719C131.784 145.987 131.676 144.241 131.584 142.483C131.584 142.428 131.606 142.375 131.646 142.336C131.685 142.297 131.738 142.275 131.793 142.275C131.848 142.275 131.901 142.297 131.94 142.336C131.98 142.375 132.002 142.428 132.002 142.483Z" fill="#1D253D"/>
<path d="M85.916 91.437C85.4101 91.191 84.9865 90.8042 84.6965 90.3233C84.4065 89.8424 84.2624 89.288 84.2817 88.7272C84.301 88.1664 84.4829 87.6232 84.8053 87.1633C85.1277 86.7034 85.5768 86.3464 86.0984 86.1355C86.2809 84.3424 87.91 82.9326 89.6891 82.6207C88.4112 85.5614 87.5895 88.6787 87.2519 91.8658L85.916 91.437Z" fill="#BF6D3E"/>
<path d="M87.3561 83.4913C86.7045 83.7317 86.4894 84.4398 86.346 85.057C86.2936 85.4239 86.16 85.7745 85.955 86.0835C85.6743 86.3428 85.3584 86.5615 85.0167 86.7332C84.705 86.9352 84.4414 87.2026 84.2444 87.5169C84.0474 87.8311 83.9217 88.1846 83.8762 88.5524C83.8568 89.3876 84.0284 90.2164 84.378 90.9757C84.4758 91.2226 84.8407 91.0277 84.7495 90.7808C84.4131 90.0648 84.2608 89.2767 84.3063 88.4874C84.3814 88.1324 84.5382 87.7997 84.7644 87.5155C84.9906 87.2314 85.28 87.0036 85.6097 86.8502C85.8954 86.7088 86.145 86.5044 86.3395 86.2525C86.4978 85.9935 86.6123 85.7104 86.6784 85.4144C86.8152 84.8426 86.9065 84.115 87.5386 83.8616C87.8058 83.7642 87.6103 83.3938 87.3561 83.4913Z" fill="#80410E"/>
</g>
<g clip-path="url(#clip1_129_2305)">
<path d="M191.1 124.891C192.517 125.318 193.787 126.132 194.768 127.241C195.749 128.351 196.402 129.711 196.655 131.171C196.687 131.855 196.866 132.523 197.179 133.131C197.587 133.749 198.358 134.095 198.519 134.8C198.679 135.504 198.068 136.382 198.426 137.068C198.784 137.754 199.914 137.761 200.278 138.465C200.642 139.17 199.79 140.208 200.142 141.006C200.494 141.803 201.481 141.71 202.16 142.118C202.46 142.323 202.704 142.6 202.868 142.925C203.032 143.249 203.111 143.609 203.098 143.973C203.057 144.706 202.846 145.419 202.481 146.056C200.531 149.919 196.562 152.552 192.322 153.418C188.082 154.283 183.632 153.523 179.645 151.848C178.667 151.513 177.789 150.934 177.096 150.166C176.762 149.773 176.559 149.285 176.516 148.771C176.473 148.257 176.592 147.742 176.855 147.298C177.125 147.024 177.367 146.724 177.578 146.402C178.158 145.166 176.343 143.929 176.596 142.576C176.738 141.853 177.448 141.408 178.047 140.987C178.645 140.567 179.281 139.918 179.114 139.195C179.04 138.842 178.781 138.577 178.695 138.193C178.479 137.272 179.435 136.568 180.04 135.844C181.12 134.559 181.182 132.754 181.392 131.073C181.547 129.989 181.935 128.953 182.528 128.034C183.121 127.114 183.905 126.335 184.828 125.747C185.75 125.16 186.788 124.78 187.87 124.632C188.953 124.484 190.055 124.573 191.1 124.891Z" fill="#96432A"/>
<path d="M191.026 126.529C192.365 126.931 193.566 127.699 194.493 128.746C195.421 129.793 196.039 131.078 196.278 132.457C196.302 133.104 196.471 133.738 196.772 134.311C197.155 134.88 197.883 135.22 198.037 135.888C198.192 136.555 197.612 137.384 197.951 138.026C198.29 138.669 199.352 138.682 199.679 139.343C200.006 140.004 199.216 140.993 199.549 141.741C199.883 142.489 200.815 142.409 201.457 142.792C201.74 142.988 201.97 143.253 202.124 143.563C202.279 143.872 202.353 144.215 202.339 144.56C202.299 145.25 202.103 145.922 201.765 146.525C199.914 150.172 196.21 152.651 192.186 153.473C188.162 154.295 183.984 153.566 180.225 151.99C179.305 151.67 178.479 151.124 177.824 150.401C177.504 150.034 177.309 149.574 177.268 149.088C177.226 148.602 177.342 148.116 177.596 147.7C177.85 147.439 178.077 147.153 178.275 146.847C178.824 145.685 177.09 144.498 177.349 143.237C177.485 142.557 178.152 142.143 178.719 141.741C179.287 141.339 179.873 140.734 179.725 140.054C179.651 139.714 179.411 139.436 179.33 139.108C179.127 138.243 180.028 137.575 180.602 136.895C181.62 135.659 181.676 133.959 181.873 132.389C182.016 131.365 182.378 130.384 182.936 129.514C183.493 128.644 184.232 127.905 185.102 127.348C185.972 126.791 186.952 126.43 187.974 126.288C188.997 126.147 190.038 126.229 191.026 126.529Z" fill="#6C301E"/>
<path d="M217.578 136.246C217.567 135.994 217.493 135.748 217.362 135.532C217.232 135.316 217.049 135.137 216.831 135.01C216.391 134.758 215.907 134.592 215.405 134.522C213.947 134.249 212.469 134.102 210.986 134.083C210.615 134.082 210.255 134.21 209.967 134.446C209.68 134.681 209.484 135.01 209.412 135.375C209.326 135.749 209.269 136.129 209.239 136.512C208.233 137.204 208.277 138.768 208.443 139.973C206.104 142.044 202.271 144.986 199.241 145.753C196.211 146.519 192.976 147.786 191.52 150.556C190.508 152.472 190.557 154.759 190.65 156.928C190.718 158.505 190.878 160.291 192.952 160.81C193.609 160.953 194.288 160.953 194.945 160.81C199.185 159.988 201.895 156.31 205.579 154.091C209.104 151.971 212.696 149.703 215.059 146.334C217.423 142.965 219.824 139.689 217.578 136.246Z" fill="#FF941E"/>
<path d="M217.948 141.568C218.351 140.725 218.529 139.791 218.464 138.858C218.4 137.925 218.094 137.025 217.578 136.246C217.567 135.994 217.493 135.748 217.362 135.532C217.232 135.316 217.049 135.137 216.831 135.01C216.391 134.758 215.907 134.592 215.405 134.522C213.947 134.249 212.469 134.102 210.986 134.083C210.615 134.082 210.255 134.21 209.967 134.446C209.68 134.681 209.484 135.01 209.412 135.375C209.326 135.749 209.269 136.129 209.239 136.512C208.233 137.204 208.277 138.768 208.443 139.973C206.104 142.044 202.271 144.986 199.241 145.753C196.211 146.519 192.976 147.786 191.52 150.556C190.508 152.472 190.557 154.759 190.65 156.928C190.65 157.281 190.687 157.645 190.73 157.998C200.691 154.691 210.856 149.511 217.948 141.568Z" fill="#FE5402"/>
<path d="M190.748 157.985C190.903 159.222 191.366 160.396 192.97 160.798C193.627 160.94 194.307 160.94 194.964 160.798C199.204 159.976 201.913 156.298 205.598 154.079C209.122 151.959 212.714 149.69 215.078 146.322C216.213 144.845 217.182 143.246 217.966 141.556C210.856 149.511 200.691 154.691 190.748 157.985Z" fill="#B66309"/>
<path d="M210.19 121.108L209.826 134.991C209.811 135.486 209.986 135.967 210.314 136.337C210.642 136.707 211.099 136.938 211.591 136.982C212.612 137.057 213.636 136.863 214.56 136.419C214.929 136.237 215.23 135.942 215.42 135.576C215.61 135.21 215.678 134.793 215.615 134.386L213.584 120.855C212.447 120.779 211.304 120.865 210.19 121.108Z" fill="#FFC9B9"/>
<path d="M213.078 142.94C212.285 142.815 211.526 142.531 210.844 142.106C210.163 141.682 209.573 141.125 209.11 140.468C208.962 140.258 208.672 140.53 208.82 140.734C209.319 141.427 209.952 142.012 210.682 142.456C211.411 142.9 212.222 143.193 213.066 143.317C213.313 143.373 213.331 142.977 213.078 142.94Z" fill="#A86114"/>
<path d="M214.109 138.076C212.904 138.082 211.719 137.76 210.684 137.142C210.461 137.013 210.252 137.346 210.468 137.476C211.565 138.131 212.819 138.477 214.097 138.478C214.35 138.471 214.368 138.076 214.109 138.076Z" fill="#A86114"/>
<path d="M189.582 144.436C186.915 143.728 184.092 143.889 181.521 144.894C180.33 145.364 179.053 146.278 179.096 147.558C179.139 148.67 180.17 149.468 181.145 149.993C184.804 151.953 189.047 152.526 193.094 151.606C195.044 151.155 196.982 149.542 195.235 147.644C193.677 146.081 191.722 144.972 189.582 144.436Z" fill="#FE5402"/>
<path d="M181.077 149.27C178.25 149.721 175.96 152.027 174.288 154.561C172.615 157.095 171.393 159.945 169.573 162.343C168.073 164.309 166.203 165.934 164.863 168.03C163.524 170.125 162.79 172.975 163.876 175.237C164.913 177.394 167.32 178.39 169.554 178.42C171.183 178.42 172.924 177.963 173.979 176.622C174.748 175.545 175.118 174.234 175.029 172.913C175.029 172.647 174.998 172.381 174.961 172.116C174.876 171.374 174.959 170.623 175.204 169.918C175.448 169.213 175.848 168.572 176.374 168.042C176.692 167.712 176.985 167.359 177.25 166.985C179.102 164.426 180.781 161.694 181.657 158.604C182.534 155.513 182.595 152.058 181.077 149.27Z" fill="#FF941E"/>
<path d="M181.416 159.42C181.503 159.148 181.595 158.888 181.67 158.616C182.552 155.525 182.595 152.058 181.052 149.27C178.226 149.721 175.936 152.027 174.263 154.561C172.591 157.095 171.369 159.945 169.548 162.343C168.048 164.309 166.178 165.934 164.839 168.03C163.499 170.125 162.765 172.975 163.851 175.237C164.888 177.394 167.295 178.39 169.529 178.42C171.159 178.42 172.899 177.963 173.955 176.622C174.723 175.545 175.094 174.234 175.004 172.913C175.004 172.647 174.973 172.381 174.936 172.116C174.936 172.06 174.936 171.998 174.936 171.936C174.394 170.767 173.732 169.656 172.961 168.623C176.248 166.022 179.101 162.916 181.416 159.42Z" fill="#FE5402"/>
<path d="M172.986 168.636C173.757 169.668 174.419 170.779 174.961 171.949C174.905 171.235 175.004 170.518 175.25 169.846C175.496 169.174 175.884 168.563 176.386 168.055C176.705 167.725 176.998 167.371 177.263 166.998C179.013 164.691 180.413 162.137 181.416 159.419C179.11 162.918 176.264 166.029 172.986 168.636Z" fill="#A86114"/>
<path d="M193.291 193.756C194.816 191.902 196.087 190.004 196.315 188.607L175.948 184.836C175.331 186.499 174.356 188.187 173.868 189.893C179.985 192.198 186.848 193.836 193.291 193.756Z" fill="#1D253D"/>
<path d="M190.347 268.74L194.575 268.622C195.754 269.859 202.858 271.398 203.265 273.048H189.366C189.513 271.577 189.842 270.13 190.347 268.74Z" fill="#FE5402"/>
<path d="M203.265 273.067C203.308 273.227 203.345 273.382 203.376 273.543C203.389 273.601 203.389 273.662 203.375 273.72C203.362 273.778 203.335 273.833 203.298 273.88C203.261 273.926 203.213 273.964 203.16 273.991C203.106 274.017 203.047 274.03 202.987 274.031H189.718C189.662 274.031 189.607 274.02 189.557 273.998C189.506 273.976 189.46 273.943 189.423 273.903C189.385 273.862 189.356 273.814 189.338 273.761C189.319 273.709 189.312 273.654 189.316 273.598C189.316 273.419 189.347 273.246 189.366 273.067H203.265Z" fill="#465A94"/>
<path d="M200.704 187.284C194.563 189.584 191.717 188.687 185.274 188.607C184.712 192.248 186.959 200.017 186.959 200.017L187.224 205.704H202.956C202.901 199.257 202.284 192.785 200.704 187.284Z" fill="#1D253D"/>
<path d="M187.23 205.692L187.409 208.399L202.796 208.572C202.935 207.619 202.991 206.655 202.963 205.692H187.23Z" fill="#006CB0"/>
<path d="M183.719 268.74L179.491 268.622C178.312 269.859 176.362 271.398 175.948 273.048H184.7C184.553 271.577 184.223 270.13 183.719 268.74Z" fill="#FE5402"/>
<path d="M175.936 273.067C175.899 273.227 175.856 273.382 175.825 273.543C175.813 273.601 175.814 273.662 175.829 273.72C175.843 273.779 175.87 273.833 175.908 273.88C175.945 273.926 175.993 273.964 176.047 273.99C176.101 274.016 176.16 274.03 176.22 274.031H184.336C184.391 274.031 184.446 274.02 184.497 273.998C184.548 273.976 184.593 273.943 184.631 273.903C184.669 273.862 184.698 273.814 184.716 273.761C184.734 273.709 184.741 273.654 184.737 273.598C184.737 273.419 184.737 273.246 184.688 273.067H175.936Z" fill="#465A94"/>
<path d="M187.237 200.017C189.387 198.063 191.409 195.971 193.291 193.756C186.848 193.836 179.985 192.198 173.844 189.893C172.412 195.044 171.6 200.348 171.424 205.692H186.977L187.237 200.017Z" fill="#465A94"/>
<path d="M171.424 205.692C171.319 206.649 171.319 207.615 171.424 208.572H186.965V205.692H171.424Z" fill="#0081C9"/>
<path d="M199.043 173.352C199.074 165.798 199.864 159.66 200.167 152.107C200.204 151.273 199.944 150.327 199.222 149.962C188.434 144.442 180.466 148.918 178.713 150.191C178.272 150.517 177.945 150.973 177.775 151.495C177.606 152.017 177.604 152.579 177.769 153.102C179.725 159.37 179.565 165.174 178.522 171.646C177.701 176.714 172.257 182.667 173.628 189.207C182.311 193.101 192.717 192.717 202.24 190.9C204.765 186.369 199.031 177.481 199.043 173.352Z" fill="#FE5402"/>
<path d="M186.274 137.872C186.671 141.014 186.851 144.18 186.811 147.348C186.8 147.641 186.849 147.935 186.955 148.209C187.061 148.483 187.222 148.733 187.428 148.942C187.882 149.388 188.443 149.709 189.057 149.875C189.671 150.041 190.317 150.045 190.934 149.888C191.551 149.715 191.884 148.874 191.767 147.99C191.508 145.957 191.329 144.022 191.211 141.914C190.06 140.054 188.323 138.632 186.274 137.872Z" fill="#FFC9B9"/>
<path d="M191.199 141.914C190.048 140.054 188.311 138.632 186.261 137.872C186.366 138.694 186.453 139.522 186.527 140.344C187.798 142.879 189.613 145.401 191.575 146.525C191.421 145.036 191.292 143.528 191.199 141.914Z" fill="#FFAB90"/>
<path d="M198.815 189.819C191.35 191.973 183.39 191.663 176.115 188.935C175.88 188.842 175.757 189.225 175.998 189.312C178.83 190.374 181.785 191.076 184.792 191.401C187.817 191.735 190.87 191.691 193.884 191.271C195.58 191.035 197.257 190.678 198.901 190.202C199.142 190.134 199.056 189.744 198.815 189.819Z" fill="#A86114"/>
<path d="M194.686 132.006C195.785 136.883 194.519 142.563 193.236 142.761C188.977 143.423 186.138 139.436 186.113 139.386C185.824 139.616 185.486 139.777 185.126 139.856C184.667 139.848 184.227 139.67 183.891 139.355C183.367 138.873 182.75 138.063 183.009 137.297C183.092 137.068 183.231 136.863 183.414 136.701C183.597 136.54 183.817 136.427 184.055 136.373C184.293 136.318 184.54 136.325 184.775 136.391C185.009 136.458 185.223 136.582 185.397 136.753C186.693 134.231 185.57 132.921 185.521 131.091C187.689 129.452 190.387 128.676 193.094 128.915C193.55 128.952 194.581 131.555 194.686 132.006Z" fill="#FFC9B9"/>
<path d="M189.755 134.194C189.725 134.146 189.682 134.108 189.631 134.083C189.586 134.05 189.533 134.031 189.477 134.027C189.42 134.015 189.361 134.015 189.304 134.027L189.199 134.071C189.132 134.105 189.076 134.159 189.039 134.225L188.989 134.324C188.974 134.399 188.974 134.477 188.989 134.553V134.596C189 134.653 189.025 134.706 189.063 134.75C189.095 134.798 189.137 134.839 189.187 134.868C189.232 134.899 189.286 134.916 189.341 134.917C189.397 134.936 189.458 134.936 189.514 134.917L189.625 134.874C189.689 134.837 189.743 134.784 189.779 134.72L189.829 134.621C189.847 134.546 189.847 134.467 189.829 134.392V134.349C189.818 134.291 189.793 134.238 189.755 134.194Z" fill="#3B1411"/>
<path d="M193.915 133.459C193.885 133.411 193.845 133.37 193.797 133.341C193.749 133.31 193.694 133.293 193.637 133.292C193.583 133.273 193.524 133.273 193.47 133.292L193.359 133.335C193.293 133.371 193.237 133.425 193.199 133.489L193.155 133.588C193.134 133.663 193.134 133.742 193.155 133.817V133.86C193.166 133.917 193.191 133.971 193.229 134.015C193.259 134.063 193.299 134.103 193.347 134.132C193.448 134.181 193.562 134.198 193.674 134.182L193.785 134.138C193.851 134.102 193.906 134.049 193.945 133.984L193.989 133.885C194.01 133.81 194.01 133.731 193.989 133.656V133.613C193.978 133.556 193.952 133.503 193.915 133.459Z" fill="#3B1411"/>
<path d="M185.12 138.465C185.088 138.485 185.053 138.499 185.016 138.505C184.979 138.512 184.942 138.51 184.905 138.502C184.869 138.493 184.835 138.477 184.805 138.455C184.775 138.433 184.75 138.405 184.731 138.373C184.713 138.338 184.704 138.3 184.704 138.261C184.704 138.223 184.713 138.184 184.731 138.15C184.745 138.116 184.766 138.085 184.794 138.06C184.822 138.035 184.855 138.018 184.891 138.008C184.917 138.002 184.942 137.99 184.962 137.972C184.983 137.955 184.999 137.934 185.01 137.909C185.021 137.884 185.026 137.858 185.024 137.831C185.023 137.804 185.015 137.778 185.002 137.754C184.904 137.521 184.725 137.33 184.499 137.217C184.273 137.104 184.013 137.075 183.768 137.136C183.656 137.173 183.557 137.239 183.478 137.327C183.4 137.415 183.347 137.522 183.324 137.637C183.302 137.747 183.32 137.86 183.373 137.958C183.404 138.014 183.521 138.156 183.589 138.051C183.657 137.946 183.589 137.928 183.589 137.866C183.59 137.796 183.602 137.727 183.626 137.662C183.653 137.6 183.695 137.547 183.75 137.508C183.804 137.469 183.868 137.445 183.935 137.439C184.058 137.433 184.181 137.461 184.29 137.52C184.398 137.579 184.489 137.666 184.552 137.773C184.445 137.854 184.37 137.971 184.34 138.102C184.311 138.233 184.329 138.371 184.391 138.49C184.472 138.622 184.599 138.718 184.748 138.761C184.897 138.803 185.056 138.788 185.194 138.719C185.434 138.626 185.286 138.36 185.12 138.465Z" fill="#FFAB90"/>
<path d="M190.366 131.629C189.47 131.714 188.616 132.046 187.897 132.587C187.693 132.741 187.959 133.038 188.162 132.884C188.827 132.389 189.615 132.09 190.44 132.018C190.465 132.013 190.49 132.003 190.511 131.988C190.533 131.973 190.551 131.955 190.566 131.933C190.58 131.911 190.59 131.887 190.595 131.861C190.6 131.835 190.599 131.809 190.594 131.783C190.589 131.758 190.579 131.734 190.564 131.712C190.549 131.69 190.531 131.672 190.509 131.657C190.487 131.643 190.463 131.633 190.437 131.628C190.411 131.623 190.385 131.624 190.36 131.629H190.366Z" fill="#6C301E"/>
<path d="M194.384 131.728C194.17 131.526 193.911 131.378 193.629 131.297C193.346 131.215 193.049 131.202 192.76 131.258C192.709 131.268 192.663 131.298 192.634 131.341C192.604 131.385 192.593 131.438 192.603 131.49C192.613 131.541 192.643 131.587 192.686 131.617C192.73 131.646 192.783 131.657 192.834 131.647H193.02H193.162H193.347H193.452H193.501L193.668 131.709H193.748H193.791L193.939 131.808L194.013 131.864V131.895C194.052 131.93 194.103 131.95 194.155 131.95C194.208 131.95 194.258 131.93 194.297 131.895C194.324 131.876 194.346 131.851 194.361 131.822C194.376 131.793 194.384 131.76 194.384 131.728Z" fill="#6C301E"/>
<path d="M192.952 140.289L191.656 140.474C191.605 140.486 191.56 140.517 191.532 140.561C191.503 140.604 191.492 140.658 191.501 140.709C191.506 140.735 191.517 140.759 191.531 140.781C191.546 140.802 191.565 140.821 191.586 140.835C191.608 140.85 191.633 140.86 191.658 140.864C191.684 140.869 191.71 140.869 191.736 140.864L193.032 140.678C193.083 140.666 193.127 140.635 193.156 140.592C193.185 140.548 193.196 140.495 193.186 140.443C193.174 140.392 193.143 140.348 193.1 140.319C193.056 140.29 193.003 140.279 192.952 140.289Z" fill="#FFAB90"/>
<path d="M193.507 136.5C193.347 136.288 193.134 136.122 192.89 136.017C192.687 135.943 192.521 135.792 192.427 135.597C192.402 135.552 192.361 135.519 192.312 135.504C192.263 135.489 192.211 135.494 192.165 135.517C192.12 135.54 192.085 135.58 192.068 135.629C192.051 135.677 192.054 135.73 192.075 135.776C192.236 136.221 192.692 136.296 193.038 136.574C193.109 136.619 193.161 136.689 193.183 136.77C193.205 136.852 193.195 136.938 193.155 137.013C193.009 137.191 192.841 137.351 192.655 137.489C192.62 137.526 192.601 137.576 192.601 137.628C192.601 137.679 192.62 137.729 192.655 137.767C192.673 137.786 192.695 137.801 192.719 137.811C192.743 137.821 192.768 137.827 192.794 137.827C192.82 137.827 192.846 137.821 192.87 137.811C192.894 137.801 192.915 137.786 192.933 137.767C193.142 137.604 193.332 137.42 193.501 137.217C193.569 137.11 193.606 136.986 193.607 136.859C193.608 136.732 193.574 136.608 193.507 136.5Z" fill="#FFAB90"/>
<path d="M192.902 139.176C192.879 139.129 192.838 139.094 192.788 139.077C192.739 139.059 192.685 139.062 192.637 139.083C192.062 139.301 191.433 139.329 190.841 139.164C190.792 139.148 190.739 139.152 190.692 139.175C190.646 139.198 190.611 139.239 190.594 139.287C190.578 139.337 190.581 139.39 190.603 139.437C190.624 139.484 190.663 139.521 190.711 139.541C191.406 139.731 192.142 139.697 192.816 139.442C192.861 139.417 192.896 139.376 192.912 139.326C192.928 139.277 192.924 139.223 192.902 139.176Z" fill="#3B1411"/>
<path d="M184.089 178.6C183.895 179.79 183.469 180.929 182.833 181.953C182.197 182.977 181.366 183.864 180.386 184.565C180.182 184.713 180.447 185.003 180.657 184.855C181.675 184.12 182.537 183.19 183.195 182.12C183.853 181.049 184.293 179.859 184.49 178.618C184.527 178.365 184.132 178.352 184.089 178.6Z" fill="#A86114"/>
<path d="M196.42 178.043L184.256 178.396C184.002 178.396 183.984 178.804 184.256 178.791L196.414 178.439C196.655 178.433 196.673 178.037 196.42 178.043Z" fill="#A86114"/>
<path d="M198.877 183.062C198.104 182.531 197.484 181.806 197.078 180.96C196.672 180.115 196.494 179.177 196.562 178.241C196.562 177.988 196.186 177.969 196.161 178.241C196.092 179.247 196.287 180.253 196.725 181.16C197.163 182.068 197.831 182.845 198.661 183.415C198.871 183.538 199.087 183.205 198.877 183.062Z" fill="#A86114"/>
<path d="M183.632 180.349L171.35 171.034C170.434 171.591 169.689 172.391 169.198 173.346C168.707 174.3 168.488 175.372 168.567 176.442L181.855 183.273C182.582 182.387 183.181 181.403 183.632 180.349Z" fill="#FFC9B9"/>
<path d="M171.455 170.873C170.319 171.424 169.382 172.315 168.774 173.422C168.166 174.529 167.917 175.799 168.06 177.054C168.091 177.308 168.48 177.215 168.449 176.968C168.323 175.799 168.562 174.619 169.133 173.591C169.705 172.564 170.581 171.739 171.64 171.232C171.869 171.114 171.683 170.768 171.455 170.873Z" fill="#A86114"/>
<path d="M173.467 170.824C172.948 170.217 172.254 169.786 171.48 169.59C170.707 169.394 169.892 169.443 169.147 169.73C168.912 169.822 169.097 170.175 169.332 170.082C170.002 169.829 170.734 169.789 171.427 169.97C172.12 170.15 172.74 170.541 173.202 171.089C173.356 171.287 173.652 171.021 173.467 170.824Z" fill="#A86114"/>
<path d="M179.262 158.443C179.262 158.189 178.849 158.171 178.867 158.443C179.133 162.235 179.034 166.043 178.571 169.816C178.571 170.07 178.935 170.088 178.966 169.816C179.429 166.043 179.528 162.235 179.262 158.443Z" fill="#A86114"/>
<path d="M192.847 147.589C192.767 147.348 192.378 147.434 192.458 147.681C192.773 148.615 192.291 149.536 191.742 150.24C191.498 150.599 191.212 150.927 190.89 151.217C190.73 151.354 190.527 151.43 190.316 151.43C190.106 151.43 189.902 151.354 189.742 151.217C189.391 150.976 189.082 150.679 188.742 150.426C188.385 150.162 188.014 149.917 187.632 149.69C186.87 149.251 186.066 148.893 185.231 148.621C184.373 148.343 183.237 148.003 183.095 146.952C183.058 146.699 182.675 146.785 182.706 147.039C182.836 147.99 183.712 148.516 184.558 148.806C185.539 149.119 186.489 149.52 187.397 150.006C187.824 150.26 188.236 150.538 188.631 150.84C188.99 151.162 189.376 151.452 189.786 151.705C190.705 152.163 191.359 151.378 191.884 150.723C192.6 149.802 193.217 148.707 192.847 147.589Z" fill="#A86114"/>
<path d="M186.428 152.453C186.342 152.218 185.953 152.299 186.039 152.54C186.9 155 187.135 157.636 186.724 160.211C186.687 160.458 187.082 160.476 187.125 160.211C187.536 157.607 187.297 154.942 186.428 152.453Z" fill="white"/>
<path d="M193.378 151.915C193.304 151.674 192.915 151.761 192.989 152.002C193.887 154.847 194.04 157.876 193.433 160.798C193.378 161.045 193.754 161.169 193.81 160.915C194.436 157.928 194.288 154.829 193.378 151.915Z" fill="white"/>
<path d="M179.491 268.61L177.065 255.407C176.244 250.926 175.88 241.617 175.985 237.061L176.096 232.252L172.165 208.585H186.187L182.404 232.969L182.904 235.405C184.015 240.764 184.459 251 184.231 256.47L183.719 268.74L179.491 268.61Z" fill="#FFC9B9"/>
<path d="M202.796 208.585L194.575 268.61H190.347L189.631 252.384C189.421 247.724 190.107 238.298 191.643 233.897L188.008 208.418L202.796 208.585Z" fill="#FFC9B9"/>
<path d="M186.187 208.585H172.171L172.381 209.858H185.99L186.187 208.585Z" fill="#FFAB90"/>
<path d="M182.404 232.969L185.99 209.858H172.381L176.084 232.252L175.973 237.061C175.868 241.617 176.232 250.926 177.053 255.407L179.478 268.61L183.706 268.727L184.219 256.47C184.447 251 184.002 240.764 182.892 235.405L182.404 232.969Z" fill="#FFC9B9"/>
<path d="M202.802 208.585L188.014 208.411L188.218 209.858H202.623L202.802 208.585Z" fill="#FFAB90"/>
<path d="M188.218 209.858L191.643 233.897C190.107 238.298 189.421 247.724 189.631 252.384L190.347 268.61H194.575L202.598 209.858H188.218Z" fill="#FFC9B9"/>
<path d="M213.646 121.659V121.628L216.059 117.109L213.473 115.144L210.912 116.126L210.455 119.897C210.3 120.404 210.217 120.931 210.208 121.461L213.646 121.659Z" fill="#FFC9B9"/>
<path d="M213.183 70.2003L222.089 88.2679L242 91.1669L227.595 105.229L230.995 125.089L213.183 115.712L195.377 125.089L198.778 105.229L184.373 91.1669L204.283 88.2679L213.183 70.2003Z" fill="#F0A37E"/>
<path d="M192.328 90.011L184.373 91.1669L198.772 105.229L195.377 125.089L213.183 115.712L230.989 125.089L228.107 108.239C214.251 107.646 200.488 101.162 192.328 90.011Z" fill="#FEA30A"/>
<path d="M210.93 121.133C211.226 120.886 211.46 120.572 211.614 120.218C211.767 119.864 211.835 119.479 211.813 119.093C211.821 118.712 211.736 118.335 211.565 117.994C211.394 117.654 211.142 117.361 210.832 117.14C210.815 116.553 210.621 115.985 210.273 115.513C209.926 115.04 209.442 114.685 208.888 114.495C209.588 116.757 210.031 119.092 210.208 121.455L210.93 121.133Z" fill="#FFC9B9"/>
<path d="M210.147 115.15C210.498 115.335 210.622 115.867 210.696 116.33C210.694 116.582 210.761 116.83 210.888 117.048C211.015 117.265 211.198 117.445 211.418 117.567C211.785 117.932 212.005 118.421 212.035 118.939C212.046 119.556 211.954 120.17 211.764 120.756C211.708 120.948 211.511 120.799 211.56 120.614C211.746 120.057 211.828 119.47 211.801 118.883C211.776 118.639 211.7 118.402 211.577 118.189C211.455 117.976 211.289 117.792 211.091 117.647C210.925 117.528 210.79 117.371 210.696 117.19C210.605 116.993 210.543 116.785 210.511 116.571C210.437 116.145 210.387 115.582 210.042 115.403C209.881 115.36 210.011 115.082 210.147 115.15Z" fill="#FFAB90"/>
<path d="M191.187 129.231C190.762 129.673 190.273 130.048 189.736 130.343C189.213 130.625 188.783 131.055 188.502 131.579C188.273 132.16 188.502 132.785 188.459 133.391C188.428 133.812 188.3 134.221 188.086 134.585C187.872 134.95 187.577 135.26 187.224 135.492C186.401 136.037 185.417 136.285 184.434 136.197C184.33 134.293 184.249 132.284 185.379 130.634C186.229 129.473 187.437 128.623 188.817 128.217C190.002 127.809 192.6 127.481 191.187 129.231Z" fill="#6C301E"/>
<path d="M51.6649 134.608C51.0477 135.393 50.4305 136.141 49.9244 136.796C46.4003 137.544 45.3017 138.651 43.8266 141.939L46.4003 154.505C51.5168 152.725 55.4174 147.669 58.8243 143.453L59.6822 142.384C59.4111 142.366 59.1412 142.333 58.8737 142.285C57.0268 141.91 55.3417 140.969 54.0506 139.594C52.7595 138.22 51.926 136.477 51.6649 134.608Z" fill="#465A94"/>
<path d="M63.2743 130.504C62.7311 128.81 61.4968 127.012 59.7254 127.055C58.7568 127.166 57.8541 127.601 57.1641 128.291C55.4792 129.7 53.4609 132.315 51.6649 134.614C51.926 136.484 52.7595 138.226 54.0506 139.601C55.3417 140.976 57.0268 141.916 58.8737 142.291C59.1412 142.339 59.4111 142.372 59.6822 142.39C62.6632 138.601 64.7864 135.226 63.2743 130.504Z" fill="#FFAB91"/>
<path d="M28.5388 142.866C28.528 142.355 28.4129 141.851 28.2007 141.385C27.9884 140.919 27.6834 140.502 27.3045 140.159C26.5557 139.468 25.6613 138.955 24.6876 138.657C22.5822 137.991 20.3325 137.931 18.1947 138.484C14.4305 135.92 10.8065 133.155 7.33838 130.201C5.19674 131.783 2.96251 135.146 1.28375 137.223C7.85682 145.289 16.4419 150.624 26.1997 154.215L28.5388 142.866Z" fill="#FFAB91"/>
<path d="M28.5388 142.866C28.528 142.355 28.4129 141.851 28.2006 141.385C27.9884 140.919 27.6834 140.502 27.3044 140.159C26.5556 139.468 25.6613 138.955 24.6875 138.657C22.5822 137.991 20.3325 137.931 18.1947 138.484C17.0838 137.699 15.9605 136.901 14.8495 136.092C12.5413 139.046 11.4797 142.6 11.0538 146.334C15.735 149.637 20.8427 152.289 26.2367 154.215L28.5388 142.866Z" fill="#465A94"/>
<path d="M24.3666 153.504C20.0463 150.111 15.8556 146.47 11.6464 142.934C11.3677 144.053 11.1616 145.189 11.0292 146.334C15.1677 149.258 19.6465 151.665 24.3666 153.504Z" fill="#1D253D"/>
<path d="M23.7988 187.705C37.3153 189.324 37.1178 197.755 37.1178 197.755L31.6556 232.889L27.7612 263.517H21.3115C18.5527 223.271 23.7988 187.705 23.7988 187.705Z" fill="#FE5402"/>
<path d="M33.4825 197.273C33.4825 197.273 27.4711 193.07 26.7675 189.398L49.332 190.27C49.332 190.27 53.1092 237.735 53.0351 263.529H46.6163L33.4825 197.273Z" fill="#FE5402"/>
<path d="M52.4982 263.529C52.4982 264.487 52.4982 265.42 52.4982 266.311H47.4002L47.1163 263.529H52.4982Z" fill="#FFAB91"/>
<path d="M27.2242 263.529C27.2242 264.487 27.2242 265.42 27.2242 266.311H22.1263L21.8423 263.529H27.2242Z" fill="#FFAB91"/>
<path d="M28.8351 193.088C27.6439 191.784 26.5947 190.295 26.3293 188.879L49.1283 187.705C49.1283 187.705 49.3134 190.375 49.3998 191.487C42.6969 193.256 35.7303 193.798 28.8351 193.088Z" fill="#A86114"/>
<path d="M47.073 265.897L53.0413 265.717C54.731 267.663 55.9103 270 56.4728 272.517H45.709C45.9139 270.266 46.3715 268.045 47.073 265.897Z" fill="#465A94"/>
<path d="M56.4729 272.523C56.5284 272.764 56.584 273.005 56.6272 273.252C56.6459 273.338 56.646 273.428 56.6274 273.514C56.6089 273.6 56.572 273.682 56.5194 273.753C56.4667 273.823 56.3995 273.882 56.3223 273.925C56.2451 273.968 56.1596 273.993 56.0717 274H46.1967C46.0339 273.987 45.8828 273.911 45.7764 273.787C45.67 273.663 45.6169 273.502 45.6288 273.339C45.6288 273.067 45.672 272.795 45.6967 272.523H56.4729Z" fill="#A86114"/>
<path d="M27.5514 265.897L21.577 265.717C19.9167 267.603 9.89974 269.982 9.31958 272.517H28.9277C28.7218 270.265 28.2601 268.044 27.5514 265.897Z" fill="#465A94"/>
<path d="M9.29487 272.523C9.23932 272.764 9.1776 273.005 9.1344 273.252C9.11562 273.338 9.11552 273.428 9.13412 273.514C9.15271 273.6 9.18957 273.682 9.24221 273.753C9.29485 273.823 9.36204 273.882 9.43926 273.925C9.51648 273.968 9.60194 273.993 9.68987 274H28.4277C28.5905 273.987 28.7416 273.911 28.848 273.787C28.9544 273.663 29.0075 273.502 28.9956 273.339C28.9956 273.067 28.9524 272.795 28.9277 272.523H9.29487Z" fill="#A86114"/>
<path d="M47.752 235.479C48.4926 234.094 49.2641 232.741 49.8751 231.276C50.4697 229.785 50.9746 228.259 51.3872 226.708C51.4428 226.516 51.6896 226.597 51.6588 226.788C51.3601 228.388 50.8882 229.951 50.2516 231.449C49.6787 232.95 48.9265 234.376 48.0112 235.695C47.8939 235.862 47.6594 235.652 47.752 235.479Z" fill="#A86114"/>
<path d="M24.3543 144.498C24.4065 143.592 24.7128 142.72 25.2379 141.981C25.7631 141.242 26.4858 140.666 27.323 140.32C31.0155 138.849 34.9947 138.242 38.957 138.546C42.577 138.827 46.1486 139.553 49.5912 140.709C50.6876 141.065 51.6204 141.802 52.2205 142.788C52.8206 143.773 53.0483 144.941 52.8623 146.08C50.7121 159.599 49.8852 173.296 50.3935 186.975C50.4306 187.859 50.5108 189.132 49.6652 189.398C41.9072 191.821 30.841 192.223 23.4594 190.251C21.6078 189.763 23.0705 188.069 23.0644 186.172C23.0273 172.585 23.6569 157.942 24.3543 144.498Z" fill="#465A94"/>
<path d="M41.3888 129.917C41.1532 132.945 41.2235 135.989 41.5986 139.003C41.637 139.301 41.5935 139.605 41.4728 139.88C41.3521 140.156 41.1587 140.393 40.9135 140.567C39.5113 141.545 37.7922 141.958 36.0994 141.723C35.6916 141.656 35.3239 141.437 35.07 141.111C34.816 140.784 34.6943 140.374 34.7293 139.961C34.8876 138.018 34.9432 136.069 34.8959 134.12C36.5888 132.097 38.8516 130.632 41.3888 129.917Z" fill="#FFAB91"/>
<path d="M34.9206 134.12C36.6135 132.097 38.8763 130.632 41.4134 129.917C41.3146 131.211 41.2714 132.505 41.2838 133.799C40.1296 136.951 38.0497 139.98 35.2415 141.272C35.0687 141.103 34.9354 140.898 34.8511 140.671C34.7668 140.445 34.7336 140.202 34.7539 139.961C34.9122 138.018 34.9679 136.069 34.9206 134.12Z" fill="#FF8A65"/>
<path d="M42.0059 129.169C42.3577 127.852 42.7095 126.542 43.0551 125.225C43.2895 124.551 43.3676 123.832 43.2835 123.124C43.2331 122.771 43.0679 122.444 42.8135 122.195C42.559 121.946 42.2296 121.788 41.8763 121.745C40.9274 120.376 39.6276 119.288 38.1135 118.596C36.5995 117.905 34.9272 117.634 33.2727 117.814C32.1134 117.897 31.0206 118.388 30.1867 119.199C29.2918 120.181 29.0696 121.603 29.0758 122.907C29.0758 124.496 29.7979 124.669 30.8842 125.819C31.9704 126.968 33.0752 128.909 34.5873 129.132C37.0413 129.552 39.5478 129.565 42.0059 129.169Z" fill="#3E2410"/>
<path d="M41.6356 129.193L42.5799 125.596C42.7919 124.983 42.8636 124.33 42.7898 123.686C42.7398 123.369 42.5881 123.077 42.3576 122.854C42.1271 122.631 41.8303 122.489 41.5122 122.45C40.6602 121.202 39.4853 120.209 38.1132 119.579C36.7411 118.948 35.2236 118.704 33.7232 118.871C32.6739 118.936 31.6822 119.374 30.9274 120.107C30.1852 121.082 29.8271 122.297 29.9214 123.519C29.9214 124.959 30.5756 125.12 31.5569 126.171C32.5382 127.222 33.5443 128.959 34.8897 129.187C37.1223 129.566 39.4024 129.568 41.6356 129.193Z" fill="#170D05"/>
<path d="M30.7175 124.984C30.1559 129.212 31.8902 136.691 34.2232 136.778C39.2039 136.957 40.2716 133.823 41.1048 130.751C41.1995 130.837 41.3111 130.901 41.4323 130.941C41.5535 130.98 41.6817 130.993 41.8084 130.98C42.2355 130.873 42.6062 130.608 42.8453 130.238C43.228 129.663 43.6168 128.773 43.2094 128.124C42.7157 127.333 41.6233 127.172 41.1604 128.124C41.1123 126.6 40.7707 125.099 40.1544 123.705C40.0728 123.478 39.942 123.272 39.7712 123.102C39.6004 122.932 39.3939 122.802 39.1668 122.722C36.8386 121.943 34.3265 121.906 31.9766 122.617C31.7604 122.686 31.5641 122.807 31.4041 122.968C31.2441 123.13 31.1251 123.327 31.057 123.544C30.9091 124.015 30.7956 124.496 30.7175 124.984Z" fill="#FFAB91"/>
<g style="mix-blend-mode:multiply" opacity="0.37">
<path d="M38.9199 131.919C36.4228 131.24 33.762 131.525 31.4643 132.717C32.1185 134.985 33.0998 136.735 34.217 136.778C38.9631 136.945 40.1543 134.108 41.006 131.178L41.327 127.939C40.5123 129.268 39.7223 130.597 38.9199 131.919Z" fill="#170D05"/>
</g>
<path d="M43.2403 128.124C43.1622 127.969 43.0506 127.833 42.9137 127.726C42.7767 127.619 42.6177 127.544 42.4482 127.506C42.2787 127.468 42.103 127.469 41.9336 127.507C41.7643 127.546 41.6056 127.621 41.469 127.729L41.3394 127.939L41.0184 131.178C41.0555 131.036 41.0987 130.893 41.1357 130.751C41.2304 130.837 41.3419 130.901 41.4632 130.941C41.5844 130.98 41.7126 130.993 41.8393 130.98C42.2664 130.873 42.6371 130.608 42.8762 130.238C43.2403 129.663 43.6168 128.773 43.2403 128.124Z" fill="#FFAB91"/>
<path d="M41.1604 128.099C41.1123 126.575 40.7707 125.074 40.1543 123.68C40.0728 123.453 39.9419 123.247 39.7711 123.077C39.6003 122.907 39.3939 122.777 39.1668 122.697C36.8386 121.918 34.3265 121.881 31.9766 122.592C31.7604 122.662 31.5641 122.782 31.4041 122.943C31.2441 123.105 31.125 123.302 31.057 123.519C30.9079 123.998 30.7944 124.488 30.7175 124.984C30.4803 127.586 30.7358 130.21 31.4705 132.717C33.7664 131.526 36.4247 131.242 38.92 131.919C39.7161 130.597 40.5061 129.268 41.3023 127.939V127.858C41.2435 127.931 41.1957 128.013 41.1604 128.099Z" fill="#FFAB91"/>
<path d="M41.3209 127.859V127.94L41.4505 127.729C41.404 127.769 41.3606 127.812 41.3209 127.859Z" fill="#FFAB91"/>
<path d="M35.2169 125.25C35.8958 124.385 37.7659 124.978 38.4509 125.534C38.5744 125.633 38.7287 125.763 38.7163 125.942C38.7131 125.987 38.6967 126.031 38.6694 126.067C38.642 126.103 38.6047 126.131 38.562 126.146C38.3522 126.202 38.1485 126.029 37.9757 125.936C37.7424 125.812 37.4932 125.72 37.2351 125.664C36.9189 125.596 36.5941 125.577 36.2723 125.608C35.9706 125.693 35.6596 125.738 35.3465 125.744C35.1181 125.707 35.1181 125.398 35.2169 125.25Z" fill="#170D05"/>
<path d="M36.229 126.758C36.277 126.67 36.3564 126.604 36.4512 126.573C36.5011 126.548 36.556 126.535 36.6117 126.536H36.7228C36.7934 126.552 36.8578 126.588 36.9079 126.641L36.9696 126.721C37.006 126.785 37.0251 126.857 37.0252 126.931V126.981C37.0405 127.031 37.0405 127.085 37.0252 127.135C37.0077 127.187 36.9781 127.233 36.9388 127.271C36.9028 127.312 36.8557 127.343 36.803 127.358C36.7534 127.383 36.6983 127.396 36.6425 127.395H36.5314C36.4637 127.376 36.4021 127.34 36.3525 127.29L36.2846 127.203C36.2476 127.142 36.2284 127.071 36.229 126.999V126.95C36.2117 126.887 36.2117 126.821 36.229 126.758Z" fill="#3B1411"/>
<path d="M31.6927 127.018C31.7071 126.965 31.7372 126.917 31.7791 126.882C31.8142 126.844 31.859 126.816 31.9087 126.801C31.9564 126.771 32.013 126.758 32.0692 126.764H32.1803C32.2493 126.784 32.3127 126.82 32.3654 126.869L32.4272 126.956C32.464 127.02 32.4832 127.092 32.4827 127.166V127.209C32.4891 127.266 32.476 127.322 32.4457 127.37C32.4311 127.422 32.4035 127.468 32.3654 127.506C32.3256 127.543 32.2797 127.572 32.2297 127.593C32.1802 127.618 32.1245 127.629 32.0692 127.623H31.9581C31.8904 127.604 31.8287 127.568 31.7791 127.518L31.7112 127.432C31.6743 127.368 31.6552 127.295 31.6557 127.222V127.191C31.6463 127.13 31.6595 127.069 31.6927 127.018Z" fill="#3B1411"/>
<path d="M30.8965 125.843C30.9896 125.697 31.1124 125.571 31.257 125.476C31.4017 125.38 31.5648 125.315 31.7359 125.287C32.0573 125.2 32.3958 125.2 32.7172 125.287C32.789 125.307 32.8511 125.353 32.892 125.415C32.9328 125.478 32.9497 125.553 32.9394 125.627C32.9024 125.88 32.6864 125.887 32.4889 125.887C32.2226 125.886 31.9587 125.937 31.7112 126.035C31.5446 126.103 30.6682 126.548 30.841 125.992C30.8547 125.941 30.8733 125.891 30.8965 125.843Z" fill="#170D05"/>
<path d="M41.4998 129.663C41.5338 129.676 41.5699 129.681 41.6061 129.679C41.6422 129.677 41.6776 129.668 41.7099 129.651C41.7423 129.635 41.771 129.613 41.7943 129.585C41.8176 129.557 41.835 129.525 41.8454 129.49C41.8489 129.454 41.844 129.417 41.8312 129.383C41.8183 129.348 41.7979 129.318 41.7714 129.292C41.75 129.263 41.7221 129.24 41.6899 129.224C41.6577 129.208 41.6222 129.199 41.5862 129.2C41.5612 129.199 41.5368 129.192 41.5147 129.18C41.4926 129.169 41.4734 129.152 41.4586 129.132C41.4437 129.112 41.4336 129.088 41.429 129.064C41.4244 129.039 41.4254 129.014 41.4319 128.99C41.4699 128.754 41.5899 128.54 41.7707 128.385C41.9515 128.23 42.1814 128.144 42.4194 128.143C42.5322 128.148 42.6413 128.184 42.7348 128.248C42.8284 128.311 42.9029 128.399 42.9502 128.501C42.987 128.603 42.987 128.715 42.9502 128.816C42.9502 128.872 42.8576 129.033 42.7712 128.952C42.6848 128.872 42.7404 128.835 42.7218 128.779C42.7048 128.716 42.6777 128.655 42.6416 128.6C42.6046 128.548 42.5539 128.507 42.495 128.482C42.4362 128.457 42.3716 128.448 42.3083 128.458C42.1868 128.477 42.0731 128.53 41.9803 128.611C41.8875 128.692 41.8194 128.797 41.7837 128.915C41.8995 128.966 41.9938 129.055 42.0503 129.168C42.1067 129.281 42.1216 129.411 42.0923 129.533C42.0505 129.676 41.9552 129.797 41.8263 129.871C41.6974 129.945 41.545 129.965 41.401 129.929C41.2468 129.904 41.327 129.626 41.4998 129.663Z" fill="#FF8A65"/>
<path d="M29.0882 187.717C32.3139 188.012 35.5611 187.465 38.5126 186.128C41.2301 184.883 43.6045 182.995 45.4313 180.627C46.4429 179.326 47.2734 177.893 47.9001 176.368C47.9927 176.152 48.326 176.325 48.2334 176.548C47.0694 179.323 45.2677 181.784 42.9749 183.73C40.5349 185.788 37.6126 187.192 34.4824 187.81C32.6759 188.163 30.8281 188.254 28.9956 188.082C28.7672 188.063 28.8536 187.698 29.0882 187.717Z" fill="#1D253D"/>
<path d="M35.044 142.427C36.3221 142.783 37.6697 142.806 38.9593 142.495C40.2488 142.183 41.4377 141.547 42.4133 140.647C42.5861 140.486 42.8638 140.734 42.6848 140.901C41.6656 141.851 40.4202 142.524 39.0674 142.855C37.7146 143.186 36.2996 143.164 34.9576 142.792C34.7293 142.73 34.8095 142.366 35.044 142.427Z" fill="#1D253D"/>
<path d="M32.6987 128.829C33.03 128.517 33.2728 128.122 33.4023 127.685C33.4393 127.444 33.8035 127.531 33.7665 127.766C33.6245 128.569 32.8407 129.002 32.5753 129.725C32.4995 129.929 32.4833 130.15 32.5286 130.363C32.5739 130.576 32.6789 130.771 32.8311 130.926C32.9834 131.081 33.1766 131.189 33.3882 131.238C33.5998 131.287 33.8209 131.275 34.0257 131.202C34.0701 131.196 34.1154 131.206 34.1535 131.23C34.1916 131.253 34.2202 131.29 34.2341 131.332C34.2481 131.375 34.2466 131.422 34.23 131.463C34.2133 131.505 34.1825 131.54 34.1429 131.561C33.9087 131.637 33.6595 131.656 33.4164 131.616C33.1733 131.576 32.9434 131.478 32.7462 131.33C32.5489 131.182 32.3901 130.989 32.283 130.766C32.1759 130.544 32.1237 130.299 32.1309 130.053C32.1838 129.594 32.3829 129.165 32.6987 128.829Z" fill="#FF8A65"/>
<path d="M36.8339 132.667C36.4787 133.13 36.0018 133.484 35.4567 133.691C34.9116 133.897 34.3199 133.947 33.7479 133.836C33.5011 133.786 33.3776 134.163 33.6245 134.213C34.2769 134.343 34.9526 134.286 35.5747 134.05C36.1967 133.814 36.74 133.408 37.1425 132.877C37.3215 132.674 36.9882 132.463 36.8339 132.667Z" fill="#3B1411"/>
<path d="M31.3902 59L40.2963 77.0676L60.2068 79.9666L45.7954 94.0288L49.2023 113.889L31.3902 104.512L13.5843 113.889L16.985 94.0288L2.57983 79.9666L22.4904 77.0676L31.3902 59Z" fill="#F0A37E"/>
<path d="M10.5293 78.8107L2.5675 79.9666L16.9789 94.0349L13.6152 113.889L31.4211 104.518L49.227 113.889L46.3262 97.039C32.458 96.4456 18.6947 89.9615 10.5293 78.8107Z" fill="#FEA30A"/>
<path d="M18.9107 106.033C19.1451 105.987 19.3861 105.987 19.6205 106.033C19.7361 106.061 19.8419 106.12 19.9266 106.204C20.0114 106.288 20.0719 106.393 20.1019 106.508C20.112 106.652 20.0778 106.796 20.0038 106.92C19.9299 107.044 19.8197 107.142 19.6883 107.201C19.4227 107.31 19.1415 107.377 18.8551 107.399C17.8779 107.542 16.9536 107.933 16.1704 108.536C15.7856 108.879 15.3727 109.189 14.936 109.463C13.4115 110.322 12.2204 108.672 13.8065 107.695C15.3672 106.776 17.1089 106.209 18.9107 106.033Z" fill="#FFAB91"/>
<path d="M19.818 107.51C20.052 107.46 20.2937 107.46 20.5277 107.51C20.6433 107.541 20.7486 107.602 20.8332 107.686C20.9177 107.771 20.9784 107.876 21.0092 107.992C21.0184 108.136 20.9838 108.279 20.9099 108.403C20.8361 108.526 20.7265 108.625 20.5956 108.684C20.3296 108.792 20.0485 108.856 19.7624 108.876C18.7848 109.022 17.8606 109.415 17.0777 110.019C16.6897 110.359 16.2771 110.669 15.8433 110.947C14.3188 111.8 13.1276 110.155 14.7138 109.179C16.274 108.258 18.0158 107.688 19.818 107.51Z" fill="#FFAB91"/>
<path d="M19.5526 109.173C19.7869 109.127 20.028 109.127 20.2623 109.173C20.379 109.198 20.486 109.256 20.5703 109.34C20.6547 109.425 20.7128 109.532 20.7376 109.649C20.7505 109.793 20.7174 109.938 20.6431 110.062C20.5689 110.186 20.4572 110.284 20.3241 110.341C20.0586 110.451 19.7773 110.518 19.4908 110.539C18.5089 110.698 17.5856 111.111 16.8123 111.738C16.4234 112.074 16.0109 112.382 15.5779 112.659C14.0472 113.518 12.8561 111.868 14.4484 110.891C16.0041 109.952 17.7463 109.365 19.5526 109.173Z" fill="#FFAB91"/>
<path d="M18.7564 110.872C18.948 110.835 19.1449 110.835 19.3365 110.872C19.4312 110.897 19.5174 110.946 19.5859 111.016C19.6544 111.086 19.7026 111.173 19.7254 111.268C19.7348 111.386 19.7071 111.503 19.6462 111.604C19.5853 111.705 19.4942 111.784 19.3859 111.831C19.169 111.918 18.9401 111.972 18.707 111.991C17.904 112.123 17.149 112.462 16.516 112.974C16.2081 113.25 15.8801 113.502 15.5347 113.728C14.3003 114.427 13.319 113.11 14.615 112.282C15.8769 111.516 17.2901 111.036 18.7564 110.872Z" fill="#FFAB91"/>
<path d="M13.6522 107.85C12.9251 108.445 12.2997 109.155 11.8007 109.952C11.1616 110.846 10.8979 111.955 11.0662 113.042C11.1692 113.583 11.4421 114.077 11.8452 114.452C12.2482 114.826 12.7602 115.062 13.3066 115.125C13.9641 115.132 14.6042 114.914 15.1212 114.507C15.6649 114.099 16.1076 113.571 16.415 112.964C16.7225 112.357 16.8864 111.687 16.8942 111.007C16.9019 110.326 16.7533 109.653 16.4598 109.039C16.1662 108.425 15.7357 107.887 15.2014 107.467L13.6522 107.85Z" fill="#FFAB91"/>
<path d="M12.1278 110.854C9.65901 113.833 0.0555492 128.891 2.18535e-06 132.704C-0.0457317 133.722 0.124847 134.737 0.500442 135.683C0.876037 136.63 1.44808 137.485 2.17868 138.193C3.88829 139.695 5.88182 139.318 7.02362 137.353C9.06034 133.805 13.0844 118.111 14.0472 113.295L12.1278 110.854Z" fill="#FFAB91"/>
<path d="M44.0982 104.561C43.8642 104.512 43.6224 104.512 43.3884 104.561C43.2728 104.59 43.167 104.649 43.0822 104.733C42.9975 104.817 42.9369 104.922 42.907 105.037C42.8965 105.182 42.9312 105.327 43.0064 105.451C43.0816 105.575 43.1936 105.672 43.3267 105.73C43.5915 105.841 43.8733 105.905 44.1599 105.921C45.1346 106.071 46.0558 106.464 46.8385 107.065C47.2158 107.404 47.6181 107.714 48.042 107.992C49.5665 108.845 50.7638 107.201 49.1715 106.224C47.6205 105.309 45.8895 104.741 44.0982 104.561Z" fill="#FFAB91"/>
<path d="M43.1909 106.039C42.9569 105.989 42.7152 105.989 42.4812 106.039C42.3651 106.068 42.2591 106.129 42.1744 106.214C42.0896 106.298 42.0293 106.405 41.9998 106.521C41.9896 106.665 42.0246 106.808 42.0999 106.931C42.1751 107.054 42.2868 107.151 42.4194 107.207C42.6797 107.321 42.9572 107.39 43.2403 107.411C44.2157 107.558 45.1376 107.951 45.9189 108.554C46.2979 108.89 46.7 109.197 47.1224 109.475C48.6469 110.335 49.8442 108.69 48.2519 107.708C46.7052 106.792 44.9785 106.222 43.1909 106.039Z" fill="#FFAB91"/>
<path d="M43.4625 107.701C43.2281 107.656 42.9871 107.656 42.7527 107.701C42.6371 107.73 42.5313 107.789 42.4465 107.873C42.3618 107.957 42.3012 108.062 42.2713 108.177C42.2611 108.321 42.2954 108.465 42.3693 108.589C42.4433 108.713 42.5534 108.811 42.6848 108.87C42.952 108.98 43.2357 109.045 43.5242 109.061C44.4988 109.211 45.4201 109.604 46.2028 110.205C46.5789 110.545 46.9813 110.855 47.4063 111.132C48.9308 111.985 50.1219 110.341 48.5358 109.364C46.9848 108.449 45.2538 107.881 43.4625 107.701Z" fill="#FFAB91"/>
<path d="M44.2586 109.401C44.067 109.364 43.8701 109.364 43.6785 109.401C43.5836 109.426 43.4971 109.476 43.4277 109.546C43.3583 109.615 43.3086 109.702 43.2835 109.797C43.2768 109.914 43.3056 110.03 43.3662 110.131C43.4268 110.231 43.5163 110.311 43.6229 110.359C43.8412 110.449 44.0727 110.501 44.308 110.514C45.1033 110.635 45.8549 110.956 46.4929 111.447C46.8004 111.723 47.1284 111.975 47.4742 112.201C48.7086 112.906 49.6961 111.583 48.4 110.761C47.1332 110.015 45.7207 109.551 44.2586 109.401Z" fill="#FFAB91"/>
<path d="M49.3628 106.379C50.0881 106.976 50.7132 107.685 51.2144 108.48C51.8615 109.383 52.1256 110.505 51.9488 111.602C51.8446 112.143 51.5705 112.637 51.1664 113.012C50.7624 113.387 50.2494 113.622 49.7023 113.685C49.0468 113.691 48.409 113.473 47.8939 113.067C47.3502 112.658 46.9075 112.13 46.6 111.524C46.2926 110.917 46.1286 110.247 46.1209 109.566C46.1131 108.886 46.2618 108.213 46.5553 107.599C46.8488 106.985 47.2794 106.447 47.8137 106.026L49.3628 106.379Z" fill="#FFAB91"/>
<path d="M50.8873 109.383C53.3561 112.362 62.9595 127.419 63.0151 131.233C63.0587 132.25 62.8866 133.264 62.5099 134.209C62.1333 135.154 61.5608 136.009 60.8302 136.716C59.1268 138.224 57.1271 137.847 55.9853 135.882C53.9547 132.334 49.9245 116.64 48.9678 111.824L50.8873 109.383Z" fill="#FFAB91"/>
<path d="M59.1576 142.582C56.7341 145.442 54.3127 148.306 51.8933 151.174C51.202 151.998 50.5087 152.822 49.8133 153.646C49.6529 153.844 49.9183 154.135 50.0849 153.943L57.3431 145.345L59.423 142.872C59.5835 142.681 59.3181 142.384 59.1576 142.582Z" fill="#1D253D"/>
<path d="M23.8729 144.133C23.6548 147.492 23.4779 150.846 23.3421 154.196C23.2063 157.547 23.1096 160.919 23.052 164.315C23.0211 166.206 23.0026 168.104 22.9965 169.996C22.9965 170.249 23.3915 170.267 23.3915 169.996C23.3915 166.633 23.4429 163.275 23.5458 159.92C23.6486 156.566 23.7803 153.193 23.9408 149.802C24.0395 147.914 24.1506 146.025 24.274 144.133C24.2657 144.086 24.2411 144.043 24.2044 144.013C24.1677 143.982 24.1213 143.965 24.0735 143.965C24.0256 143.965 23.9792 143.982 23.9425 144.013C23.9058 144.043 23.8812 144.086 23.8729 144.133Z" fill="#1D253D"/>
<path d="M31.3532 129.527C30.9687 129.527 30.5928 129.413 30.2731 129.199C29.9534 128.985 29.7042 128.681 29.557 128.325C29.4099 127.97 29.3714 127.578 29.4464 127.2C29.5214 126.823 29.7066 126.476 29.9785 126.203C30.2504 125.931 30.5968 125.746 30.9739 125.671C31.351 125.595 31.7419 125.634 32.0972 125.781C32.4524 125.929 32.7561 126.178 32.9697 126.499C33.1833 126.819 33.2974 127.195 33.2974 127.58C33.2957 128.096 33.0904 128.59 32.7261 128.955C32.3619 129.32 31.8683 129.526 31.3532 129.527ZM31.3532 125.819C31.0077 125.819 30.6701 125.921 30.3828 126.113C30.0956 126.306 29.8717 126.579 29.7395 126.898C29.6073 127.218 29.5727 127.57 29.6401 127.909C29.7075 128.248 29.8739 128.56 30.1181 128.805C30.3624 129.049 30.6736 129.216 31.0125 129.284C31.3513 129.351 31.7025 129.316 32.0216 129.184C32.3408 129.052 32.6136 128.827 32.8055 128.54C32.9974 128.252 33.0999 127.914 33.0999 127.568C33.0966 127.106 32.9111 126.664 32.5839 126.339C32.2567 126.014 31.8143 125.831 31.3532 125.831V125.819Z" fill="#170D05"/>
<path d="M36.1117 129.527C35.7272 129.527 35.3514 129.413 35.0316 129.199C34.7119 128.985 34.4627 128.681 34.3156 128.325C34.1684 127.97 34.1299 127.578 34.205 127.2C34.28 126.823 34.4651 126.476 34.737 126.203C35.0089 125.931 35.3553 125.746 35.7325 125.671C36.1096 125.595 36.5005 125.634 36.8557 125.781C37.211 125.929 37.5146 126.178 37.7282 126.499C37.9419 126.819 38.0559 127.195 38.0559 127.58C38.0559 128.097 37.8511 128.592 37.4865 128.957C37.1219 129.322 36.6274 129.527 36.1117 129.527ZM36.1117 125.819C35.7663 125.819 35.4286 125.921 35.1414 126.113C34.8541 126.306 34.6303 126.579 34.4981 126.898C34.3659 127.218 34.3313 127.57 34.3987 127.909C34.4661 128.248 34.6324 128.56 34.8767 128.805C35.121 129.049 35.4322 129.216 35.771 129.284C36.1098 129.351 36.461 129.316 36.7802 129.184C37.0993 129.052 37.3721 128.827 37.564 128.54C37.756 128.252 37.8584 127.914 37.8584 127.568C37.8551 127.106 37.6697 126.664 37.3425 126.339C37.0153 126.014 36.5729 125.831 36.1117 125.831V125.819Z" fill="#170D05"/>
<path d="M33.2233 126.974L33.0875 126.832C33.2617 126.67 33.4878 126.576 33.7253 126.565C33.9629 126.555 34.1963 126.63 34.3836 126.777L34.2602 126.931C34.1088 126.818 33.923 126.76 33.734 126.768C33.5451 126.776 33.3647 126.849 33.2233 126.974Z" fill="#170D05"/>
<path d="M41.7343 127.58C40.518 127.123 39.2061 126.98 37.9201 127.166V126.974C39.2389 126.778 40.5858 126.923 41.8331 127.395L41.7343 127.58Z" fill="#170D05"/>
</g>
<defs>
<clipPath id="clip0_129_2305">
<rect width="97" height="276" fill="white" transform="translate(73)"/>
</clipPath>
<clipPath id="clip1_129_2305">
<rect width="242" height="215" fill="white" transform="translate(0 59)"/>
</clipPath>
</defs>
</svg>
