<?xml version="1.0" encoding="UTF-8"?>
<svg version="1.1" xmlns="http://www.w3.org/2000/svg" width="256" height="256">
<path d="M0 0 C1.24652344 -0.02900391 2.49304688 -0.05800781 3.77734375 -0.08789062 C13.17794627 -0.1524143 20.48775368 1.21068954 27.6875 7.5625 C28.30238281 8.08328125 28.91726562 8.6040625 29.55078125 9.140625 C32.13540335 12.21781963 33.70109576 15.67848844 35.375 19.3125 C36.2815332 19.31660889 37.18806641 19.32071777 38.12207031 19.32495117 C41.54469629 19.35221527 44.96562018 19.40159089 48.38769531 19.46508789 C49.85763821 19.48802567 51.32773981 19.50260566 52.79785156 19.50805664 C66.53134351 19.56894866 78.23430284 22.29276543 88.375 32.3125 C95.96478104 41.43042487 99.00835187 51.05161993 98.765625 62.7890625 C98.75996521 63.84032318 98.75430542 64.89158386 98.74847412 65.97470093 C98.72628043 69.296119 98.67611589 72.61641409 98.625 75.9375 C98.60491303 78.20441138 98.58666614 80.47133986 98.5703125 82.73828125 C98.52647179 88.26339685 98.45973273 93.78786816 98.375 99.3125 C99.08519287 99.29678955 99.79538574 99.2810791 100.52709961 99.26489258 C103.7888166 99.2019886 107.05040537 99.16333463 110.3125 99.125 C111.42947266 99.09986328 112.54644531 99.07472656 113.69726562 99.04882812 C125.06668062 98.94880395 133.11289018 101.27499122 141.375 109.3125 C148.15514099 117.70931694 148.68420456 126.19507173 148.67578125 136.6328125 C148.68006638 137.80963593 148.6843515 138.98645935 148.68876648 140.19894409 C148.69449287 142.67835854 148.69502255 145.15778978 148.69067383 147.63720703 C148.68750492 151.43160481 148.71102623 155.22522923 148.73632812 159.01953125 C148.73860037 161.43229068 148.73930496 163.84505221 148.73828125 166.2578125 C148.747491 167.39123077 148.75670074 168.52464905 148.76618958 169.69241333 C148.75996078 170.75056244 148.75373199 171.80871155 148.74731445 172.89892578 C148.74794388 173.82601349 148.7485733 174.7531012 148.7492218 175.70828247 C148.15307864 179.85685552 146.33268566 182.49162658 143.1875 185.1875 C139.33636907 186.72795237 136.31588655 186.54093535 132.375 185.3125 C129.44412793 183.05798302 128.54685712 181.82807135 127.375 178.3125 C127.26974153 176.66192697 127.21914545 175.00759058 127.20141602 173.35375977 C127.18792618 172.34583878 127.17443634 171.33791779 127.16053772 170.29945374 C127.14488014 168.66815773 127.14488014 168.66815773 127.12890625 167.00390625 C127.09597464 164.70767838 127.06276288 162.41145452 127.02929688 160.11523438 C126.98183074 156.48985488 126.93738641 152.86449242 126.89819336 149.23901367 C126.85852639 145.7438072 126.80697529 142.24893129 126.75390625 138.75390625 C126.74128502 137.12564659 126.74128502 137.12564659 126.72840881 135.4644928 C126.71176682 134.45341965 126.69512482 133.4423465 126.67797852 132.40063477 C126.66251732 131.06851707 126.66251732 131.06851707 126.64674377 129.70948792 C126.34748307 127.06977961 125.87030103 125.50734666 124.375 123.3125 C120.91200176 120.73672145 117.05655205 121.02974153 112.91601562 121.05371094 C112.17083176 121.0502063 111.42564789 121.04670166 110.65788269 121.04309082 C108.19890988 121.03430081 105.74022565 121.04011294 103.28125 121.046875 C101.57018987 121.04552756 99.85913011 121.04358637 98.14807129 121.04107666 C94.56368359 121.0381291 90.97939563 121.04241121 87.39501953 121.05175781 C82.80157786 121.06315214 78.20836992 121.0565907 73.61493683 121.04461288 C70.08219646 121.03738435 66.54951145 121.03968678 63.01676941 121.04486847 C61.3230944 121.04620222 59.62941437 121.04456687 57.93574524 121.03990936 C55.56835623 121.03482781 53.20134525 121.04257712 50.83398438 121.05371094 C50.13464279 121.04966248 49.43530121 121.04561401 48.71476746 121.04144287 C45.13444807 121.07262183 42.30271903 121.1348622 39.375 123.3125 C37.66112685 126.16454607 37.12354949 128.28554139 37.11430359 131.59422302 C37.10721878 132.44232544 37.10013397 133.29042786 37.09283447 134.16423035 C37.09531189 135.08641861 37.09778931 136.00860687 37.1003418 136.95874023 C37.09523087 137.9364035 37.09011993 138.91406677 37.08485413 139.9213562 C37.07094865 143.15466424 37.0719156 146.38775936 37.07421875 149.62109375 C37.07033242 151.86784444 37.06599789 154.11459439 37.06123352 156.36134338 C37.0537693 161.07140484 37.05406413 165.78139134 37.05932617 170.49145508 C37.06512182 176.52868835 37.04818827 182.56561495 37.0249815 188.60279751 C37.01025339 193.243045 37.0093712 197.88321846 37.01249123 202.52348518 C37.01197758 204.74943716 37.00673169 206.97539322 36.99667931 209.20132256 C36.98435001 212.31337318 36.99108575 215.42482429 37.00268555 218.53686523 C36.99504181 219.45702927 36.98739807 220.3771933 36.97952271 221.32524109 C37.02142432 227.85620769 37.02142432 227.85620769 40.375 233.3125 C44.86731374 235.46243947 48.9505005 235.5449614 53.87744141 235.49536133 C54.96639458 235.48839737 54.96639458 235.48839737 56.0773468 235.48129272 C58.46065548 235.46301323 60.84344414 235.42948275 63.2265625 235.39453125 C64.88991779 235.37595777 66.5532786 235.35787337 68.21664429 235.34025574 C71.69501551 235.30084034 75.17317088 235.25349779 78.65136719 235.20092773 C83.10783513 235.13449693 87.56419523 235.09093996 92.02099037 235.05366993 C95.45264874 235.02193112 98.8840255 234.97654601 102.31547165 234.92719078 C103.9588521 234.90549276 105.60230012 234.88840242 107.24577713 234.87601662 C109.54142492 234.85697931 111.83603227 234.81919745 114.13134766 234.77661133 C115.43673492 234.75947586 116.74212219 234.74234039 118.08706665 234.72468567 C121.53819726 234.29204108 122.95261263 233.75503355 125.375 231.3125 C126.3128158 228.99849528 126.3128158 228.99849528 126.8125 226.4375 C128.05661363 221.83091711 129.42752802 219.22611027 133.375 216.3125 C136.881422 214.83611179 138.31566196 215.29408475 142 216.4375 C145.68462761 218.48451534 146.89949959 219.40676362 148.375 223.3125 C149.30567598 231.02381529 147.11169101 238.12947489 142.8671875 244.6171875 C138.17307866 250.40294956 132.41031388 253.96739537 125.375 256.3125 C122.63891481 256.42425853 119.9276377 256.48017038 117.19091797 256.48950195 C116.35637589 256.49607315 115.5218338 256.50264435 114.66200256 256.50941467 C111.89706327 256.52914125 109.13217838 256.54081086 106.3671875 256.55078125 C104.94841497 256.55689454 104.94841497 256.55689454 103.50098038 256.56313133 C98.49154123 256.58399258 93.48212944 256.59829224 88.47265625 256.60766602 C83.31121548 256.61871097 78.15020814 256.65308864 72.98892021 256.69283772 C69.00991036 256.71905355 65.03100282 256.72736242 61.05191422 256.73094749 C59.15021982 256.73580316 57.24852967 256.7473879 55.34692001 256.76598549 C52.67608666 256.79047558 50.00636174 256.78939375 47.33544922 256.7824707 C46.17078377 256.80168579 46.17078377 256.80168579 44.98258972 256.82128906 C36.42501485 256.74099611 29.38511315 253.1244908 23.16796875 247.37890625 C18.15213469 241.59813018 15.26389974 234.46135924 15.23455811 226.82991028 C15.22884796 225.93710358 15.22313782 225.04429687 15.21725464 224.12443542 C15.21557785 222.66642265 15.21557785 222.66642265 15.21386719 221.17895508 C15.20641983 219.6343158 15.20641983 219.6343158 15.19882202 218.05847168 C15.18421046 214.64965141 15.17739941 211.2408777 15.171875 207.83203125 C15.16612195 205.4603424 15.16036423 203.08865355 15.15460205 200.71696472 C15.14409439 195.74123925 15.13825043 190.76552993 15.13476562 185.78979492 C15.12928681 179.42564822 15.10527067 173.0617161 15.07679367 166.6976366 C15.05813339 161.79645676 15.05295984 156.8953282 15.05142975 151.99411583 C15.04840947 149.64865638 15.04040213 147.3031977 15.02724457 144.95777321 C15.01011645 141.66935734 15.01208125 138.38146043 15.01855469 135.09301758 C15.0093399 134.13113022 15.00012512 133.16924286 14.9906311 132.1782074 C15.05479571 121.72935553 18.04657172 113.8457147 25.375 106.3125 C32.69719599 100.40007848 40.19893623 98.99810403 49.37109375 99.1171875 C50.62141136 99.12143234 50.62141136 99.12143234 51.89698792 99.12576294 C54.5356436 99.13687711 57.17394848 99.16196485 59.8125 99.1875 C61.61132319 99.19754115 63.41015175 99.20666501 65.20898438 99.21484375 C69.59778955 99.23678765 73.98633548 99.27125613 78.375 99.3125 C78.28094109 93.90449502 78.17473448 88.49691032 78.05761719 83.08935547 C78.01950427 81.25250658 77.98462161 79.41558754 77.953125 77.57861328 C77.90708774 74.92715506 77.84916016 72.27617244 77.7890625 69.625 C77.77173569 68.40731934 77.77173569 68.40731934 77.75405884 67.16503906 C77.55695661 59.42560497 76.52025277 52.43117897 71.375 46.3125 C67.32756874 43.23014967 63.36988428 42.02303988 58.375 41.3125 C58.40118408 42.28598389 58.42736816 43.25946777 58.4543457 44.26245117 C58.54510021 47.88705302 58.60233901 51.51155527 58.6496582 55.13696289 C58.67474547 56.70354114 58.70882415 58.27000299 58.75219727 59.83618164 C58.81311226 62.09290309 58.84126499 64.34807294 58.86328125 66.60546875 C58.88908768 67.30149704 58.9148941 67.99752533 58.94148254 68.71464539 C58.94372136 72.62908213 58.49329439 74.16894514 55.96948242 77.23168945 C52.79010317 79.78159529 51.33782106 80.43676061 47.37174988 80.45294189 C46.53481094 80.45865204 45.69787201 80.46436218 44.83557129 80.47024536 C43.45552917 80.47192215 43.45552917 80.47192215 42.04760742 80.47363281 C41.07998978 80.47859772 40.11237213 80.48356262 39.11543274 80.48867798 C35.90377093 80.5033225 32.69215851 80.51010563 29.48046875 80.515625 C27.25328062 80.52137483 25.02609251 80.52713258 22.79890442 80.53289795 C18.12399057 80.54341464 13.44909395 80.54925285 8.77416992 80.55273438 C2.7817389 80.55821869 -3.21046485 80.58224274 -9.20282459 80.61070633 C-13.80531989 80.62932427 -18.40776037 80.63453788 -23.01029015 80.63607025 C-25.21950205 80.63909951 -27.42871292 80.64713718 -29.63788795 80.66025543 C-32.728576 80.67729706 -35.81870795 80.67544006 -38.90942383 80.66894531 C-39.82337921 80.6781601 -40.73733459 80.68737488 -41.6789856 80.6968689 C-46.48849356 80.66518575 -49.72844864 80.45571335 -53.625 77.3125 C-56.84732268 73.30180663 -56.98039606 70.09958114 -56.91796875 65.04296875 C-56.91372391 64.36196609 -56.90947906 63.68096344 -56.90510559 62.97932434 C-56.8884061 60.81913541 -56.85077312 58.65990358 -56.8125 56.5 C-56.79744174 55.02931042 -56.78375534 53.55860611 -56.77148438 52.08789062 C-56.73853214 48.49578643 -56.68681173 44.90423674 -56.625 41.3125 C-63.58722319 42.43912235 -63.58722319 42.43912235 -69.5 46 C-70.30050781 46.68642578 -70.30050781 46.68642578 -71.1171875 47.38671875 C-74.97764913 52.31730835 -76.00015654 57.18020582 -76.01268005 63.32652283 C-76.01806559 63.99656186 -76.02345113 64.6666009 -76.02899987 65.35694414 C-76.04321049 67.58312496 -76.03619326 69.80870533 -76.02905273 72.03491211 C-76.03475993 73.63871231 -76.04172555 75.24250845 -76.04985046 76.84629822 C-76.06775826 81.18931638 -76.06661801 85.53213223 -76.06090808 89.87517619 C-76.05781283 93.50585266 -76.06391241 97.13649047 -76.06994683 100.76716143 C-76.08398258 109.33463462 -76.08243863 117.90200808 -76.07104492 126.46948242 C-76.05956397 135.29745053 -76.07364111 144.12511484 -76.1004414 152.95304292 C-76.12261781 160.54307691 -76.12923142 168.13301567 -76.12336498 175.72307974 C-76.11999893 180.2516222 -76.12238712 184.77996992 -76.13961601 189.30848503 C-76.15511413 193.56776409 -76.15109805 197.82659399 -76.13231087 202.08585548 C-76.12863292 203.64506827 -76.13171026 205.20431454 -76.14219666 206.7634964 C-76.20320748 216.58829529 -75.95009316 223.68565615 -68.9375 231.1875 C-61.78081009 235.77858409 -53.69662369 235.58541192 -45.421875 235.55078125 C-43.28645186 235.56618481 -41.15103505 235.58248722 -39.015625 235.59960938 C-35.68214849 235.61611905 -32.34913947 235.6249455 -29.015625 235.61791992 C-25.77551211 235.61530539 -22.53680066 235.64335682 -19.296875 235.67578125 C-18.30097351 235.66557449 -17.30507202 235.65536774 -16.2789917 235.64485168 C-11.54463647 235.71187335 -9.35473496 235.74488373 -5.52050781 238.72729492 C-2.72551103 242.53927597 -2.16813851 244.56114047 -2.625 249.3125 C-5.78289474 254.89144737 -5.78289474 254.89144737 -8.625 256.3125 C-10.40931812 256.42877685 -12.19788802 256.48213865 -13.98583984 256.50537109 C-15.66932022 256.52946548 -15.66932022 256.52946548 -17.3868103 256.55404663 C-22.55684554 256.59861847 -27.72679247 256.6400573 -32.89697266 256.66259766 C-35.6147695 256.67585205 -38.33180026 256.70353909 -41.04931641 256.74462891 C-44.97816505 256.80402357 -48.90665569 256.82133655 -52.8359375 256.8359375 C-54.03640717 256.85860687 -55.23687683 256.88127625 -56.47372437 256.90463257 C-68.53644766 256.87483715 -77.80008304 253.10318956 -86.43359375 244.69140625 C-97.19270854 233.01172549 -98.07861448 220.22581854 -98.01318359 204.90234375 C-98.01725772 203.28459318 -98.02260428 201.66684539 -98.02911377 200.04910278 C-98.04269329 195.68957205 -98.03752778 191.33025629 -98.02797651 186.9707222 C-98.02033101 182.38794668 -98.02743901 177.80518842 -98.03213501 173.22241211 C-98.03757841 165.52942635 -98.03043825 157.83652726 -98.01611328 150.14355469 C-97.99978951 141.27527514 -98.00507902 132.40720257 -98.0215925 123.53892803 C-98.03524785 115.89693028 -98.0371073 108.25499449 -98.02927649 100.61298847 C-98.02462216 96.0609581 -98.02391296 91.50902471 -98.03388596 86.95700073 C-98.04261256 82.67554 -98.03643085 78.39434368 -98.01920319 74.11291122 C-98.01526853 72.55054028 -98.01631993 70.98814672 -98.02299118 69.42578506 C-98.07375403 56.31962064 -97.14907676 44.77570323 -88.625 34.3125 C-88.12226562 33.68601563 -87.61953125 33.05953125 -87.1015625 32.4140625 C-81.67539432 26.3526356 -74.26361445 22.85870482 -66.625 20.3125 C-64.11131945 20.2278183 -61.62630626 20.19648115 -59.11328125 20.21484375 C-58.38505661 20.2162587 -57.65683197 20.21767365 -56.90653992 20.21913147 C-54.58348461 20.22472341 -52.26052612 20.23727438 -49.9375 20.25 C-48.36132952 20.25501604 -46.78515752 20.25957877 -45.20898438 20.26367188 C-41.34761902 20.2746902 -37.48632592 20.29194926 -33.625 20.3125 C-33.31433594 19.36181641 -33.00367187 18.41113281 -32.68359375 17.43164062 C-29.84188281 9.05855507 -24.36074118 5.21970487 -16.625 1.3125 C-11.28622073 -0.46709309 -5.58749095 0.04254435 0 0 Z M-12.31640625 23.59375 C-14.59711844 26.58931229 -15.3602283 30.16102752 -16.46484375 33.71875 C-17.82547949 36.76071005 -18.66965471 37.78764117 -21.625 39.3125 C-26.29207588 40.00411419 -30.90284558 40.09388174 -35.625 40.3125 C-35.625 46.5825 -35.625 52.8525 -35.625 59.3125 C-11.205 59.3125 13.215 59.3125 38.375 59.3125 C38.375 53.0425 38.375 46.7725 38.375 40.3125 C33.29010514 40.10301991 33.29010514 40.10301991 28.20410156 39.92456055 C25.18048683 39.7680485 22.71684672 39.47951335 19.984375 38.14453125 C17.19994654 34.97487847 16.59668956 31.12008339 15.5 27.125 C14.23532823 23.96332057 13.31436202 22.95508466 10.375 21.3125 C7.10253376 20.13550071 3.8948254 20.14679903 0.4375 20.125 C-0.58214844 20.11082031 -1.60179687 20.09664062 -2.65234375 20.08203125 C-6.48683142 20.37931742 -9.24330037 21.26585455 -12.31640625 23.59375 Z " fill="#000000" transform="translate(102.625,-0.3125)"/>
<path d="M0 0 C0.80515045 -0.00570007 1.6103009 -0.01140015 2.43984985 -0.01727295 C4.14282928 -0.02671436 5.8458269 -0.03325352 7.54882812 -0.03710938 C10.14746123 -0.04681301 12.74530253 -0.07784284 15.34375 -0.109375 C16.99999531 -0.11590567 18.65624627 -0.12115589 20.3125 -0.125 C21.08661224 -0.1373468 21.86072449 -0.1496936 22.65829468 -0.16241455 C27.23343146 -0.14362393 30.14714704 0.38330273 33.7890625 3.203125 C36.3831261 6.22953253 37.02268872 8.37987116 36.7265625 12.265625 C36.08528769 16.00052226 34.90451235 17.91235305 31.7890625 20.203125 C28.029588 21.45628317 24.49624972 21.3848514 20.578125 21.40625 C19.77297455 21.41195007 18.9678241 21.41765015 18.13827515 21.42352295 C16.43529572 21.43296436 14.7322981 21.43950352 13.02929688 21.44335938 C10.43066377 21.45306301 7.83282247 21.48409284 5.234375 21.515625 C3.57812969 21.52215567 1.92187873 21.52740589 0.265625 21.53125 C-0.50848724 21.5435968 -1.28259949 21.5559436 -2.08016968 21.56866455 C-6.65530646 21.54987393 -9.56902204 21.02294727 -13.2109375 18.203125 C-15.8050011 15.17671747 -16.44456372 13.02637884 -16.1484375 9.140625 C-15.50716269 5.40572774 -14.32638735 3.49389695 -11.2109375 1.203125 C-7.451463 -0.05003317 -3.91812472 0.0213986 0 0 Z " fill="#000000" transform="translate(174.2109375,173.796875)"/>
<path d="M0 0 C0.80515045 -0.00570007 1.6103009 -0.01140015 2.43984985 -0.01727295 C4.14282928 -0.02671436 5.8458269 -0.03325352 7.54882812 -0.03710938 C10.14746123 -0.04681301 12.74530253 -0.07784284 15.34375 -0.109375 C16.99999531 -0.11590567 18.65624627 -0.12115589 20.3125 -0.125 C21.08661224 -0.1373468 21.86072449 -0.1496936 22.65829468 -0.16241455 C27.23343146 -0.14362393 30.14714704 0.38330273 33.7890625 3.203125 C36.3831261 6.22953253 37.02268872 8.37987116 36.7265625 12.265625 C36.08528769 16.00052226 34.90451235 17.91235305 31.7890625 20.203125 C28.029588 21.45628317 24.49624972 21.3848514 20.578125 21.40625 C19.77297455 21.41195007 18.9678241 21.41765015 18.13827515 21.42352295 C16.43529572 21.43296436 14.7322981 21.43950352 13.02929688 21.44335938 C10.43066377 21.45306301 7.83282247 21.48409284 5.234375 21.515625 C3.57812969 21.52215567 1.92187873 21.52740589 0.265625 21.53125 C-0.50848724 21.5435968 -1.28259949 21.5559436 -2.08016968 21.56866455 C-6.65530646 21.54987393 -9.56902204 21.02294727 -13.2109375 18.203125 C-15.8050011 15.17671747 -16.44456372 13.02637884 -16.1484375 9.140625 C-15.50716269 5.40572774 -14.32638735 3.49389695 -11.2109375 1.203125 C-7.451463 -0.05003317 -3.91812472 0.0213986 0 0 Z " fill="#000000" transform="translate(174.2109375,138.796875)"/>
</svg>
