<?xml version="1.0" encoding="UTF-8"?>
<svg version="1.1" xmlns="http://www.w3.org/2000/svg" width="512" height="512">
<path d="M0 0 C1.21905305 -0.00453111 2.43810609 -0.00906223 3.69410014 -0.01373065 C7.07037918 -0.02419207 10.44644499 -0.02570201 13.82272506 -0.02334189 C17.46703217 -0.02293334 21.11130765 -0.03397663 24.75559998 -0.04345703 C31.89295663 -0.06005998 39.03028025 -0.06556627 46.1676546 -0.06668179 C51.9707299 -0.06763266 57.7737943 -0.07174492 63.57686615 -0.07808304 C80.03668715 -0.09569405 96.49648208 -0.10492221 112.95631257 -0.10342209 C114.2869506 -0.10330222 114.2869506 -0.10330222 115.64447021 -0.10317993 C116.53264792 -0.10309817 117.42082562 -0.10301641 118.3359178 -0.10293217 C132.72654685 -0.10211946 147.11707119 -0.12125372 161.50766996 -0.14945666 C176.29073788 -0.17819969 191.07375476 -0.19199616 205.85685134 -0.19026911 C214.15363853 -0.18960567 222.45031595 -0.19507787 230.74707794 -0.21662521 C237.81190096 -0.23485576 244.87656447 -0.23916907 251.94140086 -0.22560637 C255.54371709 -0.21908591 259.14572749 -0.21892567 262.74801445 -0.23631287 C266.65921746 -0.25499635 270.56997629 -0.24246476 274.48120117 -0.22705078 C275.61137358 -0.23733791 276.74154599 -0.24762503 277.90596604 -0.25822389 C286.18601147 -0.18622503 292.67843475 1.6188893 299.74456787 5.95492554 C307.04357114 13.4566789 310.30476626 21.08731059 310.26199341 31.55239868 C310.26652452 32.3712636 310.27105563 33.19012851 310.27572405 34.03380752 C310.28835439 36.76961564 310.28674856 39.50522435 310.28509521 42.24105835 C310.29108137 44.20599116 310.29788711 46.17092162 310.30545044 48.135849 C310.32311003 53.46865229 310.32780584 58.80139138 310.32908201 64.13422108 C310.33050433 67.46811654 310.3347755 70.80199573 310.34007645 74.13588715 C310.35857746 85.77300552 310.36674708 97.4100781 310.36517334 109.04721069 C310.36397232 119.88423446 310.38506672 130.72105893 310.41666067 141.55803227 C310.44283939 150.87034389 310.45353994 160.18259049 310.45226252 169.49493861 C310.45175331 175.0530757 310.45741412 180.6110357 310.47861862 186.16913605 C310.49802745 191.39934135 310.49810725 196.62920115 310.48358536 201.85941887 C310.48149937 203.77417189 310.48618557 205.68894669 310.49830627 207.60366249 C310.56381053 218.67229685 310.24338103 227.34343371 304.30706787 237.01742554 C297.5622132 243.57998684 290.25135479 247.49673645 280.73031616 247.54589844 C278.87524445 247.56264366 278.87524445 247.56264366 276.98269653 247.57972717 C275.62548859 247.58209172 274.2682803 247.58426744 272.91107178 247.58627319 C271.47177572 247.59557841 270.03248504 247.60574796 268.59320068 247.61671448 C264.69699739 247.64396173 260.80083015 247.65914819 256.90455675 247.67214251 C252.82859199 247.68779618 248.7527006 247.71457926 244.67678833 247.74017334 C236.96341811 247.78692157 229.25003404 247.8236848 221.53659475 247.85684621 C212.75302233 247.89509557 203.96952366 247.94449836 195.18601346 247.99483037 C177.12225228 248.09809138 159.05844605 248.18737071 140.99456787 248.26742554 C141.27824219 249.07421753 141.5619165 249.88100952 141.85418701 250.71224976 C142.40514038 252.31350708 142.40514038 252.31350708 142.96722412 253.94711304 C143.33339844 255.00140503 143.69957275 256.05569702 144.07684326 257.14193726 C147.5747909 269.05487306 142.45226282 279.98029749 137.13519287 290.51742554 C136.66772644 291.4561853 136.20026001 292.39494507 135.71862793 293.3621521 C134.7341336 295.33384553 133.74565062 297.30355199 132.75335693 299.27133179 C131.25144164 302.25377587 129.76676337 305.24435522 128.28363037 308.23617554 C127.31850974 310.16377252 126.35239613 312.09087271 125.38519287 314.01742554 C124.94950989 314.89688843 124.5138269 315.77635132 124.06494141 316.6824646 C117.87888821 328.8732841 111.06085029 338.73378465 97.82659912 343.57211304 C88.38117613 345.89112723 78.54425884 344.95422295 69.99456787 340.26742554 C67.75825467 338.50628175 65.73251285 336.69779661 63.74847412 334.65805054 C61.84522891 332.85323628 61.84522891 332.85323628 57.99456787 333.26742554 C56.01507754 334.26812139 56.01507754 334.26812139 54.11956787 335.64242554 C45.46958722 341.28163944 36.60537234 342.08271279 26.63519287 339.99398804 C17.25761225 337.41376615 10.47397332 331.94595307 5.31878662 323.78695679 C1.29014723 316.12184645 0.82603481 308.7554578 0.99456787 300.26742554 C-0.05601807 301.06406616 -1.106604 301.86070679 -2.18902588 302.68148804 C-5.80281511 305.41488478 -9.43188662 308.12706381 -13.07037354 310.82748413 C-14.58011256 311.95093111 -16.08155018 313.08553653 -17.57965088 314.22445679 C-26.61145781 320.74456122 -37.32417515 323.31070972 -48.06793213 325.51742554 C-48.85788574 325.68065308 -49.64783936 325.84388062 -50.46173096 326.01205444 C-63.81384035 328.57206072 -77.32892405 328.41727823 -90.86480713 328.40023804 C-92.78173841 328.40091408 -94.6986696 328.40188659 -96.61560059 328.40313721 C-100.62299419 328.40460431 -104.63036537 328.40249442 -108.63775635 328.39779663 C-112.69473743 328.39326523 -116.75167378 328.39320367 -120.80865479 328.39779663 C-133.8747738 328.41253205 -146.93980342 328.38915187 -160.00543213 328.26742554 C-160.72767975 328.26093491 -161.44992737 328.25444427 -162.19406128 328.24775696 C-166.36696114 328.20614014 -170.53704336 328.12351034 -174.70855713 328.00961304 C-175.64367126 327.99600739 -176.5787854 327.98240173 -177.54223633 327.96838379 C-184.29061721 327.7201016 -191.33233448 326.31288984 -196.66442871 321.89190674 C-201.29907454 316.70954538 -202.2544861 311.13960354 -202.26612854 304.39816284 C-202.26995409 303.73165065 -202.27377963 303.06513846 -202.27772111 302.37842894 C-202.28799067 300.15840348 -202.28407062 297.93863957 -202.28009033 295.71859741 C-202.2844401 294.12155418 -202.28962414 292.52451303 -202.295578 290.92747498 C-202.3089492 286.59902947 -202.30954888 282.27067138 -202.3070147 277.94220924 C-202.30594395 274.326314 -202.31083093 270.71043636 -202.31562012 267.09454489 C-202.32670832 258.56410494 -202.32715626 250.03370904 -202.32110596 241.50326538 C-202.31506275 232.70657264 -202.32738754 223.91003971 -202.34867603 215.11337423 C-202.36629277 207.55567452 -202.37229336 199.99802568 -202.36903828 192.44030619 C-202.36722576 187.92860981 -202.36985872 183.4170275 -202.38375282 178.90534973 C-202.39632812 174.66339766 -202.39438996 170.42169487 -202.38134193 166.17974663 C-202.37897614 164.62453057 -202.38171099 163.06929698 -202.38996506 161.51410103 C-202.40043415 159.38800807 -202.39233163 157.26275141 -202.37965393 155.13668823 C-202.37982167 153.94799385 -202.37998941 152.75929947 -202.38016224 151.53458405 C-201.62192369 144.92373139 -198.34283673 141.25130463 -193.50543213 136.95492554 C-192.70867065 136.24227539 -192.70867065 136.24227539 -191.89581299 135.51522827 C-187.65821565 131.75581563 -183.26678215 128.19633872 -178.85308838 124.64633179 C-175.0510458 121.47013984 -171.45639461 118.09471732 -167.84161377 114.70907593 C-163.65213687 110.80745884 -159.28370277 107.19417757 -154.81793213 103.61117554 C-151.02379084 100.44939113 -147.44259448 97.0819719 -143.83917236 93.70663452 C-140.51388413 90.60962469 -137.11823274 87.6712087 -133.56793213 84.82992554 C-129.19291241 81.32099415 -125.08522304 77.60898048 -121.00543213 73.76742554 C-116.09901107 69.14751082 -111.0705458 64.80390687 -105.80230713 60.59555054 C-101.91892543 57.36301493 -98.2466246 53.91824927 -94.59503174 50.42733765 C-82.62695664 39.12426056 -68.64610457 38.60808376 -52.88433838 38.96273804 C-47.29196693 39.21444316 -42.25111944 40.34290854 -37.00543213 42.26742554 C-36.97103027 41.71393433 -36.93662842 41.16044312 -36.90118408 40.59017944 C-35.53351632 20.21298997 -35.53351632 20.21298997 -30.00543213 12.26742554 C-29.40730713 11.33930054 -28.80918213 10.41117554 -28.19293213 9.45492554 C-20.00470792 1.26670132 -11.15444518 -0.03032897 0 0 Z M128.39806998 20.30106044 C112.54947431 20.3175558 96.70101229 20.35281692 80.85249615 20.4059391 C71.69258466 20.4362305 62.53279788 20.45874507 53.37283325 20.46188354 C45.51404093 20.46475549 37.65552752 20.48507241 29.79684561 20.52754885 C25.7504332 20.54890585 21.70441887 20.56201237 17.65794945 20.55364799 C13.93072835 20.54616114 10.20433651 20.56168961 6.47726786 20.59550142 C4.48014758 20.60762391 2.48292512 20.59513718 0.48581219 20.58185959 C-6.45845921 20.41513395 -6.45845921 20.41513395 -12.28189087 23.62113953 C-18.842705 33.69446417 -15.00543213 42.02925697 -15.00543213 56.26742554 C85.64456787 56.26742554 186.29456787 56.26742554 289.99456787 56.26742554 C292.00702905 32.17431391 292.00702905 32.17431391 286.99456787 23.26742554 C281.46549736 19.9305313 276.45320973 19.84662003 270.11248779 19.91098022 C269.12965631 19.90897267 268.14682484 19.90696512 267.13421059 19.90489674 C263.83097368 19.90195546 260.52821725 19.92067034 257.22503662 19.93930054 C254.82950436 19.94182919 252.43397048 19.94309004 250.03843689 19.94319153 C244.15246431 19.947262 238.26664277 19.96579094 232.38073486 19.99156982 C227.55688985 20.01252575 222.73305502 20.02825311 217.90917969 20.0402832 C217.21855194 20.04202142 216.5279242 20.04375964 215.81636834 20.04555053 C214.40798125 20.04908885 212.99959415 20.05262177 211.59120703 20.05614936 C201.90242825 20.08095028 192.21368573 20.11167639 182.52496338 20.15312195 C181.74781078 20.15643711 180.97065817 20.15975227 180.16995549 20.16316789 C178.99522211 20.16818082 178.99522211 20.16818082 177.79675674 20.17329502 C161.33050574 20.24345465 144.86446226 20.28412299 128.39806998 20.30106044 Z M-76.63043213 79.39242554 C-80.106613 82.58106412 -83.63722299 85.62998493 -87.31793213 88.57992554 C-92.13288957 92.47128042 -96.65630384 96.59871698 -101.17095947 100.82748413 C-104.49645446 103.9247878 -107.89235756 106.86342313 -111.44293213 109.70492554 C-115.81795185 113.21385693 -119.92564122 116.92587059 -124.00543213 120.76742554 C-128.91851328 125.39361144 -133.95664934 129.74013241 -139.22808838 133.95883179 C-143.00523058 137.09848164 -146.56497715 140.44898816 -150.14776611 143.80648804 C-154.53149292 147.89035507 -159.07604673 151.69312293 -163.76324463 155.42758179 C-168.17059531 158.81655356 -168.17059531 158.81655356 -169.40415955 164.15109253 C-169.43066834 165.8140457 -169.44058067 167.47731029 -169.43780518 169.14047241 C-169.44799683 170.05029373 -169.45818848 170.96011505 -169.46868896 171.89750671 C-169.49902348 174.92712468 -169.50813714 177.95642489 -169.51715088 180.98617554 C-169.53402957 183.11765556 -169.55218401 185.24912583 -169.57154846 187.38058472 C-169.6192426 193.02901046 -169.64886244 198.67739719 -169.67498779 204.32595825 C-169.70422292 209.93283788 -169.75127813 215.53956216 -169.79644775 221.14633179 C-169.984355 245.51988783 -170.05588831 269.89321091 -170.00543213 294.26742554 C-151.98368767 295.46895913 -133.98158294 295.4407043 -115.93017578 295.29025269 C-112.79593506 295.26579045 -109.66168815 295.24748122 -106.52740479 295.2293396 C-100.76861478 295.1930348 -95.01043099 295.13240992 -89.25201416 295.05789185 C-86.99312791 295.03127373 -84.73415951 295.01079641 -82.47515869 294.99697876 C-65.73292959 294.88431949 -50.02116954 294.24986647 -35.00543213 286.26742554 C-35.00543213 285.60742554 -35.00543213 284.94742554 -35.00543213 284.26742554 C-34.45758057 284.01992554 -33.909729 283.77242554 -33.34527588 283.51742554 C-30.52549402 282.01103122 -28.114063 280.20207043 -25.56793213 278.26742554 C-25.04642578 277.87152222 -24.52491943 277.4756189 -23.98760986 277.06771851 C-22.88300433 276.22794836 -21.77959385 275.38660424 -20.67730713 274.54379272 C-19.05145954 273.30256445 -17.41971866 272.06948571 -15.78668213 270.83773804 C-7.96221896 264.90935794 -0.43766051 258.67896122 6.99456787 252.26742554 C7.73448975 251.6293396 8.47441162 250.99125366 9.23675537 250.33383179 C14.55056098 245.71359519 19.77808588 240.9969375 24.99456787 236.26742554 C25.74746094 235.59235962 25.74746094 235.59235962 26.51556396 234.90365601 C45.9851771 217.43800305 68.3204808 195.77295115 73.99456787 169.26742554 C73.99456787 168.27742554 73.99456787 167.28742554 73.99456787 166.26742554 C47.34905725 162.89773567 12.29265672 183.00384457 -10.27105713 195.03695679 C-18.56524144 199.45281461 -24.36400387 202.33869534 -34.00543213 201.26742554 C-34.66543213 201.59742554 -35.32543213 201.92742554 -36.00543213 202.26742554 C-36.00543213 201.60742554 -36.00543213 200.94742554 -36.00543213 200.26742554 C-36.76855713 199.85492554 -37.53168213 199.44242554 -38.31793213 199.01742554 C-41.82956507 196.73078083 -42.51783511 195.20652539 -44.00543213 191.26742554 C-44.44953902 187.49077453 -44.44293406 183.73730961 -44.43780518 179.93783569 C-44.45309265 178.23940018 -44.45309265 178.23940018 -44.46868896 176.50665283 C-44.49882385 172.77321426 -44.50808599 169.04003227 -44.51715088 165.30648804 C-44.53399713 162.7143061 -44.5521473 160.12213234 -44.57154846 157.52996826 C-44.61420693 151.41030042 -44.64373811 145.2906989 -44.66687185 139.17093027 C-44.69395442 132.20107486 -44.73786395 125.2313569 -44.78316057 118.26159978 C-44.87592451 103.93028569 -44.94764292 89.5989212 -45.00543213 75.26742554 C-49.86533018 72.66589244 -53.59804524 71.80049466 -59.06793213 71.89242554 C-59.76209229 71.88082397 -60.45625244 71.86922241 -61.17144775 71.85726929 C-68.20664546 71.89735588 -71.67576014 74.76916973 -76.63043213 79.39242554 Z M-12.00543213 116.26742554 C-12.00543213 130.45742554 -12.00543213 144.64742554 -12.00543213 159.26742554 C-9.03543213 157.96805054 -6.06543213 156.66867554 -3.00543213 155.32992554 C62.15615394 127.23714451 62.15615394 127.23714451 87.41644287 136.11898804 C95.51747643 139.86495468 100.11734137 146.43097681 103.99456787 154.26742554 C108.74480434 167.70766806 105.1807226 182.51128122 99.56488037 195.13851929 C94.55347559 205.12393031 88.51017036 214.27306337 81.64691162 223.07211304 C79.89434055 224.9426447 79.89434055 224.9426447 79.99456787 226.26742554 C106.50645581 226.38416027 133.01830531 226.47236548 159.53039837 226.5264864 C171.8400754 226.55228217 184.14959286 226.58745915 196.45916748 226.6446228 C207.18658023 226.69441546 217.91387744 226.72670655 228.64140254 226.73786801 C234.3230636 226.74439372 240.00439408 226.75975989 245.68594933 226.79607582 C251.03180124 226.82996968 256.37718584 226.84049175 261.72313499 226.83296394 C263.68676796 226.83434144 265.65041628 226.84431309 267.61395645 226.86345291 C270.29276982 226.88828786 272.96981307 226.88236606 275.64866638 226.86869812 C276.42785563 226.88326233 277.20704487 226.89782653 278.00984591 226.91283208 C281.95296379 226.85835465 283.79844302 226.41904202 286.95368671 223.979846 C308.5491927 195.27847249 289.99456787 152.18587094 289.99456787 116.26742554 C190.33456787 116.26742554 90.67456787 116.26742554 -12.00543213 116.26742554 Z M49.99456787 253.26742554 C43.44433513 261.90661272 38.94405957 272.01751527 34.18206787 281.70492554 C33.41245407 283.25924361 32.64227517 284.81328201 31.871521 286.36703491 C30.46788995 289.19858259 29.06738158 292.03162099 27.67108154 294.86679077 C26.73966939 296.75606409 25.79311581 298.63880052 24.78875732 300.49032593 C23.37206749 303.66034908 23.46476677 306.90771124 23.99456787 310.26742554 C25.61846836 313.39923363 26.99722813 315.51082297 29.80706787 317.64242554 C34.39066476 318.95202465 37.81165315 318.8352246 42.11956787 316.76742554 C48.09992705 311.56711321 51.32567802 303.91378809 54.82269287 296.91195679 C55.4744046 295.61496101 55.4744046 295.61496101 56.13928223 294.29176331 C57.04879973 292.47843199 57.95626535 290.66407016 58.86175537 288.84872437 C60.2476563 286.07374159 61.64418758 283.3042833 63.04144287 280.53500366 C63.92750753 278.76514563 64.8129463 276.99497409 65.69769287 275.22445679 C66.1143219 274.40040848 66.53095093 273.57636017 66.96020508 272.7273407 C70.46196328 265.8261349 70.46196328 265.8261349 70.36956787 258.26742554 C68.7137792 254.65479571 67.1355596 252.71041911 63.99456787 250.26742554 C58.37563117 248.49850102 54.3180494 249.30896476 49.99456787 253.26742554 Z M100.17303467 258.25741577 C97.21126976 262.34971652 95.06391314 266.72040948 92.82659912 271.24008179 C92.3463176 272.20014633 91.86603607 273.16021088 91.37120056 274.14936829 C90.36069344 276.17271646 89.35312768 278.19753598 88.34832764 280.22372437 C86.80895577 283.32612074 85.25894938 286.42302825 83.7074585 289.51937866 C82.72570377 291.48846326 81.7445628 293.45785402 80.76409912 295.42758179 C80.30058548 296.35369766 79.83707184 297.27981354 79.35951233 298.23399353 C78.93204208 299.09846603 78.50457184 299.96293854 78.06414795 300.85360718 C77.68760574 301.61129898 77.31106354 302.36899078 76.92311096 303.14964294 C74.7471029 308.11259193 75.02166003 311.08750668 76.85394287 316.13461304 C78.88090564 319.92475576 80.96819658 320.7910894 84.99456787 322.26742554 C90.5107663 322.26742554 93.72494604 320.66073752 97.99456787 317.26742554 C99.7437817 314.79464859 101.01705722 312.15856461 102.30706787 309.42367554 C102.87228149 308.27626892 102.87228149 308.27626892 103.44891357 307.10568237 C104.64612634 304.66673649 105.82065862 302.21765918 106.99456787 299.76742554 C107.78213122 298.15211042 108.57118121 296.53751923 109.36175537 294.92367554 C110.88814266 291.80410657 112.40330975 288.67947259 113.9105835 285.55062866 C115.20081478 282.88103145 116.51536185 280.2282924 117.87542725 277.59359741 C118.42005615 276.53721069 118.96468506 275.48082397 119.52581787 274.39242554 C119.99568115 273.49781616 120.46554443 272.60320679 120.949646 271.68148804 C122.86002749 267.26797117 122.65532798 263.64616192 121.36956787 259.01742554 C118.35589193 255.18183797 115.24756771 253.42130271 110.43206787 252.82992554 C105.76565386 253.42383277 103.33227635 254.80600457 100.17303467 258.25741577 Z " fill="#030104" transform="translate(202.00543212890625,83.73257446289063)"/>
<path d="M0 0 C26.07 0 52.14 0 79 0 C79 9.24 79 18.48 79 28 C52.93 28 26.86 28 0 28 C0 18.76 0 9.52 0 0 Z " fill="#030103" transform="translate(391,265)"/>
</svg>
