<svg width="233" height="233" viewBox="0 0 233 233" fill="none" xmlns="http://www.w3.org/2000/svg">
<g clip-path="url(#clip0_103_1330)">
<path d="M232.51 0H0V232.51H232.51V0Z" fill="white"/>
<path d="M111.65 156.57C110.83 157.34 110.03 158.15 109.22 158.94C109.19 158.97 109.17 159 109.15 159.04C109.12 159.09 109.15 159.17 109.21 159.18C109.37 159.21 109.5 159.23 109.63 159.26M118.98 81.9404L124.71 75.8604C125.84 74.6304 126.96 73.3804 128.12 72.2004C129.22 71.0904 130.5 70.4704 131.98 70.5404C131.99 70.5404 132 70.5404 132.01 70.5404L132.16 70.8004C128.86 76.4404 125.55 82.0904 122.21 87.8004C122.17 87.8604 122.22 87.9404 122.3 87.9404C130.13 87.2304 146.74 89.6904 149.5 90.1004C158.29 91.4104 173 94.7604 178.5 96.0704C178.56 96.0804 178.62 96.0404 178.61 95.9704L174.95 58.0704C174.74 55.8704 173.1 54.2004 171.15 54.2004H157.59C157.59 54.2004 157.5 54.1604 157.5 54.1204C155.7 32.6304 137.26 15.7704 115.03 16.2604C93.7101 16.7304 76.6301 33.4504 74.5301 54.1204C74.5301 54.1704 74.4901 54.2004 74.4401 54.2004H63.6901C61.7101 54.2004 60.0501 55.9204 59.8801 58.1604L57.3001 91.7404C56.6601 100.1 59.6701 108.32 65.5601 114.29C78.5201 127.44 96.8601 138.95 110.3 144.58C110.37 144.61 110.44 144.54 110.42 144.47C108.54 138.57 106.68 132.73 104.8 126.84C104.78 126.77 104.84 126.71 104.9 126.72C105.99 126.93 106.83 127.5 107.59 128.27C108.41 129.1 108.9 130.19 109.5 131.19C109.98 131.98 110.41 132.81 110.89 133.6L112.04 135.58C112.27 136 112.47 136.37 112.68 136.74C113.05 137.39 113.41 138.05 113.81 138.69L114.91 140.73C115.22 141.27 115.49 141.77 115.77 142.26C116.5 143.52 117.23 144.78 117.95 146.05C118.09 146.3 118.26 146.42 118.52 146.45C120.66 146.76 122.81 147.04 124.94 147.43C125.73 147.58 126.49 147.96 127.24 148.31C127.75 148.55 128.14 148.99 128.4 149.55C128.52 149.81 128.5 150.02 128.33 150.24C127.95 150.73 127.45 151 126.9 151.17C125.59 151.58 124.27 151.46 122.94 151.27C121.31 151.03 119.67 150.8 118.04 150.55C117.78 150.51 117.59 150.57 117.39 150.77C116.03 152.15 114.67 153.52 113.3 154.89C113.26 154.93 113.22 154.98 113.17 155.04L107.57 160.58C106.44 161.73 105.32 162.9 104.16 164.01C103.06 165.05 101.78 165.63 100.3 165.56C100.3 165.56 100.28 165.56 100.27 165.56L100.13 165.3C103.43 160.02 106.73 154.73 110.07 149.39C110.11 149.33 110.07 149.25 109.99 149.25C105.68 149.36 100.66 148.98 95.4101 148.29C95.3901 148.29 95.3601 148.29 95.3401 148.31C95.2901 148.34 95.2501 148.38 95.2001 148.42C95.1401 148.47 95.0401 148.42 95.0501 148.34C95.0501 148.34 95.0201 148.25 94.9701 148.24C82.5501 146.59 67.8901 142.87 58.3201 140.22C55.9001 139.55 53.4801 141.25 53.2901 143.75L51.0201 173.26C50.8301 175.78 52.5701 177.95 54.8001 177.97L182.33 179.13C184.62 179.15 186.41 176.9 186.16 174.32L184.06 152.6C183.18 143.53 177.45 132.95 171.26 126.26C156.75 110.61 135.09 98.0104 121.94 92.9004C121.87 92.8704 121.81 92.9504 121.83 93.0104C123.71 99.3204 125.58 105.57 127.46 111.88C127.48 111.95 127.42 112.01 127.35 111.99C126.26 111.76 125.42 111.16 124.66 110.33C123.84 109.44 123.35 108.28 122.75 107.21C122.27 106.36 121.84 105.48 121.36 104.64L120.22 102.54C119.98 102.08 119.78 101.69 119.58 101.3C119.21 100.6 118.85 99.9004 118.45 99.2204L117.35 97.0504C117.04 96.4704 116.76 95.9304 116.48 95.4104C115.75 94.0604 115.01 92.7204 114.3 91.3604C114.16 91.0904 113.99 90.9704 113.73 90.9304C111.59 90.6004 109.44 90.3004 107.31 89.8904C106.52 89.7304 105.76 89.3304 105.01 88.9504C104.5 88.6904 104.11 88.2204 103.85 87.6304C103.73 87.3504 103.75 87.1304 103.92 86.9004C104.3 86.3804 104.8 86.0904 105.35 85.9104C106.66 85.4704 107.98 85.6004 109.31 85.8004C110.94 86.0504 112.58 86.3004 114.21 86.5704C114.47 86.6104 114.66 86.5504 114.86 86.3304C116.22 84.8604 117.58 83.4004 118.95 81.9404C118.99 81.8904 119.04 81.8404 119.09 81.7704M120.73 80.0704C121.52 79.2704 122.3 78.4404 123.08 77.6204C123.11 77.5904 123.13 77.5504 123.16 77.5004C123.19 77.4504 123.16 77.3804 123.1 77.3704M117.39 23.8404C135.07 23.7504 147.57 36.6404 149.26 54.2104C149.26 54.2604 142.62 54.2104 142.56 54.2104L83.6601 54.2304C83.6601 54.2804 83.6101 54.2304 83.6601 54.2304C85.8301 35.1304 97.5301 23.9404 117.38 23.8404H117.39Z" fill="#FF4933"/>
<path d="M30.32 213.14C29.2933 213.14 28.3733 212.973 27.56 212.64C26.7467 212.307 26.0933 211.813 25.6 211.16C25.12 210.507 24.8667 209.72 24.84 208.8H28.48C28.5333 209.32 28.7133 209.72 29.02 210C29.3267 210.267 29.7267 210.4 30.22 210.4C30.7267 210.4 31.1267 210.287 31.42 210.06C31.7133 209.82 31.86 209.493 31.86 209.08C31.86 208.733 31.74 208.447 31.5 208.22C31.2733 207.993 30.9867 207.807 30.64 207.66C30.3067 207.513 29.8267 207.347 29.2 207.16C28.2933 206.88 27.5533 206.6 26.98 206.32C26.4067 206.04 25.9133 205.627 25.5 205.08C25.0867 204.533 24.88 203.82 24.88 202.94C24.88 201.633 25.3533 200.613 26.3 199.88C27.2467 199.133 28.48 198.76 30 198.76C31.5467 198.76 32.7933 199.133 33.74 199.88C34.6867 200.613 35.1933 201.64 35.26 202.96H31.56C31.5333 202.507 31.3667 202.153 31.06 201.9C30.7533 201.633 30.36 201.5 29.88 201.5C29.4667 201.5 29.1333 201.613 28.88 201.84C28.6267 202.053 28.5 202.367 28.5 202.78C28.5 203.233 28.7133 203.587 29.14 203.84C29.5667 204.093 30.2333 204.367 31.14 204.66C32.0467 204.967 32.78 205.26 33.34 205.54C33.9133 205.82 34.4067 206.227 34.82 206.76C35.2333 207.293 35.44 207.98 35.44 208.82C35.44 209.62 35.2333 210.347 34.82 211C34.42 211.653 33.8333 212.173 33.06 212.56C32.2867 212.947 31.3733 213.14 30.32 213.14ZM44.4047 201.72C45.6847 201.72 46.7114 202.147 47.4847 203C48.258 203.84 48.6447 205 48.6447 206.48V213H45.2447V206.94C45.2447 206.193 45.0514 205.613 44.6647 205.2C44.278 204.787 43.758 204.58 43.1047 204.58C42.4514 204.58 41.9314 204.787 41.5447 205.2C41.158 205.613 40.9647 206.193 40.9647 206.94V213H37.5447V198.2H40.9647V203.34C41.3114 202.847 41.7847 202.453 42.3847 202.16C42.9847 201.867 43.658 201.72 44.4047 201.72ZM56.1013 213.16C55.0079 213.16 54.0213 212.927 53.1413 212.46C52.2746 211.993 51.5879 211.327 51.0813 210.46C50.5879 209.593 50.3413 208.58 50.3413 207.42C50.3413 206.273 50.5946 205.267 51.1012 204.4C51.6079 203.52 52.3013 202.847 53.1813 202.38C54.0613 201.913 55.0479 201.68 56.1413 201.68C57.2346 201.68 58.2213 201.913 59.1013 202.38C59.9813 202.847 60.6746 203.52 61.1813 204.4C61.6879 205.267 61.9413 206.273 61.9413 207.42C61.9413 208.567 61.6813 209.58 61.1613 210.46C60.6546 211.327 59.9546 211.993 59.0613 212.46C58.1813 212.927 57.1946 213.16 56.1013 213.16ZM56.1013 210.2C56.7546 210.2 57.3079 209.96 57.7613 209.48C58.2279 209 58.4613 208.313 58.4613 207.42C58.4613 206.527 58.2346 205.84 57.7813 205.36C57.3413 204.88 56.7946 204.64 56.1413 204.64C55.4746 204.64 54.9213 204.88 54.4813 205.36C54.0413 205.827 53.8213 206.513 53.8213 207.42C53.8213 208.313 54.0346 209 54.4613 209.48C54.9013 209.96 55.4479 210.2 56.1013 210.2ZM67.1756 203.42C67.509 202.9 67.969 202.48 68.5556 202.16C69.1423 201.84 69.829 201.68 70.6156 201.68C71.5356 201.68 72.369 201.913 73.1156 202.38C73.8623 202.847 74.449 203.513 74.8756 204.38C75.3156 205.247 75.5356 206.253 75.5356 207.4C75.5356 208.547 75.3156 209.56 74.8756 210.44C74.449 211.307 73.8623 211.98 73.1156 212.46C72.369 212.927 71.5356 213.16 70.6156 213.16C69.8423 213.16 69.1556 213 68.5556 212.68C67.969 212.36 67.509 211.947 67.1756 211.44V218.32H63.7556V201.84H67.1756V203.42ZM72.0556 207.4C72.0556 206.547 71.8156 205.88 71.3356 205.4C70.869 204.907 70.289 204.66 69.5956 204.66C68.9156 204.66 68.3356 204.907 67.8556 205.4C67.389 205.893 67.1556 206.567 67.1556 207.42C67.1556 208.273 67.389 208.947 67.8556 209.44C68.3356 209.933 68.9156 210.18 69.5956 210.18C70.2756 210.18 70.8556 209.933 71.3356 209.44C71.8156 208.933 72.0556 208.253 72.0556 207.4ZM90.7081 198.96V201.7H84.9881V204.66H89.2681V207.32H84.9881V213H81.5681V198.96H90.7081ZM95.9256 203.7C96.3256 203.087 96.8256 202.607 97.4256 202.26C98.0256 201.9 98.6923 201.72 99.4256 201.72V205.34H98.4856C97.6323 205.34 96.9923 205.527 96.5656 205.9C96.139 206.26 95.9256 206.9 95.9256 207.82V213H92.5056V201.84H95.9256V203.7ZM106.14 213.16C105.047 213.16 104.06 212.927 103.18 212.46C102.314 211.993 101.627 211.327 101.12 210.46C100.627 209.593 100.38 208.58 100.38 207.42C100.38 206.273 100.634 205.267 101.14 204.4C101.647 203.52 102.34 202.847 103.22 202.38C104.1 201.913 105.087 201.68 106.18 201.68C107.274 201.68 108.26 201.913 109.14 202.38C110.02 202.847 110.714 203.52 111.22 204.4C111.727 205.267 111.98 206.273 111.98 207.42C111.98 208.567 111.72 209.58 111.2 210.46C110.694 211.327 109.994 211.993 109.1 212.46C108.22 212.927 107.234 213.16 106.14 213.16ZM106.14 210.2C106.794 210.2 107.347 209.96 107.8 209.48C108.267 209 108.5 208.313 108.5 207.42C108.5 206.527 108.274 205.84 107.82 205.36C107.38 204.88 106.834 204.64 106.18 204.64C105.514 204.64 104.96 204.88 104.52 205.36C104.08 205.827 103.86 206.513 103.86 207.42C103.86 208.313 104.074 209 104.5 209.48C104.94 209.96 105.487 210.2 106.14 210.2ZM128.035 201.72C129.421 201.72 130.521 202.14 131.335 202.98C132.161 203.82 132.575 204.987 132.575 206.48V213H129.175V206.94C129.175 206.22 128.981 205.667 128.595 205.28C128.221 204.88 127.701 204.68 127.035 204.68C126.368 204.68 125.841 204.88 125.455 205.28C125.081 205.667 124.895 206.22 124.895 206.94V213H121.495V206.94C121.495 206.22 121.301 205.667 120.915 205.28C120.541 204.88 120.021 204.68 119.355 204.68C118.688 204.68 118.161 204.88 117.775 205.28C117.401 205.667 117.215 206.22 117.215 206.94V213H113.795V201.84H117.215V203.24C117.561 202.773 118.015 202.407 118.575 202.14C119.135 201.86 119.768 201.72 120.475 201.72C121.315 201.72 122.061 201.9 122.715 202.26C123.381 202.62 123.901 203.133 124.275 203.8C124.661 203.187 125.188 202.687 125.855 202.3C126.521 201.913 127.248 201.72 128.035 201.72ZM147.705 205.8C148.518 205.973 149.172 206.38 149.665 207.02C150.158 207.647 150.405 208.367 150.405 209.18C150.405 210.353 149.992 211.287 149.165 211.98C148.352 212.66 147.212 213 145.745 213H139.205V198.96H145.525C146.952 198.96 148.065 199.287 148.865 199.94C149.678 200.593 150.085 201.48 150.085 202.6C150.085 203.427 149.865 204.113 149.425 204.66C148.998 205.207 148.425 205.587 147.705 205.8ZM142.625 204.64H144.865C145.425 204.64 145.852 204.52 146.145 204.28C146.452 204.027 146.605 203.66 146.605 203.18C146.605 202.7 146.452 202.333 146.145 202.08C145.852 201.827 145.425 201.7 144.865 201.7H142.625V204.64ZM145.145 210.24C145.718 210.24 146.158 210.113 146.465 209.86C146.785 209.593 146.945 209.213 146.945 208.72C146.945 208.227 146.778 207.84 146.445 207.56C146.125 207.28 145.678 207.14 145.105 207.14H142.625V210.24H145.145ZM159.248 201.72C160.528 201.72 161.555 202.147 162.328 203C163.102 203.84 163.488 205 163.488 206.48V213H160.088V206.94C160.088 206.193 159.895 205.613 159.508 205.2C159.122 204.787 158.602 204.58 157.948 204.58C157.295 204.58 156.775 204.787 156.388 205.2C156.002 205.613 155.808 206.193 155.808 206.94V213H152.388V198.2H155.808V203.34C156.155 202.847 156.628 202.453 157.228 202.16C157.828 201.867 158.502 201.72 159.248 201.72ZM165.185 207.4C165.185 206.253 165.398 205.247 165.825 204.38C166.265 203.513 166.858 202.847 167.605 202.38C168.352 201.913 169.185 201.68 170.105 201.68C170.892 201.68 171.578 201.84 172.165 202.16C172.765 202.48 173.225 202.9 173.545 203.42V201.84H176.965V213H173.545V211.42C173.212 211.94 172.745 212.36 172.145 212.68C171.558 213 170.872 213.16 170.085 213.16C169.178 213.16 168.352 212.927 167.605 212.46C166.858 211.98 166.265 211.307 165.825 210.44C165.398 209.56 165.185 208.547 165.185 207.4ZM173.545 207.42C173.545 206.567 173.305 205.893 172.825 205.4C172.358 204.907 171.785 204.66 171.105 204.66C170.425 204.66 169.845 204.907 169.365 205.4C168.898 205.88 168.665 206.547 168.665 207.4C168.665 208.253 168.898 208.933 169.365 209.44C169.845 209.933 170.425 210.18 171.105 210.18C171.785 210.18 172.358 209.933 172.825 209.44C173.305 208.947 173.545 208.273 173.545 207.42ZM182.859 203.7C183.259 203.087 183.759 202.607 184.359 202.26C184.959 201.9 185.626 201.72 186.359 201.72V205.34H185.419C184.566 205.34 183.926 205.527 183.499 205.9C183.073 206.26 182.859 206.9 182.859 207.82V213H179.439V201.84H182.859V203.7ZM187.314 207.4C187.314 206.253 187.527 205.247 187.954 204.38C188.394 203.513 188.987 202.847 189.734 202.38C190.481 201.913 191.314 201.68 192.234 201.68C193.021 201.68 193.707 201.84 194.294 202.16C194.894 202.48 195.354 202.9 195.674 203.42V201.84H199.094V213H195.674V211.42C195.341 211.94 194.874 212.36 194.274 212.68C193.687 213 193.001 213.16 192.214 213.16C191.307 213.16 190.481 212.927 189.734 212.46C188.987 211.98 188.394 211.307 187.954 210.44C187.527 209.56 187.314 208.547 187.314 207.4ZM195.674 207.42C195.674 206.567 195.434 205.893 194.954 205.4C194.487 204.907 193.914 204.66 193.234 204.66C192.554 204.66 191.974 204.907 191.494 205.4C191.027 205.88 190.794 206.547 190.794 207.4C190.794 208.253 191.027 208.933 191.494 209.44C191.974 209.933 192.554 210.18 193.234 210.18C193.914 210.18 194.487 209.933 194.954 209.44C195.434 208.947 195.674 208.273 195.674 207.42ZM207.788 210.1V213H206.048C204.808 213 203.841 212.7 203.148 212.1C202.455 211.487 202.108 210.493 202.108 209.12V204.68H200.748V201.84H202.108V199.12H205.528V201.84H207.768V204.68H205.528V209.16C205.528 209.493 205.608 209.733 205.768 209.88C205.928 210.027 206.195 210.1 206.568 210.1H207.788Z" fill="#FF4933"/>
</g>
<defs>
<clipPath id="clip0_103_1330">
<rect width="232.51" height="232.51" fill="white"/>
</clipPath>
</defs>
</svg>
