<svg width="146" height="100" viewBox="0 0 146 100" fill="none" xmlns="http://www.w3.org/2000/svg">
<path d="M118.1 30.0497C61.4242 -32.8676 5.41043 18.5585 3.60168 49.0694C2.18351 72.9853 14.2427 86.5908 43.4899 82.9323C96.9315 76.2467 104.611 94.2177 116.91 99.3815C129.209 104.545 143.196 57.9081 118.1 30.0497Z" fill="#F4E9E4"/>
<path d="M99.8507 100.58H144.914C144.914 100.58 148 92.4596 134.666 91.2749C121.333 90.0903 105.951 89.2759 104.879 94.3435C104.638 95.4798 98.1727 93.5735 99.8507 100.58Z" fill="#F2B694"/>
<path d="M115.243 95.0631C114.362 95.8223 112.994 95.9526 111.985 95.3739C111.614 96.2625 110.411 96.4317 109.469 96.2314C107.772 95.8702 106.269 94.7308 105.407 93.2242C104.545 91.7179 104.32 89.8725 104.734 88.1872C105.079 86.7777 105.942 85.4078 107.285 84.8597C108.629 84.3116 110.444 84.8804 110.916 86.2524C110.612 83.8904 112.182 81.5461 114.188 80.263C115.397 79.4896 116.837 78.9419 118.252 79.1771C119.229 79.3394 120.124 79.8707 120.812 80.5836C121.836 81.6466 122.414 83.1274 122.38 84.6034C122.346 86.0794 121.701 87.5321 120.629 88.5467C121.26 88.22 121.989 87.9434 122.687 87.8053C123.385 87.6671 124.158 87.7444 124.724 88.1734C125.142 88.4897 125.411 88.964 125.625 89.4427C126.205 90.7374 126.466 92.2544 125.944 93.5737C125.461 94.7951 124.371 95.6872 123.194 96.2677C120.919 97.3889 118.007 97.448 115.969 95.9384C115.795 95.8093 115.62 95.6578 115.558 95.4498C115.497 95.2427 115.029 95.0968 115.243 95.0631Z" fill="#F1C2A7"/>
<path d="M109.469 96.4278C109.455 96.4278 109.442 96.4265 109.428 96.4235C107.705 96.0566 106.137 94.897 105.236 93.3217C104.362 91.7952 104.109 89.9066 104.542 88.1402C104.947 86.4881 105.945 85.1938 107.211 84.6776C107.732 84.4653 108.343 84.4036 108.933 84.5041C109.04 84.5222 109.112 84.6241 109.093 84.7311C109.075 84.8382 108.974 84.9102 108.867 84.8921C108.348 84.8036 107.813 84.8572 107.359 85.0423C106.21 85.511 105.299 86.7043 104.924 88.2347C104.515 89.904 104.753 91.6873 105.577 93.1275C106.424 94.607 107.894 95.6958 109.509 96.0398C109.616 96.0622 109.683 96.1667 109.661 96.2729C109.642 96.3648 109.56 96.4278 109.469 96.4278Z" fill="#F09664"/>
<path d="M116.971 95.3642C116.908 95.3642 116.846 95.3339 116.808 95.2774C116.771 95.2213 112.988 89.682 109.168 89.4092C109.06 89.4015 108.978 89.3074 108.986 89.199C108.993 89.0912 109.085 89.0109 109.196 89.0169C113.208 89.3035 116.976 94.8225 117.134 95.0573C117.195 95.1475 117.171 95.2696 117.081 95.3301C117.047 95.3529 117.009 95.3642 116.971 95.3642Z" fill="#F09664"/>
<path d="M141.223 89.1501C140.884 88.5299 140.473 87.9214 139.877 87.5407C139.07 87.0246 138.023 87.003 137.101 87.2632C136.178 87.523 135.228 87.9727 134.413 88.4786C135.746 87.0008 136.458 84.9802 136.347 82.9932C136.235 81.0058 135.301 79.0779 133.811 77.7586C132.811 76.8738 131.552 76.2549 130.222 76.141C128.295 75.9753 126.418 76.8652 124.876 78.033C122.317 79.9713 120.457 83.2888 121.118 86.4303C120.336 84.6366 117.837 84.0661 116.089 84.9456C114.341 85.8256 113.328 87.7578 113.014 89.6891C112.638 91.9985 113.137 94.4542 114.456 96.3864C115.775 98.319 117.916 99.6897 120.235 99.9944C121.522 100.163 123.121 99.8079 123.525 98.574C124.943 99.2443 126.767 98.9232 127.871 97.8093C127.587 97.8775 128.23 98.0233 128.335 98.2961C128.44 98.5689 128.692 98.754 128.94 98.9085C131.839 100.72 135.746 100.33 138.683 98.581C140.204 97.6751 141.573 96.36 142.092 94.6674C142.653 92.8388 142.14 90.8281 141.223 89.1501Z" fill="#F0CEBB"/>
<path d="M135.013 79.3187C134.959 79.3187 134.905 79.2963 134.866 79.2527C130.203 74.0069 125.212 78.0115 125.001 78.1845C124.918 78.2536 124.794 78.2415 124.725 78.1578C124.656 78.0741 124.667 77.9502 124.751 77.8811C124.805 77.8363 130.243 73.4592 135.16 78.9912C135.232 79.0723 135.225 79.1966 135.143 79.2687C135.106 79.3023 135.059 79.3187 135.013 79.3187ZM120.837 100.23C120.625 100.23 120.415 100.216 120.21 100.189C117.874 99.8822 115.662 98.502 114.294 96.4973C112.967 94.5535 112.429 92.0607 112.82 89.6576C113.185 87.416 114.374 85.5892 116.001 84.77C116.999 84.2677 118.246 84.2029 119.334 84.5961C119.927 84.8102 120.427 85.1463 120.802 85.5732C120.718 84.3099 120.993 82.9837 121.616 81.6885C121.663 81.591 121.78 81.5491 121.878 81.5966C121.976 81.6437 122.017 81.761 121.97 81.859C121.236 83.3859 121.008 84.953 121.31 86.3902C121.331 86.4886 121.273 86.587 121.178 86.618C121.08 86.6491 120.978 86.6016 120.937 86.5093C120.632 85.8084 120.015 85.2607 119.201 84.9664C118.212 84.6086 117.081 84.6669 116.178 85.1217C114.663 85.8839 113.553 87.6033 113.209 89.7211C112.834 92.0253 113.348 94.4145 114.619 96.2759C115.925 98.19 118.035 99.5071 120.262 99.8002C121.489 99.9616 122.975 99.6275 123.339 98.5136C123.373 98.4105 123.483 98.3535 123.587 98.3881C123.69 98.4217 123.746 98.5326 123.712 98.6362C123.342 99.7657 122.063 100.23 120.837 100.23ZM125.15 100.29C125.05 100.29 124.964 100.214 124.955 100.112C124.114 91.1984 127.414 86.3164 127.448 86.268C127.51 86.1787 127.632 86.1567 127.721 86.2184C127.81 86.2801 127.832 86.4027 127.771 86.492C127.738 86.5391 124.52 91.3153 125.346 100.075C125.356 100.183 125.277 100.279 125.168 100.289C125.163 100.29 125.156 100.29 125.15 100.29Z" fill="#F09664"/>
<path d="M133.349 93.1799C133.314 93.1799 133.279 93.1708 133.248 93.1514C129.927 91.1463 125.525 92.7327 125.481 92.7491C125.379 92.7863 125.266 92.7345 125.228 92.6326C125.191 92.5308 125.243 92.4177 125.344 92.3801C125.532 92.3111 129.967 90.7108 133.451 92.8147C133.544 92.8708 133.574 92.9917 133.518 93.0845C133.481 93.1458 133.415 93.1799 133.349 93.1799ZM124.928 96.4275C124.865 96.4275 124.803 96.3968 124.765 96.3403C124.732 96.2907 121.401 91.3724 117.581 91.1001C117.473 91.0923 117.391 90.9982 117.399 90.8899C117.407 90.7816 117.497 90.7017 117.609 90.7078C121.621 90.9943 124.952 95.9126 125.092 96.1219C125.152 96.2121 125.128 96.3343 125.038 96.3947C125.004 96.4171 124.966 96.4275 124.928 96.4275ZM144.345 92.387C144.238 92.387 144.15 92.3012 144.148 92.1937C144.027 85.1887 138.879 84.4641 138.66 84.4365C138.553 84.4231 138.476 84.3252 138.49 84.2173C138.503 84.1098 138.597 84.0334 138.709 84.0464C138.766 84.0533 144.414 84.8314 144.542 92.1872C144.543 92.2955 144.457 92.3853 144.348 92.387C144.347 92.387 144.346 92.387 144.345 92.387Z" fill="#F09664"/>
<path d="M53.0572 94.9786C53.0572 94.9786 54.6501 83.4167 51.4789 84.5577C48.3072 85.6993 49.7629 90.3327 53.0572 94.9786Z" fill="#F1C2A7"/>
<path d="M54.4577 96.2567C54.4577 96.2567 47.9719 84.8522 43.4981 88.774C39.024 92.6949 54.4577 96.2567 54.4577 96.2567Z" fill="#F0CEBB"/>
<path d="M46.0125 101.15H102L101.197 98.3518L99.3086 91.7228C97.9703 87.0432 93.3213 84.1149 88.52 84.9327L86.0958 85.3531C85.9124 85.3837 85.7368 85.3988 85.5607 85.3988C84.4904 85.3988 83.4736 84.8637 82.8694 83.9535C78.7098 77.7146 69.3048 78.4867 66.2156 85.3224L65.8026 86.24C65.0741 87.8588 63.1725 88.5826 61.5524 87.8571L59.1351 86.7751C57.7204 86.1403 56.1451 86.6146 55.2738 87.7307C54.9522 88.1359 54.7231 88.6253 54.6316 89.176L54.2721 91.2709C54.1802 91.791 53.9816 92.2497 53.6985 92.6321C53.645 92.7007 53.5915 92.7698 53.538 92.8311C53.0486 93.3969 52.3835 93.7715 51.6567 93.9014C51.4733 93.9398 51.2748 93.9549 51.0831 93.9549C50.4768 93.9549 49.8618 93.7887 49.3037 93.4158C48.0453 92.5756 46.3574 92.7849 45.287 93.8552L43.663 95.4797C41.5716 97.5724 43.0536 101.15 46.0125 101.15Z" fill="#F2B694"/>
<path d="M43.6639 95.6766C43.6134 95.6766 43.5633 95.6576 43.5249 95.6192C43.4481 95.5424 43.4481 95.4181 43.5249 95.3413L45.1489 93.7168C46.2991 92.5662 48.0927 92.3712 49.4138 93.2529C49.9092 93.5839 50.4867 93.7587 51.084 93.7587C51.2812 93.7587 51.4608 93.7423 51.617 93.7091C52.3075 93.5856 52.935 93.2287 53.3899 92.7026C53.4404 92.6444 53.4909 92.5796 53.5414 92.5149C53.8129 92.1476 53.9941 91.7178 54.0792 91.237L54.4387 89.143C54.5315 88.5854 54.7675 88.0545 55.1206 87.6087C56.0903 86.3662 57.7752 85.9493 59.2162 86.5958C59.3155 86.6402 59.3595 86.7568 59.3151 86.8556C59.2706 86.9548 59.1545 86.9993 59.0553 86.9544C57.7795 86.3817 56.2884 86.7511 55.4296 87.8517C55.1167 88.2466 54.9082 88.7153 54.8262 89.2081L54.4667 91.3043C54.3709 91.8464 54.1659 92.3319 53.8573 92.7488C53.7969 92.8265 53.7421 92.8973 53.6873 92.9598C53.1741 93.5533 52.4655 93.9564 51.6925 94.0945C51.5156 94.1316 51.3089 94.151 51.0844 94.151C50.409 94.151 49.756 93.9533 49.1958 93.5792C48.0306 92.8014 46.4458 92.9758 45.4273 93.9939L43.8033 95.6184C43.7644 95.6576 43.7144 95.6766 43.6639 95.6766Z" fill="#F09664"/>
<path d="M50.9541 101.15H102L101.197 98.3516C98.6738 96.0884 95.1875 94.9797 91.6395 95.5913L89.7509 95.9124L88.7337 96.0807C88.5118 96.1191 88.2904 96.1342 88.0764 96.1342C87.6025 96.1342 87.136 96.05 86.7001 95.8821C85.9659 95.599 85.3237 95.1023 84.865 94.4139C84.2228 93.4429 83.4658 92.6172 82.6402 91.9362C82.3187 91.6613 81.9902 91.4166 81.6463 91.1943C79.7883 89.9635 77.655 89.3519 75.514 89.3291C74.2602 89.3062 73.0138 89.4896 71.8209 89.8793C68.9229 90.7969 66.3541 92.8844 64.9243 96.0574L64.4271 97.1432C63.5476 99.0927 61.2615 99.9571 59.3194 99.0853L57.8512 98.428L56.4364 97.7932C55.7943 97.5027 55.1214 97.4108 54.4788 97.4721C52.812 97.6326 51.3438 98.8713 51.0383 100.668L50.9541 101.15Z" fill="#F0CEBB"/>
<path d="M51.0382 100.865C51.0275 100.865 51.0162 100.864 51.005 100.863C50.898 100.844 50.8259 100.743 50.844 100.636C51.1509 98.8333 52.6377 97.4523 54.4598 97.2766C55.1676 97.2093 55.8797 97.3258 56.5171 97.6141C56.616 97.659 56.66 97.7751 56.6151 97.8744C56.5702 97.9732 56.4537 98.0172 56.3549 97.9723C55.7796 97.7125 55.1374 97.6072 54.4969 97.6681C52.8513 97.8264 51.5082 99.0737 51.2316 100.701C51.2156 100.797 51.1323 100.865 51.0382 100.865ZM60.8925 99.6205C60.3379 99.6205 59.7756 99.5066 59.2382 99.2653C59.139 99.2209 59.095 99.1044 59.1394 99.0055C59.1839 98.9063 59.3 98.8618 59.3992 98.9067C61.2408 99.7332 63.4159 98.9063 64.2472 97.063L64.7448 95.9763C66.1215 92.9211 68.6134 90.689 71.7609 89.6925C72.9681 89.2976 74.2309 89.1098 75.517 89.1327C75.6257 89.1349 75.712 89.2242 75.7099 89.333C75.7077 89.4417 75.6175 89.5324 75.5096 89.5259C74.2688 89.5026 73.0483 89.6852 71.8809 90.0667C68.84 91.0295 66.4331 93.1857 65.1021 96.1385L64.6045 97.2253C63.9278 98.728 62.4427 99.6201 60.8925 99.6205Z" fill="#F09664"/>
<path d="M26.6653 93.7289H33.8338C33.9913 93.7289 34.1186 93.6011 34.1186 93.444C34.1186 93.2865 33.9909 93.1592 33.8338 93.1592H26.6653C26.5077 93.1592 26.3804 93.2869 26.3804 93.444C26.38 93.6011 26.5077 93.7289 26.6653 93.7289ZM26.6653 91.8839H31.795C31.9525 91.8839 32.0798 91.7561 32.0798 91.599C32.0798 91.4415 31.9521 91.3142 31.795 91.3142H26.6653C26.5077 91.3142 26.3804 91.4419 26.3804 91.599C26.38 91.7561 26.5077 91.8839 26.6653 91.8839ZM26.6653 90.0384H30.2935C30.4511 90.0384 30.5784 89.9111 30.5784 89.7536C30.5784 89.5961 30.4506 89.4688 30.2935 89.4688H26.6653C26.5077 89.4688 26.3804 89.5965 26.3804 89.7536C26.38 89.9111 26.5077 90.0384 26.6653 90.0384Z" fill="#EDA67E"/>
<path d="M120.806 42.4364C119.86 42.4364 119.091 41.6674 119.091 40.7222C119.091 39.777 119.86 39.008 120.806 39.008C121.751 39.008 122.52 39.777 122.52 40.7222C122.52 41.6674 121.751 42.4364 120.806 42.4364ZM120.806 39.4011C120.077 39.4011 119.485 39.9937 119.485 40.7222C119.485 41.4507 120.077 42.0433 120.806 42.0433C121.534 42.0433 122.127 41.4507 122.127 40.7222C122.127 39.9937 121.534 39.4011 120.806 39.4011ZM81.3183 30.8757C80.3731 30.8757 79.604 30.1067 79.604 29.1615C79.604 28.2163 80.3731 27.4473 81.3183 27.4473C82.2634 27.4473 83.0325 28.2163 83.0325 29.1615C83.0325 30.1067 82.2639 30.8757 81.3183 30.8757ZM81.3183 27.8404C80.5898 27.8404 79.9972 28.433 79.9972 29.1615C79.9972 29.89 80.5898 30.4826 81.3183 30.4826C82.0468 30.4826 82.6393 29.89 82.6393 29.1615C82.6398 28.433 82.0468 27.8404 81.3183 27.8404Z" fill="#EDA67E"/>
<path d="M137.566 72.6366C137.516 72.6366 137.466 72.6176 137.427 72.5792C137.351 72.5024 137.351 72.3781 137.427 72.3013L139.847 69.8818C139.924 69.805 140.048 69.805 140.125 69.8818C140.202 69.9587 140.202 70.083 140.125 70.1598L137.705 72.5792C137.667 72.6172 137.616 72.6366 137.566 72.6366Z" fill="#EDA67E"/>
<path d="M139.986 72.6366C139.935 72.6366 139.885 72.6176 139.847 72.5792L137.427 70.1598C137.351 70.083 137.351 69.9587 137.427 69.8818C137.504 69.805 137.629 69.805 137.705 69.8818L140.125 72.3013C140.202 72.3781 140.202 72.5024 140.125 72.5792C140.086 72.6172 140.036 72.6366 139.986 72.6366Z" fill="#EDA67E"/>
<path d="M38.3032 18.2645C38.2527 18.2645 38.2027 18.2455 38.1642 18.2071C38.0874 18.1303 38.0874 18.006 38.1642 17.9292L40.5837 15.5098C40.6605 15.4329 40.7848 15.4329 40.8616 15.5098C40.9384 15.5866 40.9384 15.7109 40.8616 15.7877L38.4422 18.2071C38.4038 18.2451 38.3533 18.2645 38.3032 18.2645Z" fill="#EDA67E"/>
<path d="M40.7226 18.2645C40.6722 18.2645 40.6221 18.2455 40.5837 18.2071L38.1642 15.7877C38.0874 15.7109 38.0874 15.5866 38.1642 15.5098C38.2411 15.4329 38.3654 15.4329 38.4422 15.5098L40.8616 17.9292C40.9384 18.006 40.9384 18.1303 40.8616 18.2071C40.8232 18.2451 40.7731 18.2645 40.7226 18.2645Z" fill="#EDA67E"/>
<path d="M81.7606 51.8916C81.7606 51.8916 66.0235 73.6755 67.724 76.1105C74.6499 86.0286 86.7803 64.8372 86.7803 64.8372L81.7606 51.8916Z" fill="#EFBCA5"/>
<path d="M83.3868 64.9092C82.9078 75.0845 87.5753 78.9692 79.0943 100.54H121.257C120.821 93.5988 111.811 78.3287 114.341 66.2648C121.249 66.9782 123.844 68.7701 125.088 65.721C126.132 63.1609 124.013 51.2066 118.022 45.35C115.268 42.6535 110.532 36.9127 102.085 37.1043C96.0433 37.2411 86.3052 46.0824 76.8903 54.0347C78.8207 55.9034 78.3192 68.4965 83.3868 64.9092Z" fill="#F47249"/>
<path d="M82.5237 66.9542C97.9371 79.1247 107.633 89.2616 115.279 88.0139C118.626 87.4732 123.208 74.6807 124.4 66.8122C121.26 67.9874 112.533 65.3224 112.533 65.3224L110.636 73.6734L82.9328 62.3945C82.9328 62.395 81.4201 66.0828 82.5237 66.9542Z" fill="#EFBCA5"/>
<path d="M112.913 86.224C112.37 86.224 111.749 86.1304 111.042 85.9047C110.939 85.8714 110.881 85.7609 110.915 85.6574C110.948 85.5538 111.058 85.4968 111.162 85.53C114.939 86.7372 115.968 83.9777 116.01 83.8594C116.047 83.7571 116.159 83.7036 116.261 83.7399C116.364 83.7761 116.417 83.8888 116.381 83.991C116.371 84.0178 115.55 86.224 112.913 86.224Z" fill="#042C30"/>
<path d="M69.6013 52.7643L75.4605 52.5468C76.3111 52.5153 77.3089 53.2952 77.6827 54.2826L83.269 69.0431C83.6018 69.923 83.2056 70.6136 82.3903 70.5911L76.7625 70.4375C75.9835 70.4163 75.0725 69.7107 74.7216 68.8566L68.8504 54.5532C68.4581 53.5977 68.7913 52.7945 69.6013 52.7643Z" fill="#A08E9D"/>
<path d="M69.1529 52.7811L74.9926 52.5644C75.8402 52.5329 76.8368 53.3115 77.2118 54.2972L82.8141 69.0335C83.1482 69.9117 82.7546 70.6014 81.9419 70.5794L76.3318 70.4262C75.555 70.405 74.6452 69.7007 74.2939 68.8479L68.4089 54.5674C68.0153 53.6127 68.3459 52.8108 69.1529 52.7811Z" fill="#384D54"/>
<path d="M72.2556 54.7717C72.4126 55.1662 72.8123 55.4774 73.1494 55.4683C73.4873 55.4592 73.6357 55.1317 73.4795 54.7355C73.3228 54.3384 72.9202 54.0242 72.5814 54.0354C72.2435 54.0462 72.098 54.3764 72.2556 54.7717Z" fill="#042C30"/>
<path d="M78.3192 68.497V68.4957C82.6393 68.6705 83.3631 66.9351 83.3631 66.9351C83.3631 66.9351 85.9349 68.6191 86.8041 68.3218C87.5671 67.6904 85.9677 64.4043 85.9677 64.4043C85.313 63.8442 84.1891 63.0462 82.9673 62.3828C81.5427 61.609 79.5501 58.4011 78.9506 59.4805C78.3499 60.5611 80.358 62.2093 80.358 62.2093C80.358 62.2093 80.3261 62.2033 80.2661 62.1964C79.9044 62.148 78.5333 62.0009 77.2921 62.2926H77.2908C76.9464 62.3759 76.6111 62.4912 76.3107 62.653C76.258 62.6823 76.2058 62.7113 76.1544 62.7419C76.0642 62.7971 75.9766 62.8584 75.8946 62.9258C75.8817 62.9361 75.867 62.9478 75.8536 62.9594C75.8126 62.9931 75.7734 63.028 75.7354 63.0643L75.7311 63.0686C75.7311 63.0699 75.7311 63.0699 75.7311 63.0716C75.6594 63.1955 75.6128 63.3647 75.6288 63.5982C75.6814 64.3508 76.2779 64.4048 76.2779 64.4048C76.2779 64.4048 75.76 64.6849 75.8959 65.2856C76.0388 65.9244 76.5114 65.7962 76.5114 65.7962C76.5114 65.7962 76.0737 66.2571 76.2049 66.756C76.3435 67.2825 76.889 67.1237 76.889 67.1237C76.889 67.1237 76.5316 67.4051 76.6879 68.0236C76.8286 68.579 78.3192 68.497 78.3192 68.497Z" fill="#EFBCA5"/>
<path d="M76.5122 65.993C76.4807 65.993 76.4496 65.9856 76.4216 65.9709C76.0297 65.7672 75.8087 65.5053 75.7652 65.1919C75.6957 64.6917 76.1255 64.2796 76.1437 64.2619C76.1657 64.2412 76.192 64.2261 76.2205 64.217L77.9157 63.6935C78.0197 63.6616 78.1298 63.7198 78.1617 63.8234C78.1937 63.927 78.1358 64.037 78.0318 64.0694L76.3849 64.5778C76.3107 64.6594 76.1199 64.8963 76.1544 65.1389C76.1778 65.3037 76.3077 65.4543 76.5398 65.5873L78.2895 65.1712C78.3952 65.1462 78.5009 65.2114 78.5264 65.3171C78.5514 65.4228 78.4863 65.5286 78.3805 65.554L76.5575 65.9873C76.5424 65.9912 76.5273 65.993 76.5122 65.993ZM76.8899 67.3201C76.8066 67.3201 76.7297 67.267 76.7026 67.1837C76.6693 67.0801 76.7259 66.9696 76.8294 66.9364L78.5324 66.3883C78.6365 66.3542 78.7465 66.412 78.7797 66.5152C78.813 66.6187 78.7564 66.7292 78.6529 66.7625L76.9498 67.3106C76.93 67.317 76.9097 67.3201 76.8899 67.3201ZM76.0371 63.0159C75.9745 63.0159 75.9132 62.9861 75.8752 62.9309C75.8135 62.8416 75.8359 62.719 75.9253 62.6573C77.832 61.3414 81.282 62.2197 81.4283 62.2576C81.5336 62.2848 81.5962 62.3923 81.569 62.4976C81.5414 62.6025 81.434 62.6655 81.3291 62.6383C81.295 62.6297 77.9067 61.7678 76.1484 62.981C76.1147 63.0047 76.0755 63.0159 76.0371 63.0159Z" fill="#042C30"/>
<path opacity="0.2" d="M79.2804 59.4365C79.2804 59.4365 79.8798 60.2008 80.0546 60.1961C80.2294 60.1909 80.2644 59.9812 80.2644 59.9812C80.2644 59.9812 79.5799 59.3463 79.2804 59.4365Z" fill="white"/>
<path d="M75.3025 62.4579L75.3016 62.457C72.7126 65.5049 71.0782 64.9088 71.0782 64.9088C71.0782 64.9088 72.2184 66.545 71.4709 66.9498C70.5633 67.0728 67.724 65.0936 67.724 65.0936C67.7537 64.2969 67.9152 63.0323 68.2298 61.7859C68.5966 60.3319 67.664 56.9661 68.7736 57.2349C69.8853 57.5038 69.7472 59.903 69.7472 59.903C69.7472 59.903 69.7632 59.8775 69.796 59.8322C69.9902 59.556 70.7493 58.5314 71.7256 57.8698L71.7264 57.8689C71.9988 57.6868 72.2875 57.531 72.5857 57.4283C72.6384 57.411 72.691 57.3933 72.7441 57.3778C72.8386 57.351 72.9349 57.3299 73.032 57.3165C73.0471 57.3139 73.0643 57.3113 73.0803 57.3096C73.1286 57.3027 73.1774 57.2979 73.2257 57.2949L73.2313 57.2945C73.2322 57.2954 73.2322 57.2954 73.2335 57.2962C73.3625 57.3251 73.5071 57.3998 73.6556 57.5569C74.1346 58.0644 73.7971 58.5038 73.7971 58.5038C73.7971 58.5038 74.312 58.3273 74.6357 58.796C74.9805 59.2936 74.5969 59.5344 74.5969 59.5344C74.5969 59.5344 75.1847 59.5258 75.4415 59.9276C75.7129 60.3518 75.2628 60.6233 75.2628 60.6233C75.2628 60.6233 75.6784 60.5568 76.0012 61.0505C76.2925 61.4955 75.3025 62.4579 75.3025 62.4579Z" fill="#EFBCA5"/>
<path d="M73.161 60.7002C73.0976 60.7002 73.0358 60.6696 72.9979 60.6135C72.9374 60.5233 72.9612 60.4011 73.051 60.3407L74.4255 59.4145C74.4778 59.1806 74.457 59.0045 74.3638 58.8897C74.2374 58.7348 73.9832 58.7007 73.8537 58.6998L72.4783 59.4996C72.3842 59.5539 72.2642 59.522 72.2094 59.4283C72.155 59.3343 72.1869 59.2143 72.2806 59.1595L73.6992 58.3347C73.7251 58.3196 73.7544 58.3106 73.7842 58.3088C73.8075 58.3071 74.3651 58.2726 74.6664 58.6394C74.855 58.8694 74.896 59.188 74.7876 59.5872C74.7751 59.6329 74.7466 59.6726 74.7078 59.6989L73.2702 60.667C73.237 60.6894 73.1986 60.7002 73.161 60.7002ZM73.8235 61.6354C73.7549 61.6354 73.6884 61.5996 73.6521 61.5357C73.5986 61.4412 73.6319 61.3212 73.7264 61.2677L75.167 60.4529C75.2615 60.3994 75.3815 60.4331 75.435 60.5271C75.4885 60.6217 75.4553 60.7416 75.3608 60.7952L73.9202 61.61C73.8895 61.6272 73.8563 61.6354 73.8235 61.6354ZM69.2703 60.9432C69.2392 60.9432 69.2073 60.9358 69.178 60.9199C69.0822 60.869 69.0459 60.7498 69.0968 60.654C69.1624 60.5306 70.7312 57.6278 72.8278 57.1544C72.934 57.1302 73.0389 57.1971 73.063 57.3028C73.0868 57.4086 73.0203 57.5139 72.9146 57.538C70.994 57.9718 69.4594 60.8107 69.4438 60.8392C69.4084 60.9052 69.3407 60.9432 69.2703 60.9432Z" fill="#042C30"/>
<path opacity="0.2" d="M68.5379 57.4316C68.5379 57.4316 68.6821 58.3185 68.569 58.4346C68.4559 58.5503 68.2915 58.4428 68.2915 58.4428C68.2915 58.4428 68.2889 57.5788 68.5379 57.4316Z" fill="white"/>
<path d="M116.871 23.4438C115.287 21.181 116.848 18.9748 113.2 17.337C109.551 15.6991 109.487 17.6952 107.954 14.6892C106.422 11.6833 104.359 10.8896 101.339 12.262C98.3186 13.6345 99.8869 17.0124 99.8869 17.0124C99.18 21.3191 106.733 31.0292 112.28 31.39C117.826 31.7513 118.455 25.7066 116.871 23.4438Z" fill="#042C30"/>
<path d="M106.943 29.0217C104.803 27.4624 106.687 27.1961 106.024 24.4154C105.36 21.6348 104.19 23.7098 103.844 19.8468C103.327 14.0847 98.9306 13.5233 96.2103 14.2306C96.1767 14.2371 96.1434 14.2453 96.1115 14.2556C96.1115 14.2556 90.8074 15.2906 91.2286 18.4148C91.6498 21.539 90.6891 22.608 89.2731 23.488C87.8576 24.3684 87.9793 25.071 89.7349 27.5414C91.4906 30.0117 89.4259 29.5858 90.1963 32.2874C90.9666 34.9891 93.2324 34.8372 96.2449 33.7721C99.2573 32.7065 99.0126 33.7747 100.535 34.3551C101.856 34.8592 102.911 35.5441 103.435 33.8541C103.695 33.9918 104.08 33.864 104.675 33.3353C106.871 31.3867 109.083 30.581 106.943 29.0217Z" fill="#042C30"/>
<path d="M96.4658 32.1476L98.4166 40.7796C98.4166 40.7796 103.776 42.0696 104.333 37.8496L102.211 28.6738L96.4658 32.1476Z" fill="#EFBCA5"/>
<path d="M97.8732 38.2277C97.8732 38.2277 94.0714 42.0372 95.6355 43.537C97.1991 45.0371 99.294 42.7243 99.294 42.7243C99.294 42.7243 102.012 46.0371 104.137 44.4118C106.262 42.7869 104.178 37.1807 104.178 37.1807C104.178 37.1807 102.447 40.843 100.18 40.9643C98.2897 41.0657 97.8732 38.2277 97.8732 38.2277Z" fill="#F4E9E4"/>
<path d="M94.3515 35.7015C100.025 37.8223 103.72 29.1035 103.72 29.1035C103.72 29.1035 105.635 28.8782 105.568 26.0121C105.537 24.7286 103.624 25.3587 103.624 25.3587C103.624 25.3587 103.839 21.9954 102.288 20.8474C100.735 19.6998 94.383 18.9972 91.5186 21.4615C89.1821 23.4718 90.9269 34.4214 94.3515 35.7015Z" fill="#EFBCA5"/>
<path d="M93.8263 20.4773C93.8263 20.4773 96.6005 26.1496 103.662 25.371C105.316 22.23 101.623 13.8423 95.5461 14.6592C88.3064 15.6329 90.1846 23.378 90.1846 23.378C90.1846 23.378 92.7262 23.6745 93.8263 20.4773ZM96.5219 36.1674C96.2776 36.1674 96.0217 36.1527 95.7524 36.1212C95.6445 36.1087 95.5673 36.0107 95.5802 35.9028C95.5927 35.795 95.692 35.7177 95.7982 35.7306C99.2538 36.1363 100.392 33.631 100.439 33.524C100.483 33.4247 100.598 33.379 100.697 33.4221C100.797 33.4653 100.842 33.581 100.8 33.6802C100.788 33.7074 99.6837 36.1674 96.5219 36.1674ZM104.957 27.0235C104.933 27.0235 104.909 27.0192 104.886 27.0102C104.785 26.9709 104.734 26.8574 104.773 26.756C104.884 26.4698 104.899 26.2553 104.816 26.153C104.715 26.0292 104.454 26.0404 104.371 26.0542C104.263 26.0728 104.163 25.9998 104.145 25.8932C104.127 25.7866 104.198 25.6852 104.305 25.6667C104.361 25.6576 104.856 25.5816 105.12 25.9032C105.303 26.1259 105.31 26.4603 105.141 26.8975C105.11 26.9756 105.036 27.0235 104.957 27.0235Z" fill="#042C30"/>
<path d="M97.7597 25.6206C97.6829 25.6206 97.6099 25.5753 97.5784 25.4998C97.5668 25.4739 97.3324 24.9668 96.4395 24.9012C95.5673 24.8369 95.3312 25.4467 95.3217 25.4726C95.2842 25.574 95.1715 25.6267 95.0705 25.59C94.9691 25.5533 94.9156 25.4424 94.9514 25.3405C95.0628 25.0224 95.5233 24.4402 96.4684 24.5084C97.6207 24.593 97.9293 25.3181 97.9418 25.3487C97.9828 25.4493 97.9345 25.5641 97.8339 25.6051C97.8093 25.6159 97.7843 25.6206 97.7597 25.6206ZM93.1824 25.9331C93.0917 25.9331 93.0106 25.8705 92.9907 25.7786C92.9838 25.7501 92.844 25.2102 91.9778 24.9853C91.1207 24.7631 90.7798 25.3392 90.7763 25.3453C90.7228 25.4393 90.6024 25.4726 90.5083 25.4186C90.4138 25.3647 90.381 25.2447 90.4349 25.1506C90.602 24.858 91.16 24.3669 92.0767 24.6051C93.1953 24.8956 93.3684 25.6642 93.3753 25.6966C93.3977 25.8027 93.3295 25.9072 93.2234 25.9292C93.2096 25.9318 93.1957 25.9331 93.1824 25.9331ZM94.2963 30.4854C94.2898 30.4854 94.2829 30.4849 94.2764 30.4845C93.2065 30.3766 93.0162 29.5428 93.0089 29.5074C92.9899 29.4198 93.033 29.3305 93.1133 29.2903C93.8198 28.9377 93.7434 27.1372 93.6541 26.4734C93.6398 26.3659 93.7149 26.2667 93.8228 26.2524C93.9329 26.2369 94.0291 26.3133 94.0438 26.4208C94.0788 26.6801 94.3438 28.8678 93.4405 29.548C93.5268 29.7254 93.7559 30.0361 94.3166 30.0926C94.4244 30.1034 94.5034 30.2001 94.4922 30.308C94.4814 30.4098 94.396 30.4854 94.2963 30.4854ZM95.9561 26.8838C96.0049 27.1652 96.2725 27.3538 96.5539 27.3051C96.8353 27.2563 97.0239 26.9887 96.9751 26.7073C96.9263 26.4259 96.6587 26.2373 96.3773 26.2861C96.096 26.3349 95.9074 26.6025 95.9561 26.8838ZM91.3844 26.9149C91.4332 27.1963 91.7008 27.3849 91.9822 27.3361C92.2635 27.2874 92.4521 27.0198 92.4034 26.7384C92.3546 26.457 92.087 26.2684 91.8056 26.3172C91.5242 26.3659 91.3356 26.6335 91.3844 26.9149Z" fill="#042C30"/>
<path opacity="0.5" d="M95.5953 28.9226C95.5729 29.5057 96.1585 30.0015 96.9035 30.03C97.6484 30.0585 98.2703 29.6092 98.2927 29.0262C98.3151 28.4431 97.7295 27.9472 96.9846 27.9187C96.2397 27.8898 95.6178 28.3395 95.5953 28.9226ZM90.8868 29.4288C91.0146 29.4465 91.27 29.4267 91.4069 29.4029C91.9735 29.3045 92.3723 28.863 92.2951 28.4172C92.2182 27.9731 91.6939 27.6917 91.1272 27.7901C91.0534 27.8031 90.687 27.8579 90.621 27.8821C90.69 28.3477 90.8005 28.9968 90.8868 29.4288Z" fill="#EDA585"/>
<path d="M102.25 23.8041C98.8132 23.8041 95.1784 19.8776 95.0174 19.7015C94.9441 19.6212 94.9497 19.4969 95.0295 19.4236C95.1094 19.3506 95.2337 19.3558 95.307 19.4356C95.3472 19.4797 99.3673 23.8218 102.752 23.3785C102.86 23.3656 102.958 23.4403 102.972 23.5482C102.987 23.6561 102.911 23.7545 102.803 23.7687C102.62 23.7924 102.435 23.8041 102.25 23.8041ZM101.388 20.0334C97.1693 20.0334 95.3148 17.1927 95.2937 17.1595C95.2358 17.068 95.2626 16.9467 95.3545 16.8885C95.446 16.8302 95.5677 16.8574 95.626 16.9489C95.7201 17.0965 97.9906 20.547 103.46 19.4188C103.568 19.3964 103.671 19.4654 103.692 19.5716C103.714 19.6778 103.646 19.7818 103.539 19.8038C102.763 19.9639 102.047 20.0334 101.388 20.0334ZM91.5816 21.7053C91.491 21.7053 91.4094 21.6423 91.3896 21.5504C91.3667 21.4442 91.434 21.3398 91.5402 21.3169C92.8436 21.0355 94.0542 18.8146 94.0662 18.7922C94.118 18.6963 94.2367 18.661 94.3325 18.7123C94.4279 18.7637 94.4637 18.8828 94.4124 18.9786C94.3597 19.0766 93.1034 21.3816 91.6231 21.7014C91.6093 21.7036 91.5955 21.7053 91.5816 21.7053ZM106.257 14.3831C106.183 14.3831 106.112 14.3409 106.078 14.2692C105.082 12.123 101.416 13.1898 101.379 13.2011C101.274 13.2326 101.166 13.173 101.135 13.069C101.104 12.965 101.163 12.8554 101.267 12.8243C101.43 12.7751 105.297 11.6525 106.435 14.1035C106.481 14.2019 106.438 14.3188 106.339 14.3646C106.313 14.3775 106.285 14.3831 106.257 14.3831ZM91.0858 19.266C91.0797 19.266 91.0732 19.2656 91.0668 19.2652C90.9589 19.2548 90.8795 19.159 90.8898 19.0507C91.0133 17.7551 92.7581 15.7258 94.8228 15.6844C94.9307 15.6869 95.0213 15.7685 95.0235 15.8768C95.0256 15.9856 94.9393 16.0754 94.831 16.0775C93.027 16.1138 91.3926 17.9251 91.2813 19.0882C91.2713 19.1896 91.1859 19.266 91.0858 19.266ZM114.551 29.7702C114.54 29.7702 114.53 29.7694 114.52 29.7676C114.413 29.7508 114.34 29.6502 114.356 29.5428C114.669 27.558 113.664 24.855 112.019 23.2555C110.249 21.534 110.594 18.9652 110.61 18.8565C110.625 18.749 110.724 18.6748 110.832 18.6899C110.94 18.7054 111.014 18.8047 110.999 18.9121C110.996 18.9367 110.669 21.3941 112.293 22.9737C114.021 24.6543 115.075 27.5044 114.745 29.6041C114.729 29.7012 114.646 29.7702 114.551 29.7702ZM105.905 27.9671C105.864 27.9671 105.822 27.9541 105.787 27.9274C105.7 27.8622 105.683 27.7388 105.748 27.652C107.53 25.2861 105.516 23.1701 105.429 23.0812C105.353 23.0035 105.355 22.8792 105.432 22.8033C105.51 22.7273 105.634 22.7286 105.71 22.8063C105.734 22.8304 108.05 25.2499 106.062 27.8885C106.024 27.9403 105.965 27.9671 105.905 27.9671Z" fill="#384D54"/>
<path d="M105.34 22.0799C106.14 15.7197 102.692 13.4055 100.773 14.4405C104.996 17.2078 105.244 22.8412 105.34 22.0799Z" fill="#F4E9E4"/>
<path d="M95.3299 33.3971C94.5289 33.3971 93.9463 32.852 93.9195 32.827C93.841 32.7523 93.8375 32.6276 93.9126 32.5491C93.9873 32.4705 94.1116 32.4675 94.1901 32.5417C94.2 32.5504 94.7852 33.0872 95.506 32.9923C96.0398 32.9224 96.5314 32.5305 96.9669 31.8275C97.0239 31.7351 97.1447 31.7066 97.2375 31.764C97.3298 31.8214 97.3583 31.9423 97.3009 32.0346C96.7994 32.8447 96.2108 33.2979 95.5526 33.3824C95.4771 33.3924 95.4024 33.3971 95.3299 33.3971Z" fill="#042C30"/>
<path d="M68.2427 63.002C68.2427 63.002 63.1345 77.2432 71.0709 78.7541C77.3344 79.9466 71.8896 64.5928 71.8896 64.5928L68.2427 63.002Z" fill="#EFBCA5"/>
<path d="M73.8235 73.2112C73.8222 73.2112 73.8209 73.2112 73.8196 73.2112C73.7108 73.2091 73.6245 73.1193 73.6271 73.0106C73.713 68.7755 71.7368 65.0389 71.7169 65.0017C71.6656 64.9059 71.7014 64.7868 71.7972 64.7355C71.893 64.6837 72.0121 64.7204 72.0635 64.8157C72.0842 64.8537 74.1083 68.6775 74.0207 73.0183C74.0177 73.1258 73.9301 73.2112 73.8235 73.2112Z" fill="#042C30"/>
<path d="M109.235 50.4404C109.137 50.4404 109.052 50.3675 109.04 50.2674C108.302 44.1886 110.619 39.2625 110.643 39.2133C110.69 39.1154 110.807 39.0739 110.906 39.121C111.004 39.168 111.045 39.2854 110.998 39.3829C110.975 39.4308 108.707 44.2589 109.43 50.2199C109.443 50.3278 109.367 50.4257 109.259 50.4387C109.251 50.44 109.243 50.4404 109.235 50.4404ZM118.164 66.7709C118.155 66.7709 118.146 66.7701 118.136 66.7692C117.582 66.6902 117.056 66.6268 116.546 66.5655C114.705 66.3437 113.251 66.1689 112.407 65.4749C109.818 63.3451 111.377 59.7673 111.392 59.7315C111.437 59.6322 111.553 59.5882 111.652 59.6322C111.751 59.6766 111.796 59.7927 111.751 59.892C111.736 59.9252 110.301 63.2333 112.657 65.1715C113.411 65.7925 114.815 65.9613 116.593 66.1754C117.104 66.2371 117.632 66.3005 118.191 66.3799C118.298 66.3955 118.373 66.4947 118.358 66.6022C118.345 66.7002 118.261 66.7709 118.164 66.7709ZM84.0061 54.2318C83.8991 54.2318 83.8115 54.146 83.8098 54.0385C83.72 48.9843 89.7276 43.7639 91.5713 42.2844C91.6209 42.2447 91.6524 42.2193 91.6641 42.2094C91.7435 42.139 91.8665 42.1425 91.9394 42.2201C92.0124 42.2974 92.0124 42.4169 91.9373 42.492C91.9286 42.5007 91.8876 42.5348 91.8177 42.5909C90.0094 44.0423 84.1162 49.156 84.2034 54.0316C84.2051 54.1399 84.1188 54.2297 84.01 54.2318C84.0083 54.2318 84.0074 54.2318 84.0061 54.2318Z" fill="#042C30"/>
<path d="M99.2292 48.7959C98.6453 48.7959 98.1706 48.3208 98.1706 47.7368C98.1706 47.1529 98.6457 46.6777 99.2292 46.6777C99.8132 46.6777 100.288 47.1529 100.288 47.7368C100.288 48.3208 99.8132 48.7959 99.2292 48.7959ZM99.2292 46.8745C98.7541 46.8745 98.3669 47.2612 98.3669 47.7368C98.3669 48.2124 98.7536 48.5991 99.2292 48.5991C99.7048 48.5991 100.092 48.2124 100.092 47.7368C100.092 47.2612 99.7048 46.8745 99.2292 46.8745ZM97.7597 57.7322C97.1758 57.7322 96.7006 57.257 96.7006 56.6731C96.7006 56.0892 97.1758 55.614 97.7597 55.614C98.3436 55.614 98.8184 56.0892 98.8184 56.6731C98.8184 57.257 98.3432 57.7322 97.7597 57.7322ZM97.7597 55.8108C97.2841 55.8108 96.8974 56.1975 96.8974 56.6731C96.8974 57.1487 97.2841 57.5354 97.7597 57.5354C98.2349 57.5354 98.622 57.1487 98.622 56.6731C98.622 56.1975 98.2349 55.8108 97.7597 55.8108ZM97.3078 65.7073C96.7239 65.7073 96.2487 65.2322 96.2487 64.6483C96.2487 64.0643 96.7239 63.5892 97.3078 63.5892C97.8918 63.5892 98.3669 64.0643 98.3669 64.6483C98.3669 65.2322 97.8922 65.7073 97.3078 65.7073ZM97.3078 63.786C96.8322 63.786 96.4455 64.1727 96.4455 64.6483C96.4455 65.1238 96.8322 65.5105 97.3078 65.5105C97.7834 65.5105 98.1701 65.1238 98.1701 64.6483C98.1706 64.1727 97.7834 63.786 97.3078 63.786ZM95.3864 84.9843C94.8025 84.9843 94.3273 84.5091 94.3273 83.9252C94.3273 83.3412 94.8025 82.8661 95.3864 82.8661C95.9704 82.8661 96.4455 83.3412 96.4455 83.9252C96.4455 84.5091 95.9704 84.9843 95.3864 84.9843ZM95.3864 83.0629C94.9108 83.0629 94.5241 83.4496 94.5241 83.9252C94.5241 84.4008 94.9108 84.7875 95.3864 84.7875C95.862 84.7875 96.2487 84.4008 96.2487 83.9252C96.2487 83.4496 95.862 83.0629 95.3864 83.0629ZM95.7395 95.0569C95.1555 95.0569 94.6808 94.5817 94.6808 93.9978C94.6808 93.4138 95.156 92.9387 95.7395 92.9387C96.3234 92.9387 96.7986 93.4138 96.7986 93.9978C96.7986 94.5817 96.3234 95.0569 95.7395 95.0569ZM95.7395 93.1355C95.2643 93.1355 94.8772 93.5222 94.8772 93.9978C94.8772 94.4734 95.2639 94.8601 95.7395 94.8601C96.2151 94.8601 96.6018 94.4734 96.6018 93.9978C96.6022 93.5222 96.2151 93.1355 95.7395 93.1355ZM84.9064 87.5116C84.8753 87.5116 84.8438 87.5042 84.8141 87.4887C84.7182 87.4378 84.682 87.3187 84.7329 87.2228C86.5076 83.8889 86.2745 79.4773 86.092 77.7359C86.0872 77.691 86.0842 77.6599 86.0825 77.6435C86.0738 77.5352 86.1545 77.4407 86.2629 77.4321C86.3708 77.4243 86.4657 77.5041 86.4743 77.6125C86.4756 77.6271 86.4787 77.6552 86.4825 77.6953C86.669 79.473 86.9051 83.9782 85.0795 87.408C85.0449 87.4736 84.9768 87.5116 84.9064 87.5116Z" fill="#042C30"/>
<path d="M52.9946 24.1426H10.4823C8.5726 24.1426 7.02409 25.6911 7.02409 27.6008V70.1135C7.02409 72.0232 8.5726 73.5717 10.4823 73.5717H52.995C54.9048 73.5717 56.4533 72.0232 56.4533 70.1135V27.6008C56.4528 25.6911 54.9048 24.1426 52.9946 24.1426Z" fill="#EFF0F9"/>
<path d="M56.7549 70.1138H56.1507V27.6012C56.1507 25.861 54.7347 24.445 52.9946 24.445H47.416V23.8408H52.9946C55.0679 23.8408 56.7549 25.5279 56.7549 27.6012V70.1138Z" fill="#69C1FD"/>
<path d="M14.1404 29.1939L12.9618 66.8155L50.6408 68.112L48.0375 28.6855L14.1404 29.1939Z" fill="white"/>
<path d="M29.6466 40.7217C25.7391 40.7195 10.1146 56.0458 11.8863 62.9566C13.6583 69.8675 30.4873 65.0891 30.4873 65.0891L52.1556 64.1387C52.156 64.1383 47.4069 40.7307 29.6466 40.7217Z" fill="#ACD9FB"/>
<path d="M60.145 49.3721H34.1454C33.5295 49.3721 33.006 49.8226 32.9145 50.4316L30.5016 66.4833C30.3885 67.236 30.9711 67.9131 31.7324 67.9131H57.732C58.3479 67.9131 58.8714 67.4626 58.9629 66.8536L61.3759 50.8015C61.4889 50.0492 60.9063 49.3721 60.145 49.3721Z" fill="#384D54"/>
<path d="M39.0714 25.3806C39.0956 25.2572 39.109 25.1299 39.109 24.9991C39.109 23.9119 38.2277 23.0307 37.1405 23.0307C37.0538 23.0307 36.9688 23.0384 36.885 23.0492C36.5471 22.4519 35.9071 22.0484 35.1721 22.0484C34.7444 22.0484 34.3499 22.1861 34.0271 22.4178C33.602 21.9673 33.0008 21.6846 32.3323 21.6846C31.7998 21.6846 31.3103 21.865 30.918 22.1653C30.6362 22.0445 30.3263 21.9772 30.0001 21.9772C28.808 21.9772 27.8266 22.8723 27.6868 24.0267C26.6912 24.1247 25.913 24.9637 25.913 25.9853C25.913 26.0465 25.9169 26.1065 25.9221 26.1665C24.9709 26.7159 24.4275 27.5597 24.8733 28.4163C25.7464 30.093 24.9122 30.9441 24.8729 32.184C24.8103 34.1615 26.5198 34.5573 26.9143 35.3078C29.0212 39.3163 31.388 38.4354 32.1536 37.5611C33.599 35.9103 34.7742 34.0243 35.6235 32.001C35.7263 31.7559 35.8247 31.5086 35.9179 31.2596C36.0029 31.033 36.0568 30.762 36.182 30.5539C36.3641 30.2514 36.8855 30.2475 37.1893 30.1297C38.03 29.8039 39.008 29.3248 39.2652 28.4634C39.6912 27.0396 39.5289 26.0621 39.0714 25.3806Z" fill="#042C30"/>
<path d="M27.2185 33.9443C27.4684 33.2702 28.2125 32.8166 28.9263 32.9025C28.9319 32.0786 28.9902 31.2461 29.2345 30.4593C29.8805 28.3813 36.3719 28.563 36.6442 29.124C36.7193 29.2794 37.8876 33.2676 38.0438 34.7121C38.2005 36.1562 37.9757 37.7392 36.9839 38.8009C36.2053 39.6347 34.9024 39.9575 33.6991 39.822C34.0811 41.0516 34.4868 41.7261 34.7945 42.6493C31.6353 44.2435 29.9181 42.8047 28.9755 42.7239C29.1922 41.254 29.4079 37.3193 29.6246 35.8498C29.0963 36.3374 28.2384 36.1704 27.8335 35.848C27.2716 35.3992 26.9687 34.6185 27.2185 33.9443Z" fill="#EFBCA5"/>
<path d="M28.1205 34.7303C28.0938 34.7303 28.067 34.7195 28.0476 34.6984C27.8953 34.5344 27.8288 34.3591 27.8499 34.177C27.8884 33.8425 28.2151 33.619 28.2289 33.6099C28.2746 33.5788 28.3363 33.5914 28.367 33.6367C28.3981 33.682 28.386 33.7441 28.3402 33.7752C28.3376 33.7769 28.0752 33.9578 28.048 34.2007C28.0342 34.322 28.0834 34.4437 28.1939 34.5624C28.2315 34.6025 28.2293 34.666 28.1887 34.7035C28.1693 34.7212 28.1447 34.7303 28.1205 34.7303ZM34.4971 39.9261C33.788 39.9261 32.9219 39.7081 32.1196 38.914C32.0803 38.8752 32.0799 38.8122 32.1187 38.7729C32.1575 38.7336 32.2205 38.7336 32.2598 38.772C33.9231 40.4185 35.8165 39.4682 35.8963 39.4272C35.9451 39.4021 36.0051 39.4211 36.031 39.4699C36.0564 39.5187 36.0374 39.5791 35.9882 39.6045C35.9766 39.6102 35.3508 39.9261 34.4971 39.9261Z" fill="#313844"/>
<path d="M35.5273 34.9957C35.4682 34.9957 35.4065 34.9867 35.3421 34.9651C35.2899 34.9478 35.2619 34.8913 35.2791 34.8391C35.2964 34.7868 35.3525 34.7583 35.4052 34.776C35.6417 34.8546 35.8238 34.6884 35.8972 34.6047C35.7358 34.2728 34.9732 32.641 35.1799 31.8905C35.1946 31.8374 35.2502 31.8063 35.3024 31.821C35.3555 31.8357 35.3866 31.8905 35.3719 31.9436C35.1661 32.6898 36.094 34.5533 36.103 34.5723C36.1194 34.6047 36.1168 34.6431 36.0966 34.6729C36.0111 34.7985 35.7992 34.9957 35.5273 34.9957Z" fill="#042C30"/>
<path d="M33.7867 31.4589C33.8062 31.2794 33.2637 31.0735 32.8135 31.0252C32.3634 30.9764 32.1769 31.1033 32.1575 31.2828C32.1381 31.4623 32.2935 31.6263 32.7436 31.6747C33.1933 31.7235 33.7673 31.6384 33.7867 31.4589Z" fill="#042C30"/>
<path d="M35.3732 31.122C35.3538 30.9424 35.8963 30.7366 36.3464 30.6882C36.7966 30.6395 36.983 30.7664 37.0024 30.9459C37.0218 31.1254 36.8665 31.2894 36.4163 31.3378C35.9666 31.3865 35.3926 31.3015 35.3732 31.122Z" fill="#042C30"/>
<g opacity="0.5">
<path d="M33.0802 33.9764C33.1066 34.1754 33.3944 34.3014 33.7229 34.2582C34.0513 34.2146 34.2964 34.0183 34.2701 33.8193C34.2438 33.6203 33.9559 33.4943 33.6275 33.5379C33.2991 33.5811 33.0544 33.7779 33.0802 33.9764Z" fill="#EDA585"/>
</g>
<g opacity="0.5">
<path d="M36.1902 33.3348C36.2165 33.5338 36.5044 33.6598 36.8328 33.6166C37.1613 33.573 37.4064 33.3767 37.3801 33.1777C37.3537 32.9787 37.0663 32.8527 36.7374 32.8963C36.409 32.939 36.1643 33.1358 36.1902 33.3348Z" fill="#EDA585"/>
</g>
<path d="M33.3237 32.8871C33.5179 32.8871 33.6754 32.7296 33.6754 32.5353C33.6754 32.3411 33.5179 32.1836 33.3237 32.1836C33.1294 32.1836 32.9719 32.3411 32.9719 32.5353C32.9719 32.7296 33.1294 32.8871 33.3237 32.8871Z" fill="#042C30"/>
<path d="M36.0141 32.3039C36.0141 32.4981 36.1717 32.6556 36.3659 32.6556C36.5601 32.6556 36.7176 32.4981 36.7176 32.3039C36.7176 32.1097 36.5601 31.9521 36.3659 31.9521C36.1717 31.9521 36.0141 32.1097 36.0141 32.3039Z" fill="#042C30"/>
<path d="M36.1492 36.2247C35.8795 36.3209 35.8216 36.5522 35.0029 36.2247C34.1842 35.8971 33.8843 35.639 33.7479 36.0684C33.6115 36.4978 35.2213 37.8798 36.1492 37.1974C37.0771 36.5151 36.3309 36.1599 36.1492 36.2247Z" fill="#F4E9E4"/>
<path d="M35.5338 37.8795C35.2515 37.8795 35.0051 37.7643 34.7932 37.6651L34.7578 37.6482C34.7077 37.6249 34.6862 37.5658 34.7095 37.5157C34.7328 37.4657 34.7919 37.4441 34.842 37.4674L34.8778 37.4842C35.1885 37.6297 35.51 37.7799 35.9054 37.593C35.9559 37.5692 36.015 37.5908 36.0383 37.6405C36.0616 37.6901 36.0404 37.7496 35.9908 37.7734C35.829 37.8498 35.6766 37.8795 35.5338 37.8795Z" fill="#042C30"/>
<path d="M28.5659 32.1837C28.5659 32.1837 28.6169 32.945 29.2832 33.2562C29.9496 33.5674 29.622 31.9118 30.1132 30.9296C30.6043 29.9473 32.0173 29.7488 33.7876 30.0017C35.0616 30.1834 35.2571 29.1467 36.0146 29.7289C36.7716 30.3111 37.0836 30.5705 37.3822 30.0526C37.8177 29.2982 37.3214 28.0371 34.7997 28.0371C32.278 28.0371 28.4555 28.9805 28.5659 32.1837Z" fill="#042C30"/>
<path d="M38.7629 32.5069C38.6796 31.4538 37.8337 30.6049 36.8661 30.6114C36.4233 30.6148 36.0133 30.7982 35.7116 31.1275C35.4988 31.3597 35.3529 31.6523 35.2839 31.9726C34.9309 31.3036 34.268 30.8423 33.5412 30.8423C33.5369 30.8423 33.5321 30.8423 33.5274 30.8423C33.0578 30.8461 32.6224 31.0408 32.3021 31.3904C31.9418 31.7835 31.7614 32.3394 31.8071 32.916C31.8956 34.0303 32.792 34.9319 33.8088 34.9315C33.8135 34.9315 33.8183 34.9315 33.8226 34.9315C34.2921 34.9276 34.7272 34.7329 35.0478 34.3834C35.2848 34.1249 35.4419 33.7956 35.51 33.4369C35.8471 34.0441 36.4599 34.4593 37.1289 34.4593C37.1332 34.4593 37.1375 34.4593 37.1418 34.4593C37.5842 34.4559 37.9946 34.2725 38.2968 33.9427C38.636 33.5729 38.806 33.0494 38.7629 32.5069ZM34.7539 34.1141C34.5092 34.3812 34.1773 34.5301 33.8195 34.5327C33.8157 34.5327 33.8122 34.5327 33.8088 34.5327C32.9952 34.5327 32.2771 33.796 32.205 32.8845C32.1679 32.418 32.3108 31.9717 32.5965 31.6601C32.8412 31.393 33.173 31.2441 33.5308 31.2415C33.5343 31.2415 33.5377 31.2415 33.5416 31.2415C34.3551 31.2415 35.0733 31.9786 35.1454 32.8897C35.182 33.3562 35.0396 33.8025 34.7539 34.1141ZM38.0028 33.673C37.7767 33.9199 37.4698 34.0575 37.1393 34.0601C37.1358 34.0601 37.1323 34.0601 37.1293 34.0601C36.3758 34.0601 35.7103 33.3769 35.6434 32.5319C35.6093 32.0994 35.7409 31.686 36.0055 31.3973C36.2316 31.1504 36.5385 31.0127 36.8691 31.0101C36.8725 31.0101 36.876 31.0101 36.879 31.0101C37.6326 31.0101 38.298 31.6933 38.3649 32.5384C38.3995 32.9708 38.2674 33.3847 38.0028 33.673Z" fill="#6C6D79"/>
<path d="M36.6287 29.2734C36.5855 29.2734 36.5432 29.2704 36.5014 29.2643C36.3939 29.2488 36.3193 29.1491 36.3348 29.0416C36.3503 28.9342 36.4513 28.8604 36.5575 28.875C36.958 28.9337 37.6006 28.4931 38.0244 27.8742C38.2376 27.563 38.6899 26.7616 38.2864 26.0456C38.2333 25.9511 38.2665 25.8311 38.3611 25.7776C38.4556 25.7245 38.5755 25.7577 38.6291 25.8523C38.9899 26.4919 38.8876 27.3097 38.349 28.096C37.9347 28.7024 37.2299 29.2734 36.6287 29.2734ZM37.4379 25.6628C37.4107 25.6628 37.3831 25.6572 37.3563 25.6451C37.2575 25.5998 37.2139 25.4833 37.2588 25.3849C37.3693 25.1423 37.2394 24.5731 36.8756 24.1436C36.7176 23.9572 36.3922 23.6611 35.9921 23.7673C35.8864 23.7954 35.7794 23.7332 35.7513 23.6283C35.7232 23.5235 35.7854 23.4156 35.8903 23.3875C36.3357 23.2675 36.8048 23.451 37.1755 23.8894C37.5579 24.3413 37.8272 25.0849 37.6161 25.548C37.5838 25.6201 37.5126 25.6628 37.4379 25.6628ZM28.8305 32.1486C28.7325 32.1486 28.6475 32.0756 28.6354 31.9755C28.5444 31.2271 28.2086 30.6061 27.7136 30.2721C27.392 30.0545 27.0425 29.9881 26.7032 30.0787C26.5979 30.1072 26.4905 30.0446 26.4624 29.9397C26.4344 29.8349 26.4965 29.727 26.6014 29.6989C27.0481 29.5798 27.5207 29.6674 27.9337 29.9462C28.5228 30.3441 28.9211 31.0666 29.0256 31.928C29.0385 32.0359 28.9621 32.1339 28.8542 32.1468C28.8465 32.1481 28.8387 32.1486 28.8305 32.1486ZM29.881 28.787C29.7899 28.787 29.7079 28.7231 29.6885 28.6303C29.496 27.7046 28.9932 26.9308 28.3756 26.6105C27.9945 26.4129 27.6018 26.3995 27.2086 26.5704C27.1089 26.614 26.9933 26.5678 26.9501 26.4686C26.9069 26.3693 26.9527 26.2532 27.052 26.21C27.5522 25.9925 28.0722 26.0107 28.5564 26.2614C29.2763 26.6347 29.8577 27.5117 30.0734 28.5505C30.0955 28.6567 30.0273 28.7607 29.9211 28.7831C29.9077 28.7857 29.8943 28.787 29.881 28.787ZM34.9183 27.1461C34.9041 27.1461 34.8899 27.1444 34.8756 27.1414C34.7695 27.1181 34.703 27.0128 34.7263 26.9066C34.9999 25.6757 34.5653 24.1398 33.7363 23.4095C33.4639 23.1696 33.0319 22.9227 32.5183 23.1074C32.4161 23.1441 32.3034 23.091 32.2667 22.9892C32.23 22.8869 32.2831 22.7742 32.385 22.7376C32.927 22.5429 33.4989 22.6767 33.9961 23.1143C34.9382 23.9443 35.4168 25.6114 35.1095 26.9921C35.0897 27.0836 35.0085 27.1461 34.9183 27.1461ZM32.8571 28.2337C32.8446 28.2337 32.8321 28.2324 32.8196 28.2303C32.713 28.2095 32.6435 28.1064 32.6642 27.9998C33.0177 26.182 32.3552 24.8579 31.6172 24.2252C31.0186 23.7121 30.3112 23.5653 29.6242 23.8122C29.5223 23.8489 29.4092 23.7958 29.3726 23.6939C29.3359 23.5917 29.389 23.479 29.4908 23.4423C30.3039 23.1497 31.1727 23.3267 31.8727 23.927C32.9214 24.8264 33.3724 26.4159 33.0496 28.0753C33.0315 28.1685 32.9495 28.2337 32.8571 28.2337Z" fill="#384D54"/>
<path d="M61.7794 48.8848H35.0961C34.4639 48.8848 33.927 49.347 33.8329 49.9723L31.6016 64.8152C31.6016 64.8152 24.8056 65.4138 24.8056 66.3767L31.4372 67.9135H39.727H59.303C59.9352 67.9135 60.4721 67.4513 60.5662 66.8259L63.0426 50.3521C63.1587 49.5796 62.5605 48.8848 61.7794 48.8848Z" fill="#6C6D79"/>
<path d="M37.2566 53.0168H46.6875C46.9477 53.0168 47.1588 52.8057 47.1588 52.5455C47.1588 52.2853 46.9477 52.0742 46.6875 52.0742H37.2566C36.9964 52.0742 36.7853 52.2853 36.7853 52.5455C36.7853 52.8057 36.9964 53.0168 37.2566 53.0168ZM49.1436 64.6263H58.5745C58.8347 64.6263 59.0458 64.4152 59.0458 64.155C59.0458 63.8947 58.8347 63.6837 58.5745 63.6837H49.1436C48.8834 63.6837 48.6723 63.8947 48.6723 64.155C48.6723 64.4152 48.8829 64.6263 49.1436 64.6263Z" fill="#EFF0F9"/>
<path d="M17.8464 62.4996C17.7747 62.4996 17.7057 62.4603 17.6711 62.3921C17.6219 62.2955 17.6604 62.1772 17.757 62.1276C19.7488 61.1116 22.8881 53.9655 22.9705 53.6652C22.9986 53.5629 23.103 53.4977 23.2066 53.5223C23.3097 53.5469 23.3758 53.6449 23.3546 53.7489C23.295 54.0432 20.0888 61.3796 17.9357 62.4776C17.9068 62.4927 17.8766 62.4996 17.8464 62.4996ZM25.6316 47.9964C25.5984 47.9964 25.5652 47.9882 25.5341 47.9705C25.44 47.9165 25.4072 47.7966 25.4611 47.7025C25.932 46.8782 26.5125 45.4229 26.6018 43.1739C26.6078 43.0276 26.6143 42.8619 26.7973 42.8528C26.8167 42.8507 26.9799 42.8494 27.0075 43.0479C27.0122 43.082 27.0079 43.1157 26.9963 43.1454C26.9958 43.1584 26.995 43.1731 26.9945 43.1895C26.9022 45.5178 26.295 47.0348 25.8021 47.8975C25.7663 47.961 25.6998 47.9964 25.6316 47.9964ZM39.2699 48.2109C39.2039 48.2109 39.1392 48.1776 39.1021 48.1168C37.1595 44.9408 36.9351 43.3789 36.8505 42.7911C36.838 42.7044 36.8272 42.6293 36.8173 42.5978C36.784 42.4946 36.8406 42.3837 36.9442 42.3505C37.0477 42.3168 37.1582 42.3742 37.1915 42.4773C37.2117 42.5408 37.223 42.618 37.2398 42.7354C37.3214 43.3012 37.5376 44.8049 39.4374 47.9118C39.4939 48.0046 39.465 48.1254 39.3722 48.182C39.3403 48.2018 39.3049 48.2109 39.2699 48.2109Z" fill="#042C30"/>
<path d="M28.5849 62.5C28.5301 62.5 28.4757 62.4772 28.4369 62.4327C27.9617 61.8889 22.8937 60.8454 19.8109 60.3154C19.7039 60.2973 19.6322 60.1954 19.6504 60.0884C19.6685 59.9813 19.7708 59.9088 19.8774 59.9278C20.7077 60.0707 28.0101 61.346 28.733 62.1742C28.8042 62.2562 28.796 62.3801 28.714 62.4517C28.6768 62.4841 28.6307 62.5 28.5849 62.5ZM28.5845 64.9635C28.487 64.9635 28.4019 64.8906 28.3898 64.7913C28.2742 63.8677 29.3963 62.2579 29.4442 62.1902C29.5068 62.1013 29.6293 62.0801 29.7182 62.1423C29.8072 62.2048 29.8287 62.3274 29.7662 62.4163C29.4649 62.8457 28.6997 64.1008 28.78 64.7425C28.7934 64.8504 28.717 64.9484 28.6095 64.9618C28.6009 64.9631 28.5927 64.9635 28.5845 64.9635ZM29.6047 64.9635C29.5059 64.9635 29.4209 64.8893 29.4097 64.7887C29.297 63.7762 30.0419 62.2782 30.0739 62.2152C30.1226 62.1181 30.2409 62.0793 30.3376 62.1276C30.4347 62.1764 30.4739 62.2946 30.4252 62.3913C30.4178 62.406 29.701 63.8487 29.8002 64.7451C29.8123 64.853 29.7346 64.9501 29.6268 64.9622C29.6194 64.9631 29.6121 64.9635 29.6047 64.9635Z" fill="#042C30"/>
<path d="M30.1205 62.582C30.1205 62.582 31.1053 63.0619 31.1153 63.1021C31.1252 63.1422 30.9776 64.8759 30.9776 64.8759L29.6453 64.6424L30.1205 62.582Z" fill="#EFBCA5"/>
<path d="M75.8989 34.0684H48.9058C47.5468 34.0684 46.4445 35.1702 46.4445 36.5297V43.5014C46.4445 44.8604 47.5463 45.9622 48.9058 45.9622H75.8989C77.258 45.9622 78.3598 44.8604 78.3598 43.5014V36.5297C78.3602 35.1702 77.2584 34.0684 75.8989 34.0684Z" fill="#ACD9FB"/>
<path d="M49.5312 38.6574H58.962C59.2223 38.6574 59.4333 38.4464 59.4333 38.1861C59.4333 37.9259 59.2223 37.7148 58.962 37.7148H49.5312C49.2709 37.7148 49.0599 37.9259 49.0599 38.1861C49.0599 38.4464 49.2709 38.6574 49.5312 38.6574ZM49.5312 40.975H53.3873C53.6476 40.975 53.8586 40.7639 53.8586 40.5037C53.8586 40.2435 53.6476 40.0324 53.3873 40.0324H49.5312C49.2709 40.0324 49.0599 40.2435 49.0599 40.5037C49.0599 40.7639 49.2709 40.975 49.5312 40.975ZM58.962 40.0324H55.1054C54.8452 40.0324 54.6342 40.2435 54.6342 40.5037C54.6342 40.7639 54.8452 40.975 55.1054 40.975H58.962C59.2223 40.975 59.4333 40.7639 59.4333 40.5037C59.4333 40.2435 59.2223 40.0324 58.962 40.0324ZM55.7243 42.3504H49.5312C49.2709 42.3504 49.0599 42.5615 49.0599 42.8217C49.0599 43.082 49.2709 43.293 49.5312 43.293H55.7243C55.9846 43.293 56.1956 43.082 56.1956 42.8217C56.1956 42.5615 55.9846 42.3504 55.7243 42.3504Z" fill="#EFF0F9"/>
<path d="M78.3602 38.3824C78.2515 38.3824 78.1634 38.2944 78.1634 38.1856V36.8093C78.1634 35.4062 77.0219 34.2647 75.6188 34.2647H53.9117C53.8029 34.2647 53.7149 34.1767 53.7149 34.0679C53.7149 33.9591 53.8029 33.8711 53.9117 33.8711H75.6188C77.2385 33.8711 78.5566 35.1891 78.5566 36.8089V38.1852C78.5566 38.2943 78.469 38.3824 78.3602 38.3824Z" fill="#69C1FD"/>
<path d="M72.3807 49.0809C75.8376 49.0809 78.6399 46.2785 78.6399 42.8217C78.6399 39.3648 75.8376 36.5625 72.3807 36.5625C68.9238 36.5625 66.1215 39.3648 66.1215 42.8217C66.1215 46.2785 68.9238 49.0809 72.3807 49.0809Z" fill="#EFF0F9"/>
<path d="M75.8916 40.6487H70.2513L70.1279 39.5153C70.0989 39.2478 69.8728 39.0449 69.6035 39.0449H68.5181C68.3748 39.0449 68.2431 39.142 68.216 39.2827C68.1797 39.4722 68.3239 39.6379 68.5068 39.6379H69.5448L70.0614 44.384C70.0881 44.6309 70.2966 44.8177 70.5448 44.8177H74.9443C75.0876 44.8177 75.2192 44.7206 75.2464 44.5799C75.2826 44.3905 75.1385 44.2247 74.9555 44.2247H70.641L70.562 43.4993H75.2576C75.4604 43.4993 75.6452 43.3819 75.731 43.1984L76.488 41.5869C76.6926 41.1502 76.3741 40.6487 75.8916 40.6487Z" fill="#ACD9FB"/>
<path d="M71.2379 46.6C71.666 46.6 72.013 46.253 72.013 45.8249C72.013 45.3968 71.666 45.0498 71.2379 45.0498C70.8098 45.0498 70.4628 45.3968 70.4628 45.8249C70.4628 46.253 70.8098 46.6 71.2379 46.6Z" fill="#ACD9FB"/>
<path d="M74.0039 46.6C74.432 46.6 74.779 46.253 74.779 45.8249C74.779 45.3968 74.432 45.0498 74.0039 45.0498C73.5758 45.0498 73.2288 45.3968 73.2288 45.8249C73.2288 46.253 73.5758 46.6 74.0039 46.6Z" fill="#ACD9FB"/>
<path d="M51.9592 15.8589C51.9592 15.7786 52.0123 15.7389 52.1189 15.7389H52.1828C52.197 15.7424 52.213 15.7441 52.2307 15.7441C52.2592 15.7441 52.2795 15.7359 52.292 15.7191C52.3045 15.7022 52.3105 15.6724 52.3105 15.6289C52.3105 15.3453 52.2928 14.9577 52.2575 14.4675C52.2255 13.9569 52.2095 13.5711 52.2095 13.3108C52.2095 13.2176 52.2113 13.1322 52.2147 13.0553L52.2203 12.7999C52.2203 12.6898 52.2147 12.5979 52.2044 12.5245C52.1651 12.5379 52.1245 12.5444 52.0818 12.5444C52.0002 12.5444 51.9592 12.5042 51.9592 12.4244C51.9592 12.3842 51.9847 12.3493 52.0365 12.3191C52.0878 12.2893 52.1543 12.2673 52.2363 12.2539C52.3852 12.2306 52.5112 12.2189 52.6144 12.2189C52.6571 12.2189 52.6933 12.2323 52.7236 12.2591C52.7538 12.2858 52.7689 12.3178 52.7689 12.354C52.7689 12.3907 52.7572 12.4227 52.7343 12.449C52.711 12.4757 52.6821 12.4891 52.6463 12.4891C52.6252 12.4891 52.607 12.4874 52.5932 12.4844H52.5505C52.5151 12.4844 52.4892 12.4917 52.4732 12.5068C52.4573 12.5219 52.4495 12.5491 52.4495 12.5892C52.4495 12.9431 52.4724 13.4304 52.5186 14.0514C52.5613 14.7023 52.5824 15.1912 52.5824 15.5184V15.7087C52.607 15.7052 52.6429 15.7039 52.689 15.7039C52.8379 15.7039 52.9126 15.7622 52.9126 15.8792V15.9089L52.7792 15.994C52.7758 15.994 52.765 15.9948 52.7473 15.9966C52.7296 15.9983 52.6942 15.9991 52.6407 15.9991C52.5199 16.0056 52.4456 16.0091 52.4171 16.0091C52.112 16.0091 51.9592 15.959 51.9592 15.8589ZM55.0787 15.9966C55.0575 15.975 55.0416 15.9374 55.0308 15.8839L54.9988 15.7885V15.7786V15.7635C54.9988 15.653 54.8771 15.2775 54.6342 14.6367C54.3912 13.9958 54.2004 13.5219 54.0619 13.2146V15.7333L54.083 15.7683C54.0865 15.7752 54.0938 15.7868 54.1042 15.8036C54.115 15.8205 54.1201 15.8369 54.1201 15.8537C54.1201 15.8969 54.1042 15.934 54.0722 15.9642C54.0403 15.994 54.001 16.0091 53.9553 16.0091C53.8418 16.0091 53.7848 15.9072 53.7848 15.7039L53.7796 14.8477C53.7762 14.5905 53.774 14.3035 53.774 13.9863C53.774 13.8797 53.7796 13.7243 53.79 13.5206C53.8008 13.31 53.806 13.155 53.806 13.0549C53.806 12.8978 53.8698 12.7744 53.9976 12.6846V12.7144C54.0187 12.7079 54.033 12.7045 54.0403 12.7045C54.1219 12.7045 54.2246 12.8378 54.3489 13.105C54.4481 13.3186 54.5379 13.5439 54.6178 13.7808C54.6976 14.0178 54.8029 14.3553 54.9345 14.7925L54.9876 14.9724C55.0692 15.243 55.1313 15.4368 55.1741 15.5533C55.2448 14.8356 55.2807 13.988 55.2807 13.0096V12.9449C55.2772 12.925 55.2755 12.903 55.2755 12.8797C55.2755 12.7796 55.3182 12.7295 55.4032 12.7295C55.4529 12.7295 55.4913 12.7481 55.5176 12.7847C55.5444 12.8214 55.5577 12.868 55.5577 12.925V13.3005C55.5504 13.8145 55.5293 14.3721 55.4939 14.9729C55.4585 15.5736 55.4157 15.9128 55.3661 15.9892C55.2634 16.016 55.1991 16.0294 55.1745 16.0294C55.1318 16.0294 55.1003 16.0186 55.0787 15.9966ZM57.0031 16.0518C56.9159 16.0302 56.8494 16.0056 56.8033 15.9793C56.5655 15.8356 56.4464 15.4437 56.4464 14.8024V14.6673V14.5119V14.3919C56.4464 14.2582 56.4481 14.139 56.4515 14.0337C56.455 13.9284 56.4623 13.8145 56.4727 13.6906C56.4835 13.5607 56.4994 13.4546 56.5206 13.3726C56.5417 13.291 56.5776 13.1982 56.6272 13.0946C56.6699 12.9979 56.7221 12.9229 56.7843 12.8693C56.8464 12.8163 56.9271 12.7709 57.0264 12.7343C57.1153 12.6976 57.2254 12.679 57.3566 12.679C57.4096 12.679 57.4506 12.6907 57.4791 12.714C57.5076 12.7373 57.5219 12.7675 57.5219 12.8042C57.5219 12.8374 57.5102 12.8676 57.4873 12.8944C57.464 12.9211 57.4368 12.9362 57.4049 12.9397H57.1546C57.0838 12.9397 57.0217 12.9815 56.9681 13.0648C56.9151 13.1486 56.8775 13.2569 56.8564 13.3903C56.8102 13.6375 56.7873 13.8374 56.7873 13.991V14.016L56.7765 14.4964C56.7692 14.6401 56.7657 14.8019 56.7657 14.9823C56.7657 15.1092 56.7713 15.2124 56.7817 15.2927C56.7994 15.4126 56.8296 15.5132 56.8723 15.593C56.9151 15.6832 56.9876 15.7484 57.0907 15.7881C57.1438 15.808 57.2025 15.8183 57.2664 15.8183C57.3052 15.8183 57.3445 15.8049 57.3833 15.7782C57.4295 15.7782 57.4675 15.7872 57.4977 15.8058C57.5279 15.8239 57.543 15.852 57.543 15.8882C57.543 16.0186 57.4455 16.0833 57.2504 16.0833C57.1723 16.0842 57.0898 16.0734 57.0031 16.0518ZM58.656 16.0268C58.5779 15.972 58.514 15.8973 58.4644 15.8041C58.3613 15.6004 58.2974 15.3785 58.2728 15.1381C58.2409 14.9111 58.2249 14.6928 58.2249 14.4821C58.2249 14.442 58.2266 14.4088 58.2301 14.382V14.2918C58.2301 14.275 58.2283 14.2668 58.2249 14.2668V14.1766L58.2301 13.8261C58.2335 13.7195 58.2478 13.5491 58.2728 13.3156C58.2905 13.1555 58.3315 13.0001 58.3954 12.8499C58.42 12.783 58.4519 12.7325 58.4912 12.6971C58.5304 12.6622 58.5745 12.6449 58.6245 12.6449C58.7665 12.6449 58.8943 12.6691 59.0078 12.7174C59.1213 12.7658 59.2171 12.8335 59.2952 12.9203C59.366 13.0036 59.4264 13.1063 59.476 13.2284C59.5257 13.3505 59.5611 13.4796 59.5826 13.6164C59.6042 13.7567 59.6146 13.9051 59.6146 14.0618V14.1019C59.6146 14.2055 59.6163 14.2987 59.6198 14.3825L59.6249 14.6677C59.6249 15.6289 59.3871 16.1096 58.9115 16.1096C58.8192 16.1092 58.7337 16.0816 58.656 16.0268ZM59.0656 15.8265C59.1187 15.7782 59.1597 15.7121 59.1882 15.6284C59.2555 15.4584 59.2965 15.2745 59.3107 15.0777C59.3284 14.9077 59.3375 14.7609 59.3375 14.6371C59.3375 14.4869 59.325 14.2901 59.3004 14.0463C59.2792 13.789 59.2684 13.5974 59.2684 13.4705V13.3803C59.2611 13.2534 59.2162 13.1434 59.1329 13.0497C59.0496 12.9565 58.9474 12.9095 58.8269 12.9095C58.7061 12.9095 58.6263 12.9746 58.5874 13.1045C58.552 13.2081 58.5343 13.3415 58.5343 13.5051C58.5343 13.5685 58.5361 13.622 58.5395 13.6652V13.8003L58.5287 14.0307C58.5214 14.1006 58.5179 14.1775 58.5179 14.2607C58.5179 14.4411 58.5231 14.6198 58.5339 14.7963C58.5481 15.0467 58.5835 15.2905 58.6405 15.5274C58.697 15.7747 58.7808 15.8982 58.8908 15.8982C58.9543 15.899 59.0125 15.8749 59.0656 15.8265ZM62.4513 15.9642V15.6435V15.3229C62.4513 15.1558 62.4388 14.937 62.4142 14.6669C62.3857 14.363 62.3715 14.1546 62.3715 14.0411L62.3823 13.7308C62.3892 13.6406 62.3931 13.5387 62.3931 13.4252C62.3788 13.4688 62.3201 13.6988 62.2174 14.1162C62.1147 14.5201 62.0081 14.8939 61.8981 15.2378C61.7915 15.5684 61.7047 15.7337 61.6374 15.7337C61.5701 15.7337 61.5157 15.7147 61.4751 15.6763C61.4341 15.6379 61.4138 15.5853 61.4138 15.5184C61.4138 15.3716 61.3508 15.0596 61.2248 14.5818C61.0988 14.1045 60.9844 13.7139 60.8813 13.4101L60.8493 13.9759C60.8208 14.4532 60.8014 14.8503 60.7906 15.1675C60.7833 15.4743 60.7798 15.685 60.7798 15.7985C60.7798 15.8252 60.7816 15.8503 60.785 15.8736V15.9439C60.785 16.0009 60.7725 16.0432 60.7479 16.0717C60.7229 16.0997 60.6767 16.1139 60.6094 16.1139C60.574 16.1139 60.5403 16.1014 60.5084 16.0764C60.4764 16.0514 60.4605 16.0237 60.4605 15.994C60.4605 15.6535 60.4872 15.1429 60.5403 14.4619C60.5934 13.7808 60.6202 13.2703 60.6202 12.9298C60.599 12.9 60.5882 12.868 60.5882 12.8348C60.5882 12.7947 60.6085 12.764 60.6495 12.742C60.6901 12.7204 60.7393 12.7097 60.7958 12.7097C60.842 12.7097 60.927 12.8667 61.0513 13.1805C61.1756 13.4943 61.2995 13.8495 61.4238 14.2469C61.5481 14.6444 61.6279 14.9314 61.6633 15.1084C61.6918 15.0182 61.7146 14.9349 61.7323 14.8581L61.7643 14.7381C61.8778 14.2707 61.9913 13.8486 62.1052 13.4714C62.1725 13.2414 62.2381 13.061 62.302 12.9306C62.3659 12.7904 62.4246 12.7204 62.4777 12.7204C62.5273 12.7204 62.5726 12.733 62.6136 12.758C62.6542 12.783 62.6749 12.8158 62.6749 12.8555C62.6749 13.0959 62.6857 13.4563 62.7068 13.9371C62.7319 14.3842 62.744 14.7316 62.744 14.9785L62.7388 15.2439L62.728 15.5093C62.728 15.5494 62.7332 15.6094 62.744 15.6897L62.7599 15.8649C62.7634 15.8947 62.766 15.918 62.7681 15.9348C62.7699 15.9517 62.7707 15.9616 62.7707 15.9651C62.7884 16.0082 62.7975 16.0401 62.7975 16.06C62.7975 16.1165 62.7798 16.1666 62.7444 16.2102C62.709 16.2533 62.6663 16.2754 62.6166 16.2754C62.5062 16.2745 62.4513 16.1709 62.4513 15.9642ZM63.5264 15.8589C63.5264 15.7786 63.5812 15.7389 63.6913 15.7389H63.75L63.8031 15.7441C63.8315 15.7441 63.851 15.7359 63.8617 15.7191C63.8725 15.7022 63.8777 15.6724 63.8777 15.6289C63.8777 15.5723 63.8743 15.4838 63.8669 15.3634C63.8566 15.2832 63.8436 15.1399 63.8298 14.9327C63.7979 14.4222 63.7819 14.0368 63.7819 13.7761C63.7819 13.6824 63.7836 13.5974 63.7871 13.5206L63.7923 13.2651C63.7923 13.155 63.7871 13.0631 63.7763 12.9897C63.7193 13.0031 63.6788 13.0096 63.6537 13.0096C63.5687 13.0096 63.526 12.9695 63.526 12.8896C63.526 12.8495 63.5527 12.8145 63.6058 12.7847C63.6589 12.7545 63.7262 12.733 63.8082 12.7196C63.9502 12.6928 64.0762 12.6794 64.1863 12.6794C64.229 12.6794 64.2653 12.6937 64.2955 12.7217C64.3257 12.7502 64.3408 12.7826 64.3408 12.8193C64.3408 12.856 64.3291 12.8879 64.3063 12.9142C64.283 12.941 64.2541 12.9544 64.2182 12.9544C64.1971 12.9544 64.179 12.9526 64.1651 12.9492H64.1224C64.087 12.9492 64.0611 12.9565 64.0452 12.9721C64.0292 12.9872 64.021 13.0143 64.021 13.0545C64.021 13.3782 64.0426 13.8654 64.0849 14.5167C64.0918 14.6367 64.106 14.814 64.1276 15.0475C64.1453 15.2012 64.1539 15.3578 64.1539 15.5179V15.7083C64.1751 15.7048 64.2109 15.7035 64.2605 15.7035C64.4094 15.7035 64.4841 15.7618 64.4841 15.8787V15.9085L64.3512 15.9935C64.3477 15.9935 64.3361 15.9944 64.3166 15.9961C64.2972 15.9979 64.2605 15.9987 64.2074 15.9987C64.0939 16.0052 64.021 16.0086 63.9891 16.0086C63.6809 16.0091 63.5264 15.959 63.5264 15.8589ZM66.5501 15.9966C66.5289 15.975 66.5129 15.9374 66.5021 15.8839L66.4702 15.7885V15.7786V15.7635C66.4702 15.653 66.3485 15.2775 66.1055 14.6367C65.8625 13.9958 65.6718 13.5219 65.5332 13.2146V15.7333L65.5544 15.7683C65.5578 15.7752 65.5648 15.7868 65.5755 15.8036C65.5863 15.8205 65.5915 15.8369 65.5915 15.8537C65.5915 15.8969 65.5755 15.934 65.5436 15.9642C65.5117 15.994 65.4724 16.0091 65.4267 16.0091C65.3131 16.0091 65.2562 15.9072 65.2562 15.7039L65.251 14.8477C65.2475 14.5905 65.2458 14.3035 65.2458 13.9863C65.2458 13.8797 65.251 13.7243 65.2618 13.5206C65.2726 13.31 65.2778 13.155 65.2778 13.0549C65.2778 12.8978 65.3416 12.7744 65.4694 12.6846V12.7144C65.4905 12.7079 65.5048 12.7045 65.5121 12.7045C65.5937 12.7045 65.6964 12.8378 65.8207 13.105C65.9199 13.3186 66.0097 13.5439 66.0896 13.7808C66.1694 14.0178 66.2747 14.3553 66.4063 14.7925L66.4594 14.9724C66.541 15.243 66.6031 15.4368 66.6459 15.5533C66.7166 14.8356 66.7525 13.988 66.7525 13.0096V12.9449C66.749 12.925 66.7473 12.903 66.7473 12.8797C66.7473 12.7796 66.79 12.7295 66.875 12.7295C66.9247 12.7295 66.9631 12.7481 66.9894 12.7847C67.0162 12.8214 67.0295 12.868 67.0295 12.925V13.3005C67.0222 13.8145 67.0011 14.3721 66.9657 14.9729C66.9303 15.5736 66.8875 15.9128 66.8379 15.9892C66.7352 16.016 66.6709 16.0294 66.6463 16.0294C66.6036 16.0294 66.5716 16.0186 66.5501 15.9966ZM68.4291 16.0017C68.3476 15.9668 68.2781 15.921 68.2216 15.8641C68.1754 15.817 68.1326 15.7488 68.0938 15.6586C68.0545 15.5684 68.0265 15.4817 68.0088 15.3984C67.9911 15.3349 67.9769 15.243 67.9665 15.123C67.9557 15.0031 67.9488 14.8995 67.9453 14.8123V14.5219V14.3216C67.9453 14.1283 67.9488 13.9694 67.9561 13.846C67.963 13.6958 67.9863 13.5374 68.0252 13.3704C68.0571 13.2202 68.1119 13.0886 68.1901 12.9746C68.2647 12.8611 68.3692 12.7826 68.5042 12.7394C68.5681 12.7161 68.6428 12.7045 68.7278 12.7045C68.8801 12.7045 68.9565 12.7459 68.9565 12.8296C68.9565 12.8698 68.9397 12.9021 68.906 12.9272C68.8724 12.9522 68.8322 12.9647 68.7861 12.9647C68.7649 12.9647 68.7451 12.963 68.7274 12.9595C68.7131 12.9561 68.6954 12.9544 68.6743 12.9544C68.6139 12.9544 68.5608 12.9841 68.5146 13.0446C68.4684 13.1045 68.4296 13.1883 68.3972 13.2949C68.3402 13.5016 68.3014 13.7273 68.2803 13.9707C68.266 14.1977 68.2591 14.3665 68.2591 14.4765C68.2591 14.59 68.2643 14.7454 68.2751 14.9422C68.2893 15.1256 68.3195 15.2862 68.3657 15.423C68.3903 15.5033 68.4197 15.5676 68.4537 15.6159C68.4874 15.6642 68.531 15.7052 68.5841 15.7385C68.6445 15.7752 68.7066 15.7933 68.7705 15.7933C68.941 15.7933 69.026 15.5261 69.026 14.9923V14.7622C69.001 14.7523 68.9604 14.7471 68.9034 14.7471H68.8555H68.7969C68.6726 14.7471 68.6104 14.7087 68.6104 14.6319C68.6104 14.5849 68.6272 14.549 68.6609 14.524C68.6946 14.499 68.7382 14.4865 68.7912 14.4865V14.4916H68.8659C69.1853 14.4916 69.345 14.5434 69.345 14.647C69.345 14.6768 69.3359 14.7372 69.3182 14.8274C69.297 14.9077 69.2863 14.9677 69.2863 15.0078C69.2863 15.0648 69.2914 15.1528 69.3022 15.2732L69.313 15.5387C69.313 15.6988 69.2535 15.8248 69.1348 15.9167C69.0161 16.0086 68.8715 16.0544 68.701 16.0544C68.6013 16.0544 68.5107 16.0367 68.4291 16.0017ZM71.7881 16.0643C71.71 16.0043 71.6427 15.9228 71.5857 15.8192C71.483 15.6388 71.4066 15.3919 71.357 15.0782C71.3216 14.8615 71.2948 14.6108 71.2771 14.3272L71.272 14.0618V13.7916C71.2685 13.7049 71.2663 13.5996 71.2663 13.4761C71.2663 13.2759 71.275 13.0989 71.2931 12.9453C71.3073 12.7852 71.3427 12.6264 71.3997 12.4693C71.4567 12.3325 71.5382 12.2358 71.6444 12.1788C71.7083 12.1521 71.7722 12.1387 71.836 12.1387C72.0242 12.1387 72.1731 12.209 72.2831 12.3493C72.4036 12.5064 72.4834 12.6816 72.5227 12.8749C72.5796 13.1089 72.6116 13.3324 72.6185 13.5461C72.6327 13.783 72.6396 14.0065 72.6396 14.2172V14.5024C72.6396 14.5594 72.6306 14.666 72.6129 14.8231C72.5986 14.9465 72.5917 15.0518 72.5917 15.1386V15.1584C72.5706 15.2521 72.5598 15.3621 72.5598 15.489C72.5598 15.5827 72.5386 15.6793 72.4959 15.7795C72.4532 15.8796 72.3932 15.9646 72.3151 16.035C72.237 16.1152 72.1481 16.1549 72.0488 16.1549C71.9534 16.1545 71.8662 16.1243 71.7881 16.0643ZM72.2409 15.6936C72.2836 15.5835 72.3146 15.4489 72.3341 15.2905C72.3535 15.1321 72.3703 14.9526 72.3846 14.7523C72.3915 14.6656 72.3949 14.5534 72.3949 14.4165L72.3897 13.9561C72.3824 13.7757 72.3613 13.5504 72.3259 13.2802C72.2974 13.0497 72.2443 12.846 72.1662 12.6691C72.1308 12.5858 72.0863 12.5206 72.0328 12.474C71.9797 12.4274 71.9228 12.4041 71.8628 12.4041C71.7739 12.4041 71.7083 12.4688 71.666 12.5992C71.6129 12.736 71.5771 12.8862 71.5594 13.0497C71.5382 13.2267 71.5257 13.3954 71.5223 13.5555L71.5171 13.7204C71.5136 13.7675 71.5119 13.8309 71.5119 13.9107V13.9306C71.5119 14.1541 71.5365 14.4295 71.5866 14.7566C71.6435 15.2007 71.7268 15.5162 71.8369 15.7031C71.9077 15.82 71.9823 15.8783 72.0604 15.8783C72.1308 15.8792 72.1912 15.817 72.2409 15.6936ZM74.2317 15.8589C74.1571 15.6854 74.1022 15.5067 74.0669 15.3233L74.0297 15.1528C73.927 14.6755 73.861 14.4036 73.8329 14.3367H73.7691C73.7691 14.4334 73.7673 14.5219 73.7639 14.6021V14.8775C73.7639 15.325 73.7976 15.6737 73.8649 15.9241L73.8062 16.0591H73.6569L73.5878 15.984L73.593 15.6483C73.593 15.3479 73.577 14.8921 73.5451 14.2815C73.5166 13.6306 73.5024 13.1749 73.5024 12.9147C73.5024 12.7545 73.561 12.6743 73.678 12.6743C73.8696 12.6743 74.0267 12.7213 74.1493 12.8145C74.2719 12.9082 74.3327 13.0381 74.3327 13.2051V13.5555C74.3327 13.6056 74.3237 13.663 74.306 13.7282C74.2883 13.7929 74.2688 13.8456 74.2473 13.8857L74.1463 14.0661L74.0612 14.2163L74.088 14.3363L74.1627 14.6919C74.2123 14.9491 74.2602 15.1576 74.3064 15.3177C74.3526 15.4778 74.4091 15.6232 74.4769 15.7531L74.5088 15.8131C74.5442 15.88 74.5619 15.9331 74.5619 15.9733C74.5619 16.0069 74.5511 16.0358 74.5299 16.0609C74.5084 16.0859 74.4803 16.0984 74.4449 16.0984C74.3664 16.0993 74.2956 16.0194 74.2317 15.8589ZM73.9896 13.7886C74.0449 13.6233 74.072 13.4705 74.072 13.3303C74.072 13.2237 74.0578 13.1235 74.0293 13.0299C74.0116 12.9768 73.9823 12.9358 73.9413 12.9073C73.9003 12.8788 73.8498 12.865 73.7898 12.865L73.779 12.8901L73.7682 12.9354L73.779 13.5262C73.7859 13.6997 73.7898 13.8887 73.7898 14.092C73.8679 14.0549 73.9344 13.9539 73.9896 13.7886ZM75.3815 15.3885L75.3922 14.5969C75.3957 14.3635 75.3974 14.1011 75.3974 13.811C75.3974 13.7044 75.3866 13.5391 75.3655 13.3152C75.3478 13.0713 75.3387 12.9229 75.3387 12.8693C75.3387 12.8262 75.3581 12.7878 75.3974 12.7541C75.4363 12.7209 75.479 12.704 75.5252 12.704C75.6495 12.704 75.769 12.7299 75.8847 12.7817C75.9999 12.8335 76.1018 12.906 76.1907 12.9997C76.3788 13.2034 76.5027 13.4269 76.5631 13.6708C76.5951 13.7942 76.611 13.9163 76.611 14.0363C76.611 14.0795 76.6093 14.1196 76.6058 14.1563L76.6007 14.2914V14.5667C76.6007 14.7804 76.5933 14.9491 76.5795 15.0725C76.5584 15.2396 76.5174 15.388 76.4569 15.5184C76.3862 15.6586 76.283 15.7838 76.1484 15.8938C76.0845 15.9439 76.0029 15.994 75.9037 16.044H75.5204C75.4276 16.044 75.3815 15.8257 75.3815 15.3885ZM75.9511 15.7363C76.0116 15.7014 76.0629 15.6539 76.1056 15.5939C76.141 15.5408 76.1738 15.4731 76.204 15.3911C76.2343 15.3091 76.2563 15.2301 76.2705 15.1533C76.3024 15.0031 76.3219 14.8499 76.3292 14.6928C76.3327 14.6526 76.3348 14.5944 76.3348 14.5171C76.3348 13.5094 76.1272 12.9833 75.712 12.9401C75.687 13.0903 75.6749 13.2638 75.6749 13.461C75.6749 13.6712 75.6892 14.0385 75.7176 14.5624C75.7422 15.0264 75.7548 15.3954 75.7548 15.669V15.789C75.8251 15.789 75.8907 15.7713 75.9511 15.7363ZM77.5773 16.0341C77.5402 16.0043 77.5195 15.9672 77.516 15.9241V15.7937V15.6936C77.5126 15.6638 77.5109 15.6284 77.5109 15.5883C77.5109 15.5184 77.5057 15.4113 77.4949 15.2681L77.4841 14.9474C77.4841 14.7838 77.4897 14.54 77.5001 14.2163C77.5143 13.9258 77.5212 13.6824 77.5212 13.4852C77.5212 13.4386 77.516 13.3687 77.5053 13.275C77.4945 13.1783 77.4893 13.108 77.4893 13.0644C77.4893 12.8275 77.5639 12.7088 77.7128 12.7088C77.8298 12.7088 77.9657 12.7304 78.1203 12.774C78.2748 12.8171 78.352 12.8689 78.352 12.9293C78.352 12.963 78.3369 12.9936 78.3067 13.0221C78.2765 13.0506 78.2402 13.073 78.1975 13.0899C78.0482 13.0398 77.9135 13.0066 77.7931 12.9897C77.7966 13.0398 77.7983 13.1119 77.7983 13.2051C77.7983 13.3389 77.7966 13.4589 77.7931 13.5655C77.7823 13.7256 77.7771 13.846 77.7771 13.9258L77.7931 14.0061L77.8781 14.0009C77.9066 13.9975 77.942 13.9962 77.9847 13.9962C78.1552 13.9962 78.2402 14.0428 78.2402 14.1365C78.2402 14.1731 78.2243 14.2042 78.1923 14.2288C78.1604 14.2538 78.1194 14.2664 78.0698 14.2664C78.0059 14.2664 77.9563 14.2629 77.9209 14.2564H77.7875C77.7948 14.3432 77.7983 14.4701 77.7983 14.6371C77.7983 14.8041 77.7966 14.9543 77.7931 15.0881C77.7823 15.2918 77.7771 15.4437 77.7771 15.5438C77.7771 15.7307 77.7806 15.8244 77.7875 15.8244L77.9632 15.8192C78.0231 15.8157 78.0961 15.814 78.1815 15.814C78.3162 15.814 78.3839 15.8541 78.3839 15.934C78.3839 15.981 78.3615 16.0164 78.3175 16.0414C78.273 16.0665 78.2191 16.079 78.1552 16.079H77.7025C77.6563 16.0794 77.6144 16.0643 77.5773 16.0341ZM79.954 15.8589C79.8794 15.6854 79.8246 15.5067 79.7892 15.3233L79.752 15.1528C79.6493 14.6755 79.5833 14.4036 79.5552 14.3367H79.4914C79.4914 14.4334 79.4897 14.5219 79.4862 14.6021V14.8775C79.4862 15.325 79.5199 15.6737 79.5872 15.9241L79.5285 16.0591H79.3796L79.3105 15.984L79.3157 15.6483C79.3157 15.3479 79.2998 14.8921 79.2678 14.2815C79.2393 13.6306 79.2251 13.1749 79.2251 12.9147C79.2251 12.7545 79.2838 12.6743 79.4007 12.6743C79.5924 12.6743 79.7495 12.7213 79.872 12.8145C79.9946 12.9082 80.0555 13.0381 80.0555 13.2051V13.5555C80.0555 13.6056 80.0464 13.663 80.0287 13.7282C80.011 13.7929 79.9916 13.8456 79.97 13.8857L79.869 14.0661L79.784 14.2163L79.8107 14.3363L79.8854 14.6919C79.935 14.9491 79.983 15.1576 80.0291 15.3177C80.0753 15.4778 80.1318 15.6232 80.1996 15.7531L80.2315 15.8131C80.2669 15.88 80.2846 15.9331 80.2846 15.9733C80.2846 16.0069 80.2738 16.0358 80.2527 16.0609C80.2315 16.0859 80.2031 16.0984 80.1677 16.0984C80.0891 16.0993 80.0179 16.0194 79.954 15.8589ZM79.7119 13.7886C79.7672 13.6233 79.7943 13.4705 79.7943 13.3303C79.7943 13.2237 79.7801 13.1235 79.7516 13.0299C79.7339 12.9768 79.7046 12.9358 79.6636 12.9073C79.6226 12.8788 79.5721 12.865 79.5121 12.865L79.5013 12.8901L79.4905 12.9354L79.5013 13.5262C79.5082 13.6997 79.5121 13.8887 79.5121 14.092C79.5902 14.0549 79.6567 13.9539 79.7119 13.7886Z" fill="black"/>
<path d="M60.3504 23.3036C60.1843 23.3036 60.0751 23.3027 60.0298 23.3023C59.9331 23.301 59.8558 23.222 59.8567 23.1253C59.858 23.0295 59.9357 22.9523 60.0315 22.9523C60.0397 22.9523 60.0902 22.9527 60.1933 22.9527C61.9723 22.9527 77.9666 22.8016 82.5029 17.5519C83.4818 16.419 83.8616 15.1079 83.632 13.6552C83.1158 10.3886 79.9683 7.83707 74.7699 6.47069C66.3446 4.25626 53.8383 5.66622 49.7116 10.8672C48.4376 12.4731 48.1963 14.2175 49.0141 15.9119C50.3175 18.6123 54.7213 21.3386 61.6219 21.3429C61.7185 21.3429 61.7967 21.4214 61.7967 21.5177C61.7967 21.6144 61.7181 21.6925 61.6219 21.6925C55.4201 21.6886 50.3477 19.4793 48.6991 16.0638C47.8316 14.2663 48.0936 12.3436 49.4375 10.6497C53.6454 5.34642 66.3291 3.89071 74.8588 6.13233C80.1996 7.53582 83.4382 10.1883 83.9777 13.6004C84.2241 15.1597 83.8171 16.5662 82.7675 17.7806C78.1859 23.0839 62.8467 23.3036 60.3504 23.3036Z" fill="#422038"/>
<path d="M51.1293 87.6397C51.0132 87.6397 50.9096 87.6142 50.8182 87.5594C50.5614 87.4058 50.4673 87.0635 50.5307 86.5128C50.6731 85.2725 51.065 84.3925 51.6955 83.897C52.2993 83.4227 52.8979 83.4913 52.923 83.4944C53.0386 83.5086 53.1206 83.6143 53.106 83.73C53.0917 83.8452 52.9868 83.9259 52.8716 83.9134C52.8021 83.9061 51.2696 83.774 50.9498 86.5612C50.8915 87.0696 51.0003 87.177 51.0348 87.1977C51.3248 87.3717 52.4405 86.5996 53.3364 85.979C54.8482 84.932 56.5629 83.7442 57.8883 83.9208C58.0039 83.9359 58.0851 84.042 58.07 84.1577C58.0549 84.2734 57.9474 84.3549 57.833 84.3394C56.6686 84.187 54.954 85.3726 53.5764 86.326C52.5052 87.0678 51.6796 87.6397 51.1293 87.6397Z" fill="#042C30"/>
<path d="M51.9687 82.2928L61.6598 80.2687L64.756 79.9609L54.2255 82.2928H51.9687Z" fill="#384D54"/>
<path d="M54.2255 82.2928L57.4597 99.593L69.796 96.2833L64.756 79.9609L54.2255 82.2928Z" fill="#F09664"/>
<path d="M54.2255 82.293H51.9687L53.8491 98.9165L55.2034 98.2394L57.4597 99.5932L54.2255 82.293Z" fill="#F47249"/>
<path d="M59.0393 83.2641C59.0393 83.5062 58.8429 83.703 58.6004 83.703C58.3578 83.703 58.1615 83.5067 58.1615 83.2641C58.1615 83.0216 58.3578 82.8252 58.6004 82.8252C58.8429 82.8256 59.0393 83.022 59.0393 83.2641Z" fill="#F76B2F"/>
<path d="M62.0983 82.8261C62.3407 82.8261 62.5372 82.6296 62.5372 82.3872C62.5372 82.1448 62.3407 81.9482 62.0983 81.9482C61.8559 81.9482 61.6594 82.1448 61.6594 82.3872C61.6594 82.6296 61.8559 82.8261 62.0983 82.8261Z" fill="#F76B2F"/>
<path d="M58.6008 83.476C58.5136 83.476 58.4316 83.4216 58.4014 83.334C58.363 83.2239 58.4213 83.1035 58.5313 83.0655C59.1761 82.8411 59.1981 81.3073 59.2214 79.6828C59.2516 77.5944 59.2853 75.2272 60.5895 74.21C61.3603 73.6088 61.9641 73.7124 62.3353 73.9053C63.6775 74.6027 64.2601 77.6181 64.1647 79.527C64.0322 82.1782 61.9481 82.4989 61.927 82.5015C61.8122 82.5179 61.7047 82.4372 61.6888 82.3215C61.6728 82.2063 61.7531 82.1001 61.8679 82.0837C61.9399 82.0729 63.6283 81.7984 63.7431 79.5059C63.8324 77.7178 63.2662 74.8642 62.1406 74.2794C61.7552 74.0792 61.3327 74.1651 60.8493 74.5427C59.7048 75.4357 59.6724 77.6954 59.6439 79.6889C59.6172 81.5421 59.5943 83.1424 58.6703 83.4639C58.6474 83.4721 58.6237 83.476 58.6008 83.476Z" fill="#042C30"/>
<path d="M56.3316 85.5636L58.6008 92.0774L64.756 84.0664L56.3316 85.5636Z" fill="#EDA67E"/>
</svg>
