<?xml version="1.0" encoding="UTF-8"?>
<svg version="1.1" xmlns="http://www.w3.org/2000/svg" width="512" height="512">
<path d="M0 0 C2.20403319 1.91943909 4.38871723 3.85891282 6.5625 5.8125 C7.23796875 6.41449219 7.9134375 7.01648438 8.609375 7.63671875 C38.45984828 35.85252326 55.41913744 78.934081 56.78125 119.4296875 C57.52396682 153.99977929 49.44342967 189.06137405 29.5625 217.8125 C29.12212402 218.45058594 28.68174805 219.08867187 28.22802734 219.74609375 C18.17177521 234.10117505 6.6334269 247.27895696 -7.4375 257.8125 C-8.42234375 258.5859375 -9.4071875 259.359375 -10.421875 260.15625 C-45.11528988 286.76267126 -90.0092291 296.93700639 -133 291.6875 C-176.63403854 285.75386191 -216.8853268 262.35980244 -243.65625 227.44482422 C-249.71458507 219.3354903 -254.7920644 210.79606813 -259.4375 201.8125 C-259.75702637 201.19938965 -260.07655273 200.5862793 -260.40576172 199.95458984 C-279.9317421 161.9539495 -282.74718201 116.14845746 -270.02734375 75.6015625 C-255.8977221 32.43671952 -226.8448673 -2.3395534 -186.4375 -23.1875 C-185.81907227 -23.50702637 -185.20064453 -23.82655273 -184.56347656 -24.15576172 C-124.19561452 -54.85318864 -50.8071377 -43.44447157 0 0 Z M-213.4375 29.8125 C-242.13631258 60.99529018 -252.03429914 99.24993607 -250.4375 140.8125 C-249.98085468 146.62936453 -248.8851073 152.15578555 -247.4375 157.8125 C-247.26589355 158.50553223 -247.09428711 159.19856445 -246.91748047 159.91259766 C-244.25472338 170.48509967 -240.38130837 180.11332439 -235.4375 189.8125 C-234.96570313 190.76511719 -234.49390625 191.71773437 -234.0078125 192.69921875 C-224.89502334 210.33272319 -211.41489082 226.06568175 -195.4375 237.8125 C-194.91027344 238.20356934 -194.38304687 238.59463867 -193.83984375 238.99755859 C-169.43172596 256.87183279 -140.90551561 266.25883677 -110.6875 266.125 C-108.70907104 266.11762817 -108.70907104 266.11762817 -106.69067383 266.11010742 C-96.92853184 265.99298334 -87.88774453 265.21178488 -78.4375 262.8125 C-77.46176025 262.58699463 -77.46176025 262.58699463 -76.46630859 262.35693359 C-57.62114902 257.96383539 -39.41516614 249.04366133 -24.4375 236.8125 C-23.55094727 236.09876221 -23.55094727 236.09876221 -22.64648438 235.37060547 C6.0301222 212.1219627 24.99348072 179.09814976 29.36401367 142.23632812 C30.68360974 126.12199876 30.51660611 109.5320892 26.5625 93.8125 C26.41216309 93.16055664 26.26182617 92.50861328 26.10693359 91.83691406 C21.71323834 72.99375581 12.79241501 54.78863996 0.5625 39.8125 C-0.15123779 38.92594727 -0.15123779 38.92594727 -0.87939453 38.02148438 C-24.76225921 8.56258128 -57.87007209 -9.35384564 -95.4375 -14.1875 C-140.51945997 -16.40299468 -181.56983583 -2.8683741 -213.4375 29.8125 Z " fill="#000000" transform="translate(366.4375,130.1875)"/>
<path d="M0 0 C3.87608139 1.9380407 6.57102954 4.91386289 8 9 C7.99175478 11.8785545 7.86808855 14.63136358 7.63647461 17.49243164 C7.51604003 19.27426029 7.39777828 21.05623677 7.28137207 22.83833313 C7.21764908 23.78484552 7.15392609 24.73135792 7.08827209 25.70655251 C1.82075444 76.39524061 1.82075444 76.39524061 19.97439766 121.37961006 C28.67728719 130.86980745 39.24062698 138.8678155 50.1337738 145.64605713 C52.7429213 147.53898772 53.87962231 149.27310396 54.40625 152.453125 C54.57791154 157.57436084 54.56863792 161.08105837 51.1875 165.125 C47.56590326 168.86284553 44.25500806 169.12725459 39.1328125 169.328125 C34.11103427 168.55554373 30.61483952 164.86688653 27.1496582 161.40844727 C26.2155159 160.48060928 25.2813736 159.5527713 24.31892395 158.59681702 C23.31262099 157.58693452 22.30657965 156.57679127 21.30078125 155.56640625 C20.25925903 154.52623245 19.21744017 153.4863556 18.17533875 152.44676208 C15.99765939 150.27202432 13.8236209 148.09372802 11.65209961 145.9128418 C8.87136774 143.1207018 6.08173407 140.33765598 3.28931904 137.55720615 C1.13841855 135.41353818 -1.00768893 133.26512269 -3.1523838 131.11524773 C-4.17914946 130.08715017 -5.20739665 129.06052999 -6.23715782 128.03543282 C-7.67556371 126.60211635 -9.10686471 125.16168047 -10.5378418 123.72094727 C-11.3532695 122.90392838 -12.1686972 122.08690948 -13.00883484 121.24513245 C-17.21253491 116.50526274 -17.32433816 112.49193564 -17.41064453 106.29101562 C-17.44034332 104.97306 -17.44034332 104.97306 -17.47064209 103.628479 C-17.53384151 100.72117875 -17.58341536 97.8138149 -17.6328125 94.90625 C-17.6739956 92.87803538 -17.71598965 90.84983708 -17.75875854 88.82165527 C-17.869193 83.47361116 -17.96792906 78.12541035 -18.06445312 72.77709961 C-18.14459592 68.43937083 -18.23269995 64.10182198 -18.32132149 59.76425934 C-18.80552205 36.05847073 -18.80552205 36.05847073 -18.96692657 25.21878052 C-18.99701731 23.20009842 -19.03040146 21.18146609 -19.06414795 19.1628418 C-19.07504456 18.09525635 -19.08594116 17.0276709 -19.09716797 15.92773438 C-19.10763153 15.05129272 -19.11809509 14.17485107 -19.12887573 13.27185059 C-18.85525729 8.4484427 -17.06177302 5.29403587 -14 1.5625 C-9.39686505 -0.83496612 -5.07648075 -0.87089186 0 0 Z " fill="#000000" transform="translate(261,170)"/>
</svg>
